<?xml version="1.0" encoding="utf-8"?>
<!-- Generator: Adobe Illustrator 18.1.0, SVG Export Plug-In . SVG Version: 6.00 Build 0)  -->
<svg version="1.1" id="Layer_1" xmlns="http://www.w3.org/2000/svg" xmlns:xlink="http://www.w3.org/1999/xlink" x="0px" y="0px"
	 viewBox="0 0 512.9 512.9" enable-background="new 0 0 512.9 512.9" xml:space="preserve">
<g>
	<path d="M140.6,291.7c0,0-9.4-35.3-6.8-50.4c0,0-14.4-41-11.9-64.8c0,0,0.7-41,14-56.9c0,0,29.9-53.3,53.6-65.5
		c0,0,27.4-17.6,60.5-19.1c0,0,50-1.8,71.6,7.9c0,0,40.7,13.7,50,31c0,0,6.1,7.6,7.9,17.6c0,0,15.5,14,23.4,33.8
		c0,0,19.1,52.6,11.5,82.4c0,0-4.7,27.7-14.4,40c0,0-3.6,18-3.6,23.8s-4.3,20.5-7.2,22c0,0,3.2-65.2-0.4-87.1s-19.8-88.9-45.7-92.2
		c-25.9-3.2-120.6-4.3-123.5-10.1c0,0-43.6,4.7-64.4,34.6c0,0-14.8,22.7-13.3,46.4c0,0,1.1,29.9,0,47.5
		C142.1,232.7,136,270.1,140.6,291.7z"/>
	<g>
		<path d="M133.6,239.1c-2.1-4.7-3.8-9.5-5.4-14.3c-0.8-2.5-1.5-4.9-2.1-7.4c-0.7-2.5-1.2-5-1.7-7.5l-0.7-3.8l-0.6-3.8l-0.4-3.9
			c-0.1-1.3-0.1-2.6-0.2-3.9c-0.1-2.6-0.1-5.1-0.2-7.7c-0.1-2.6-0.1-5.1-0.1-7.7c0-2.6,0-5.2,0.1-7.7c0.1-2.6,0.2-5.2,0.3-7.7
			c0.1-1.3,0.2-2.6,0.3-3.9c0.1-1.3,0.2-2.6,0.4-3.9l0.5-3.8c0.2-1.3,0.4-2.6,0.6-3.8c0.2-1.3,0.5-2.5,0.8-3.8
			c0.3-1.3,0.5-2.5,0.9-3.8c0.3-1.3,0.7-2.5,1-3.8l1.2-3.7c0.4-1.2,1-2.4,1.4-3.6l0.7-1.8l0.9-1.8l0.9-1.8l0.4-0.9l0.5-0.8l2-3.4
			l-0.1,0.2c0.4-0.9,0.8-1.8,1.2-2.7c0.4-0.9,0.9-1.8,1.3-2.6c0.4-0.9,0.9-1.8,1.3-2.6l1.4-2.6c0.5-0.9,0.9-1.7,1.4-2.6l1.5-2.5
			l1.5-2.5c0.5-0.8,1.1-1.6,1.6-2.5l1.6-2.4c0.6-0.8,1.1-1.6,1.6-2.4l3.5-4.7c0.6-0.8,1.1-1.6,1.8-2.3l1.9-2.3l3.8-4.5l-0.1,0.1
			c0.9-1.2,1.7-2.3,2.6-3.5c0.9-1.1,1.8-2.2,2.7-3.3c0.9-1.1,1.9-2.1,2.9-3.2c1-1,2-2.1,3-3.1l3.1-3l3.2-2.8
			c1.1-0.9,2.2-1.8,3.3-2.7c1.1-0.9,2.3-1.7,3.4-2.6c1.2-0.8,2.3-1.7,3.5-2.4l3.6-2.3l3.7-2.1c0.6-0.3,1.2-0.7,1.9-1l1.9-0.9
			c1.3-0.6,2.6-1.3,3.9-1.9l4-1.6c0.7-0.3,1.3-0.6,2-0.8l2-0.7l4.1-1.3l-0.2,0.1c3.8-1.7,7.5-2.8,11.3-3.7c1.9-0.5,3.8-0.9,5.8-1.3
			c1.9-0.3,3.9-0.7,5.8-1l5.8-0.7l5.9-0.5c3.9-0.2,7.8-0.4,11.7-0.4c3.9-0.1,7.8,0.2,11.7,0.3c2,0.1,3.9,0.3,5.8,0.4
			c1.9,0.2,3.9,0.3,5.8,0.5l5.8,0.7l2.9,0.4c1,0.1,1.9,0.3,2.9,0.5l11.5,1.9c3.9,0.7,7.7,1.6,11.5,2.7c3.8,1.1,7.5,2.3,11.2,3.7
			c3.7,1.4,7.3,2.9,10.8,4.6c3.5,1.7,6.9,3.7,10.3,5.8c3.3,2.1,6.5,4.5,9.4,7c3,2.5,5.7,5.4,8.2,8.5c2.5,3,4.6,6.4,6.5,9.8l1.3,2.6
			c0.4,0.9,0.8,1.8,1.1,2.7l0.6,1.4l0.5,1.4l0.9,2.8l-0.3-0.4c0.9,0.7,1.6,1.4,2.4,2.1l2.2,2.3c0.7,0.7,1.4,1.6,2,2.4l2,2.4l3.6,5
			c0.6,0.8,1.1,1.7,1.7,2.6l1.6,2.6c0.5,0.9,1.1,1.7,1.6,2.6l1.5,2.7l2.9,5.5c0.5,0.9,0.9,1.9,1.3,2.8l1.3,2.8l2.6,5.6l0,0l0,0
			c1.3,4.7,2.4,9.5,3.3,14.3c1,4.8,1.8,9.6,2.5,14.4c0.7,4.8,1.3,9.7,1.7,14.5c0.2,2.4,0.4,4.9,0.5,7.3c0.1,2.4,0.2,4.9,0.3,7.3
			c0,1.2,0,2.4,0,3.7c0,1.2,0,2.4-0.1,3.7c-0.1,2.4-0.2,4.9-0.4,7.3c-0.2,2.4-0.5,4.9-0.9,7.3c-0.4,2.4-0.8,4.8-1.4,7.2
			c-0.3,1.2-0.6,2.4-0.9,3.6c-0.3,1.2-0.7,2.4-1.1,3.5c-0.7,2.4-1.4,4.7-2.2,7c-0.8,2.3-1.7,4.6-2.8,6.8c-1.1,2.2-2.2,4.4-3.9,6.4
			l0.1-0.6c0.2,0.5,0.5,0.9,0.9,1.3c0.4,0.4,0.8,0.7,1.3,1c0.5,0.2,1,0.4,1.5,0.4c0.5,0.1,1.1,0,1.6-0.1c0.5-0.1,1.1-0.3,1.6-0.6
			c0.5-0.2,1.1-0.5,1.6-0.8c0.6-0.2,1.2-0.5,1.8-0.7c0.6-0.2,1.2-0.4,1.8-0.5c0.3-0.1,0.6-0.1,0.9-0.2c0.3-0.1,0.6-0.1,1-0.1
			c0.6-0.1,1.3,0,1.9,0l1,0.2c0.3,0.1,0.6,0.2,1,0.3c0.3,0.1,0.6,0.3,0.9,0.5c0.3,0.2,0.6,0.4,0.8,0.6l0.4,0.3
			c0.1,0.1,0.2,0.3,0.3,0.4c0.2,0.3,0.4,0.5,0.6,0.8l0.5,0.9l0.3,0.9c0.1,0.3,0.2,0.6,0.2,0.9l0.2,1c0.1,0.6,0.1,1.3,0.1,1.9l0,0.1
			l-0.1,0.2c-0.7,1.7-1.3,3.5-1.9,5.2c-0.6,1.8-1.1,3.5-1.4,5.3c-0.2,0.9-0.3,1.8-0.2,2.6c0,0.2,0,0.4,0.1,0.6l0.2,0.7l0.3,1.4
			c0.5,1.8,0.7,3.7,1,5.6l0.2,2.8l0.1,1.4c0,0.5,0,0.9,0,1.4l0,2.8c0,0.9,0,1.9-0.1,2.8l-0.4,5.6c-0.1,1.9-0.5,3.7-0.7,5.6
			c-0.3,1.9-0.4,3.7-0.8,5.6l-1,5.5l-0.5,2.8c-0.2,0.9-0.3,1.8-0.6,2.8c-0.5,1.9-1.1,3.6-1.8,5.4c-0.7,1.8-1.5,3.5-2.4,5.2
			c-0.4,0.8-0.9,1.7-1.4,2.5c-0.5,0.8-1,1.6-1.6,2.4c-0.5,0.8-1.2,1.5-1.7,2.3c-0.6,0.7-1.3,1.4-1.9,2.2c-0.7,0.7-1.4,1.3-2.1,2
			L403,339l0.4-0.6c-0.1,0.4-0.2,0.8-0.3,1.1c-0.1,0.4-0.3,0.7-0.4,1.1c-0.3,0.7-0.6,1.4-1,2.1c-0.2,0.3-0.4,0.7-0.6,1
			c-0.2,0.3-0.4,0.6-0.7,0.9c-0.2,0.3-0.5,0.6-0.7,0.9c-0.3,0.3-0.5,0.6-0.8,0.8l-0.9,0.8l-1,0.7c-0.3,0.2-0.7,0.4-1.1,0.6l-0.5,0.3
			c-0.2,0.1-0.4,0.1-0.6,0.2c-0.4,0.1-0.8,0.3-1.2,0.3l-1.2,0.2c-0.4,0.1-0.8,0.1-1.2,0.1l-1.2,0l-0.1,0l-0.2-0.1
			c-0.4-0.2-0.7-0.3-1.1-0.5c-0.3-0.2-0.7-0.3-1-0.5c-0.7-0.4-1.3-0.8-2-1.2c-0.6-0.5-1.3-1-1.8-1.6c-0.1-0.2-0.3-0.3-0.4-0.5
			c-0.1-0.2-0.3-0.4-0.4-0.6c-0.1-0.2-0.2-0.4-0.3-0.6l-0.2-0.7l2.3-0.1c-0.6,6.2-1.5,12.2-2.5,18.3c-0.5,3-1.1,6.1-1.7,9.1
			c-0.6,3-1.3,6-2.1,9c-0.4,1.5-0.8,3-1.3,4.5c-0.5,1.5-0.9,3-1.5,4.4c-1.1,2.9-2.2,5.8-3.8,8.6l-1.2,2.1l-1.1,1.9
			c-0.8,1.3-1.4,2.7-2.1,4c-1.4,2.7-2.7,5.5-4,8.3l-2,4.2l-2.1,4.1l-2.2,4.1c-0.7,1.4-1.6,2.7-2.3,4c-0.8,1.4-1.7,2.6-2.5,3.9
			l-1.3,1.9l-1.4,1.9l-1.4,1.9l-0.7,0.9l-0.8,0.9l-3,3.6c-1,1.2-2.2,2.3-3.2,3.4l-1.6,1.7l-1.7,1.6c-1.2,1-2.3,2.1-3.5,3.1l-3.7,2.9
			l-1.8,1.4l-1.9,1.3l-3.9,2.6c-0.6,0.5-1.3,0.8-2,1.2l-2,1.2l-4,2.3l0.2-0.2c-2,1.5-3.9,2.7-6,3.9c-2,1.2-4.1,2.2-6.3,3.2
			c-2.1,1-4.3,1.8-6.5,2.6c-1.1,0.4-2.2,0.7-3.3,1.1l-3.4,1l-3.4,0.8l-3.4,0.7l-3.5,0.6l-3.5,0.4c-2.3,0.2-4.6,0.5-7,0.5
			c-2.3,0.1-4.7,0.1-7,0.1l-3.5-0.2c-1.2,0-2.3-0.2-3.5-0.3c-2.3-0.2-4.6-0.5-6.9-0.8l-3.4-0.6l-1.7-0.3l-1.7-0.4l-3.4-0.8
			c-1.1-0.3-2.2-0.6-3.4-0.9c-2.3-0.6-4.5-1.3-6.7-2c-1.1-0.3-2.2-0.7-3.3-1.1l-3.3-1.2c-2.2-0.8-4.3-1.7-6.4-2.6l-6.3-2.9l-0.1,0
			l-0.1-0.1c-2.6-1.9-5-3.8-7.4-5.9c-1.2-1-2.4-2-3.5-3.1c-1.1-1.1-2.3-2.1-3.4-3.2c-1.1-1.1-2.2-2.2-3.3-3.3l-3.2-3.4
			c-1-1.2-2-2.4-3-3.6c-0.5-0.6-1-1.2-1.5-1.8l-1.4-1.9c-0.9-1.2-1.9-2.5-2.8-3.7l-2.6-3.9l-1.3-1.9l-1.2-2l-2.4-4
			c-0.8-1.3-1.5-2.8-2.2-4.1c-0.7-1.4-1.5-2.7-2.1-4.2l-1.9-4.3c-0.6-1.4-1.3-2.8-1.8-4.3l-1.5-4.4c-0.3-0.7-0.5-1.5-0.8-2.2
			l-0.6-2.3l-1.2-4.5l-0.3-1.1l-0.2-0.6l-0.1-0.6l-0.4-2.3l-3.5-18.1l-6.9-36.3l2.2,0.2c-0.5,1.2-1.1,2.2-1.9,3.1
			c-0.7,1-1.6,1.8-2.5,2.6c-0.5,0.3-1,0.7-1.6,1l-0.8,0.4c-0.3,0.1-0.6,0.2-0.9,0.3c-0.6,0.2-1.2,0.3-1.8,0.4c-0.6,0.1-1.3,0-1.9,0
			c-0.6,0-1.2-0.2-1.8-0.3c-0.6-0.1-1.2-0.3-1.7-0.5l-0.8-0.3c-0.3-0.1-0.5-0.3-0.8-0.4l-1.6-0.9l-1.4-1c-0.2-0.2-0.5-0.3-0.7-0.5
			l-0.7-0.6c-0.4-0.4-0.9-0.8-1.3-1.2l-1.2-1.3c-0.4-0.4-0.7-0.9-1.1-1.3c-0.4-0.5-0.7-0.9-1-1.4c-0.3-0.5-0.7-1-1-1.4l-0.9-1.5
			c-0.5-1-1.1-2-1.6-3c-0.5-1-1-2.1-1.4-3.1l-1.4-3.1c-0.5-1-0.9-2-1.4-3c-0.5-1-1.1-1.9-1.7-2.8c-0.3-0.4-0.6-0.9-1-1.3l-1.1-1.2
			l-0.2-0.2l-0.1-0.2c-2.2-7.9-4.2-15.8-5.9-23.8c-0.4-2-0.8-4-1.1-6.1l-0.5-3.1c-0.1-1-0.2-2.1-0.3-3.1l0-1.6
			c0-0.5,0.1-1.1,0.1-1.6c0.1-1,0.4-2,0.5-3c0.3-2,0.6-4,0.8-6c0.5-4,0.9-8.1,1.1-12.2c0.1-2,0.2-4.1,0.1-6.1l-0.1-0.7L107,247
			c0-0.1,0-0.3,0-0.4c0-0.3,0-0.6,0.1-0.8c0-0.3,0.1-0.5,0.2-0.8c0.3-1,0.9-2,1.6-2.8c1.5-1.6,3.7-2.3,5.8-2.2c2.1,0,4.1,0.6,6,1.4
			c0.9,0.4,1.9,0.9,2.8,1.3c0.9,0.4,1.9,0.6,2.9,0.7c1,0.1,2,0,2.8-0.5c0.8-0.5,1.4-1.3,1.8-2.3l0-0.1l0.1,0L133.6,239.1z
			 M134,239.2l-2.6,1.5l0.1-0.1c-0.4,1-1,1.9-1.9,2.5c-0.9,0.6-2,0.7-3.1,0.6c-1.1-0.1-2.1-0.3-3-0.7c-1-0.4-1.8-0.9-2.8-1.2
			c-1.9-0.7-3.9-1.2-5.8-1.2c-2,0-4,0.7-5.3,2.1c-0.7,0.7-1.1,1.6-1.4,2.5c-0.1,0.2-0.1,0.5-0.2,0.7c0,0.2-0.1,0.5-0.1,0.7
			c0,0.1,0,0.2,0,0.3l0.1,0.4l0.1,0.8c0.2,2.1,0.1,4.1,0,6.2c-0.2,4.1-0.5,8.2-0.9,12.3c-0.2,2-0.4,4.1-0.7,6.1c-0.1,1-0.4,2-0.5,3
			c0,0.5-0.1,0.9-0.1,1.4l0.1,1.5c0.1,1,0.2,2,0.3,3l0.5,3c0.4,2,0.8,4,1.2,6c1.8,7.9,3.9,15.8,6.2,23.7l-0.2-0.4l1.2,1.3
			c0.4,0.5,0.7,0.9,1.1,1.4c0.7,1,1.3,1.9,1.8,3c0.5,1,1,2,1.5,3.1l1.4,3.1c0.5,1,0.9,2,1.4,3c0.5,1,1,2,1.5,2.9l0.8,1.4
			c0.3,0.5,0.6,0.9,0.9,1.3c0.3,0.5,0.6,0.9,1,1.3c0.4,0.4,0.7,0.9,1,1.2l1.1,1.2c0.4,0.4,0.8,0.7,1.2,1l0.6,0.5
			c0.2,0.2,0.5,0.3,0.7,0.5l1.4,1l1.4,0.7c0.2,0.1,0.5,0.3,0.7,0.4l0.7,0.3c0.5,0.2,1,0.4,1.5,0.4c0.5,0.1,1,0.3,1.5,0.2
			c0.5,0,1,0.1,1.5,0c0.5-0.1,1-0.1,1.4-0.3c0.2-0.1,0.5-0.1,0.7-0.2l0.7-0.3c0.5-0.2,0.8-0.5,1.2-0.8c0.8-0.6,1.5-1.4,2.1-2.2
			c0.6-0.8,1.2-1.8,1.6-2.6l1.5-3.3l0.7,3.6l7.2,36.2l3.6,18.1l0.4,2.3l0.1,0.6l0.1,0.5l0.3,1.1l1.2,4.4l0.6,2.2
			c0.2,0.7,0.5,1.4,0.8,2.1l1.5,4.3c0.5,1.4,1.1,2.8,1.7,4.2l1.8,4.2c0.6,1.4,1.4,2.7,2.1,4.1c0.7,1.3,1.4,2.7,2.2,4l2.4,3.9
			l1.2,1.9l1.3,1.9l2.6,3.8c0.9,1.2,1.8,2.4,2.8,3.6l1.4,1.8c0.5,0.6,1,1.2,1.5,1.8c1,1.2,2,2.3,3,3.5l3.1,3.4
			c1,1.1,2.1,2.2,3.2,3.3c1.1,1.1,2.2,2.1,3.3,3.2c1.1,1.1,2.2,2.1,3.4,3c2.3,2,4.7,3.9,7.1,5.6l-0.2-0.1l6.2,2.8
			c2.1,0.8,4.2,1.8,6.3,2.6l3.2,1.2c1.1,0.4,2.1,0.8,3.2,1.1c2.2,0.7,4.3,1.4,6.5,1.9c1.1,0.3,2.2,0.6,3.3,0.9l3.3,0.7l1.7,0.4
			l1.7,0.3l3.3,0.6c2.2,0.3,4.5,0.6,6.7,0.8c1.1,0.1,2.3,0.2,3.4,0.3l3.4,0.1c2.3,0,4.5,0.1,6.8-0.1c2.3-0.1,4.5-0.3,6.8-0.5
			l3.4-0.4l3.3-0.6l3.3-0.7l3.3-0.8l3.3-0.9c1.1-0.4,2.1-0.7,3.2-1.1c2.1-0.8,4.2-1.6,6.3-2.5c2.1-0.9,4.1-1.9,6-3
			c1.9-1.1,3.9-2.3,5.6-3.6l0.1-0.1l0.1-0.1l3.9-2.3l2-1.1c0.7-0.4,1.3-0.7,1.9-1.2l3.8-2.5l1.9-1.3l1.8-1.4l3.6-2.8
			c1.1-1,2.3-2,3.4-3l1.7-1.5l1.6-1.6c1-1.1,2.1-2.2,3.1-3.3l2.9-3.5l0.7-0.9l0.7-0.9l1.4-1.8l1.4-1.8l1.3-1.9
			c0.8-1.3,1.7-2.5,2.5-3.8c0.8-1.3,1.6-2.6,2.3-3.9l2.2-4l2.1-4.1l2-4.1c1.3-2.8,2.6-5.5,4-8.3c0.7-1.4,1.4-2.8,2.2-4.1l1.2-2
			l1.1-1.9c1.4-2.6,2.6-5.4,3.6-8.2c0.5-1.4,1-2.9,1.4-4.3c0.5-1.4,0.8-2.9,1.3-4.4c0.8-2.9,1.5-5.9,2.2-8.9c0.7-3,1.2-6,1.8-9
			c1.1-6,2-12.1,2.7-18.1l0.6-4.9l1.8,4.8c0,0.1,0.1,0.2,0.1,0.3c0,0.1,0.1,0.2,0.2,0.3c0,0.1,0.1,0.2,0.2,0.3
			c0.1,0.1,0.2,0.2,0.3,0.3c0.4,0.5,0.9,0.9,1.4,1.3c0.5,0.4,1.1,0.7,1.7,1.1c0.3,0.2,0.6,0.3,0.9,0.5c0.3,0.1,0.6,0.3,0.9,0.4
			l-0.3-0.1l1,0c0.3,0,0.7,0,1,0l1-0.1c0.3-0.1,0.6-0.2,0.9-0.3c0.2,0,0.3-0.1,0.5-0.1l0.4-0.2c0.3-0.2,0.6-0.2,0.9-0.4l0.8-0.5
			l0.7-0.6c0.3-0.2,0.5-0.5,0.7-0.7c0.2-0.2,0.4-0.5,0.6-0.8c0.2-0.3,0.4-0.5,0.6-0.8c0.2-0.3,0.4-0.6,0.5-0.9
			c0.3-0.6,0.6-1.2,0.9-1.8c0.1-0.3,0.2-0.6,0.4-0.9c0.1-0.3,0.2-0.7,0.3-0.9l0.1-0.4l0.3-0.2l2.1-1.7c0.7-0.6,1.3-1.2,2-1.9
			c0.6-0.7,1.2-1.3,1.8-2c0.6-0.7,1.2-1.4,1.7-2.1c0.5-0.7,1.1-1.5,1.5-2.3c0.5-0.8,1-1.5,1.4-2.3c0.9-1.6,1.7-3.2,2.4-4.9
			c0.7-1.7,1.3-3.4,1.8-5.2c0.2-0.8,0.4-1.8,0.6-2.7l0.5-2.7l1-5.5c0.3-1.8,0.5-3.7,0.8-5.5c0.2-1.8,0.6-3.7,0.7-5.5l0.4-5.5
			c0.1-0.9,0.1-1.8,0.1-2.8l0-2.8c0-0.5,0-0.9,0-1.4l-0.1-1.4l-0.2-2.8c-0.2-1.8-0.5-3.6-0.9-5.4l-0.3-1.4l-0.2-0.7
			c-0.1-0.3-0.1-0.5-0.1-0.8c0-1,0.1-2,0.3-3c0.4-1.9,0.9-3.7,1.5-5.5c0.6-1.8,1.3-3.5,2-5.3l-0.1,0.3c0-0.6,0-1.2-0.1-1.7l-0.1-0.8
			c0-0.3-0.1-0.6-0.2-0.8l-0.3-0.8l-0.4-0.7c-0.1-0.3-0.3-0.4-0.5-0.7l-0.2-0.3l-0.3-0.3c-0.2-0.2-0.4-0.4-0.6-0.5
			c-0.2-0.1-0.4-0.3-0.7-0.4c-0.3-0.1-0.5-0.2-0.8-0.3l-0.8-0.2c-0.6,0-1.1-0.1-1.7,0c-0.6,0-1.1,0.1-1.7,0.3
			c-0.6,0.1-1.1,0.3-1.7,0.5c-0.6,0.2-1.1,0.4-1.6,0.6c-0.6,0.3-1.1,0.5-1.7,0.8c-0.6,0.3-1.2,0.5-1.8,0.6c-0.6,0.1-1.3,0.2-2,0.1
			c-0.7,0-1.3-0.3-2-0.6c-0.6-0.3-1.1-0.8-1.6-1.3c-0.4-0.5-0.8-1-1.1-1.7l-0.1-0.3l0.2-0.3c1.5-1.8,2.7-3.9,3.7-6.1
			c1-2.2,1.9-4.4,2.8-6.7c0.8-2.3,1.6-4.6,2.2-6.9c0.3-1.2,0.7-2.3,1.1-3.5c0.4-1.2,0.6-2.3,0.9-3.5c0.6-2.4,1-4.7,1.4-7.1
			c0.4-2.4,0.7-4.8,0.9-7.2c0.2-2.4,0.4-4.8,0.4-7.3c0.1-1.2,0.1-2.4,0.1-3.6c0-1.2,0-2.4,0-3.6c0-2.4-0.1-4.9-0.2-7.3
			c-0.1-2.4-0.3-4.9-0.5-7.3c-0.4-4.8-1.1-9.7-1.8-14.5c-0.7-4.8-1.6-9.6-2.6-14.4c-1-4.8-2.1-9.5-3.4-14.2l0,0.1l-2.6-5.6l-1.3-2.8
			c-0.4-0.9-0.8-1.9-1.3-2.8l-2.9-5.4l-1.5-2.7c-0.5-0.9-1.1-1.7-1.6-2.6l-1.7-2.6c-0.6-0.8-1.1-1.8-1.7-2.6l-3.6-4.9l-2-2.3
			c-0.7-0.8-1.3-1.6-2-2.3l-2.1-2.2c-0.8-0.6-1.5-1.4-2.3-2l-0.2-0.1l-0.1-0.2l-0.9-2.7l-0.5-1.4l-0.6-1.3c-0.4-0.9-0.7-1.8-1.1-2.6
			l-1.3-2.6c-1.8-3.3-3.9-6.6-6.4-9.5c-2.5-2.9-5.1-5.7-8.1-8.1c-2.9-2.5-6-4.8-9.3-6.8c-3.3-2-6.6-3.9-10.1-5.5
			c-3.5-1.6-7-3.1-10.7-4.4c-3.6-1.3-7.3-2.5-11-3.5c-3.7-1-7.5-1.9-11.3-2.5l-11.5-1.9c-1-0.1-1.9-0.3-2.9-0.5l-2.9-0.4l-5.8-0.7
			c-1.9-0.2-3.9-0.3-5.8-0.5c-1.9-0.1-3.8-0.4-5.8-0.4c-3.9-0.1-7.7-0.4-11.6-0.3c-3.9-0.1-7.7,0.2-11.6,0.4l-5.8,0.5l-5.7,0.7
			l-5.7,1c-1.9,0.4-3.8,0.7-5.6,1.2c-3.7,0.9-7.5,2-10.8,3.5l-0.1,0l-0.1,0l-4,1.3l-2,0.6c-0.7,0.2-1.3,0.5-1.9,0.8l-3.9,1.6
			c-1.3,0.6-2.5,1.2-3.8,1.8l-1.9,0.9c-0.6,0.3-1.2,0.7-1.8,1l-3.6,2l-3.5,2.3c-1.2,0.7-2.3,1.6-3.4,2.4c-1.1,0.8-2.3,1.6-3.4,2.5
			c-1.1,0.9-2.2,1.7-3.3,2.6l-3.2,2.8l-3.1,2.9c-1,1-2,2-2.9,3c-0.9,1-1.9,2-2.8,3.1c-0.9,1.1-1.8,2.1-2.7,3.2
			c-0.9,1.1-1.7,2.2-2.5,3.3l0,0.1l-0.1,0.1l-3.7,4.4l-1.9,2.2c-0.6,0.7-1.2,1.5-1.8,2.3l-3.5,4.6c-0.6,0.8-1.1,1.6-1.6,2.4
			l-1.6,2.4c-0.5,0.8-1.1,1.6-1.6,2.4l-1.5,2.5l-1.5,2.5c-0.5,0.8-1,1.7-1.4,2.5l-1.4,2.5c-0.5,0.8-0.9,1.7-1.4,2.6
			c-0.4,0.9-0.9,1.7-1.3,2.6c-0.4,0.9-0.8,1.7-1.2,2.6l0,0.1l-0.1,0.1l-2,3.2l-0.5,0.8l-0.4,0.8l-0.9,1.7l-0.9,1.7l-0.7,1.8
			c-0.5,1.2-1,2.3-1.4,3.5l-1.2,3.6c-0.4,1.2-0.7,2.4-1,3.7c-0.4,1.2-0.6,2.5-0.9,3.7c-0.3,1.2-0.6,2.5-0.8,3.7
			c-0.2,1.3-0.5,2.5-0.7,3.8l-0.5,3.8c-0.2,1.3-0.3,2.5-0.4,3.8c-0.1,1.3-0.2,2.5-0.3,3.8c-0.2,2.6-0.3,5.1-0.4,7.7
			c-0.1,2.6-0.1,5.1-0.2,7.7c0,2.6,0,5.1,0,7.7c0,2.6,0,5.1,0.1,7.7c0.1,1.3,0.1,2.6,0.2,3.8l0.3,3.8l0.5,3.8l0.6,3.8
			c0.5,2.5,1,5,1.6,7.5c0.6,2.5,1.3,5,2,7.4c1.5,4.9,3.1,9.8,5.1,14.5L134,239.2z"/>
	</g>
	<path d="M285.4,230.5c0,0,7.9-10.1,22.3-13c14.4-2.9,47.5-16.9,68,7.2l3.6,6.8c0,0-38.9-10.8-59.4-2.9
		C319.9,228.7,299,237.4,285.4,230.5z"/>
	<path d="M154.7,220.4c0,0,14-17.6,28.1-14.8c14,2.9,57.6,8.6,63.4,18c0,0,7.6,11.5-6.5,11.2c0,0-34.2-6.1-42.5-13l2.2,4.3
		C199.3,226.2,184.2,217.9,154.7,220.4z"/>
	<g>
		<path d="M360.6,233c0,0,0.8-0.3,2-0.6c0.3-0.1,0.6-0.2,1-0.2c0.3-0.1,0.7-0.1,1.1-0.1c0.8-0.1,1.6-0.1,2.5-0.2
			c0.8,0.1,1.7,0.1,2.4,0.2c0.4,0,0.8,0.1,1.1,0.2c0.3,0.1,0.7,0.2,1,0.3c1.2,0.3,2,0.6,2,0.6s-0.8,0-2.1-0.1c-0.3,0-0.6,0-1-0.1
			c-0.3-0.1-0.7,0-1.1,0c-0.8,0-1.6-0.1-2.4-0.1c-0.8,0-1.6,0.1-2.3,0.1c-0.4,0-0.7,0-1.1,0c-0.3,0-0.7,0.1-1,0.1
			C361.4,233,360.6,233,360.6,233z"/>
	</g>
	<g>
		<path d="M367.1,235c0,0,0.6-0.2,1.5-0.4c0.5-0.1,1-0.2,1.6-0.2c0.6,0,1.2-0.1,1.8-0.1c0.6,0,1.2,0.1,1.8,0.2
			c0.6,0.1,1.1,0.2,1.6,0.3c0.9,0.2,1.5,0.5,1.5,0.5s-0.6,0.1-1.5,0.1c-0.2,0-0.5,0-0.7,0c-0.3,0-0.5,0-0.8,0c-0.6,0-1.2,0-1.8,0
			c-0.6,0-1.2,0-1.8,0c-0.3,0-0.6,0-0.8,0c-0.3,0-0.5,0-0.7,0C367.7,235.1,367.1,235,367.1,235z"/>
	</g>
	<g>
		<path fill="#333333" d="M302.6,104.5c0,0-0.7-0.2-2-0.6c-1.3-0.4-3.2-1-5.6-1.7c-2.4-0.7-5.4-1.4-8.8-2.2
			c-3.4-0.8-7.3-1.5-11.5-2.3c-1.1-0.2-2.1-0.3-3.2-0.5c-1.1-0.1-2.2-0.3-3.4-0.5c-2.3-0.3-4.7-0.5-7.1-0.8
			c-1.2-0.1-2.5-0.2-3.7-0.3c-1.3-0.1-2.5-0.2-3.8-0.2c-1.3-0.1-2.6-0.1-3.9-0.2c-1.3,0-2.6,0-4-0.1c-2.7-0.1-5.4,0.1-8.1,0.1
			c-1.4,0.1-2.7,0.2-4.1,0.3c-1.4,0.1-2.8,0.1-4.1,0.3c-1.4,0.2-2.8,0.3-4.2,0.5c-1.4,0.1-2.8,0.4-4.2,0.6c-1.4,0.3-2.8,0.4-4.2,0.7
			l-4.1,0.9c-1.4,0.3-2.7,0.7-4.1,1c-1.4,0.4-2.7,0.7-4.1,1.1c-1.3,0.4-2.7,0.9-4,1.3c-1.3,0.5-2.7,0.8-3.9,1.4
			c-5.1,2.1-10.2,4.2-14.8,6.9c-1.2,0.7-2.3,1.3-3.4,1.9c-0.6,0.3-1.1,0.7-1.7,1c-0.5,0.3-1.1,0.7-1.6,1c-2.1,1.4-4.3,2.7-6.2,4.2
			c-1,0.7-1.9,1.5-2.9,2.2c-0.5,0.4-0.9,0.7-1.4,1.1c-0.5,0.4-0.9,0.8-1.3,1.1c-1.8,1.5-3.5,2.9-5.1,4.3c-1.6,1.4-3,2.9-4.4,4.3
			c-0.7,0.7-1.4,1.3-2.1,2c-0.7,0.7-1.2,1.3-1.8,2c-1.2,1.3-2.3,2.5-3.3,3.6c-0.5,0.6-1,1.1-1.5,1.6c-0.4,0.5-0.9,1.1-1.3,1.5
			c-1.6,2-2.9,3.5-3.8,4.5c-0.9,1-1.4,1.6-1.4,1.6s0.4-0.6,1.1-1.8c0.7-1.2,1.7-2.9,3.1-5c0.3-0.5,0.7-1.1,1.1-1.7
			c0.4-0.6,0.8-1.2,1.3-1.8c0.9-1.3,1.9-2.6,2.9-4c0.5-0.7,1.1-1.5,1.7-2.2c0.6-0.7,1.2-1.5,1.9-2.2c1.3-1.5,2.7-3.1,4.1-4.8
			c1.6-1.6,3.2-3.2,4.9-4.9c0.4-0.4,0.8-0.9,1.3-1.3c0.5-0.4,0.9-0.8,1.4-1.2c0.9-0.8,1.9-1.6,2.9-2.4c1.9-1.7,4-3.2,6.2-4.8
			c1.1-0.8,2.1-1.6,3.3-2.3c1.2-0.7,2.3-1.4,3.5-2.2c2.3-1.5,4.9-2.8,7.4-4.1c0.6-0.3,1.3-0.7,1.9-1c0.6-0.3,1.3-0.6,2-0.9
			c1.3-0.6,2.7-1.1,4-1.7c1.3-0.6,2.7-1,4.1-1.6c1.4-0.5,2.8-1,4.2-1.5c1.4-0.4,2.8-0.8,4.3-1.2c1.4-0.4,2.9-0.8,4.3-1.1l4.4-0.9
			c1.4-0.3,2.9-0.5,4.4-0.7c1.5-0.2,2.9-0.5,4.4-0.6c1.5-0.1,2.9-0.3,4.4-0.4c2.9-0.3,5.8-0.3,8.6-0.4c2.8,0,5.7,0,8.4,0.2
			c5.5,0.2,10.8,0.9,15.8,1.6c5,0.8,9.6,1.8,13.9,2.9c2.1,0.5,4.1,1.1,6.1,1.7c1.9,0.6,3.7,1.2,5.4,1.8c3.4,1.1,6.2,2.3,8.6,3.3
			C300.1,103.1,302.6,104.5,302.6,104.5z"/>
	</g>
	<g>
		<path fill="#333333" d="M308.4,103.6c0,0-0.6-0.3-1.9-0.9c-1.2-0.6-3-1.4-5.3-2.4c-2.3-1-5.1-2.1-8.4-3.3c-3.3-1.2-7-2.4-11.1-3.7
			c-4.1-1.3-8.5-2.4-13.3-3.5c-2.4-0.5-4.8-1.1-7.3-1.4c-1.3-0.2-2.5-0.4-3.8-0.7c-1.3-0.2-2.6-0.4-3.9-0.5c-1.3-0.2-2.6-0.3-4-0.5
			c-1.3-0.1-2.7-0.3-4-0.4c-1.4-0.1-2.7-0.1-4.1-0.2l-2.1-0.1l-2.1,0c-1.4,0-2.8,0-4.2-0.1c-1.4,0-2.8,0.1-4.2,0.1
			c-2.8,0-5.6,0.4-8.4,0.6c-1.4,0.1-2.8,0.4-4.2,0.5c-1.4,0.2-2.8,0.4-4.1,0.6c-1.4,0.3-2.7,0.5-4.1,0.8l-2,0.4
			c-0.7,0.1-1.3,0.3-2,0.5c-2.7,0.7-5.3,1.3-7.9,2.2c-1.3,0.4-2.6,0.8-3.8,1.2c-1.3,0.4-2.5,1-3.7,1.4c-1.2,0.5-2.4,1-3.6,1.5
			c-1.2,0.5-2.3,1.1-3.5,1.6c-1.1,0.5-2.3,1.1-3.4,1.6c-1.1,0.5-2.2,1.2-3.2,1.7c-4.3,2.2-8.1,4.8-11.7,7c-1.7,1.2-3.4,2.4-4.9,3.6
			c-0.8,0.6-1.6,1.1-2.3,1.6c-0.7,0.6-1.4,1.1-2.1,1.7c-1.3,1.1-2.6,2.1-3.8,3.1c-0.6,0.5-1.2,0.9-1.7,1.4c-0.5,0.5-1,0.9-1.5,1.3
			c-1.8,1.7-3.3,3-4.3,3.9c-1,0.9-1.6,1.4-1.6,1.4s0.5-0.6,1.3-1.6c0.9-1,2.1-2.6,3.7-4.5c0.4-0.5,0.8-1,1.3-1.5
			c0.5-0.5,1-1,1.5-1.6c1-1.1,2.2-2.3,3.4-3.5c0.6-0.6,1.2-1.3,1.9-1.9c0.7-0.6,1.4-1.3,2.2-1.9c1.5-1.3,3.1-2.7,4.7-4.1
			c1.7-1.3,3.6-2.7,5.4-4.1c0.5-0.4,0.9-0.7,1.4-1.1c0.5-0.3,1-0.7,1.5-1c1-0.7,2.1-1.3,3.1-2c1.1-0.7,2.1-1.4,3.2-2
			c1.1-0.6,2.3-1.2,3.4-1.9c1.2-0.6,2.3-1.3,3.5-1.9c1.2-0.5,2.5-1.1,3.7-1.7c1.3-0.5,2.5-1.2,3.8-1.6c1.3-0.5,2.6-1,4-1.4
			c2.6-1.1,5.4-1.8,8.2-2.6c0.7-0.2,1.4-0.4,2.1-0.6L207,83c1.4-0.3,2.9-0.6,4.3-0.9c1.4-0.3,2.9-0.4,4.3-0.7
			c1.5-0.2,2.9-0.5,4.4-0.6c2.9-0.2,5.9-0.5,8.8-0.5c1.5,0,2.9-0.1,4.4-0.1c1.5,0,2.9,0.1,4.3,0.1l2.2,0.1c0.7,0.1,1.4,0.1,2.1,0.2
			c1.4,0.1,2.8,0.3,4.2,0.4c1.4,0.2,2.8,0.4,4.2,0.6c1.4,0.2,2.7,0.4,4.1,0.6c1.3,0.2,2.7,0.5,4,0.7c1.3,0.3,2.6,0.6,3.9,0.9
			c2.6,0.6,5,1.3,7.5,1.9c4.8,1.4,9.3,2.9,13.3,4.6c2,0.8,3.9,1.6,5.8,2.4c1.8,0.8,3.5,1.6,5.1,2.4c3.2,1.6,5.8,3.1,8,4.3
			C306.1,101.9,308.4,103.6,308.4,103.6z"/>
	</g>
	<g>
		<path fill="#333333" d="M325.2,105.5c0,0-0.6-0.5-1.6-1.3c-1.1-0.8-2.7-1.9-4.7-3.4c-4.1-2.8-10.2-6.6-17.8-10.6
			c-3.8-2-8-3.9-12.5-5.9c-2.3-0.9-4.6-1.9-7-2.7c-1.2-0.4-2.4-0.9-3.7-1.3c-1.2-0.4-2.5-0.8-3.8-1.2c-1.3-0.4-2.6-0.8-3.9-1.1
			c-1.3-0.4-2.6-0.7-3.9-1.1c-1.3-0.3-2.7-0.6-4-0.9l-2-0.5l-2.1-0.4c-1.4-0.3-2.8-0.5-4.1-0.8c-1.4-0.2-2.8-0.4-4.2-0.6
			c-2.8-0.4-5.6-0.5-8.4-0.8c-1.4-0.1-2.8-0.1-4.2-0.2c-1.4,0-2.8-0.1-4.2-0.1c-1.4,0.1-2.8,0.1-4.2,0.2l-2.1,0.1
			c-0.7,0-1.4,0.1-2.1,0.2c-2.8,0.3-5.5,0.5-8.2,1c-1.3,0.2-2.7,0.4-4,0.6c-1.3,0.2-2.6,0.6-3.9,0.9c-1.3,0.3-2.6,0.6-3.9,0.9
			c-1.3,0.3-2.5,0.7-3.7,1.1c-1.2,0.4-2.4,0.7-3.6,1.1c-1.2,0.3-2.3,0.8-3.5,1.3c-1.1,0.4-2.3,0.8-3.4,1.3c-0.6,0.2-1.1,0.4-1.7,0.6
			c-0.5,0.2-1.1,0.5-1.6,0.7c-2.1,0.9-4.1,1.8-6.1,2.7c-1.9,1-3.7,2-5.4,2.9c-0.9,0.5-1.7,0.9-2.5,1.3c-0.8,0.5-1.6,0.9-2.3,1.4
			c-1.5,0.9-2.9,1.8-4.2,2.5c-0.6,0.4-1.3,0.8-1.9,1.1c-0.6,0.4-1.1,0.8-1.6,1.1c-2,1.4-3.7,2.5-4.8,3.3c-1.1,0.8-1.7,1.2-1.7,1.2
			s0.6-0.5,1.6-1.3c1-0.8,2.6-2.1,4.5-3.7c0.5-0.4,1-0.8,1.6-1.2c0.6-0.4,1.2-0.8,1.8-1.2c1.2-0.9,2.6-1.8,4-2.8
			c0.7-0.5,1.5-1,2.2-1.5c0.8-0.5,1.6-1,2.5-1.5c1.7-1,3.5-2,5.4-3.1c1.9-1,4-2,6-3c0.5-0.3,1.1-0.5,1.6-0.8
			c0.5-0.2,1.1-0.5,1.7-0.7c1.1-0.5,2.3-0.9,3.4-1.4c1.2-0.5,2.3-1,3.5-1.4c1.2-0.4,2.4-0.8,3.7-1.2c1.2-0.4,2.5-0.8,3.8-1.2
			c1.3-0.3,2.6-0.7,3.9-1c1.3-0.3,2.6-0.7,4-1c1.4-0.2,2.7-0.5,4.1-0.7c2.7-0.6,5.6-0.8,8.4-1.1c0.7-0.1,1.4-0.2,2.1-0.2l2.2-0.1
			c1.4-0.1,2.9-0.1,4.3-0.2c1.4,0,2.9,0,4.3,0c1.4,0.1,2.9,0,4.3,0.1c2.9,0.3,5.8,0.4,8.6,0.9c1.4,0.2,2.9,0.4,4.3,0.6
			c1.4,0.3,2.8,0.5,4.2,0.8l2.1,0.4l2.1,0.5c1.4,0.3,2.7,0.7,4.1,1c1.3,0.4,2.7,0.8,4,1.2c1.3,0.4,2.6,0.8,3.9,1.2
			c1.3,0.4,2.6,0.9,3.8,1.3c1.3,0.5,2.5,1,3.7,1.4c2.4,0.9,4.7,2,7,3c4.5,2.1,8.7,4.2,12.4,6.4c3.8,2.1,7.1,4.3,10,6.3
			c2.9,2,5.4,3.8,7.3,5.3c2,1.5,3.5,2.8,4.5,3.7C324.6,105,325.2,105.5,325.2,105.5z"/>
	</g>
	<path fill="none" stroke="#000000" stroke-miterlimit="10" d="M250.2,421.6c1.5,2.2,3.1,4.4,4.6,6.5"/>
	<path fill="none" stroke="#000000" stroke-miterlimit="10" d="M255.8,423.5c0.7,0.9,1.3,1.8,2,2.8"/>
	<path fill="none" stroke="#000000" stroke-miterlimit="10" d="M260.5,425.3c0.3,0.7,0.6,1.4,0.9,2.1"/>
	<path fill="none" stroke="#000000" stroke-miterlimit="10" d="M258,430.3c-0.2,0.7,0.1,1.4,0.7,1.8"/>
	<path fill="none" stroke="#000000" stroke-miterlimit="10" d="M268.1,424.6c0,1.3-0.1,2.7-0.4,3.9"/>
	<path fill="none" stroke="#000000" stroke-miterlimit="10" d="M263.8,429.6c0,0.5,0,1,0,1.4"/>
	<path fill="none" stroke="#000000" stroke-miterlimit="10" d="M264.5,423.2c-0.2,0.5-0.3,0.9-0.5,1.4"/>
	<path fill="none" stroke="#000000" stroke-miterlimit="10" d="M269.9,421.3c0,0.2,0,0.5,0,0.7"/>
	<path fill="none" stroke="#000000" stroke-miterlimit="10" d="M267.4,433.2c-0.1,0.7-0.2,1.4-0.3,2.2"/>
	<path fill="none" stroke="#000000" stroke-miterlimit="10" d="M274.2,423.5c-0.5,0.1-1,0.6-1,1.1"/>
	<path fill="none" stroke="#000000" stroke-miterlimit="10" d="M271.3,429.2c-0.1,0.6-0.3,1.2-0.4,1.8"/>
	<path fill="none" stroke="#000000" stroke-miterlimit="10" d="M263.4,427.5c0.1,0,0.2,0,0.4,0"/>
	<path fill="none" stroke="#000000" stroke-miterlimit="10" d="M265.2,422.4c0.1,0,0.2,0,0.4,0"/>
	<path fill="none" stroke="#000000" stroke-miterlimit="10" d="M254,419.6c4.6,2.2,9.4,2.3,14.4,1.7"/>
	<path fill="none" stroke="#000000" stroke-miterlimit="10" d="M260.2,424.6c0.5,0.6,1.4,0.9,2.2,0.7c0.3,0.4-0.9,2.3-0.4,2.2
		c0.2,0.5,0.3,1,0.5,1.4"/>
	<path fill="none" stroke="#000000" stroke-miterlimit="10" d="M195.7,444.7c0,0.5,0,1,0,1.4"/>
	<path fill="none" stroke="#000000" stroke-miterlimit="10" d="M199.7,442.9c0,0.2,0,0.5,0,0.7"/>
	<path fill="none" stroke="#000000" stroke-miterlimit="10" d="M199.7,450.5c0,0.1,0,0.2,0,0.4"/>
	<path fill="none" stroke="#000000" stroke-miterlimit="10" d="M203.6,450.9c0.1,0.2,0.3,0.5,0.4,0.7"/>
	<path fill="none" stroke="#000000" stroke-miterlimit="10" d="M205.7,457.4c0.3,0.5,0.5,0.9,0.8,1.4"/>
	<path fill="none" stroke="#000000" stroke-miterlimit="10" d="M210.5,458.4c-0.1,1.4,0.1,2.9,1.1,3.9"/>
	<path fill="none" stroke="#000000" stroke-miterlimit="10" d="M213,454.1c0,0.1,0,0.2,0,0.4"/>
	<path fill="none" stroke="#000000" stroke-miterlimit="10" d="M217.3,462.4c0,0.5,0,1,0,1.4"/>
	<path fill="none" stroke="#000000" stroke-miterlimit="10" d="M217,457.3c0,0.1,0,0.2,0,0.4"/>
	<path fill="none" stroke="#000000" stroke-miterlimit="10" d="M220.2,462c0.3,1.5,1,3,1.8,4.3"/>
	<path fill="none" stroke="#000000" stroke-miterlimit="10" d="M230.6,465.6c0.1,0.5,0.2,1,0.4,1.4"/>
	<path fill="none" stroke="#000000" stroke-miterlimit="10" d="M202.9,444.4c0.2,0,0.5,0,0.7,0"/>
	<path fill="none" stroke="#000000" stroke-miterlimit="10" d="M172.4,421.3c-0.1-0.2-0.3-0.5-0.4-0.7"/>
	<path fill="none" stroke="#000000" stroke-miterlimit="10" d="M233.9,462.4c0.2,0.4,0.5,0.7,0.7,1.1"/>
	<path fill="none" stroke="#000000" stroke-miterlimit="10" d="M227,461.3c0,0.1,0,0.2,0,0.4"/>
	<path fill="none" stroke="#000000" stroke-miterlimit="10" d="M226.3,465.3c0.1,1,0.2,1.9,0.4,2.9"/>
	<path fill="none" stroke="#000000" stroke-miterlimit="10" d="M235.7,468.5c0.1,0.2,0.2,0.5,0.4,0.7"/>
	<path fill="none" stroke="#000000" stroke-miterlimit="10" d="M241.8,468.1c0.2,0.5,0.5,1,0.7,1.4"/>
	<path fill="none" stroke="#000000" stroke-miterlimit="10" d="M212.9,449.1c0.1,0.4,0.2,0.7,0.3,1.1"/>
	<path fill="none" stroke="#000000" stroke-miterlimit="10" d="M216,445.8c0.2,0.6,0.4,1.2,0.6,1.8"/>
	<path fill="none" stroke="#000000" stroke-miterlimit="10" d="M246.8,465.6c0.1,0.5,0.3,0.9,0.4,1.4"/>
	<path fill="none" stroke="#000000" stroke-miterlimit="10" d="M243.3,471c-0.2,0.8,0.2,1.8,1,2.2"/>
	<path fill="none" stroke="#000000" stroke-miterlimit="10" d="M249.4,463.7c0.5,0.5,0.9,1.2,1,1.9"/>
	<path fill="none" stroke="#000000" stroke-miterlimit="10" d="M251.9,473.2c0.1,0.2,0.3,0.5,0.4,0.7"/>
	<path fill="none" stroke="#000000" stroke-miterlimit="10" d="M259.5,461.9c1.3,0.8,2.5,1.9,3.4,3.1"/>
	<path fill="none" stroke="#000000" stroke-miterlimit="10" d="M257.3,466.7c0.1,0.1,0.2,0.2,0.4,0.4"/>
	<path fill="none" stroke="#000000" stroke-miterlimit="10" d="M255.9,471.7c0.3,1.1,1.4,1.8,2.5,1.8"/>
	<path fill="none" stroke="#000000" stroke-miterlimit="10" d="M260.9,470.6c0.3,0.1,0.5,0.2,0.8,0.3"/>
	<path fill="none" stroke="#000000" stroke-miterlimit="10" d="M264.8,468.5c0,0.6,0,1.2,0,1.8"/>
	<path fill="none" stroke="#000000" stroke-miterlimit="10" d="M264.8,472.8c0.1,0.4,0.2,0.7,0.3,1.1"/>
	<path fill="none" stroke="#000000" stroke-miterlimit="10" d="M267.4,465.6c0.2,0.6,0.5,1.2,0.7,1.8"/>
	<path fill="none" stroke="#000000" stroke-miterlimit="10" d="M273.2,465.6c0.5,1.3,1,2.6,1.4,4"/>
	<path fill="none" stroke="#000000" stroke-miterlimit="10" d="M278.6,466.3c-0.3,1.5,0.5,3.1,1.8,4.1"/>
	<path fill="none" stroke="#000000" stroke-miterlimit="10" d="M281,465.3c0.3,0.6,0.7,1.2,1,1.8"/>
	<path fill="none" stroke="#000000" stroke-miterlimit="10" d="M284.6,471.4c0.1,0,0.2,0,0.4,0"/>
	<path fill="none" stroke="#000000" stroke-miterlimit="10" d="M276.4,473.9c-0.5,0.2-1,0.5-1.4,0.7"/>
	<path fill="none" stroke="#000000" stroke-miterlimit="10" d="M274.2,470.7c-0.7,0-1.4,0-2.2,0"/>
	<path fill="none" stroke="#000000" stroke-miterlimit="10" d="M285.5,464c0.7,0.5,1.4,1,2.1,1.5"/>
	<path fill="none" stroke="#000000" stroke-miterlimit="10" d="M287.2,461.2c0.6,0.1,1.2,0.2,1.8,0.3"/>
	<path fill="none" stroke="#000000" stroke-miterlimit="10" d="M289.3,468.1c0,0.1,0,0.2,0,0.4"/>
	<path fill="none" stroke="#000000" stroke-miterlimit="10" d="M287.2,472.5c0.2,0,0.5,0,0.7,0"/>
	<path fill="none" stroke="#000000" stroke-miterlimit="10" d="M297.6,458.1c0.5,0,1,0,1.4,0"/>
	<path fill="none" stroke="#000000" stroke-miterlimit="10" d="M295.1,465.3c0,0.2,0,0.5,0,0.7s1.4,1.9,1.4,2.2"/>
	<path fill="none" stroke="#000000" stroke-miterlimit="10" d="M292.1,461.1c-0.3-0.3-0.7-0.5-1-0.8"/>
	<path fill="none" stroke="#000000" stroke-miterlimit="10" d="M295.4,462c0.2,0,0.5,0,0.7,0"/>
	<path fill="none" stroke="#000000" stroke-miterlimit="10" d="M300.6,464.8c0.2,0.3,0.4,0.5,0.6,0.8"/>
	<path fill="none" stroke="#000000" stroke-miterlimit="10" d="M307.3,459.1c0-0.5,0-1,0-1.4"/>
	<path fill="none" stroke="#000000" stroke-miterlimit="10" d="M307.7,451.9c-0.2-0.3-0.3-0.7-0.5-1"/>
	<path fill="none" stroke="#000000" stroke-miterlimit="10" d="M302.3,454.5c-0.2-0.2-0.5-0.5-0.7-0.7"/>
	<path fill="none" stroke="#000000" stroke-miterlimit="10" d="M225.2,454.5c0,0.1,0,0.2,0,0.4"/>
	<path fill="none" stroke="#000000" stroke-miterlimit="10" d="M228.8,455.2c-0.3-0.1-0.6,0.4-0.3,0.7"/>
	<path fill="none" stroke="#000000" stroke-miterlimit="10" d="M219.1,454.1c0,0.5,0,1,0,1.4"/>
	<path fill="none" stroke="#000000" stroke-miterlimit="10" d="M223.1,458.4c0,0.1,0,0.2,0,0.4"/>
	<path fill="none" stroke="#000000" stroke-miterlimit="10" d="M236.8,464.9c-0.1-0.3,0.4-0.6,0.7-0.3"/>
	<path fill="none" stroke="#000000" stroke-miterlimit="10" d="M241.4,458.8c0.1-0.4,0-0.8-0.3-1.1"/>
	<path fill="none" stroke="#000000" stroke-miterlimit="10" d="M314.5,450.5c0-0.4,0-0.7,0-1.1"/>
	<path fill="none" stroke="#000000" stroke-miterlimit="10" d="M319.2,440.1c0-0.4,0-0.7,0-1.1"/>
	<path fill="none" stroke="#000000" stroke-miterlimit="10" d="M310.9,438.6c0-0.1,0-0.2,0-0.4"/>
	<path fill="none" stroke="#000000" stroke-miterlimit="10" d="M330,442.6c0,0.1,0,0.2,0,0.4"/>
	<path fill="none" stroke="#000000" stroke-miterlimit="10" d="M318.6,452.7c-0.1,0.4-0.2,0.7-0.3,1.1"/>
	<path fill="none" stroke="#000000" stroke-miterlimit="10" d="M313.1,458.8c0,0.5,0,1,0,1.4"/>
	<path fill="none" stroke="#000000" stroke-miterlimit="10" d="M332.9,437.2c0,0.2,0,0.5,0,0.7"/>
	<path fill="none" stroke="#000000" stroke-miterlimit="10" d="M337.6,435.7c0.2,0,0.5,0,0.7,0"/>
	<path fill="none" stroke="#000000" stroke-miterlimit="10" d="M349.5,425.7c0.2,0,0.5,0,0.7,0"/>
	<path fill="none" stroke="#000000" stroke-miterlimit="10" d="M319.6,452.3c0,0.2,0,0.5,0,0.7"/>
	<path fill="none" stroke="#000000" stroke-miterlimit="10" d="M325.7,446.5c0.2,0.1,0.5,0.2,0.7,0.4"/>
	<path fill="none" stroke="#000000" stroke-miterlimit="10" d="M340.8,432.1c0,0.4,0,0.7,0,1.1"/>
	<path fill="none" stroke="#000000" stroke-miterlimit="10" d="M305.5,455.5c0.8,0,1.7,0,2.5,0"/>
	<path fill="none" stroke="#000000" stroke-miterlimit="10" d="M252.3,461.4c-0.4,0.7,0.2,1.8,1,1.8"/>
	<path fill="none" stroke="#000000" stroke-miterlimit="10" d="M250.5,467.5c1-0.3,1.9-0.5,2.9-0.8"/>
	<path fill="none" stroke="#000000" stroke-miterlimit="10" d="M250.6,471c-0.2,0.2-0.5,0.5-0.5,0.8c0,0.3,0.5,0.5,0.7,0.3"/>
	<path fill="none" stroke="#000000" stroke-miterlimit="10" d="M257.1,474.5c0.6,0.4,1.3,0.9,1.9,1.3"/>
	<path fill="none" stroke="#000000" stroke-miterlimit="10" d="M265.2,473.9c0.6,0.2,1.2,0.5,1.8,0.7"/>
	<path fill="none" stroke="#000000" stroke-miterlimit="10" d="M256.9,466c0.1,0.1,0.2,0.2,0.4,0.4"/>
	<path fill="none" stroke="#000000" stroke-miterlimit="10" d="M269.2,469.2c0.4,0.9,0.9,1.7,1.5,2.5"/>
	<path fill="none" stroke="#000000" stroke-miterlimit="10" d="M265.6,472.8c0.9,0.5,1.9,0.7,2.9,0.8"/>
	<path fill="none" stroke="#000000" stroke-miterlimit="10" d="M258,423.5c-0.2,0.9,0.2,2,1,2.6"/>
	<path fill="none" stroke="#000000" stroke-miterlimit="10" d="M258,429.3c-0.6,0.1-1.2,0.5-1.4,1.1"/>
	<path fill="none" stroke="#000000" stroke-miterlimit="10" d="M267,462c0.2-0.8,0.3-1.7,0.5-2.5"/>
	<path fill="none" stroke="#000000" stroke-miterlimit="10" d="M240,464.9c0.5-0.7,1-1.4,1.5-2.1"/>
	<path fill="none" stroke="#000000" stroke-miterlimit="10" d="M236,459.8c0.3-0.2,0-0.7-0.3-0.7"/>
	<path fill="none" stroke="#000000" stroke-miterlimit="10" d="M236.5,467.7c0.6,1.1,1.2,2.2,1.7,3.3"/>
	<path fill="none" stroke="#000000" stroke-miterlimit="10" d="M231.8,458c0.3,0.4,0.6,0.8,0.9,1.2"/>
	<path fill="none" stroke="#000000" stroke-miterlimit="10" d="M232.9,466.4c-0.3,1-0.5,1.9-0.8,2.9"/>
	<path fill="none" stroke="#000000" stroke-miterlimit="10" d="M232.1,471.7c0,0.2,0,0.5,0,0.7"/>
	<path fill="none" stroke="#000000" stroke-miterlimit="10" d="M245,461.7c1,0.7,1.9,1.4,2.9,2.2"/>
	<path fill="none" stroke="#000000" stroke-miterlimit="10" d="M255.2,460.1c0.6,0.5,1.1,1.1,1.7,1.6"/>
	<path fill="none" stroke="#000000" stroke-miterlimit="10" d="M268.4,457c0,0.8,0,1.7,0,2.5"/>
	<path fill="none" stroke="#000000" stroke-miterlimit="10" d="M275.3,464.2c0.1,0.1,0.2,0.2,0.4,0.4"/>
	<g>
		<path d="M208.7,396c0,0,0.4-0.2,1.1-0.6c0.7-0.4,1.7-1,3.1-1.6c2.7-1.4,6.5-3.3,11.2-5.3c2.4-1,4.9-2.1,7.7-3.1c2.8-1,5.8-2,9-2.7
			c1.6-0.3,3.3-0.6,5.2-0.6c0.5,0,1,0,1.5,0.1c0.6,0.1,0.9,0.2,1.3,0.3c0.8,0.2,1.6,0.3,2.4,0.5c3.2,0.6,6.5,0.9,9.7,1
			c3.3,0,6.6-0.2,9.7-0.7c0.8-0.1,1.6-0.3,2.3-0.5c0.8-0.2,1.6-0.4,2.4-0.6c1.8-0.4,3.5-0.5,5.2-0.6c3.3-0.1,6.6,0.2,9.6,1
			c1.5,0.4,2.9,0.8,4.3,1.4c1.3,0.6,2.5,1.1,3.7,1.6c2.3,1,4.4,2,6.4,2.7c1.9,0.7,3.6,1.3,5.1,1.6c1.4,0.3,2.6,0.5,3.4,0.6
			c0.8,0.1,1.2,0.1,1.2,0.1s-0.4,0-1.2,0.1c-0.8,0-2,0.1-3.5-0.1c-1.5-0.1-3.3-0.4-5.4-0.9c-2-0.5-4.3-1.2-6.7-2
			c-1.2-0.4-2.5-0.8-3.8-1.3c-1.2-0.4-2.6-0.7-3.9-1c-2.7-0.5-5.7-0.6-8.7-0.4c-1.5,0.1-3.1,0.3-4.4,0.7c-0.8,0.2-1.6,0.5-2.4,0.7
			c-0.8,0.2-1.7,0.4-2.5,0.6c-3.4,0.7-7,1-10.5,0.9c-3.5-0.1-7-0.5-10.4-1.2c-0.9-0.2-1.7-0.4-2.5-0.6c-0.9-0.3-1.3-0.4-2-0.4
			c-1.4-0.1-2.9,0.1-4.4,0.4c-3,0.5-6,1.3-8.8,2.1c-2.8,0.8-5.4,1.6-7.8,2.4c-4.8,1.6-8.9,2.9-11.7,3.9
			C210.3,395.4,208.7,396,208.7,396z"/>
	</g>
	<g>
		<path d="M233,406.8c0,0,0.9,0.4,2.5,1c1.6,0.6,3.8,1.4,6.6,2.2c1.4,0.4,2.9,0.8,4.5,1.1c1.6,0.4,3.3,0.6,5,1
			c1.7,0.3,3.6,0.5,5.4,0.6c1.8,0.2,3.7,0.2,5.6,0.1c1.9-0.1,3.7-0.2,5.6-0.4c0.9-0.1,1.8-0.2,2.7-0.4c0.9-0.1,1.8-0.3,2.6-0.5
			c0.4-0.1,0.9-0.2,1.3-0.3c0.4-0.1,0.8-0.2,1.2-0.3c0.8-0.2,1.6-0.4,2.4-0.7c1.6-0.5,3-1,4.3-1.5c0.7-0.3,1.3-0.5,1.9-0.8
			c0.6-0.2,1.2-0.5,1.7-0.7c1-0.5,2-0.9,2.7-1.3c1.5-0.8,2.4-1.2,2.4-1.2s-0.7,0.6-2,1.7c-0.6,0.6-1.5,1.1-2.5,1.8
			c-1,0.7-2.1,1.4-3.4,2.1c-0.7,0.3-1.3,0.7-2,1.1c-0.7,0.4-1.5,0.7-2.3,1c-0.8,0.4-1.6,0.6-2.4,0.9c-0.8,0.3-1.7,0.6-2.6,0.8
			c-0.9,0.3-1.8,0.5-2.7,0.7c-0.9,0.2-1.9,0.4-2.9,0.5c-1.9,0.3-3.9,0.4-5.9,0.5c-2,0-4,0-5.9-0.2c-1.9-0.1-3.8-0.5-5.6-0.9
			c-1.8-0.4-3.5-0.9-5.1-1.4c-1.6-0.5-3.1-1.1-4.4-1.7c-2.7-1.2-4.8-2.4-6.3-3.3C233.7,407.4,233,406.8,233,406.8z"/>
	</g>
	<g>
		<path fill="#333333" d="M378.3,95.1c0,0-0.5,0.3-1.3,0.9c-0.8,0.5-2,1.4-3.5,2.3c-1.5,0.9-3.1,2-5,3c-0.9,0.5-1.9,1.1-2.9,1.7
			c-1,0.5-2,1.1-3,1.6c-1,0.5-2,1.1-3,1.6c-1,0.5-2,1-3,1.5c-1.9,1-3.8,1.7-5.4,2.4c-0.8,0.3-1.5,0.6-2.2,0.8
			c-0.7,0.2-1.2,0.4-1.7,0.5c-1,0.3-1.5,0.5-1.5,0.5s0.5-0.2,1.4-0.6c0.5-0.2,1-0.4,1.7-0.7c0.6-0.3,1.3-0.6,2.1-1
			c0.8-0.4,1.6-0.8,2.5-1.2c0.9-0.4,1.8-0.9,2.7-1.4c0.9-0.5,1.9-1,2.9-1.5c1-0.5,2-1.1,3-1.6c4-2.2,8-4.3,11-5.9
			C376.2,96.2,378.3,95.1,378.3,95.1z"/>
	</g>
	<path fill="none" stroke="#333333" stroke-miterlimit="10" d="M249.7,357.1c0,0.2,0,0.4,0,0.5"/>
	<path fill="none" stroke="#333333" stroke-miterlimit="10" d="M246.7,354c0.5,0.2,1.1,0.3,1.6,0.2"/>
	<path fill="none" stroke="#333333" stroke-miterlimit="10" d="M250.8,355.3c0.3,0,0.6,0.1,0.8,0.3"/>
	<path fill="none" stroke="#333333" stroke-miterlimit="10" d="M252.2,358.7c0,0.2,0,0.5,0,0.7"/>
	<path fill="none" stroke="#333333" stroke-miterlimit="10" d="M249.6,360.1c-0.1,0.1-0.1,0.2-0.2,0.4"/>
	<path fill="none" stroke="#333333" stroke-miterlimit="10" d="M246.1,359.8c0,0.2,0,0.4,0,0.5"/>
	<path fill="none" stroke="#333333" stroke-miterlimit="10" d="M251.9,364.1c0.1,0.2,0.2,0.5,0.4,0.7"/>
	<path fill="none" stroke="#333333" stroke-miterlimit="10" d="M253.1,361.9c0.2,0.1,0.5,0.2,0.7,0.4"/>
	<path fill="none" stroke="#333333" stroke-miterlimit="10" d="M256.2,367.7c0.1,0.2,0.1,0.5,0.2,0.7"/>
	<path fill="none" stroke="#333333" stroke-miterlimit="10" d="M258.5,363.6c0.2,0.3,0.4,0.6,0.6,0.9"/>
	<path fill="none" stroke="#333333" stroke-miterlimit="10" d="M256.4,363.2c-0.1,0.3-0.1,0.6-0.2,0.9"/>
	<path fill="none" stroke="#333333" stroke-miterlimit="10" d="M258.5,359.4c0.2,0,0.5,0,0.7,0"/>
	<path fill="none" stroke="#333333" stroke-miterlimit="10" d="M261.6,361.6c0.1-0.1,0.1-0.1,0.2-0.2"/>
	<path fill="none" stroke="#333333" stroke-miterlimit="10" d="M260,356.2c0.5,0,1.1,0,1.6,0"/>
	<path fill="none" stroke="#333333" stroke-miterlimit="10" d="M262.1,358.5c0.1,0.4,0.3,0.8,0.6,1.1"/>
	<path fill="none" stroke="#333333" stroke-miterlimit="10" d="M265.2,359.8c0.2,0.4,0.4,0.7,0.6,1.1"/>
	<path fill="none" stroke="#333333" stroke-miterlimit="10" d="M263.2,363.7c0,0.2,0,0.4,0,0.5"/>
	<path fill="none" stroke="#333333" stroke-miterlimit="10" d="M269.9,359.4c0,0.2,0,0.4,0,0.5"/>
	<path fill="none" stroke="#333333" stroke-miterlimit="10" d="M266.6,363.4c-0.1,0.3-0.2,0.6-0.3,0.9"/>
	<path fill="none" stroke="#333333" stroke-miterlimit="10" d="M261.6,367.3c0,0.1,0,0.1,0,0.2"/>
	<path fill="none" stroke="#333333" stroke-miterlimit="10" d="M272.4,361.2c0.2,0.2,0.5,0.4,0.7,0.6"/>
	<path fill="none" stroke="#333333" stroke-miterlimit="10" d="M280.7,359.4c0,0.4,0,0.8,0,1.3"/>
	<path fill="none" stroke="#333333" stroke-miterlimit="10" d="M277.3,360.3c-0.1,0.6-0.3,1.2-0.4,1.8"/>
	<path fill="none" stroke="#333333" stroke-miterlimit="10" d="M276.2,363.9c0,0.2,0,0.4,0,0.5"/>
	<path fill="none" stroke="#333333" stroke-miterlimit="10" d="M281,363.2c0,0.1,0,0.2,0,0.4"/>
	<path fill="none" stroke="#333333" stroke-miterlimit="10" d="M283.5,362.1c0.2,0.5,0.5,1,0.7,1.4"/>
	<path fill="none" stroke="#333333" stroke-miterlimit="10" d="M284.8,366.4c0,0.1,0,0.2,0,0.4"/>
	<path fill="none" stroke="#333333" stroke-miterlimit="10" d="M287.2,363.6c0.2,0,0.5,0,0.7,0"/>
	<path fill="none" stroke="#333333" stroke-miterlimit="10" d="M288.8,366.1c0.8,0,1.6,0.1,2.3,0.1"/>
	<path fill="none" stroke="#333333" stroke-miterlimit="10" d="M290.6,362.8c0.1,0,0.1,0,0.2,0"/>
	<path fill="none" stroke="#333333" stroke-miterlimit="10" d="M292.2,365.7c0.1,0.1,0.2,0.1,0.4,0.2"/>
	<path fill="none" stroke="#333333" stroke-miterlimit="10" d="M298,367c0.4,0,0.7,0,1.1,0"/>
	<path fill="none" stroke="#333333" stroke-miterlimit="10" d="M305.7,369.6c0.3,0.2,0.6,0.4,0.9,0.6"/>
	<path fill="none" stroke="#333333" stroke-miterlimit="10" d="M307,365.7c0.3,0.1,0.6,0.2,0.9,0.4"/>
	<path fill="none" stroke="#333333" stroke-miterlimit="10" d="M301.2,364.8c0,0.2,0,0.5,0,0.7"/>
	<path fill="none" stroke="#333333" stroke-miterlimit="10" d="M303.5,367.7c0.1,0.2,0.1,0.4,0.2,0.5"/>
	<path fill="none" stroke="#333333" stroke-miterlimit="10" d="M309.3,367.9c0.1,0.2,0.1,0.4,0.2,0.5"/>
	<path fill="none" stroke="#333333" stroke-miterlimit="10" d="M312.2,368.6c0.3,0,0.6,0.1,0.5,0.4"/>
	<path fill="none" stroke="#333333" stroke-miterlimit="10" d="M312.3,366c0.1,0.2,0.2,0.4,0.3,0.6"/>
	<path fill="none" stroke="#333333" stroke-miterlimit="10" d="M315.8,370c0.2,0.2,0.4,0.5,0.6,0.7"/>
	<path fill="none" stroke="#333333" stroke-miterlimit="10" d="M318.4,370c0.2,0.3,0.5,0.6,0.7,0.9"/>
	<path fill="none" stroke="#333333" stroke-miterlimit="10" d="M319.2,373.1c0.1,0.2,0.2,0.5,0.4,0.7"/>
	<path fill="none" stroke="#333333" stroke-miterlimit="10" d="M247.7,363.5c0.2,0.3,0.3,0.6,0.5,0.9"/>
	<path fill="none" stroke="#333333" stroke-miterlimit="10" d="M244.5,364.1c-0.4,0-0.8,0-1.3,0"/>
	<path fill="none" stroke="#333333" stroke-miterlimit="10" d="M248.5,367.3c0.2,0,0.4,0,0.5,0"/>
	<path fill="none" stroke="#333333" stroke-miterlimit="10" d="M252,367.3c0.3-0.2,0.7-0.2,1.1-0.1"/>
	<path fill="none" stroke="#333333" stroke-miterlimit="10" d="M240.2,359.8c0.2,0,0.4,0,0.5,0"/>
	<path fill="none" stroke="#333333" stroke-miterlimit="10" d="M242.9,358.5c0.2,0.1,0.4,0.2,0.5,0.4"/>
	<path fill="none" stroke="#333333" stroke-miterlimit="10" d="M237.4,363c0.1,0.4,0.2,0.8,0.3,1.3"/>
	<path fill="none" stroke="#333333" stroke-miterlimit="10" d="M235.3,366.6c-0.1,0-0.1,0-0.2,0"/>
	<path fill="none" stroke="#333333" stroke-miterlimit="10" d="M227.7,365.7c-0.2,0.2-0.4,0.5-0.6,0.7"/>
	<path fill="none" stroke="#333333" stroke-miterlimit="10" d="M224.9,371.5c-0.4,0.1-0.7,0.3-1.1,0.4"/>
	<path fill="none" stroke="#333333" stroke-miterlimit="10" d="M218.2,375.1c-0.2,0.2-0.5,0.5-0.7,0.7"/>
	<path fill="none" stroke="#333333" stroke-miterlimit="10" d="M211.2,379.6c0,0.2-0.2,0.3-0.4,0.3"/>
	<path fill="none" stroke="#333333" stroke-miterlimit="10" d="M207.1,376.2c-0.1,0.1-0.1,0.1-0.2,0.2"/>
	<path fill="none" stroke="#333333" stroke-miterlimit="10" d="M203.1,381.6c0,0.1,0,0.1,0,0.2"/>
	<path fill="none" stroke="#333333" stroke-miterlimit="10" d="M200.9,385.5c0,0.1,0,0.1,0,0.2"/>
	<path fill="none" stroke="#333333" stroke-miterlimit="10" d="M197.2,383.5c0,0.2,0,0.5,0,0.7"/>
	<path fill="none" stroke="#333333" stroke-miterlimit="10" d="M197,389.3c-0.2,0.1-0.2,0.3-0.2,0.5"/>
	<path fill="none" stroke="#333333" stroke-miterlimit="10" d="M202.6,389.5c-0.1,0.1-0.1,0.2-0.2,0.4"/>
	<path fill="none" stroke="#333333" stroke-miterlimit="10" d="M213,374.5c0.4-0.2,0.8-0.5,1.3-0.7"/>
	<path fill="none" stroke="#333333" stroke-miterlimit="10" d="M220.2,374c0.3,0,0.6-0.1,0.8-0.3"/>
	<path fill="none" stroke="#333333" stroke-miterlimit="10" d="M220.2,371.3c0.1,0,0.1,0,0.2,0"/>
	<path fill="none" stroke="#333333" stroke-miterlimit="10" d="M220.9,368.9c0.2-0.4,0.7-0.5,1.1-0.3"/>
	<path fill="none" stroke="#333333" stroke-miterlimit="10" d="M227.3,370.8c0.2-0.2,0.4-0.3,0.7-0.2"/>
	<path fill="none" stroke="#333333" stroke-miterlimit="10" d="M233.9,369.3c0.2-0.1,0.5,0,0.7,0.2"/>
	<path fill="none" stroke="#333333" stroke-miterlimit="10" d="M239.1,366.8c0.1-0.1,0.2-0.1,0.4-0.2"/>
	<path fill="none" stroke="#333333" stroke-miterlimit="10" d="M253,369.8c0.1,0.6,0.5,1,1.1,1.3"/>
	<path fill="none" stroke="#333333" stroke-miterlimit="10" d="M256.6,371.1c0.2,0.1,0.4,0.1,0.5,0.2"/>
	<path fill="none" stroke="#333333" stroke-miterlimit="10" d="M260.5,365.9c0.4,0.1,0.7,0.1,1.1,0.2"/>
	<path fill="none" stroke="#333333" stroke-miterlimit="10" d="M312.4,373.6c0.1,0.1,0.2,0.2,0.4,0.4"/>
	<path fill="none" stroke="#333333" stroke-miterlimit="10" d="M317.6,376c0.3,0.2,0.6,0.5,0.9,0.7"/>
	<path fill="none" stroke="#333333" stroke-miterlimit="10" d="M261.3,370.4c0.2,0.2,0.4,0.4,0.5,0.5"/>
	<path fill="none" stroke="#333333" stroke-miterlimit="10" d="M260,372c0,0.2,0,0.4,0,0.5"/>
	<path fill="none" stroke="#333333" stroke-miterlimit="10" d="M258.3,373.3c0.1,0.2,0.1,0.4,0.2,0.5"/>
	<path fill="none" stroke="#333333" stroke-miterlimit="10" d="M263.5,370.1c0.3,0.3,0.5,0.6,0.8,0.9"/>
	<path fill="none" stroke="#333333" stroke-miterlimit="10" d="M265,367.4c0.2,0.4,0.4,0.8,0.6,1.2"/>
	<path fill="none" stroke="#333333" stroke-miterlimit="10" d="M267.2,366.1c0,0.1,0,0.2,0,0.4"/>
	<path fill="none" stroke="#333333" stroke-miterlimit="10" d="M267.4,355.8c0,0.4,0,0.7,0,1.1"/>
	<path fill="none" stroke="#333333" stroke-miterlimit="10" d="M265.4,357.4c0.1,0.1,0.1,0.2,0.2,0.4"/>
	<path fill="none" stroke="#333333" stroke-miterlimit="10" d="M270.4,358.5c0.1,0.1,0.1,0.1,0.2,0.2"/>
	<path fill="none" stroke="#333333" stroke-miterlimit="10" d="M206.9,381.7c0,0.1,0,0.1,0,0.2"/>
	<path fill="none" stroke="#333333" stroke-miterlimit="10" d="M206.9,386.6c0,0.1,0,0.1,0,0.2"/>
	<path fill="none" stroke="#333333" stroke-miterlimit="10" d="M204.5,384.8c-0.1,0.2-0.2,0.4-0.3,0.6"/>
	<path fill="none" stroke="#333333" stroke-miterlimit="10" d="M198.6,389.8c-0.1,0.2-0.1,0.5-0.2,0.7"/>
	<path fill="none" stroke="#333333" stroke-miterlimit="10" d="M193.6,392.7c-0.2,0.1-0.5,0.2-0.7,0.4"/>
	<path fill="none" stroke="#333333" stroke-miterlimit="10" d="M321,379.2c0.2,0,0.4,0,0.5,0c-0.1,0.2,0.1,0.5,0.4,0.5"/>
	<path fill="none" stroke="#333333" stroke-miterlimit="10" d="M326.9,379.8c0.2,0.2,0.4,0.5,0.5,0.7"/>
	<path fill="none" stroke="#333333" stroke-miterlimit="10" d="M321.9,376.3c0.1,0,0.1,0,0.2,0"/>
	<path fill="none" stroke="#333333" stroke-miterlimit="10" d="M325.9,381.7c0,0.1,0,0.1,0,0.2"/>
	<path fill="none" stroke="#333333" stroke-miterlimit="10" d="M325.2,377c0.3,0.1,0.6,0.1,0.9,0.2"/>
	<path fill="none" stroke="#333333" stroke-miterlimit="10" d="M326.4,383.9c0,0.1,0,0.1,0,0.2"/>
	<path fill="none" stroke="#333333" stroke-miterlimit="10" d="M264.8,353.3c0.1,0.5,0.2,1.1,0.2,1.6"/>
	<path fill="none" stroke="#333333" stroke-miterlimit="10" d="M268.4,354.1c0.5,0,1,0.2,1.3,0.6"/>
	<path fill="none" stroke="#333333" stroke-miterlimit="10" d="M270,356.8c0,0.1,0,0.2,0,0.3"/>
</g>
</svg>
