<?xml version="1.0" encoding="utf-8"?>
<!-- Generator: Adobe Illustrator 18.1.0, SVG Export Plug-In . SVG Version: 6.00 Build 0)  -->
<svg version="1.1" id="Layer_1" xmlns="http://www.w3.org/2000/svg" xmlns:xlink="http://www.w3.org/1999/xlink" x="0px" y="0px"
	 viewBox="0 0 512.9 512.9" enable-background="new 0 0 512.9 512.9" xml:space="preserve">
<g>
	<path fill="#0B0B0B" d="M393.5,106.9c0,0-21.4-49.8-101.7-68.7l-37.3-6.6l-39.8,8.5c0,0-19.7,0-43.3,16.5c0,0-13.2,8-20.8,20.3
		s-32.9,58.6-34.2,80.3c-1.3,21.7,12.6,102,12.6,102s2.2-3.3,4.6-7.6c0,0,1.1-23.5,3-47.9l9.5-16.6l-3.7-30.7
		c0.4-1.4,0.7-2.6,1.1-3.6c5.8-14.4,13.8-5.7,17.4,4.6c0.2,0.5,0.3,1,0.5,1.5c3.3,10.9,19.8-12.8,41.6-20.8s57.2,18.4,62.4,19.4
		s47.7-11.8,52.9-16.1c5.2-4.3,33.1,7.6,36.8,16.5c3.8,9,18,67.1,18,77l18-5.5l5.7-59.2L393.5,106.9z"/>
</g>
<g>
	<path fill="#0B0B0B" d="M214,397.3c0,0,1.1,0.4,3.1,1.1c2,0.7,4.9,1.6,8.3,2.5c1.7,0.5,3.6,0.9,5.6,1.3c2,0.5,4.1,0.7,6.3,1.2
		c2.2,0.3,4.5,0.6,6.8,0.8c2.3,0.2,4.7,0.4,7,0.4l3.5,0.1c1.2-0.1,2.3-0.1,3.5-0.2c2.3-0.1,4.6-0.3,6.8-0.6c2.2-0.2,4.3-0.7,6.3-1.1
		c2-0.3,3.9-0.8,5.6-1.3c1.7-0.5,3.3-0.9,4.7-1.3c1.4-0.5,2.6-1,3.6-1.3c2-0.7,3.2-1.1,3.2-1.1s-1,0.7-2.8,1.8c-0.9,0.5-2,1.2-3.3,2
		c-1.3,0.7-2.9,1.4-4.6,2.1c-0.8,0.4-1.7,0.7-2.6,1.1c-0.9,0.3-1.9,0.6-2.9,0.9c-2,0.6-4.2,1.3-6.5,1.6c-2.3,0.4-4.6,0.9-7.1,1
		c-1.2,0.1-2.4,0.2-3.7,0.3l-3.7,0c-2.5,0-4.9-0.3-7.3-0.5c-2.4-0.2-4.7-0.8-7-1.2c-2.2-0.6-4.4-1-6.4-1.7c-2-0.6-3.9-1.3-5.6-2
		c-3.4-1.3-6.1-2.8-8-3.9C214.9,398,214,397.3,214,397.3z"/>
</g>
<g>
	<path d="M195.8,308.2L195.8,308.2c-11.4,0-22.8-1.1-29.7-1.8c-2-0.2-3.6-0.4-4.6-0.4c-21-1.4-23.1-44.1-23.2-45.9l-0.1-1.6l1.6-0.3
		c18.3-3.3,37.7-5.1,56.2-5.1c19.8,0,34.1,2,36.5,3.4c4.2,2.5,2.4,27.3-4.3,42.1C225.3,305,214.7,308.2,195.8,308.2z M142.3,261.5
		c0.6,7.7,4,39.6,19.5,40.6c1,0.1,2.6,0.2,4.7,0.4c6.8,0.7,18.1,1.8,29.3,1.8c21.2,0,27.5-4,29-7.4c6.3-13.8,7.4-35,5.6-37.4
		c-1.3-0.6-14.3-2.7-34.3-2.7C183.7,256.8,164.3,257.7,142.3,261.5z"/>
</g>
<g>
	<path d="M296.6,306.7c-18.9,0-29.5-3.1-32.5-9.6c-6.8-14.8-8.6-39.6-4.3-42.1c2.6-1.5,27.1-7.7,56.8-7.7c14.9,0,28.9,1.5,41.6,4.5
		l1.3,0.3l0.2,1.3c0.1,1.1,3.4,27.7-8.8,42.1c-4.8,5.6-11.2,8.7-19.2,9c-1.2,0-3.3,0.2-6,0.5C318.8,305.7,307.4,306.7,296.6,306.7z
		 M316.5,251.1c-29.9,0-53,6.1-54.8,7.2c-1.7,2.3-0.5,23.5,5.9,37.3c1.5,3.4,7.8,7.4,29.1,7.4c10.7,0,21.4-1,28.6-1.7
		c2.8-0.3,5-0.5,6.2-0.5c6.9-0.3,12.4-2.8,16.5-7.6c9.7-11.5,8.6-32.5,8.1-37.9C343.9,252.5,330.6,251.1,316.5,251.1z"/>
</g>
<g>
	<path d="M258.5,263c-5.4-2.2-20.2-1.1-25.5-0.5l-0.4-3.8c0.8-0.1,19.8-2.2,27.3,0.8L258.5,263z"/>
</g>
<g>
	<path fill="none" d="M145.7,353.5c-0.2,1.8-0.5,3.6-0.7,5.4"/>
</g>
<g>
	<path fill="#232323" d="M144.7,362.1c-0.1-2.3,0.1-4.7,0.4-7l3.7,0.6c-0.3,2.1-0.4,4.2-0.4,6.2L144.7,362.1z"/>
</g>
<g>
	<path fill="#232323" d="M150.3,366.8l-1-3.6c1.2-0.3,2.1-1.3,2.4-2.5l3.7,0.8C154.7,364,152.7,366.1,150.3,366.8z"/>
</g>
<g>
	<path fill="#232323" d="M151.1,370.1l-0.3-3.8c2.1-0.2,4-1.2,5.4-2.7l2.8,2.5C157,368.4,154.1,369.8,151.1,370.1z"/>
</g>
<g>
	<path fill="#232323" d="M155.8,374.7l-1.5-3.5c1.3-0.5,2.4-1.5,3.2-2.7l3.2,2C159.5,372.4,157.8,373.9,155.8,374.7z"/>
</g>
<g>
	<path fill="#232323" d="M155.7,383.2l-2.2-3.1c3.4-2.4,6-5.9,7.4-9.9l3.6,1.2C162.9,376.2,159.8,380.4,155.7,383.2z"/>
</g>
<g>
	<path fill="#232323" d="M162.1,383.1l-2.4-2.9c1.5-1.2,2.7-2.8,3.5-4.5l3.4,1.6C165.5,379.5,163.9,381.5,162.1,383.1z"/>
</g>
<g>
	<path fill="#232323" d="M166.5,385.6l-2.8-2.5c1.8-2,3.2-4.2,4.2-6.6l3.5,1.4C170.1,380.7,168.5,383.3,166.5,385.6z"/>
</g>
<g>
	<path fill="#232323" d="M171.2,388.5l-3.3-1.9c1.1-1.9,2-3.9,2.6-5.9l3.6,1.1C173.4,384.1,172.4,386.4,171.2,388.5z"/>
</g>
<g>
	<path fill="#232323" d="M178.6,387.8l-3.3-1.9c1.4-2.4,2.2-5.2,2.2-8.1l3.8,0C181.3,381.3,180.4,384.7,178.6,387.8z"/>
</g>
<g>
	<path fill="#232323" d="M184.3,392.3l-3.3-1.8c1.1-1.9,1.6-4.1,1.5-6.3l3.8-0.2C186.3,386.9,185.6,389.7,184.3,392.3z"/>
</g>
<g>
	<path fill="#232323" d="M185.2,396.8l-2.4-2.9c1.6-1.3,2.7-3.1,3-5.1l3.7,0.6C189.1,392.3,187.5,395,185.2,396.8z"/>
</g>
<g>
	<path fill="#232323" d="M189.7,399.3l-3.1-2.2c0.9-1.2,1.5-2.5,2-3.9l3.6,1.3C191.6,396.2,190.7,397.8,189.7,399.3z"/>
</g>
<g>
	<path fill="#232323" d="M188.8,409.5l-2-3.2c2.9-1.8,4.8-5.3,4.8-8.7l3.8,0C195.3,402.3,192.7,407,188.8,409.5z"/>
</g>
<g>
	<path fill="#232323" d="M194.7,415.2l-3-2.3c1.7-2.1,2.9-4.7,3.6-7.3l3.7,1C198.1,409.7,196.7,412.6,194.7,415.2z"/>
</g>
<g>
	<path fill="#232323" d="M197.1,419.1l-2.1-3.2c1.7-1.1,3-2.6,3.9-4.4l3.4,1.6C201.1,415.5,199.3,417.6,197.1,419.1z"/>
</g>
<g>
	<polygon fill="#232323" points="197,405.2 193.7,403.3 195.4,400.5 198.6,402.4 	"/>
</g>
<g>
	<path fill="#232323" d="M148,376l-3.5-1.4c0.8-1.9,1.1-4,1-6.1l3.8-0.2C149.4,370.8,149,373.5,148,376z"/>
</g>
<g>
	<path fill="#232323" d="M151.5,378.7l-3.2-2c0.9-1.5,1.6-3.1,2-4.7l3.7,0.9C153.5,374.9,152.7,376.9,151.5,378.7z"/>
</g>
<g>
	<path fill="#232323" d="M152.6,384.2l-2.6-2.8c1.4-1.3,2.6-2.8,3.4-4.5l3.4,1.7C155.7,380.8,154.3,382.6,152.6,384.2z"/>
</g>
<g>
	<polygon fill="#232323" points="158,392.6 154.7,390.7 157.6,385.7 160.9,387.6 	"/>
</g>
<g>
	<path fill="#232323" d="M151.3,393.9l-2-3.2c1.4-0.9,2.5-2.3,2.9-3.9l3.7,1C155.3,390.2,153.6,392.5,151.3,393.9z"/>
</g>
<g>
	<path fill="#232323" d="M159.4,397.4l-2.5-2.8c1.9-1.7,3.4-3.8,4.4-6.1l3.5,1.5C163.6,392.8,161.7,395.3,159.4,397.4z"/>
</g>
<g>
	<path fill="#232323" d="M165.5,401.3l-3.3-1.8c1.7-3.2,2.8-6.9,3.1-10.6l3.8,0.3C168.7,393.4,167.4,397.6,165.5,401.3z"/>
</g>
<g>
	<path fill="#232323" d="M165.7,403.6l-2.9-2.4c1.9-2.3,3.5-4.8,4.7-7.5l3.5,1.5C169.6,398.2,167.8,401,165.7,403.6z"/>
</g>
<g>
	<path fill="#232323" d="M170.6,407.9l-2.9-2.5c1.7-2,3-4.3,3.7-6.9l3.6,1.1C174.2,402.7,172.7,405.6,170.6,407.9z"/>
</g>
<g>
	
		<rect x="170.5" y="391.9" transform="matrix(0.8161 0.5779 -0.5779 0.8161 259.6191 -27.0791)" fill="#232323" width="3.8" height="5"/>
</g>
<g>
	<path fill="#232323" d="M181.2,402.2l-3.7-0.9c0.3-1.2,0.4-2.5,0.2-3.7l3.7-0.5C181.7,398.7,181.6,400.5,181.2,402.2z"/>
</g>
<g>
	<path fill="#232323" d="M183.6,407.4l-3.1-2.2c1-1.3,1.3-3.1,1-4.7l3.7-0.8C185.7,402.4,185.1,405.3,183.6,407.4z"/>
</g>
<g>
	<path fill="#232323" d="M180.9,414l-2.6-2.7c2.7-2.6,4.9-5.8,6.4-9.2l3.4,1.6C186.4,407.6,184,411.1,180.9,414z"/>
</g>
<g>
	<path fill="#232323" d="M185.9,418.7l-3-2.3c1.1-1.4,2-2.9,2.8-4.5l3.4,1.7C188.2,415.4,187.1,417.1,185.9,418.7z"/>
</g>
<g>
	
		<rect x="186.9" y="418" transform="matrix(0.765 0.644 -0.644 0.765 315.2762 -22.7431)" fill="#232323" width="3.8" height="5.4"/>
</g>
<g>
	<polygon fill="#232323" points="188.3,430.8 185.6,428.2 190,423.7 192.7,426.4 	"/>
</g>
<g>
	<path fill="#232323" d="M193.7,436.1l-2.5-2.9c1.5-1.3,3-2.7,4.5-4.1l2.7,2.7C196.8,433.3,195.3,434.7,193.7,436.1z"/>
</g>
<g>
	<path fill="#232323" d="M194.9,443.5l-2.3-3c0.2-0.1,0.3-0.3,0.3-0.5l3.6,1C196.4,442,195.7,442.9,194.9,443.5z"/>
</g>
<g>
	<rect x="151.9" y="397.3" fill="#232323" width="3.8" height="5.7"/>
</g>
<g>
	<path fill="#232323" d="M159.6,407.7l-3.3-1.9c0.8-1.4,1.2-3.2,1-4.8l3.7-0.5C161.3,403,160.8,405.5,159.6,407.7z"/>
</g>
<g>
	<path fill="#232323" d="M162.1,412.6l-2.9-2.4c1.2-1.5,2.3-3.1,3.1-4.8l3.4,1.6C164.7,409,163.5,410.9,162.1,412.6z"/>
</g>
<g>
	
		<rect x="162.8" y="410.5" transform="matrix(0.9714 0.2375 -0.2375 0.9714 102.7616 -27.3021)" fill="#232323" width="3.8" height="4.8"/>
</g>
<g>
	<rect x="168.6" y="415.9" fill="#232323" width="3.8" height="4.1"/>
</g>
<g>
	<rect x="173" y="408" fill="#232323" width="3.8" height="7.6"/>
</g>
<g>
	<rect x="174" y="423.7" fill="#232323" width="3.8" height="2.5"/>
</g>
<g>
	<path fill="#232323" d="M181.8,425.4l-3.8-0.1c0.1-1.5-0.1-3-0.6-4.4l3.6-1.1C181.7,421.6,181.9,423.5,181.8,425.4z"/>
</g>
<g>
	<path fill="#232323" d="M176.6,433.2c-0.4-1.1,0-2.5,1-3.1l1.5,2.2L176.6,433.2z"/>
</g>
<g>
	<rect x="183.1" y="422.5" fill="#232323" width="3.8" height="4.4"/>
</g>
<g>
	<polygon fill="#232323" points="185.1,433.7 181.4,432.7 182,430.5 185.7,431.5 	"/>
</g>
<g>
	
		<rect x="195.3" y="423.9" transform="matrix(0.1542 0.988 -0.988 0.1542 586.8407 166.0907)" fill="#232323" width="2.2" height="3.8"/>
</g>
<g>
	<path fill="#232323" d="M192.8,437.7c0-0.9,0.2-1.7,0.6-2.5l3.3,1.8c-0.1,0.2-0.1,0.4-0.1,0.6L192.8,437.7z"/>
</g>
<g>
	<rect x="191.9" y="445.2" fill="#232323" width="3.8" height="0.9"/>
</g>
<g>
	<path fill="#232323" d="M199.1,448.1l-3.7-0.8c0.3-1.3,0.4-2.6,0.3-3.9l3.8-0.1C199.5,444.8,199.4,446.5,199.1,448.1z"/>
</g>
<g>
	<path fill="#232323" d="M202.2,443.2l-3.8-0.4c0.2-1.8,0.2-3.6,0.1-5.4l3.8-0.2C202.4,439.2,202.4,441.2,202.2,443.2z"/>
</g>
<g>
	<path fill="#232323" d="M205.1,460c-0.1,0-0.2-0.1-0.4-0.1c-0.7-0.2-1.7-0.5-2.4-1.4c0,0-2-3.1-2-4.8v-1.6h3.8v1.6
		c0.1,0.4,0.8,2,1.3,2.6c-0.1-0.1,0.2-0.1,0.3,0c0.6,0.2,2.6,0.7,2.6,2.8l-3.8-0.1C204.5,459.5,204.9,459.9,205.1,460z"/>
</g>
<g>
	<polygon fill="#232323" points="174,398.8 173.1,392.5 176.8,392 177.7,398.3 	"/>
</g>
<g>
	<path fill="#232323" d="M179,401.8l-2.9-2.4c1.3-1.6,1.6-4.1,0.6-5.9l3.3-1.8C181.8,394.8,181.3,399,179,401.8z"/>
</g>
<g>
	<path fill="#232323" d="M172.9,381.5l-3.6-1.2c0.7-2.2,1-4.5,0.8-6.8l3.8-0.4C174.2,376,173.9,378.9,172.9,381.5z"/>
</g>
<g>
	<path fill="#232323" d="M164.6,379.7l-2.3-3c1.2-0.9,2.3-2,3.3-3.2l3,2.3C167.4,377.3,166.1,378.6,164.6,379.7z"/>
</g>
<g>
	<path fill="#232323" d="M157,375.6l-2.7-2.7c2-2,3.9-4.3,5.5-6.6l3.1,2.1C161.2,371,159.2,373.4,157,375.6z"/>
</g>
<g>
	<path fill="#232323" d="M153.6,386.1l-2.7-1.3c0.6-1.2,1.9-1.9,3.3-1.7L153.6,386.1z"/>
</g>
<g>
	<rect x="227.5" y="357.6" fill="#232323" width="3.8" height="2.8"/>
</g>
<g>
	<rect x="230.6" y="358.6" fill="#232323" width="3.8" height="3.5"/>
</g>
<g>
	<polygon fill="#232323" points="226.2,367.4 222.8,365.6 225,361.5 228.3,363.3 	"/>
</g>
<g>
	<path fill="#232323" d="M220.9,371.4l-2.4-2.9c0.8-0.6,1.3-1.5,1.5-2.5l3.7,0.8C223.3,368.6,222.3,370.3,220.9,371.4z"/>
</g>
<g>
	<path fill="#232323" d="M213.6,378.5l-1.9-3.3c1.2-0.7,2.3-1.6,3.3-2.6l2.7,2.6C216.6,376.5,215.2,377.6,213.6,378.5z"/>
</g>
<g>
	<polygon fill="#232323" points="209.3,376.3 206.1,374.3 209,369.9 212.1,371.9 	"/>
</g>
<g>
	<path fill="#232323" d="M210.9,378.6l-2.2-3.1c1.6-1.2,3.1-2.4,4.5-3.8l2.7,2.7C214.4,375.9,212.7,377.3,210.9,378.6z"/>
</g>
<g>
	
		<rect x="200.2" y="380.4" transform="matrix(0.4728 0.8812 -0.8812 0.4728 443.1705 23.2703)" fill="#232323" width="3.8" height="3.2"/>
</g>
<g>
	<path fill="#232323" d="M200,389l-1.1-3.6c2.2-0.6,4.2-1.5,6.2-2.7l1.9,3.3C204.8,387.3,202.5,388.3,200,389z"/>
</g>
<g>
	
		<rect x="196.3" y="388.7" transform="matrix(0.1366 0.9906 -0.9906 0.1366 558.0542 140.8945)" fill="#232323" width="3.8" height="3.8"/>
</g>
<g>
	<path fill="#232323" d="M223.4,368.4c0-0.9,0.2-1.8,0.6-2.5l3.3,1.9c-0.1,0.2-0.1,0.4-0.1,0.6L223.4,368.4z"/>
</g>
<g>
	<path fill="#232323" d="M217.6,383.9l-3-2.3c1.7-2.3,3.3-4.7,4.5-7.2l3.4,1.7C221.1,378.8,219.5,381.5,217.6,383.9z"/>
</g>
<g>
	
		<rect x="205.7" y="380.3" transform="matrix(0.4374 0.8993 -0.8993 0.4374 461.3047 28.7951)" fill="#232323" width="3.8" height="5.6"/>
</g>
<g>
	<path fill="#232323" d="M194.6,380.7l-1.6-3.4c2-1,3.9-2.1,5.7-3.3l2.1,3.1C198.9,378.5,196.8,379.7,194.6,380.7z"/>
</g>
<g>
	<rect x="236.9" y="363.3" fill="#232323" width="3.8" height="2.8"/>
</g>
<g>
	<path fill="#232323" d="M243.9,368.3l-3.6-1.1c0.4-1.2,1-2.2,1.9-3.1l2.6,2.8C244.4,367.2,244.1,367.7,243.9,368.3z"/>
</g>
<g>
	<path fill="#232323" d="M243.4,368.3c0-1.6,0.5-3.3,1.5-4.6l3.1,2.2c-0.5,0.7-0.8,1.5-0.7,2.3L243.4,368.3z"/>
</g>
<g>
	<polygon fill="#232323" points="248,365.9 247.4,363 251.1,362.3 251.7,365.1 	"/>
</g>
<g>
	<path fill="#232323" d="M253.7,368c-1.5-1.4-2.5-3.4-2.6-5.5l3.8-0.3c0.1,1.2,0.6,2.3,1.4,3L253.7,368z"/>
</g>
<g>
	<path fill="#232323" d="M259.8,368.8c-1.2-1.4-2-3-2.4-4.8l3.7-0.9c0.3,1.2,0.9,2.3,1.7,3.3L259.8,368.8z"/>
</g>
<g>
	<polygon fill="#232323" points="268.4,373.9 265.1,369.3 268.2,367.1 271.5,371.6 	"/>
</g>
<g>
	<polygon fill="#232323" points="272.8,380.1 271.6,378.2 274.7,376.1 276,378 	"/>
</g>
<g>
	<path fill="#232323" d="M276.1,377.9c-1.6-2.1-2.5-4.7-2.7-7.3l3.8-0.2c0.1,1.9,0.8,3.7,1.9,5.2L276.1,377.9z"/>
</g>
<g>
	<path fill="#232323" d="M281.3,386c-1.3-1.3-2.2-2.8-2.7-4.5l3.6-1.1c0.3,1.1,1,2.1,1.8,3L281.3,386z"/>
</g>
<g>
	<path fill="#232323" d="M285.2,383.1c-2.5-1.9-4.3-4.7-5.2-7.7l3.6-1.1c0.7,2.3,2.1,4.3,3.9,5.8L285.2,383.1z"/>
</g>
<g>
	<path fill="#232323" d="M291,385.8c-1.9-1.5-3-4-2.6-6.4l3.7,0.5c-0.2,1.1,0.3,2.2,1.2,2.9L291,385.8z"/>
</g>
<g>
	<polygon fill="#232323" points="295.5,381.4 292.4,379.6 294.3,376.3 297.4,378.1 	"/>
</g>
<g>
	<path fill="#232323" d="M295.9,378c-1.4-1.9-3.1-3.5-5-4.9l2.2-3.1c2.2,1.6,4.1,3.5,5.8,5.7L295.9,378z"/>
</g>
<g>
	<polygon fill="#232323" points="295.6,379.3 290.3,375.5 292.6,372.4 297.9,376.3 	"/>
</g>
<g>
	<polygon fill="#232323" points="300.6,377 297,372 300.1,369.8 303.6,374.8 	"/>
</g>
<g>
	<path fill="#232323" d="M300.9,382.1c-0.1-0.5-0.2-1-0.5-1.4l3.2-2.1c0.6,0.9,1,2,1.1,3.1L300.9,382.1z"/>
</g>
<g>
	<path fill="#232323" d="M299.6,391.3c-1.5-2.7-3.3-5.4-5.1-7.9l3.1-2.2c1.9,2.7,3.7,5.4,5.3,8.2L299.6,391.3z"/>
</g>
<g>
	<polygon fill="#232323" points="293.8,391.1 293.1,389.5 296.7,388.1 297.3,389.7 	"/>
</g>
<g>
	<path fill="#232323" d="M223.8,375.3l-1.5-3.5c2.2-0.9,4.3-2.1,6.2-3.5l2.2,3C228.6,373,226.3,374.3,223.8,375.3z"/>
</g>
<g>
	<path fill="#232323" d="M233.7,376.9l-3.1-2.1c1.3-1.9,3.1-3.6,5.1-4.8l2,3.2C236.1,374.1,234.7,375.4,233.7,376.9z"/>
</g>
<g>
	<path fill="#232323" d="M231.8,368.1l-1.6-3.4c1-0.5,2.2-0.6,3.4-0.4l-0.7,3.7C232.5,367.9,232.1,368,231.8,368.1z"/>
</g>
<g>
	<polygon fill="#232323" points="230.1,366 226.7,364.3 226.9,364 230.4,365.4 	"/>
</g>
<g>
	<path fill="#232323" d="M215.7,372.6l-2.7-2.7c0.4-0.4,0.7-0.9,0.9-1.4l3.5,1.4C217.1,370.9,216.4,371.8,215.7,372.6z"/>
</g>
<g>
	
		<rect x="203.5" y="377" transform="matrix(0.4724 0.8814 -0.8814 0.4724 441.2513 18.219)" fill="#232323" width="3.8" height="1.4"/>
</g>
<g>
	<polygon fill="#232323" points="200.9,378.2 197.6,376.2 199.1,373.7 202.4,375.6 	"/>
</g>
<g>
	<path fill="#232323" d="M206.6,463.5c-0.4-2-0.4-4.2,0-6.2l3.7,0.8c-0.3,1.5-0.3,3.1,0,4.6L206.6,463.5z"/>
</g>
<g>
	<path fill="#232323" d="M212.3,467.1c-2.3-2.2-3.5-5.5-3-8.6l3.7,0.5c-0.3,1.9,0.5,4,1.9,5.4L212.3,467.1z"/>
</g>
<g>
	<path fill="#232323" d="M215.5,466.1c-1.4-2-1.9-4.4-1.5-6.8l3.7,0.7c-0.2,1.4,0.1,2.8,0.9,3.9L215.5,466.1z"/>
</g>
<g>
	<path fill="#232323" d="M220.9,474c-1.2-1.2-2.1-2.6-2.9-4.1l3.4-1.7c0.6,1.2,1.4,2.3,2.3,3.2L220.9,474z"/>
</g>
<g>
	<path fill="#232323" d="M223.7,471.3c-1.9-1.9-2.7-4.7-2.1-7.3l3.7,0.8c-0.3,1.4,0.1,2.9,1.1,3.8L223.7,471.3z"/>
</g>
<g>
	<path fill="#232323" d="M228.8,477c-1.2-0.9-2.1-2-2.7-3.3l3.4-1.6c0.3,0.7,0.9,1.4,1.5,1.9L228.8,477z"/>
</g>
<g>
	<path fill="#232323" d="M231.7,470.9c-2.2-1.7-3.1-4.7-2.4-7.3l3.7,1c-0.3,1.2,0.2,2.6,1.1,3.4L231.7,470.9z"/>
</g>
<g>
	<path fill="#232323" d="M238.4,477.6c-2.1-0.9-3.6-2.8-4.1-4.9l3.7-0.8c0.2,1,1,1.9,1.9,2.3L238.4,477.6z"/>
</g>
<g>
	<path fill="#232323" d="M237.1,469.4c-1.3-1.5-1.8-3.5-1.3-5.4l3.7,0.9c-0.2,0.7,0,1.5,0.5,2.1L237.1,469.4z"/>
</g>
<g>
	
		<rect x="241.1" y="467.8" transform="matrix(0.1222 0.9925 -0.9925 0.1222 678.9849 171.7923)" fill="#232323" width="2.5" height="3.8"/>
</g>
<g>
	<path fill="#232323" d="M249,479.8c-2.1-0.3-3.9-1.9-4.6-3.9l3.6-1.2c0.2,0.6,0.8,1.2,1.5,1.3L249,479.8z"/>
</g>
<g>
	<path fill="#232323" d="M251.7,478.5c-2-2.2-3.5-4.8-4.3-7.7l3.7-1c0.6,2.3,1.8,4.4,3.4,6.1L251.7,478.5z"/>
</g>
<g>
	<path fill="#232323" d="M266.1,484c-2.3-0.1-4.6-1.3-6.6-2.4c-0.5-0.2-0.9-0.5-1.4-0.7c-1.3-0.7-2.5-1.6-3.4-2.8l3-2.4
		c0.6,0.7,1.3,1.3,2.1,1.7c0.5,0.2,0.9,0.5,1.5,0.8c1.7,0.9,3.6,1.9,5.1,2L266.1,484z"/>
</g>
<g>
	<path fill="#232323" d="M264,481.3c-2.2-1.9-4.4-3.9-6.3-5.9l2.6-2.7c0.4,0.4,2.2,1.1,3.1,1.5c0.6,0.2,1.1,0.4,1.4,0.6l-0.8,1.6
		c0.8,0.7,1.6,1.4,2.4,2.1L264,481.3z"/>
</g>
<g>
	<polygon fill="#232323" points="269.8,475.8 267.9,475.7 266,475.4 266.8,471.6 270.5,472.3 	"/>
</g>
<g>
	<path fill="#232323" d="M273.4,479l-3.7-1c0.3-1.2,0.4-2.5,0.2-3.7l3.7-0.5C274,475.6,273.8,477.4,273.4,479z"/>
</g>
<g>
	
		<rect x="273.6" y="474.4" transform="matrix(0.9925 0.1221 -0.1221 0.9925 60.2672 -30.0692)" fill="#232323" width="3.8" height="4.5"/>
</g>
<g>
	
		<rect x="277.7" y="472.2" transform="matrix(0.9944 0.1055 -0.1055 0.9944 51.5804 -26.8514)" fill="#232323" width="3.8" height="3.8"/>
</g>
<g>
	<polygon fill="#232323" points="284.7,474.6 281,473.6 282,469.9 285.7,470.8 	"/>
</g>
<g>
	<path fill="#232323" d="M279.1,470.5c-0.9-2.3-1.2-4.9-0.8-7.3l3.7,0.6c-0.3,1.8-0.1,3.7,0.6,5.4L279.1,470.5z"/>
</g>
<g>
	<path fill="#232323" d="M308.8,395.2c-0.1-1.4-0.5-2.9-1.2-4.1l3.3-1.8c1,1.8,1.6,3.8,1.7,5.8L308.8,395.2z"/>
</g>
<g>
	<path fill="#232323" d="M312.5,395.4c-1.8-1.9-2.8-4.6-2.8-7.2l3.8,0c0,1.7,0.7,3.4,1.8,4.6L312.5,395.4z"/>
</g>
<g>
	<polygon fill="#232323" points="311.6,384.9 309.2,381.7 312.2,379.4 314.6,382.6 	"/>
</g>
<g>
	<path fill="#232323" d="M317.5,384.8c-1.6-1.6-2.6-3.9-2.5-6.1l3.8,0.1c0,1.2,0.5,2.4,1.3,3.3L317.5,384.8z"/>
</g>
<g>
	
		<rect x="313.9" y="388.2" transform="matrix(0.5796 0.8149 -0.8149 0.5796 450.8528 -93.6508)" fill="#232323" width="4.5" height="3.8"/>
</g>
<g>
	<polygon fill="#232323" points="320.5,393.3 319.3,390.4 322.8,389 323.9,391.9 	"/>
</g>
<g>
	<path fill="#232323" d="M323.8,390c-0.5-0.1-1.7-0.5-2.2-1.6c-0.3-0.6-0.4-1.3-0.1-2l2.9,1.1L323.8,390z"/>
</g>
<g>
	<path fill="#232323" d="M328.2,388.7c-2.5-1.8-4.7-4.1-6.1-6.8l3.3-1.8c1.2,2.2,2.9,4.1,5,5.5L328.2,388.7z"/>
</g>
<g>
	<path fill="#232323" d="M328.5,379.3c-1.2-0.8-2.2-1.9-2.9-3.3l3.4-1.6c0.3,0.7,0.9,1.3,1.5,1.7L328.5,379.3z"/>
</g>
<g>
	
		<rect x="330" y="373.2" transform="matrix(0.8422 0.5391 -0.5391 0.8422 254.4979 -119.5112)" fill="#232323" width="3" height="3.8"/>
</g>
<g>
	<path fill="#232323" d="M333.6,372.9c-2.3-0.8-4.2-2.5-5.2-4.7l3.4-1.6c0.6,1.3,1.7,2.3,3,2.8L333.6,372.9z"/>
</g>
<g>
	
		<rect x="333.2" y="363.6" transform="matrix(0.5633 0.8263 -0.8263 0.5633 448.1696 -116.9605)" fill="#232323" width="3" height="3.8"/>
</g>
<g>
	<path fill="#232323" d="M337,365.8c-1.3-0.3-2.4-1.2-2.9-2.5l3.5-1.4c0,0.1,0.1,0.1,0.2,0.2L337,365.8z"/>
</g>
<g>
	<path fill="#232323" d="M340,361.4c-0.7-1.1-1.1-2.4-1.3-3.7c0-0.1,0-0.2,0-0.3l3.8-0.2c-0.1-0.7-0.6-1.2-0.9-1.2
		c0.2,0,0.6,0.1,0.9,0.1c0.6,0,1.1,0,1.6,0.2l-1,3c0.1,0.1,0.1,0.2,0.2,0.3l-0.4,0.4c0,0-0.1,0-0.2,0L340,361.4z"/>
</g>
<g>
	<path fill="#232323" d="M344.1,356.3l0.5-3.1c1,0.2,1.8,0.8,2.3,1.6L344.1,356.3z"/>
</g>
<g>
	<path fill="#232323" d="M352.4,354.7c-2.2-0.1-4.4-1.1-5.9-2.8l2.8-2.6c0.9,0.9,2.1,1.5,3.4,1.6L352.4,354.7z"/>
</g>
<g>
	<path fill="#232323" d="M352,349.5c-0.9-0.4-1.6-1.2-2.1-2l-2.4-4.5l4.7,1.8c0,0,0.6-0.2,1-0.2c1.1-0.2,2.1-0.4,3.1,0l-1.4,3.5
		c0,0-0.6,0.2-1,0.2c-0.5,0.1-1,0.2-1.5,0.2L352,349.5z"/>
</g>
<g>
	<path fill="#232323" d="M359.7,345.3c-1.2,0-2.4-0.3-3.4-0.9l1.9-3.2c0.5,0.3,1.1,0.5,1.7,0.4l0.3,3.8
		C360.1,345.3,359.9,345.3,359.7,345.3z"/>
</g>
<g>
	<path fill="#232323" d="M364.8,340c-0.1,0-0.2,0-0.3,0l-3.2-0.5l0.6-3.7l2.6,0.4c0,0,0,0,0.1,0c0.6-0.5,1.8-1.4,3.1-0.7l-1.8,3.3
		c0.6,0.3,1.3,0.2,1.4,0.1c-0.1,0.1-0.2,0.2-0.4,0.3C366.4,339.4,365.7,340,364.8,340z"/>
</g>
<g>
	<polygon fill="#232323" points="368.3,336.9 367.7,336.6 368.9,333.1 369.2,333.2 	"/>
</g>
<g>
	<rect x="369.8" y="330.5" fill="#232323" width="3.5" height="3.8"/>
</g>
<g>
	
		<rect x="344.8" y="368.5" transform="matrix(0.9021 0.4315 -0.4315 0.9021 194.7098 -113.1301)" fill="#232323" width="3.8" height="8"/>
</g>
<g>
	<path fill="#232323" d="M339.9,386.4c-2.6-1.4-4.9-3.5-6.6-6l3.1-2.1c1.4,2,3.2,3.7,5.3,4.8L339.9,386.4z"/>
</g>
<g>
	<path fill="#232323" d="M343.3,378.6c-2.9-2.1-5.2-5-6.7-8.2l3.4-1.6c1.2,2.7,3.1,5,5.5,6.7L343.3,378.6z"/>
</g>
<g>
	<path fill="#232323" d="M342.9,383.9c-3.5-1.6-6.4-4.6-7.7-8.3l3.5-1.3c1,2.7,3.1,5,5.7,6.2L342.9,383.9z"/>
</g>
<g>
	<path fill="#232323" d="M357.1,371.9c-5.9-0.4-11.7-2.7-16.3-6.4l2.4-2.9c4,3.2,9,5.2,14.1,5.6L357.1,371.9z"/>
</g>
<g>
	<path fill="#232323" d="M347.3,378.3c-0.3-0.2-0.6-0.3-0.9-0.3l-0.3-3.8c1.2-0.1,2.5,0.3,3.5,1L347.3,378.3z"/>
</g>
<g>
	<path fill="#232323" d="M353.1,365.6c-1.5-0.9-2.9-2-4.1-3.2l2.7-2.7c1,1,2.1,1.9,3.3,2.6L353.1,365.6z"/>
</g>
<g>
	<path fill="#232323" d="M322.8,401.7c-0.6-1-1.4-1.9-2.4-2.5l1.9-3.3c1.6,0.9,2.9,2.3,3.8,3.9L322.8,401.7z"/>
</g>
<g>
	<path fill="#232323" d="M317.6,409c-2.6-1.5-4.6-3.8-6-6.4l3.4-1.7c1,2,2.7,3.7,4.6,4.9L317.6,409z"/>
</g>
<g>
	<path fill="#232323" d="M335.7,399.9c-3-0.3-5.9-1.4-8.4-3.2l2.3-3c1.9,1.4,4.2,2.3,6.5,2.4L335.7,399.9z"/>
</g>
<g>
	<path fill="#232323" d="M325.4,408.2c-3.4-1.3-6.4-3.7-8.4-6.8l3.2-2c1.6,2.4,3.9,4.3,6.6,5.3L325.4,408.2z"/>
</g>
<g>
	<path fill="#232323" d="M339.3,393.8c-0.1,0-0.1,0-0.2,0c-2.7-0.3-5.3-1.2-7.6-2.6l2-3.2c1.8,1.1,3.9,1.8,6,2
		c0.8,0.1,2,0.2,2.9,1.3l-3,2.3C339.5,393.8,339.4,393.8,339.3,393.8z"/>
</g>
<g>
	
		<rect x="331.5" y="401.3" transform="matrix(0.9265 0.3762 -0.3762 0.9265 176.2735 -96.1702)" fill="#232323" width="5.8" height="3.8"/>
</g>
<g>
	<path fill="#232323" d="M344.3,394.6c-1.4-1.4-3.8-3.6-3.8-6.7l3.8-0.1c0,1.4,1.3,2.8,2.7,4.1L344.3,394.6z"/>
</g>
<g>
	<path fill="#232323" d="M343.8,402.1l-2.6-1.1l-0.4-2.1c0.8-0.2,2,0.1,2.7,1L343.8,402.1z"/>
</g>
<g>
	<path fill="#232323" d="M356.2,392.6c-3.7-0.3-7.1-2.5-8.9-5.8l3.3-1.8c1.2,2.1,3.5,3.6,5.9,3.8L356.2,392.6z"/>
</g>
<g>
	<path fill="#232323" d="M347.8,399.8c-1.5,0-3.1-0.3-4.5-0.9l1.4-3.5c1,0.4,2.2,0.7,3.3,0.6l0.1,3.8
		C348.1,399.8,347.9,399.8,347.8,399.8z"/>
</g>
<g>
	
		<rect x="354.3" y="381.4" transform="matrix(0.9263 0.3767 -0.3767 0.9263 170.597 -105.7414)" fill="#232323" width="2.7" height="3.8"/>
</g>
<g>
	<path fill="#232323" d="M356,379.3c-1.4-0.5-2.7-1.3-3.8-2.4l2.6-2.7c0.7,0.7,1.5,1.2,2.4,1.5L356,379.3z"/>
</g>
<g>
	<path fill="#232323" d="M360.5,375.9c-0.8,0-1.6-0.3-2.3-0.8c-0.8-0.6-1.3-1.5-1.4-2.4l3.7-0.4l0.3,3.6
		C360.8,375.9,360.7,375.9,360.5,375.9z"/>
</g>
<g>
	<path fill="#232323" d="M361.6,367c-1.3-0.5-4.4-1.8-4.8-4.8l3.7-0.5c0.1,0.5,0.9,1.1,2.5,1.8L361.6,367z"/>
</g>
<g>
	<polygon fill="#232323" points="361,360.5 358.1,358.7 356.9,357.3 359.9,354.9 360.8,356 362.9,357.2 	"/>
</g>
<g>
	<polygon fill="#232323" points="352.9,358.9 351.6,357.7 354.1,355 355.4,356.2 	"/>
</g>
<g>
	<path fill="#232323" d="M360.2,357.1c-1.9-1.5-3.4-3.6-4.2-5.8l3.6-1.2c0.6,1.6,1.6,3.1,2.9,4.1L360.2,357.1z"/>
</g>
<g>
	<polygon fill="#232323" points="364.7,355.9 363,352.5 366.4,350.8 368.1,354.3 	"/>
</g>
<g>
	<rect x="363.2" y="363" fill="#232323" width="3.8" height="0.9"/>
</g>
<g>
	<polygon fill="#232323" points="365.7,348.4 362,347.7 362.8,344.9 366.4,345.8 	"/>
</g>
<g>
	<path fill="#232323" d="M369.1,346.4l-3.6-1c0.3-1.2,0.8-2.1,1.4-3.1c0.4-0.7,0.7-1.3,1-2l3.6,1.2c-0.3,0.9-0.8,1.8-1.2,2.6
		C369.7,344.9,369.3,345.7,369.1,346.4z"/>
</g>
<g>
	<rect x="316.9" y="414.6" fill="#232323" width="3.8" height="1.3"/>
</g>
<g>
	<rect x="326.1" y="413.7" fill="#232323" width="3.8" height="5.7"/>
</g>
<g>
	<path fill="#232323" d="M324.8,427.9l-3.8-0.1c0-1.1-0.1-2.2-0.3-3.3l3.7-0.8C324.7,425,324.9,426.4,324.8,427.9z"/>
</g>
<g>
	<path fill="#232323" d="M263.5,470.3l-1.8-3.3c1.2-0.7,2.2-1.8,2.7-3l3.5,1.4C267,467.4,265.4,469.2,263.5,470.3z"/>
</g>
<g>
	<path fill="#232323" d="M272.2,469l-3-2.2c1.2-1.6,2-3.4,2.4-5.3l3.7,0.8C274.8,464.7,273.7,467,272.2,469z"/>
</g>
<g>
	<path fill="#232323" d="M275.8,470.4l-2.8-2.5c1.5-1.6,2.4-3.7,2.7-5.9l3.7,0.5C279.1,465.3,277.8,468.2,275.8,470.4z"/>
</g>
<g>
	
		<rect x="283.2" y="459" transform="matrix(0.9907 0.1358 -0.1358 0.9907 65.2376 -34.4524)" fill="#232323" width="3.8" height="3.8"/>
</g>
<g>
	<path fill="#232323" d="M291.3,468.1l-3.3-1.8c1.6-2.9,2.8-6.1,3.6-9.3l3.7,0.9C294.4,461.5,293,464.9,291.3,468.1z"/>
</g>
<g>
	<rect x="298" y="455.6" fill="#232323" width="3.8" height="3.1"/>
</g>
<g>
	<path fill="#232323" d="M302.3,460.3c-0.3-1.9-1.1-3.8-2.1-5.5l3.2-2.1c1.4,2.1,2.3,4.5,2.7,6.9L302.3,460.3z"/>
</g>
<g>
	<path fill="#232323" d="M308.5,457.8c0-2.2-0.5-4.4-1.5-6.3l3.4-1.7c1.3,2.5,1.9,5.3,2,8L308.5,457.8z"/>
</g>
<g>
	
		<rect x="310.2" y="448.6" transform="matrix(0.2672 0.9636 -0.9636 0.2672 663.3712 28.6941)" fill="#232323" width="5.2" height="3.8"/>
</g>
<g>
	<path fill="#232323" d="M319.8,454.3l-3.8,0c0-3-0.8-6.1-2.4-8.7l3.2-2C318.8,446.8,319.8,450.5,319.8,454.3z"/>
</g>
<g>
	<rect x="318.8" y="443.3" fill="#232323" width="3.8" height="3.1"/>
</g>
<g>
	
		<rect x="324.2" y="428.1" transform="matrix(0.9809 0.1944 -0.1944 0.9809 90.3529 -55.1352)" fill="#232323" width="3.8" height="9.3"/>
</g>
<g>
	
		<rect x="328.8" y="428.4" transform="matrix(0.968 0.2508 -0.2508 0.968 118.7361 -69.1409)" fill="#232323" width="3.8" height="5.9"/>
</g>
<g>
	
		<rect x="330.7" y="423.5" transform="matrix(0.9359 0.3523 -0.3523 0.9359 171.1892 -89.8774)" fill="#232323" width="3.7" height="3.8"/>
</g>
<g>
	<path fill="#232323" d="M338.2,426.1c-1.9-1.6-3.4-3.6-4.5-5.9l3.5-1.5c0.8,1.7,2,3.3,3.4,4.6L338.2,426.1z"/>
</g>
<g>
	
		<rect x="331.9" y="409.9" transform="matrix(0.1614 0.9869 -0.9869 0.1614 685.7424 16.5099)" fill="#232323" width="2.5" height="3.8"/>
</g>
<g>
	<path fill="#232323" d="M329.4,408.8l-3-0.4c0.2-1.3,1.2-2.3,2.4-2.6L329.4,408.8z"/>
</g>
<g>
	<path fill="#232323" d="M342.2,416.5l-3.7-0.6c0.2-1.6,0.3-3.3,0.1-4.9l3.8-0.3C342.6,412.6,342.5,414.6,342.2,416.5z"/>
</g>
<g>
	<polygon fill="#232323" points="341.8,419 341.5,416.5 345.2,415.9 345.6,418.4 	"/>
</g>
<g>
	<polygon fill="#232323" points="340.1,408 339.7,405.4 343.4,404.9 343.8,407.4 	"/>
</g>
<g>
	
		<rect x="346.9" y="404.5" transform="matrix(0.9837 0.1796 -0.1796 0.9837 78.6275 -56.0367)" fill="#232323" width="3.8" height="3.5"/>
</g>
<g>
	<polygon fill="#232323" points="347.1,409.3 343.4,408.6 344.1,405.4 347.8,406.2 	"/>
</g>
<g>
	<rect x="348.1" y="397.3" fill="#232323" width="3.8" height="3.5"/>
</g>
<g>
	<polygon fill="#232323" points="351.2,396.9 350.3,395.3 353.6,393.5 354.5,395.1 	"/>
</g>
<g>
	<rect x="351.9" y="400.1" fill="#232323" width="3.8" height="0.9"/>
</g>
<g>
	<polygon fill="#232323" points="359.6,388.1 355.9,387.1 356.5,384.9 360.2,385.9 	"/>
</g>
<g>
	<path fill="#232323" d="M358,383c-0.4-1.3-0.5-2.7-0.4-4.1l3.8,0.3c-0.1,0.9,0,1.9,0.3,2.8L358,383z"/>
</g>
<g>
	<path fill="#232323" d="M361.1,372.3l-0.2-1.8c-0.1-0.8-0.2-1.6-0.2-2.1l3.8-0.2l0.2,1.9c0.1,0.8,0.2,1.6,0.2,2.1L361.1,372.3z"/>
</g>
<g>
	<path fill="#232323" d="M350.2,382c-0.8-0.6-2.5-1.9-2.5-4h3.8h-1.9l1.9,0c0,0.1,0.2,0.4,1,1L350.2,382z"/>
</g>
<g>
	<path fill="#232323" d="M332.1,395.3c-2.1,0-4.2-0.5-6.1-1.5l1.7-3.3c2,1,4.4,1.3,6.6,0.8l0.9,3.7
		C334.3,395.2,333.2,395.3,332.1,395.3z"/>
</g>
<g>
	<path fill="#232323" d="M327.2,407.5c-1.6-0.4-3.2-1.1-4.7-2l2-3.2c1.1,0.7,2.3,1.2,3.6,1.5L327.2,407.5z"/>
</g>
<g>
	<path fill="#232323" d="M318.6,413c-1.3-1-2.6-2.2-3.7-3.5l2.9-2.4c0.9,1.1,2,2.1,3.1,3L318.6,413z"/>
</g>
<g>
	<path fill="#232323" d="M313.8,427.9c-1.3,0-2.6-0.3-3.7-0.9l1.7-3.4c0.7,0.4,1.6,0.5,2.4,0.4l0.4,3.8
		C314.3,427.9,314.1,427.9,313.8,427.9z"/>
</g>
<g>
	<polygon fill="#232323" points="306.8,438.3 306.2,437.7 308.8,435 309.2,435.4 	"/>
</g>
<g>
	<polygon fill="#232323" points="298.5,447.4 296,446 291.9,442.7 294.3,439.8 298.1,442.9 300.2,444 	"/>
</g>
<g>
	<path fill="#232323" d="M304.3,447.3c-2.6,0-5.1-1.4-6.4-3.6l3.3-1.9c0.7,1.1,2.1,1.8,3.4,1.8l0.3,3.8
		C304.6,447.3,304.4,447.3,304.3,447.3z"/>
</g>
<g>
	
		<rect x="286.5" y="447.1" transform="matrix(0.694 0.7199 -0.7199 0.694 411.7249 -70.7939)" fill="#232323" width="5.3" height="3.8"/>
</g>
<g>
	<path fill="#232323" d="M285.5,459.4c-3.3,0-5-2.6-6.4-4.8c-0.4-0.5-0.7-1.1-1.1-1.6l2.8-2.5c1.4,1.4,3.2,2.6,5,3.3l-0.7,1.7
		c0.2,0,0.3,0,0.5,0l0.3,3.8C285.7,459.4,285.6,459.4,285.5,459.4z"/>
</g>
<g>
	<path fill="#232323" d="M294.7,457.1c-1.4-0.1-2.8-0.9-3.6-2l3-2.2c0.2,0.3,0.5,0.5,0.9,0.5L294.7,457.1z"/>
</g>
<g>
	<path fill="#232323" d="M308.7,455.3l-1.6-0.3c-1.9-0.3-3.6-0.6-5.7-1.7c-1.6,0.1-3.2,0-4.7-0.3l0.7-3.7c1.4,0.3,2.8,0.3,4.2,0.2
		l0.6-0.1l0.5,0.3c1.7,1,3,1.2,5,1.5l1.7,0.3L308.7,455.3z"/>
</g>
<g>
	<path fill="#232323" d="M263.9,460.6l-1.1-3.6c1.9-0.6,3.7-1.5,5.2-2.8l2.4,2.9C268.5,458.7,266.2,459.9,263.9,460.6z"/>
</g>
<g>
	
		<rect x="250.7" y="457.1" transform="matrix(0.6639 0.7478 -0.7478 0.6639 429.3416 -34.0429)" fill="#232323" width="3.8" height="6.9"/>
</g>
<g>
	
		<rect x="237.2" y="457.8" transform="matrix(0.668 0.7442 -0.7442 0.668 422.0037 -25.0874)" fill="#232323" width="3.8" height="5.1"/>
</g>
<g>
	<polygon fill="#232323" points="216.5,461.2 215.8,457.5 221.8,456.5 222.5,460.2 	"/>
</g>
<g>
	<path fill="#232323" d="M200.5,457.9c-0.2,0-0.3,0-0.5,0l0.1-3.8c1.8,0.1,3.6-0.3,5.2-1.1l1.6,3.4
		C204.9,457.4,202.7,457.9,200.5,457.9z"/>
</g>
<g>
	
		<rect x="223.3" y="459.2" transform="matrix(0.4141 0.9102 -0.9102 0.4141 553.2201 66.238)" fill="#232323" width="3.8" height="7.3"/>
</g>
<g>
	<polygon fill="#232323" points="239,468 237.5,464.6 241.9,462.7 243.4,466.1 	"/>
</g>
<g>
	<path fill="#232323" d="M249.5,473l-1.2-3.6c1.3-0.5,2.5-1.3,3.4-2.4l3,2.3C253.3,471.1,251.5,472.4,249.5,473z"/>
</g>
<g>
	<path fill="#232323" d="M258.3,473.9l-3.8-0.2c0.1-1.8,0.6-3.7,1.6-5.2l3.3,1.9C258.8,471.4,258.4,472.7,258.3,473.9z"/>
</g>
<g>
	<path fill="#232323" d="M245.7,467.2l-3.7-0.6c0.3-1.5,0.8-2.9,1.6-4.1l3.2,2C246.2,465.3,245.9,466.2,245.7,467.2z"/>
</g>
<g>
	<polygon fill="#232323" points="219.9,460.2 217.5,457.3 221.2,454.1 223.7,457 	"/>
</g>
<g>
	
		<rect x="205.1" y="452" transform="matrix(0.4355 0.9002 -0.9002 0.4355 525.3017 69.823)" fill="#232323" width="3.8" height="3.5"/>
</g>
<g>
	
		<rect x="207.2" y="455.2" transform="matrix(0.7086 0.7056 -0.7056 0.7086 382.9422 -14.5386)" fill="#232323" width="3.8" height="2.2"/>
</g>
<g>
	<path fill="#232323" d="M197.4,452.2l-1.7-3.4c1.5-0.7,3.2-1.2,4.9-1.1l0,3.8c0,0,0,0,0,0C199.6,451.4,198.5,451.7,197.4,452.2z"/>
</g>
<g>
	<rect x="200.1" y="443.9" fill="#232323" width="1.9" height="3.8"/>
</g>
<g>
	<path d="M356.4,271.9l-0.2-4c0-0.1-0.5-9.6-1.3-14.5l-0.2-1.2l37-25.1l5.5,8.5L356.4,271.9z M358.8,254c0.4,3,0.8,7,0.9,9.9
		l32.5-28.9l-1.6-2.5L358.8,254z"/>
</g>
<g>
	<polygon points="138.5,266.2 126.6,260.3 131.6,246 	"/>
</g>
<g>
	<path d="M128.7,259.1c-3.8-21.8-7.5-43.7-10.5-65.7c-0.7-5.5-1.4-11-2-16.6c-0.6-5.5-1.1-11.1-1.1-16.8c0.1-1.4,0-3,0.4-4.3
		c0.2-1.4,0.5-2.7,0.9-4.1c0.7-2.8,1.5-5.4,2.4-8.1c1.8-5.3,3.6-10.6,5.6-15.8c4-10.4,8.5-20.7,13.4-30.7c2.5-5,5-10,7.8-14.9
		c2.7-4.9,5.8-9.6,9.2-14.2l2.9-3.2c0.9-1.1,2.3-1.9,3.5-2.9c2.2-1.6,4.7-3,6.9-4.6c4.4-3.1,9-6.6,13.9-9.5c5-2.7,10.3-5,15.9-6.3
		c5.5-1.6,11.1-2.2,16.7-3l-0.4,0.1c8.2-2.6,16.5-4.9,24.9-6.7c4.2-0.8,8.5-1.6,12.9-1.8c2.2-0.1,4.5-0.1,6.8,0.3l6.3,1.1
		c8.4,1.3,16.9,3,25.2,5c8.3,2.1,16.6,4.6,24.6,7.5c4.1,1.4,8,3.2,12,4.8c3.9,1.8,7.8,3.7,11.6,5.6c3.7,2.2,7.5,4.2,11.2,6.5
		c3.5,2.5,7.2,4.8,10.6,7.4c3.3,2.8,6.7,5.4,9.9,8.3c3,3.1,6.2,6,9,9.2c2.7,3.4,5.5,6.6,8,10.1l6.9,10.9l0.1,0.1l0,0.2
		c0.7,10.3,1.1,20.5,1.4,30.8c0.1,5.1,0.3,10.3,0.3,15.4l0.1,15.4c0,2.6-0.1,5.1-0.1,7.7l-0.2,7.7c0,5.1-0.3,10.3-0.7,15.4l-0.5,7.7
		c-0.1,2.6-0.3,5.1-0.7,7.7l-1.9,15.3l-0.1-0.6l3.8,5.7l-1.4-0.1c1.6-1.9,3.4-3.5,5.3-5c1-0.7,2-1.4,3.1-1.9c1.1-0.6,2.3-1,3.5-1.3
		c0.6-0.2,1.2-0.2,1.9-0.3c0.6-0.1,1.3,0,1.9,0c0.6,0,1.3,0.1,1.9,0.3c0.6,0.1,1.3,0.3,1.8,0.6c0.6,0.3,1.2,0.5,1.7,0.8l1.5,1.1
		c1,0.7,1.8,1.8,2.7,2.6l-0.1-0.1c1.2,1.1,1.9,2.2,2.8,3.3l2.1,3.7c0.7,1.2,1.1,2.6,1.6,3.9c0.5,1.3,1.1,2.6,1.4,3.9
		c0.6,2.7,1.3,5.4,1.8,8.1l0.7,8.3c0.1,1.4,0.3,2.8,0.1,4.1l-0.2,4.1c-0.2,2.8-0.3,5.5-0.5,8.3l-2.9,16.3l0,0.1l-0.1,0.1l-7.3,16.1
		l-3.8,8c-1.2,2.7-2.7,5.3-4.1,8c-0.8,1.3-1.2,2.6-2.3,4c-0.4,0.6-1,1.2-1.7,1.8c-0.7,0.6-1.3,1-2,1.5c-2.7,1.7-5.6,2.7-8.6,3.5
		c-3,0.7-6.1,1.1-9.2,1c-1.6-0.1-3.1-0.2-4.7-0.6c-1.6-0.3-3.1-1.1-4.6-2.1l0.2,0.1c-0.9-0.5-1.6-1-2.4-1.7
		c-0.4-0.3-0.8-0.7-1.2-1.1l-0.6-0.6c-0.5-0.5,0.7,0.6,0.6,0.5l0,0c0.3,0.2,0.8,0.3,1.3,0.1c0.5-0.2,0.6-0.5,0.6-0.4
		c0.1-0.1,0.2-0.3,0.2-0.2c0,0,0,0.1,0,0.1c-0.4,1.5-0.8,3.3-1.2,5l-2,10.5c-1.4,7-2.7,14.1-4.2,21.1c-0.8,3.5-1.6,7-2.6,10.6
		c-0.4,1.7-1.2,3.7-1.9,5.3l-2,4.9c-2.6,6.7-5.3,13.3-8.3,19.9c-2.9,6.6-6.1,13-9.6,19.4c-1.8,3.1-3.5,6.3-5.5,9.4l-2.9,4.6
		l-3.1,4.5c-2,3-4.4,5.8-6.6,8.6c-1.1,1.4-2.5,2.7-3.7,4c-1.3,1.3-2.4,2.7-3.9,3.9l-4.2,3.6c-1.4,1.2-3,2.1-4.5,3.2
		c-3,2.3-6.6,3.5-9.9,5.1l0.3-0.1c-3.8,1.9-7.6,3.2-11.4,4.5c-3.9,1.2-7.8,2.1-11.8,2.9l-6,0.9l-6.1,0.5l-6.1,0.1
		c-2,0.1-4.1-0.2-6.1-0.2l-3-0.2l-3-0.4c-2-0.3-4-0.5-6-1l-5.9-1.4c-2-0.4-3.9-1.2-5.8-1.8c-1.9-0.7-3.9-1.2-5.7-2.1l-5.5-2.5
		c-1.9-0.8-3.6-1.9-5.3-2.9l-5.2-3.1l-0.1-0.1l-0.1-0.1c-8.8-8.4-17.3-17.1-25.5-26.1c-8.2-9-16.2-18.1-23.5-27.9
		c-3.6-4.9-7.1-10-9.9-15.5c-1.4-2.8-2.6-5.7-3.3-8.9c-0.6-3.2-0.7-6.1-1.1-9.1l-4.1-36.1l1.8,0.8c-2.9,1.7-6.2,1.4-8.9,0.2
		c-2.7-1.2-4.8-3.2-6.6-5.3c-0.9-1.1-1.6-2.2-2.5-3.3c-0.7-1.2-1.4-2.4-2.1-3.6c-1.2-2.4-2.5-4.9-3.4-7.4c-2.1-5-3.5-10.3-5.2-15.3
		c-1.6-5.1-3.4-10.2-5.1-15.3c-1.7-5.1-3.4-10.2-4.9-15.4c-1.4-5.2-2.8-10.6-2.2-16.1c0.3-2.7,1.7-5.6,4.1-7.1
		c2.4-1.5,5.3-1.9,8-1.9c2.7,0,5.4,0.3,8.1,0.8C123.7,257.8,126.2,258.4,128.7,259.1z M128.9,259.5c-2.6-0.6-5.2-1.2-7.9-1.6
		c-2.6-0.4-5.3-0.7-8-0.6c-2.6,0.1-5.3,0.5-7.5,1.9c-2.1,1.4-3.3,3.9-3.6,6.5c-0.5,5.2,1,10.5,2.5,15.6c1.5,5.1,3.3,10.2,5.2,15.2
		c1.8,5.1,3.6,10.1,5.3,15.3c1.7,5.1,3.2,10.3,5.3,15.1c0.9,2.5,2.2,4.8,3.4,7.2c0.7,1.1,1.3,2.3,2,3.4c0.8,1,1.5,2.2,2.3,3.1
		c1.7,2,3.6,3.7,5.8,4.7c2.2,1,4.8,1,6.6,0l1.6-1l0.2,1.8l4.5,36.1c0.4,3,0.7,6.1,1.2,8.9c0.6,2.7,1.8,5.4,3.1,8.1
		c2.8,5.2,6.2,10.2,9.8,15c7.3,9.6,15.3,18.6,23.6,27.4c8.3,8.8,16.8,17.4,25.5,25.7l-0.3-0.2l5.1,2.9c1.7,1,3.3,2.1,5.1,2.8
		l5.3,2.4c1.7,0.9,3.7,1.3,5.5,2c1.9,0.6,3.6,1.4,5.6,1.7l5.7,1.4c1.9,0.4,3.8,0.6,5.8,0.9l2.9,0.4l2.9,0.2c1.9,0.1,3.9,0.3,5.8,0.2
		l5.8-0.1l5.8-0.5l5.8-0.9c3.8-0.7,7.6-1.6,11.3-2.8c3.7-1.2,7.4-2.6,10.8-4.2l0.3-0.1c3.1-1.5,6.3-2.6,9.1-4.7c1.4-1,3-1.8,4.2-3
		l3.9-3.4c2.6-2.3,4.9-5,7.3-7.6c2.2-2.8,4.5-5.4,6.5-8.3l3.1-4.3l2.8-4.5c1.9-3,3.6-6.1,5.4-9.2c3.4-6.2,6.6-12.6,9.6-19.1
		c3-6.5,5.7-13,8.4-19.7l2-5c0.8-1.7,1.3-3.1,1.8-4.8c1-3.4,1.8-6.8,2.5-10.3c1.5-7,2.9-14,4.3-21l2.1-10.5c0.4-1.8,0.7-3.5,1.3-5.4
		c0.1-0.2,0.1-0.3,0.2-0.5c0-0.1,0.1-0.3,0.3-0.5c0,0,0.1-0.2,0.7-0.5c0.5-0.2,1.1-0.1,1.4,0.1l0,0l0.6,0.6l0.3,0.3
		c0.2,0.2,0.4,0.5,0.8,0.7c0.6,0.5,1.3,1,2,1.4l0.2,0.1c1,0.7,2.1,1.3,3.4,1.5c1.3,0.4,2.7,0.5,4,0.6c2.8,0.1,5.6-0.2,8.4-0.8
		c2.7-0.6,5.4-1.6,7.7-3c0.5-0.4,1.2-0.7,1.6-1.1c0.4-0.4,0.9-0.8,1.4-1.4c0.7-1,1.4-2.5,2.1-3.7c1.4-2.6,2.8-5.1,4-7.7l3.8-7.9
		l7.4-16l-0.1,0.2l3-16c0.3-2.7,0.4-5.4,0.6-8.1l0.3-4c0.2-1.4,0-2.7-0.1-4l-0.6-8.1c-0.2-1.3-0.5-2.6-0.8-3.9l-0.9-3.9
		c-0.2-1.3-0.9-2.5-1.3-3.8c-0.5-1.2-0.9-2.5-1.5-3.7l-2-3.5c-0.8-1-1.6-2.2-2.4-3l-0.1-0.1c-0.8-0.8-1.5-1.7-2.4-2.4l-1.3-1
		c-0.5-0.3-1-0.5-1.5-0.7c-0.5-0.3-1-0.4-1.5-0.5c-0.5-0.1-1-0.3-1.6-0.2c-0.5,0-1.1-0.1-1.6,0c-0.5,0.1-1.1,0.1-1.6,0.3
		c-1.1,0.3-2.1,0.7-3.1,1.2c-1,0.5-2,1.1-2.9,1.8c-1.8,1.3-3.6,2.9-5,4.6l-0.7,0.9l-0.6-0.9l-3.8-5.7l-0.2-0.3l0-0.3l2-15.2
		c0.4-2.5,0.6-5.1,0.8-7.6l0.6-7.7c0.4-5.1,0.7-10.2,0.8-15.3l0.2-7.7c0.1-2.6,0.2-5.1,0.2-7.7l0-15.4c0-5.1-0.3-10.2-0.4-15.4
		c-0.3-10.2-0.8-20.5-1.6-30.7l0.1,0.3l-6.9-10.7c-2.5-3.4-5.4-6.6-8-9.9c-2.8-3.1-6-6-9-9c-3.1-2.8-6.6-5.3-9.9-8
		c-3.4-2.5-7-4.7-10.5-7.1c-3.7-2.2-7.4-4.2-11.1-6.2c-3.9-1.8-7.7-3.7-11.6-5.3c-4-1.5-7.8-3.3-11.9-4.6c-8-2.8-16.2-5.2-24.4-7.1
		c-8.3-1.9-16.6-3.5-25.1-4.8l-6.4-1c-1.9-0.3-3.9-0.4-6-0.2c-4.1,0.2-8.3,1-12.4,1.8c-8.3,1.8-16.5,4.1-24.5,6.7l-0.1,0l-0.2,0
		c-5.4,0.8-10.9,1.3-16.2,2.9c-5.3,1.2-10.3,3.4-15.1,5.9c-4.7,2.7-9.1,6-13.7,9.3c-2.3,1.7-4.7,3-7,4.6c-1,0.8-2,1.4-2.9,2.5
		l-2.7,3c-3.3,4.3-6.3,8.9-9,13.7c-2.8,4.8-5.3,9.7-7.8,14.7c-4.9,9.9-9.4,20.1-13.5,30.4c-2.1,5.1-4,10.3-5.8,15.6
		c-0.8,2.6-1.7,5.3-2.4,7.9c-0.4,1.3-0.7,2.6-0.9,4c-0.4,1.4-0.3,2.6-0.4,4c-0.1,5.4,0.3,11,0.9,16.5c0.5,5.5,1.1,11.1,1.8,16.6
		c2.6,22.1,5.8,44.1,9.1,66.1l0,0.3L128.9,259.5z"/>
</g>
<g>
	<path d="M212.1,391.6c2.5-2.4,5.3-4.4,8.3-6.2c3-1.8,6.2-3.2,9.6-4.2c3.5-1,7.2-1.6,11.3-1.3c2,0.1,4.1,0.7,6.2,1.5
		c1,0.4,2.1,1,3,1.6c1,0.6,1.9,1.4,2.7,2.2l-7.8-0.2c1.3-1.2,2.1-1.7,3.3-2.4c1.1-0.7,2.2-1.2,3.4-1.7c2.4-0.9,5.1-1.5,7.8-1.4
		c1.4,0,2.7,0.3,4,0.6c1.3,0.4,2.5,0.9,3.7,1.5c0.6,0.3,1.8,1,2.3,1.2c0.6,0.3,1.4,0.6,2.2,1c3.3,1.3,6.9,2.5,10.5,3.7l5.6,1.9
		c1.9,0.7,3.8,1.3,5.6,2.4c-2,0.4-3.9,0.8-5.9,1.1c-2,0.3-4,0.5-6,0.7c-4,0.2-8.1,0.2-12.3-0.5c-1-0.2-2.1-0.4-3.3-0.8
		c-1.3-0.4-1.9-0.6-3-1c-1.2-0.4-2.4-0.5-3.5-0.5c-1.1,0.1-2.3,0.3-3.5,0.8c-0.6,0.3-1.2,0.5-1.8,0.9c-0.5,0.3-1.3,0.8-1.5,0.9
		l-5.2,2.6l-2.6-2.9c-1.3-1.4-3-2.5-5.5-3.1c-2.5-0.6-5.4-0.8-8.4-0.7c-3,0.1-6.2,0.5-9.4,0.9C218.7,390.5,215.5,391.1,212.1,391.6z
		"/>
</g>
<g>
	<path d="M145.3,248.5l26.9-12.3l26.5,2.4l-0.5-6.1c0,0,33.1,8,35.4,14.6C233.6,247.1,155.7,246.1,145.3,248.5z"/>
</g>
<g>
	<path d="M254.9,244.7c0,0,28.8-24.6,78.9-11.3c0,0,8.5,3.8,10.9,4.3C344.7,237.6,281.3,238.6,254.9,244.7z"/>
</g>
<g>
	<path fill="#353535" d="M256.7,130.1c0,0,4.8-4.2,12.8-9.2c2-1.2,4.2-2.6,6.6-3.8c2.4-1.3,5-2.4,7.7-3.6c2.7-1.2,5.5-2.4,8.2-3.9
		c2.8-1.4,5.4-3,8.3-4.5c0.7-0.4,1.4-0.8,2.2-1.1c0.8-0.3,1.4-0.7,2.5-0.9l0.7-0.1l0.2,0c0.1,0-0.1,0,0.3,0l0.1,0l0.3,0
		c0.4,0,0.8,0,1.2,0.1c0.9,0.2,1.9,0.4,2.6,0.7c3.1,1.1,5.8,2.4,8.5,3.7c5.3,2.7,10,5.6,13.9,8.2c2,1.3,3.8,2.4,5.3,3.5
		c1.6,1.1,3,2,4.1,2.8c2.3,1.5,3.6,2.3,3.6,2.3l-0.1,0.4c0,0-1.6-0.3-4.2-1.3c-2.6-1-6.2-2.6-10.4-4.8c-4.2-2.1-9-4.7-14.1-7.6
		c-2.5-1.5-5.2-2.9-7.8-4.1c-0.7-0.4-1.2-0.5-1.8-0.8c-0.3-0.1-0.7-0.2-1.1-0.2l-0.3-0.1l-0.1,0c0.3,0,0.1,0,0.1,0l-0.1,0l-0.4,0.1
		c-1.2,0.1-2.8,0.6-4.2,1.1c-5.9,2-11.5,4.9-16.3,8.3c-2.5,1.6-4.8,3.3-7.1,4.7c-2.3,1.4-4.5,2.6-6.6,3.7
		c-8.3,4.4-14.2,6.7-14.2,6.7L256.7,130.1z"/>
</g>
<g>
	<path fill="#434343" d="M154.6,102.4c0,0,1.3-3.4,5-7.2c0.9-0.9,2-1.9,3.3-2.8c1.2-0.9,2.8-1.5,4.5-2c1.7-0.4,3.6-0.8,5.4-0.1
		l0.7,0.3l0.5,0.3c0.4,0.2,0.8,0.3,1.1,0.4c0.7,0.2,1.5,0.2,2.3,0.1c1.6-0.1,3.1-0.6,4.6-1c1.5-0.4,3-0.9,4.5-1.5
		c0.7-0.3,1.5-0.5,2.3-0.8c0.4-0.1,0.8-0.2,1.4-0.3l0.5,0l0.1,0l0,0l0.3,0l0.1,0l0.1,0l0.5,0.1c0.7,0.2,1.8,0.6,2.4,0.9
		c0.6,0.3,1.2,0.6,1.8,0.9c2.3,1.2,4.1,2.3,5.3,3.1c0.6,0.4,1.1,0.7,1.5,0.8c0.4,0.2,0.5,0.3,0.5,0.3v0.4c0,0-0.2,0-0.7,0.1
		c-0.5,0-1-0.1-1.8-0.1c-1.5-0.2-3.7-0.7-6.1-1.4c-0.6-0.2-1.2-0.4-1.9-0.5c-0.7-0.2-1-0.3-1.6-0.4c-0.4-0.3-2,0.5-3.6,0.8
		c-3.1,0.8-6.8,1.6-10.5,0.7c-1.8-0.3-3.6-1.4-4.9-2.1c-1.3-0.6-2.9,0-4.1,0.9c-1.2,0.9-2.3,1.9-3.3,2.8c-1.1,0.9-2.1,1.7-3.1,2.5
		c-1.9,1.5-3.6,2.8-4.8,3.7c-1.2,0.9-2,1.3-2,1.3L154.6,102.4z"/>
</g>
<g>
	<rect x="144" y="343.8" width="3.8" height="3.8"/>
</g>
<g>
	<rect x="149.1" y="348.5" width="3.8" height="3.8"/>
</g>
<g>
	<rect x="152.9" y="353.2" width="3.8" height="4.4"/>
</g>
<g>
	
		<rect x="157.4" y="356.3" transform="matrix(0.9982 5.958085e-02 -5.958085e-02 0.9982 21.7211 -8.8539)" width="3.8" height="6.9"/>
</g>
<g>
	<rect x="162.9" y="361.1" width="3.8" height="6.9"/>
</g>
<g>
	<path d="M167,372.5c-0.2-2.7,0-5.5,0.7-8.1l3.7,0.9c-0.5,2.3-0.7,4.6-0.6,7L167,372.5z"/>
</g>
<g>
	<rect x="171.1" y="368.3" width="3.8" height="4.4"/>
</g>
<g>
	<rect x="175.8" y="371.8" width="3.8" height="8.2"/>
</g>
<g>
	<rect x="180.3" y="376.8" width="3.8" height="4.7"/>
</g>
<g>
	<rect x="183.4" y="379" width="3.8" height="4.7"/>
</g>
<g>
	<rect x="187.6" y="382.6" transform="matrix(0.115 0.9934 -0.9934 0.115 550.3903 151.2889)" width="5.4" height="3.8"/>
</g>
<g>
	<rect x="193.5" y="388.8" transform="matrix(0.1411 0.99 -0.99 0.1411 555.4001 141.1727)" width="5.7" height="3.8"/>
</g>
<g>
	<rect x="199.2" y="399" transform="matrix(0.2154 0.9765 -0.9765 0.2154 549.9752 117.2819)" width="5.5" height="3.8"/>
</g>
<g>
	<path d="M204.9,403.6c-0.7-1.3-1.1-2.8-1.2-4.3l3.8-0.3c0.1,1,0.3,1.9,0.8,2.8L204.9,403.6z"/>
</g>
<g>
	<rect x="231.4" y="413.5" transform="matrix(0.6545 0.7561 -0.7561 0.6545 395.6598 -32.4517)" width="3.8" height="6.3"/>
</g>
<g>
	<path d="M234.9,423.9l-2.2-3.1c1.3-0.9,3.5-2.8,3.8-5.3l3.7,0.5C239.8,418.9,237.9,421.7,234.9,423.9z"/>
</g>
<g>
	<rect x="239.8" y="417.8" width="3.8" height="5"/>
</g>
<g>
	<path d="M244.5,426.2c-0.7-2.4-1.2-4.8-1.3-7.3l3.8-0.3c0.2,2.2,0.5,4.4,1.2,6.5L244.5,426.2z"/>
</g>
<g>
	<path d="M248.5,427.1c-0.7-2.7-1.1-5.5-1.3-8.3l3.8-0.2c0.1,2.5,0.5,5.1,1.2,7.5L248.5,427.1z"/>
</g>
<g>
	<path d="M253.8,427.1c-1.1-2.2-2-4.5-2.7-6.9l3.6-1.1c0.6,2.2,1.5,4.3,2.4,6.3L253.8,427.1z"/>
</g>
<g>
	<rect x="254.8" y="419.4" transform="matrix(0.52 0.8542 -0.8542 0.52 483.7378 -18.232)" width="6.6" height="3.8"/>
</g>
<g>
	<path d="M263.7,425.6c-2.1-1.7-3.8-3.9-4.9-6.4l3.4-1.6c0.9,1.9,2.2,3.7,3.9,5L263.7,425.6z"/>
</g>
<g>
	<path d="M269.3,425.5c-2.3-1.7-4.2-4-5.6-6.5l3.3-1.9c1.2,2,2.7,3.9,4.6,5.3L269.3,425.5z"/>
</g>
<g>
	<polygon points="272.3,424.8 268.6,419.6 271.7,417.4 275.4,422.6 	"/>
</g>
<g>
	
		<rect x="373.3" y="225.2" transform="matrix(0.5898 0.8076 -0.8076 0.5898 352.1562 -202.2912)" fill="#4C4C4D" width="3.8" height="40.6"/>
</g>
<g>
	
		<rect x="133.8" y="259" transform="matrix(0.832 0.5548 -0.5548 0.832 167.7095 -31.9674)" fill="#4C4C4D" width="5.7" height="3.8"/>
</g>
<g>
	<rect x="230.6" y="354.1" width="3.8" height="3.8"/>
</g>
<g>
	<path d="M224.1,370l-2.6-2.7c1.8-1.8,3.3-3.8,4.4-6l3.3,1.8C227.9,365.6,226.2,368,224.1,370z"/>
</g>
<g>
	<path d="M217.6,377.5l-2.1-3.1c1.2-0.8,2.2-2,2.9-3.4l3.4,1.6C220.8,374.6,219.4,376.3,217.6,377.5z"/>
</g>
<g>
	<rect x="209.2" y="372.6" transform="matrix(0.5761 0.8173 -0.8173 0.5761 395.8516 -13.6313)" width="3.8" height="4.5"/>
</g>
<g>
	<path d="M202.9,383.7l-1.7-3.4c1.9-1,3.7-2,5.4-3.2l2.1,3.1C206.9,381.5,204.9,382.7,202.9,383.7z"/>
</g>
<g>
	<path d="M202.5,381.2l-1.6-3.4c1.2-0.5,2.1-1.5,2.5-2.7l3.6,1.2C206.3,378.4,204.6,380.2,202.5,381.2z"/>
</g>
<g>
	<path d="M196.5,382.3l-2.1-3.2l0.9-0.6c0.6-1.1,1.2-2.1,2-3l2.8,2.5c-0.7,0.8-1.3,1.7-1.7,2.6l-0.2,0.5L196.5,382.3z"/>
</g>
<g>
	<polygon points="208.3,384.5 205.8,381.7 208.7,379 211.3,381.8 	"/>
</g>
<g>
	<rect x="209.6" y="380.4" transform="matrix(0.6247 0.7809 -0.7809 0.6247 378.3079 -21.4435)" width="3.8" height="4.9"/>
</g>
<g>
	<path d="M194.2,387.9l-1.3-3.6c1.9-0.7,3.8-1.6,5.5-2.6l2,3.2C198.4,386.1,196.3,387.1,194.2,387.9z"/>
</g>
<g>
	<path d="M186.8,386.9l-3.6-1.2c0.7-2,1.7-3.8,3-5.5l2.9,2.4C188.1,383.9,187.3,385.3,186.8,386.9z"/>
</g>
<g>
	<rect x="191.6" y="390.7" width="3.8" height="2.2"/>
</g>
<g>
	<polygon points="235.4,371.5 232.1,369.5 234,366.4 237.3,368.3 	"/>
</g>
<g>
	<path d="M219.9,380.1l-1.2-3.6c2.1-0.7,4.1-1.6,5.9-2.8l2.1,3.2C224.6,378.3,222.3,379.4,219.9,380.1z"/>
</g>
<g>
	<path d="M228.2,368.8l-1.4-3.5c2.5-1,4.6-2.7,6-4.9l3.2,2C234.1,365.3,231.4,367.6,228.2,368.8z"/>
</g>
<g>
	<path d="M219.9,371.4l-1.3-3.6c0.7-0.2,1.3-0.6,1.8-1.1l2.7,2.6C222.3,370.2,221.2,370.9,219.9,371.4z"/>
</g>
<g>
	<path d="M209.1,373l-2.2-3.1c1-0.7,2.3-1,3.4-1l-0.2,3.8C209.7,372.7,209.3,372.8,209.1,373z"/>
</g>
<g>
	<rect x="196" y="373.1" transform="matrix(0.2832 0.9591 -0.9591 0.2832 502.8268 80.0408)" width="3.8" height="6.6"/>
</g>
<g>
	<rect x="236.3" y="359.8" width="3.8" height="2.8"/>
</g>
<g>
	<path d="M242,363.8c-0.2-1.5,0.4-3.1,1.5-4.1l2.6,2.8c-0.2,0.2-0.4,0.6-0.4,0.9L242,363.8z"/>
</g>
<g>
	<polygon points="260.5,362 256.7,361.4 257.1,358.9 260.9,359.5 	"/>
</g>
<g>
	<path d="M264.4,366.6c-0.1-0.7-1.5-3.1-2-3.6l-0.6-0.6l0-5.8h3.8v4.4c1,1.3,2.4,3.8,2.6,5.2L264.4,366.6z"/>
</g>
<g>
	<polygon points="266.4,363.1 266,361.5 269.7,360.6 270,362.2 	"/>
</g>
<g>
	<path d="M271.1,370c-0.5-0.9-1.2-1.8-2-2.5l2.6-2.8c1.1,1,2,2.1,2.7,3.4L271.1,370z"/>
</g>
<g>
	<rect x="272.6" y="362.6" transform="matrix(0.6129 0.7902 -0.7902 0.6129 394.1971 -75.643)" width="3.3" height="3.8"/>
</g>
<g>
	<polygon points="282.1,374.7 279.1,371.5 281.8,368.9 284.9,372.1 	"/>
</g>
<g>
	<polygon points="270.9,372.9 270.3,370.4 273.9,369.4 274.6,372 	"/>
</g>
<g>
	<polygon points="276.1,379.8 274.2,378.3 276.5,375.4 278.5,376.9 	"/>
</g>
<g>
	<rect x="240.7" y="370.5" width="3.8" height="1.3"/>
</g>
<g>
	<rect x="247.3" y="369.9" transform="matrix(0.9753 0.2209 -0.2209 0.9753 88.1944 -45.8643)" width="3.8" height="3.2"/>
</g>
<g>
	<path d="M256.5,372.1c-0.6-1.1-1.7-2.9-1.2-4.9l3.7,0.9c-0.1,0.5,0.5,1.5,0.8,2.1L256.5,372.1z"/>
</g>
<g>
	<path d="M271.6,374.3c-2.4-0.3-4.5-1.8-5.7-3.9l3.3-1.8c0.6,1,1.7,1.8,2.8,2L271.6,374.3z"/>
</g>
<g>
	<path d="M279,369.9c-1-0.7-1.7-1.6-2.2-2.7l3.5-1.5c0.2,0.4,0.5,0.8,0.9,1.1L279,369.9z"/>
</g>
<g>
	<path d="M289.3,373.8c-2.3-1.2-4.6-2.5-6.8-3.9l2.1-3.1c2,1.4,4.2,2.6,6.4,3.7L289.3,373.8z"/>
</g>
<g>
	<path d="M292.9,374.8c-0.8-0.3-2-0.8-2.9-1.8c-1.2-1.3-1.5-3.2-0.7-4.7l3.3,1.9c0-0.1,0-0.1,0-0.1c0.5,0.7,1.2,0.9,1.7,1.2
		L292.9,374.8z"/>
</g>
<g>
	<rect x="283.8" y="373.3" transform="matrix(0.8101 0.5863 -0.5863 0.8101 274.107 -95.8762)" width="2.5" height="3.8"/>
</g>
<g>
	<path d="M296.3,386.1l-8.3-10.8l6.4,3c0.8-0.4,1.7-0.2,2.4,0.4l-0.8,0.9l3.2,4.2L296.3,386.1z"/>
</g>
<g>
	<path d="M303,385.3c-1.5-1-2.8-2.2-3.9-3.6l3-2.3c0.8,1.1,1.8,2,3,2.7L303,385.3z"/>
</g>
<g>
	<path d="M304.2,381.3c-0.9-1-1.5-2.2-1.7-3.4l3.7-0.7c0.1,0.6,0.4,1.2,0.8,1.6L304.2,381.3z"/>
</g>
<g>
	<path d="M313.3,391c-1.5-0.4-2.9-1.5-3.6-2.9l3.3-1.8c0.3,0.5,0.8,0.9,1.3,1L313.3,391z"/>
</g>
<g>
	<path d="M307.7,390.7c-1.4-0.7-2.7-1.8-3.5-3.1l3.2-1.9c0.4,0.7,1.1,1.3,1.8,1.6L307.7,390.7z"/>
</g>
<g>
	<path d="M304.2,394.2c-2.1-1.7-3.9-3.9-5.2-6.3l3.3-1.8c1.1,2,2.5,3.8,4.2,5.2L304.2,394.2z"/>
</g>
<g>
	<rect x="307.8" y="395.4" width="0.6" height="3.8"/>
</g>
<g>
	<rect x="312.8" y="396.2" transform="matrix(0.9863 0.1649 -0.1649 0.9863 69.9518 -46.3303)" width="2.2" height="3.8"/>
</g>
<g>
	<rect x="306.8" y="381.5" transform="matrix(0.8294 0.5587 -0.5587 0.8294 266.9024 -107.1776)" width="4.3" height="3.8"/>
</g>
<g>
	<polygon points="297.3,381.7 296.1,379.8 299.3,377.7 300.5,379.6 	"/>
</g>
<g>
	<path d="M298.7,377.8c-1.3-0.7-2.2-2.2-2.3-3.7l3.8-0.2c0,0.2,0.2,0.5,0.4,0.6L298.7,377.8z"/>
</g>
<g>
	<path d="M294.2,384.6c-1.8-1.3-3.4-3-4.5-5l3.3-1.8c0.8,1.5,2,2.7,3.3,3.7L294.2,384.6z"/>
</g>
<g>
	<path d="M294.9,387.1c-0.7-0.6-1.4-1-2.2-1.4l1.4-3.5c1.2,0.5,2.3,1.2,3.3,2L294.9,387.1z"/>
</g>
<g>
	<path d="M314.8,390.9c-0.6-0.8-1.3-1.4-2.1-2l2.3-3c1,0.8,1.9,1.7,2.7,2.7L314.8,390.9z"/>
</g>
<g>
	<path d="M206.3,442.5l-1.2-3.6c1.6-0.5,3.1-1.5,4.3-2.7l2.7,2.7C210.5,440.6,208.5,441.8,206.3,442.5z"/>
</g>
<g>
	<rect x="206.8" y="431.9" transform="matrix(0.5177 0.8556 -0.8556 0.5177 472.2934 30.9493)" width="3.8" height="4.8"/>
</g>
<g>
	<rect x="214.7" y="433.3" transform="matrix(0.7579 0.6524 -0.6524 0.7579 336.5944 -35.8649)" width="3.8" height="4.5"/>
</g>
<g>
	<polygon points="231.8,425.9 228.1,425.3 228.4,422.8 232.2,423.4 	"/>
</g>
<g>
	<rect x="220.7" y="431.5" transform="matrix(0.6893 0.7245 -0.7245 0.6893 382.9077 -26.7475)" width="3.8" height="3.1"/>
</g>
<g>
	<rect x="218.9" y="426.8" transform="matrix(0.9275 0.3739 -0.3739 0.9275 176.4064 -51.4318)" width="3.8" height="4.4"/>
</g>
<g>
	<path d="M216.3,447l-2.8-2.5c0.7-0.7,1.1-1.7,1.2-2.7l3.8,0.3C218.2,444,217.5,445.7,216.3,447z"/>
</g>
<g>
	<path d="M206.8,453.8l-3.7-0.9c0.6-2.5,1-5.2,1.1-7.8l3.8,0.2C207.9,448.1,207.5,451,206.8,453.8z"/>
</g>
<g>
	<path d="M208.9,457.1c-0.3-1.7,0.1-2.9,0.4-4c0.1-0.4,0.3-0.9,0.4-1.4l0.3-1.9l3.7,0.7l-0.3,1.9c-0.1,0.7-0.3,1.2-0.4,1.8
		c-0.3,0.9-0.4,1.5-0.3,2.3L208.9,457.1z"/>
</g>
<g>
	<path d="M217.7,465.6c-1.4-2.4-2.2-5.1-2.3-7.8l3.8-0.1c0,2.1,0.6,4.2,1.7,6L217.7,465.6z"/>
</g>
<g>
	<path d="M198.6,451.2l-2.7-2.6c1.3-1.3,2.7-2.4,4.2-3.4l1.9,3.2C200.8,449.2,199.6,450.1,198.6,451.2z"/>
</g>
<g>
	<path d="M221.8,466.5c-1-2.1,0.3-3.7,1.1-4.6c0.1-0.1,0.2-0.2,0.3-0.4c-0.5-1.7-0.6-3.4-0.3-5.1l3.7,0.7c-0.2,1.3-0.1,2.7,0.5,4
		l0.3,0.8l-0.4,0.8c-0.3,0.7-0.8,1.3-1.2,1.7c-0.2,0.2-0.5,0.6-0.6,0.8L221.8,466.5z"/>
</g>
<g>
	<polygon points="227.4,467.2 226.4,465.4 229.6,463.5 230.7,465.3 	"/>
</g>
<g>
	<path d="M232.4,468c-1.6-0.7-2.6-2.4-2.4-4.1l0.4-3.5l2.7,2.2c0-0.1,0.4,0,0.7,0.1c0.8,0.1,1.7,0.3,2.5,0.9l-2.4,2.9
		c0,0.1-0.4,0-0.7-0.1c-0.1,0-0.1,0-0.2,0L232.4,468z"/>
</g>
<g>
	<polygon points="244.8,467.9 242.4,466.6 242.4,466.6 240.5,466.6 240.4,465.6 239.4,465 240.4,464.1 240.4,461.2 242.8,462.5 
		242.8,462.5 244.7,462.5 244.7,463.6 245.4,464 244.8,464.8 	"/>
</g>
<g>
	<polygon points="240.1,469.7 236.3,469.7 240.1,469.4 	"/>
</g>
<g>
	<path d="M232.2,471.8c-2-1.1-3.7-2.7-4.9-4.6l3.2-2.1c0.9,1.4,2.1,2.5,3.6,3.3L232.2,471.8z"/>
</g>
<g>
	<rect x="244.5" y="465" width="3.8" height="3.1"/>
</g>
<g>
	<polygon points="247.7,472.2 243.9,472.2 247.7,471.9 	"/>
</g>
<g>
	<polygon points="251.4,473.8 250.6,467.5 254.3,466.9 255.2,473.2 	"/>
</g>
<g>
	<rect x="254.9" y="466.6" transform="matrix(0.1512 0.9885 -0.9885 0.1512 681.5787 143.1316)" width="5.1" height="3.8"/>
</g>
<g>
	<path d="M204.8,465.9c-2.7-1.7-4.7-4.3-5.7-7.2l3.6-1.2c0.7,2.1,2.2,4,4.1,5.2L204.8,465.9z"/>
</g>
<g>
	<polygon points="204.6,465.5 203.3,460.8 207,459.8 208.3,464.5 	"/>
</g>
<g>
	<path d="M215.1,470c-1.7-1.4-2.9-3.4-3.6-5.4l3.6-1.1c0.4,1.4,1.3,2.7,2.4,3.7L215.1,470z"/>
</g>
<g>
	<path d="M209.2,469.4c-1.5-1.6-2.8-3.4-3.7-5.4l3.4-1.6c0.8,1.6,1.8,3.1,3,4.4L209.2,469.4z"/>
</g>
<g>
	<rect x="218.9" y="469.4" transform="matrix(0.501 0.8654 -0.8654 0.501 518.7938 42.8156)" width="6.6" height="3.8"/>
</g>
<g>
	<polygon points="227,476 225.4,474.1 228.3,471.7 229.9,473.6 	"/>
</g>
<g>
	<path d="M235.5,477.9c-1.8-0.2-3.5-1.2-4.5-2.8l3.2-2c0.4,0.6,1,1,1.7,1.1L235.5,477.9z"/>
</g>
<g>
	<path d="M243.2,479.5c-1.1-1.6-2.3-3.4-2.9-5.5l3.6-1c0.4,1.5,1.4,2.9,2.4,4.3L243.2,479.5z"/>
</g>
<g>
	<path d="M244.6,482.1c-1.9-0.9-3.5-2.4-4.6-4.2l3.3-1.9c0.7,1.2,1.7,2.1,2.9,2.7L244.6,482.1z"/>
</g>
<g>
	<path d="M252.2,482.5c-1.9-0.9-3.4-2.7-3.9-4.8l3.7-0.8c0.2,1,0.9,1.8,1.8,2.2L252.2,482.5z"/>
</g>
<g>
	<rect x="256.4" y="476.2" transform="matrix(0.5045 0.8634 -0.8634 0.5045 540.7973 13.7816)" width="3.9" height="3.8"/>
</g>
<g>
	<polygon points="261.6,481 260.3,479.4 263.3,477.1 264.6,478.7 	"/>
</g>
<g>
	<path d="M265,479.6c-0.9-1.3-1.3-2.8-1.2-4.3l3.8,0.2c0,0.7,0.2,1.4,0.6,2L265,479.6z"/>
</g>
<g>
	<path d="M266.8,476.8c-1.1-1.1-2-2.4-2.4-3.9l3.6-1.2c0.3,0.9,0.8,1.7,1.5,2.4L266.8,476.8z"/>
</g>
<g>
	<path d="M274,478.1l-3.1-2.2c0.8-1.1,1.5-2.3,2.1-3.5l3.4,1.7C275.8,475.5,275,476.8,274,478.1z"/>
</g>
<g>
	<path d="M276.9,480.1l-3.3-1.9l6.5-11.3l0.6,5.8c0,0.1,0.2,0.5,0.4,0.7c0.5,0.9,1.4,2.5,0.2,4l-2-1.5L276.9,480.1z"/>
</g>
<g>
	<rect x="285.4" y="469.3" transform="matrix(0.9525 0.3045 -0.3045 0.9525 157.3032 -65.0724)" width="3.8" height="5"/>
</g>
<g>
	<path d="M286.1,476.3l-3.3-1.9c0.4-0.8,0.7-1.7,0.7-2.6l3.8,0.1C287.3,473.5,286.9,475,286.1,476.3z"/>
</g>
<g>
	<path d="M293.6,474l-3.7-0.9c0.3-1.2,0.4-2.5,0.2-3.8l3.8-0.4C294.1,470.6,294,472.3,293.6,474z"/>
</g>
<g>
	<rect x="293.3" y="469.1" width="3.8" height="4.1"/>
</g>
<g>
	<rect x="296.7" y="464.8" transform="matrix(0.3492 0.937 -0.937 0.3492 631.8301 23.6546)" width="4.4" height="3.8"/>
</g>
<g>
	<path d="M300.1,468.6c-0.6-1.4-1-2.8-1.3-4.3l3.7-0.6c0.2,1.2,0.5,2.3,1,3.3L300.1,468.6z"/>
</g>
<g>
	<polygon points="301.9,464.9 300.9,462.7 304.4,461.1 305.3,463.3 	"/>
</g>
<g>
	<path d="M307.5,463.3c-1.1-2.5-2.4-5-3.9-7.2l3.2-2.1c1.6,2.5,3.1,5.1,4.3,7.8L307.5,463.3z"/>
</g>
<g>
	<rect x="304.3" y="465" width="3.8" height="2.2"/>
</g>
<g>
	<path d="M309.7,460.4c-0.1-1.2-0.3-2.5-0.7-3.6l3.6-1.1c0.5,1.5,0.7,3,0.9,4.5L309.7,460.4z"/>
</g>
<g>
	<path d="M311.6,462.3c-0.1-1.7,0-3.3,0.4-5l3.7,0.9c-0.3,1.3-0.4,2.6-0.3,3.8L311.6,462.3z"/>
</g>
<g>
	<path d="M309.7,470.3l-2.5-2.9c0.3-0.3,0.5-0.7,0.6-1l3.7,0.5C311.4,468.1,310.7,469.4,309.7,470.3z"/>
</g>
<g>
	<rect x="298.9" y="469.5" transform="matrix(0.7264 0.6873 -0.6873 0.7264 406.4543 -77.6461)" width="3.8" height="4.2"/>
</g>
<g>
	<path d="M285.7,480.3l-1.1-3.6c2.9-0.9,5.8-1.6,8.8-2.1l0.6,3.7C291.2,478.8,288.4,479.4,285.7,480.3z"/>
</g>
<g>
	<path d="M275.2,480.7l-2.2-3.1c1.4-1,3.2-1.6,4.9-1.6l0,3.8C276.9,479.8,276,480.1,275.2,480.7z"/>
</g>
<g>
	<polygon points="265.4,483.2 264,479.7 265.8,478.9 267.2,482.4 	"/>
</g>
<g>
	<rect x="256.8" y="480.4" width="3.1" height="3.8"/>
</g>
<g>
	<rect x="251.7" y="480.4" width="1.6" height="3.8"/>
</g>
<g>
	<path d="M248.2,482.9c-0.1-0.1-0.6-0.2-0.9-0.3c-1-0.3-2.8-0.9-3-2.9l3.7-0.5c0-0.2-0.2-0.4-0.3-0.5c0.1,0.1,0.5,0.2,0.7,0.3
		c0.7,0.2,1.6,0.5,2.3,1.2L248.2,482.9z"/>
</g>
<g>
	<path d="M285.5,471.5c-0.2-1.5-0.1-3,0.3-4.5l3.7,0.9c-0.3,1-0.3,2.1-0.2,3.1L285.5,471.5z"/>
</g>
<g>
	<path d="M293.9,476.2l-3.5-6.2c-0.9-1.5-0.6-2.8-0.4-3.8c0.1-0.3,0.1-0.5,0.2-0.9l3.8,0.2V476.2z"/>
</g>
<g>
	<rect x="295.5" y="463.4" width="3.8" height="2.2"/>
</g>
<g>
	<polygon points="292.5,464.2 292.3,461.4 296.1,461.1 296.3,464 	"/>
</g>
<g>
	<path d="M297.9,468.2c-1.7-1.7-2.7-3.9-3-6.2l3.8-0.4c0.2,1.5,0.8,2.9,1.9,3.9L297.9,468.2z"/>
</g>
<g>
	<polygon points="302.9,467.7 302,465.5 305.4,463.9 306.4,466.1 	"/>
</g>
<g>
	<polygon points="306.8,462.3 305.5,459.5 308.9,457.9 310.2,460.7 	"/>
</g>
<g>
	<path d="M310.9,460.7c-0.8-1.3-1.1-3-0.9-4.5l3.7,0.7c-0.1,0.6,0,1.3,0.3,1.8L310.9,460.7z"/>
</g>
<g>
	<path d="M307,457.7c-0.8-0.9-1.3-2-1.5-3.2l3.7-0.4c0.1,0.4,0.2,0.8,0.5,1.1L307,457.7z"/>
</g>
<g>
	<polygon points="314.5,454 313.5,451.2 317.1,449.9 318.1,452.7 	"/>
</g>
<g>
	<path d="M313.5,455.9c-1-1.6-1.7-3.3-2.2-5.1l3.6-1c0.4,1.5,1,2.9,1.8,4.2L313.5,455.9z"/>
</g>
<g>
	<path d="M323.2,456.2h-3.8c0-1.2,0.3-2.2,0.6-3.1c0.2-0.8,0.4-1.5,0.4-2.1l3.8-0.4c0.1,1.3-0.2,2.5-0.5,3.5
		C323.4,454.9,323.2,455.6,323.2,456.2z"/>
</g>
<g>
	<rect x="316.6" y="446.4" width="3.8" height="2.5"/>
</g>
<g>
	<path d="M325.8,445.7l-1.3-3.6c5.2-1.9,10.2-9.5,11.6-11.8l3.2,2C337.3,435.6,332,443.5,325.8,445.7z"/>
</g>
<g>
	<rect x="321.5" y="445.4" transform="matrix(0.974 0.2264 -0.2264 0.974 109.7266 -61.5917)" width="3.8" height="4.2"/>
</g>
<g>
	<path d="M327.6,439.5c-0.4,0-0.8,0-1.1-0.1l0.5-3.7c1,0.1,1.9,0,2.8-0.4l1.6,3.4C330.1,439.3,328.9,439.5,327.6,439.5z"/>
</g>
<g>
	<path d="M329.5,448.1c-0.8,0-1.6-0.2-2.2-0.6l1.9-3.3c0.1,0.1,0.3,0.1,0.5,0.1l0.9,3.7C330.3,448,329.9,448.1,329.5,448.1z"/>
</g>
<g>
	<path d="M339.2,428.8h-1.8V426l-0.5-0.4c0.1-0.2,0.3-0.3,0.5-0.5l0.1-0.1c0.4-0.4,0.8-0.8,1.2-1.2c0.6-0.6,1.2-1.2,1.6-1.7l2.8,2.6
		c-0.5,0.5-1.1,1.2-1.8,1.8c-0.6,0.6-1.2,1.2-1.6,1.7L339.2,428.8z"/>
</g>
<g>
	<rect x="313.9" y="382.3" transform="matrix(0.5458 0.8379 -0.8379 0.5458 465.6062 -90.5043)" width="4.8" height="3.8"/>
</g>
<g>
	<path d="M311.8,394.8l-3.7-0.8c0.2-0.9,0-1.9-0.6-2.6l2.9-2.4C311.7,390.6,312.2,392.8,311.8,394.8z"/>
</g>
<g>
	<polygon points="311.4,399.7 308.9,397.8 311.2,394.8 313.7,396.7 	"/>
</g>
<g>
	<rect x="312.8" y="394.5" width="3.8" height="5.7"/>
</g>
<g>
	<path d="M277.3,434.3l-10.1-18.8l11.6,13.6l0,0c0.1,0,0.6,0.1,1,0.2c1,0.2,2.3,0.5,3.1,1.4l-2.9,2.5l0,0c0,0-0.2,0-0.3-0.1
		L277.3,434.3z"/>
</g>
<g>
	<path d="M284.2,441.5c-0.7-1-1-2.2-1-3.4l3.8,0.2c0,0.4,0.1,0.7,0.3,1L284.2,441.5z"/>
</g>
<g>
	<rect x="280.2" y="435.1" transform="matrix(0.4167 0.909 -0.909 0.4167 561.4263 -1.0033)" width="2.7" height="3.8"/>
</g>
<g>
	<path d="M288.7,442.4c-1.5-1-2.5-2.7-2.7-4.6l3.8-0.4c0.1,0.7,0.5,1.5,1.1,1.9L288.7,442.4z"/>
</g>
<g>
	<path d="M285,432.9c-1.2-1.3-2.2-2.7-3.1-4.2l3.3-1.9c0.7,1.2,1.6,2.4,2.6,3.4L285,432.9z"/>
</g>
<g>
	<path d="M277,425.4c-0.4-0.9-1.1-1.7-1.9-2.2l1.8-3.3c1.7,0.9,2.9,2.4,3.6,4.2L277,425.4z"/>
</g>
<g>
	<rect x="278.2" y="427.2" width="3.8" height="2.2"/>
</g>
<g>
	<path d="M282.8,430c-0.4-1-1-2-1.8-2.8l2.6-2.7c1.2,1.2,2.1,2.6,2.7,4.2L282.8,430z"/>
</g>
<g>
	<path d="M291.1,447.3l-3.4-1.6c0.5-1,0.5-2.1,0.2-3.1l3.6-1.1C292.1,443.4,292,445.5,291.1,447.3z"/>
</g>
<g>
	<polygon points="281,449.4 277.3,449.1 277.7,444.1 281.4,444.4 	"/>
</g>
<g>
	<path d="M277.9,460.3l-2.7-2.6c0.6-0.7,1.3-1.4,1.8-2.2l3.1,2.2C279.5,458.6,278.7,459.5,277.9,460.3z"/>
</g>
<g>
	<path d="M207,450.1c-0.2-2.2,0-4.5,0.8-6.5l3.5,1.3c-0.6,1.5-0.8,3.1-0.6,4.7L207,450.1z"/>
</g>
<g>
	
		<rect x="196.7" y="442.6" transform="matrix(0.9955 9.467092e-02 -9.467092e-02 0.9955 42.9905 -16.8063)" width="3.8" height="4.1"/>
</g>
<g>
	<path d="M190.1,456.4c-1.3-2.4-2.2-5.1-2.6-7.8l3.7-0.5c0.3,2.3,1.1,4.5,2.2,6.5L190.1,456.4z"/>
</g>
<g>
	<path d="M187.4,443c-0.7-1.5-1-3.2-0.9-4.9l3.8,0.2c-0.1,1.1,0.1,2.2,0.6,3.2L187.4,443z"/>
</g>
<g>
	<path d="M181.9,443.1c-0.5-2.2-0.5-4.6,0-6.9l3.7,0.9c-0.4,1.7-0.4,3.5,0,5.1L181.9,443.1z"/>
</g>
<g>
	<path d="M162.4,416c-3.8-1.9-6.7-5.3-8.1-9.4l3.6-1.2c1,3.1,3.3,5.7,6.2,7.2L162.4,416z"/>
</g>
<g>
	<path d="M174,423.9l-5.3-4.4l-0.2-0.5c-0.3-0.8-0.8-1.5-1.3-2.1l2.7-2.7c0.8,0.8,1.5,1.8,2,2.9l4.6,3.8L174,423.9z"/>
</g>
<g>
	<path d="M173.3,425c-2.3-0.8-4.5-1.8-6.6-3.1l1.9-3.3c1.9,1.1,3.9,2,5.9,2.8L173.3,425z"/>
</g>
<g>
	<path d="M177,435.3c-0.8-2.5-1.2-5.2-1.1-7.8l3.8,0c0,2.3,0.3,4.5,1,6.6L177,435.3z"/>
</g>
<g>
	<path d="M176.7,434.6c-3.1-3.7-5.9-7.7-8.4-11.8l3.3-1.9c2.3,4,5,7.8,8,11.3L176.7,434.6z"/>
</g>
<g>
	<path d="M183.9,442c-1.4-2.7-2.2-5.7-2.4-8.7l3.8-0.2c0.1,2.5,0.8,4.9,1.9,7.1L183.9,442z"/>
</g>
<g>
	<path d="M188.4,447.4c-2.7-2.8-4-6.9-3.3-10.8l3.7,0.7c-0.5,2.6,0.4,5.5,2.3,7.4L188.4,447.4z"/>
</g>
<g>
	<path d="M191.6,448.9c-0.6-3.5-0.4-7.1,0.5-10.5l3.7,0.9c-0.8,2.9-0.9,6-0.4,9L191.6,448.9z"/>
</g>
<g>
	<path d="M184.3,430.7h-3.8v-12.1l4.1,9.2c0.1,0.2,0.2,0.5,0.5,1.2l-0.9,0.4V430.7z"/>
</g>
<g>
	<path d="M185.8,438.2c-0.3-1.8-0.3-3.7-0.1-5.5l3.8,0.3c-0.1,1.5-0.1,3.1,0.1,4.6L185.8,438.2z"/>
</g>
<g>
	<path d="M172.3,425.9c-0.7-1.2-1.1-2.6-1.2-3.9l3.8-0.3c0.1,0.8,0.3,1.6,0.7,2.3L172.3,425.9z"/>
</g>
<g>
	<path d="M165.2,419.5c-0.9-1.2-1.2-2.8-0.9-4.2l3.7,0.7c-0.1,0.5,0,1,0.3,1.4L165.2,419.5z"/>
</g>
<g>
	<path d="M157.2,411.3c-1.1-1.8-1.3-4.1-0.4-6l3.4,1.6c-0.3,0.7-0.3,1.7,0.1,2.3L157.2,411.3z"/>
</g>
<g>
	<path d="M169.2,423.8c-5.6-2.2-9.4-7.9-9.3-13.9l3.8,0.1c-0.1,4.4,2.9,8.7,6.9,10.3L169.2,423.8z"/>
</g>
<g>
	<path d="M188.1,439.3c-1-2.6-1.3-5.5-0.9-8.2l3.7,0.5c-0.3,2.1-0.1,4.3,0.7,6.3L188.1,439.3z"/>
</g>
<g>
	<path d="M193.7,450.9c-1.2-1.3-2.2-2.7-2.9-4.3l3.5-1.5c0.5,1.2,1.3,2.3,2.2,3.3L193.7,450.9z"/>
</g>
<g>
	<path d="M196.4,446.4c-1.9-2.2-3.2-5-3.8-7.9l3.7-0.7c0.4,2.2,1.4,4.4,2.9,6.1L196.4,446.4z"/>
</g>
<g>
	<path d="M189.3,434.5c-2.5-2.2-4.2-5.3-4.6-8.6l3.7-0.5c0.3,2.4,1.5,4.7,3.3,6.2L189.3,434.5z"/>
</g>
<g>
	<path d="M205.9,463c-1.1-0.5-1.9-1.3-2.7-2.1c-0.4-0.4-0.9-0.9-1.3-1.1c-0.5-0.3-1-0.5-1.5-0.8c-1.4-0.6-3.1-1.4-4.2-3.9l3.4-1.6
		c0.5,1.1,1.1,1.4,2.4,2c0.6,0.3,1.3,0.6,1.9,1c0.8,0.5,1.4,1.1,1.9,1.7c0.5,0.5,1,1.1,1.6,1.3L205.9,463z"/>
</g>
<g>
	<path d="M214.2,465.8c-1.9-0.4-3.4-1.7-4.3-3.6c-0.9-1.9-0.9-3.9-0.1-5.6l3.4,1.6c-0.3,0.7-0.3,1.5,0.1,2.3c0.4,0.8,1,1.4,1.8,1.5
		L214.2,465.8z"/>
</g>
<g>
	<path d="M219.3,469.4c-4.3-0.8-7.6-4.7-7.9-9l3.8-0.2c0.1,2.6,2.2,5,4.8,5.5L219.3,469.4z"/>
</g>
<g>
	<path d="M222.4,470c-3.3-0.7-5.8-3.9-5.6-7.3l3.8,0.2c-0.1,1.5,1.1,3.1,2.6,3.4L222.4,470z"/>
</g>
<g>
	<path d="M233.4,476.3c-1.3,0-2.7-0.6-3.6-1.7c-1-1.1-1.5-2.5-1.3-3.9l3.7,0.5c0,0.3,0.1,0.6,0.3,0.9s0.7,0.5,0.8,0.4l0.1,3.8
		C233.5,476.3,233.4,476.3,233.4,476.3z"/>
</g>
<g>
	<path d="M231,473.5c-1.9,0-3.7-0.9-5.1-2.5c-1.3-1.6-1.9-3.6-1.5-5.4l3.7,0.7c-0.1,0.8,0.1,1.6,0.7,2.3c0.6,0.7,1.4,1.1,2.2,1.1
		L231,473.5z"/>
</g>
<g>
	<path d="M238.7,476.7c-1.6,0-3-0.3-4.1-1c-1.7-1-2.7-2.9-2.4-4.7l3.7,0.6c0,0.2,0.2,0.7,0.6,0.9c0.5,0.3,1.2,0.5,2.2,0.4l0.1,3.8
		C238.8,476.7,238.7,476.7,238.7,476.7z"/>
</g>
<g>
	<path d="M243.9,477.3c-0.6,0-1.1-0.1-1.7-0.3c-1.2-0.4-2.1-1.1-2.8-2.1c-0.5-0.7-0.8-1.5-0.9-2.4l3.7-0.7c0.1,0.4,0.2,0.7,0.4,1
		c0.2,0.3,0.5,0.5,0.8,0.6c0.2,0.1,0.4,0.1,0.7,0.1L243.9,477.3z"/>
</g>
<g>
	<path d="M243,481.7c-1.4,0-2.8-0.4-3.8-1.3c-1.3-0.3-2.4-1.4-2.8-2.8c-0.4-1.3-0.1-2.6,0.1-3.5l3.7,0.8c-0.1,0.6-0.3,1.3-0.1,1.8
		l1.2-0.1l0.5,1.2c0.3,0.3,1.9,0.4,3,0l1.4,3.5C245.3,481.5,244.2,481.7,243,481.7z"/>
</g>
<g>
	<path d="M248.5,478.7c-2.7-1.6-4.4-4.6-4.3-7.8l3.8,0.1c-0.1,1.7,0.9,3.5,2.4,4.4L248.5,478.7z"/>
</g>
<g>
	<path d="M254,479c-2.2-1.9-3.8-4.5-4.3-7.4l3.7-0.7c0.4,2,1.5,3.9,3,5.2L254,479z"/>
</g>
<g>
	<path d="M261,479.6l-3.2-2.1c0.4-0.5,0.5-1.3,0.3-1.9l3.6-1.1C262.2,476.2,261.9,478.1,261,479.6z"/>
</g>
<g>
	<path d="M264.4,478.1c-1.4-1.2-2.7-2.6-3.6-4.2l3.2-1.9c0.7,1.2,1.7,2.3,2.8,3.3L264.4,478.1z"/>
</g>
<g>
	<path d="M271.8,478.7l-3.4-1.5c0.8-1.8,1.3-3.9,1.3-5.9l3.8,0.1C273.4,473.9,272.9,476.4,271.8,478.7z"/>
</g>
<g>
	<rect x="271.9" y="471" width="3.8" height="3.5"/>
</g>
<g>
	<polygon points="278,474.7 274.2,474.2 276.5,459.2 278.7,473.2 278.2,473.3 	"/>
</g>
<g>
	<path d="M285.9,479.9l-2.7-2.7v0.8l-1.9-2.5c-0.6-0.1-1-0.3-1.3-0.6l-0.5-0.5V473l-0.3-0.4l0.3-0.8v-5.2l2.9,3.9l0.9,0.2v0.9
		c0.6,0.6,1.1,1.1,1.2,1.8L285.9,479.9z"/>
</g>
<g>
	<path d="M278.8,478.8l-3-2.4c2.4-3,4.2-6.5,5.2-10.1l3.6,1C283.5,471.5,281.4,475.4,278.8,478.8z"/>
</g>
<g>
	<polygon points="289.4,470.3 288.9,466.9 292.6,466.3 293.2,469.8 	"/>
</g>
<g>
	<polygon points="285,466.5 284.7,465.9 288.1,464.1 288.2,464.5 	"/>
</g>
<g>
	<path d="M298,472.8l-3.7-0.6c0.3-2.2,0.4-4.4,0.3-6.5l3.8-0.2C298.5,468,298.4,470.4,298,472.8z"/>
</g>
<g>
	<rect x="297.3" y="465" transform="matrix(0.9992 4.098117e-02 -4.098117e-02 0.9992 19.5077 -11.866)" width="3.8" height="9.8"/>
</g>
<g>
	<polygon points="303.9,474.5 300.1,474.4 300.4,466.5 304.1,466.6 	"/>
</g>
<g>
	<rect x="303.1" y="471" width="3.8" height="2.5"/>
</g>
<g>
	<rect x="297.7" y="460.9" transform="matrix(0.9947 0.1026 -0.1026 0.9947 49.3228 -28.2786)" width="3.8" height="8.9"/>
</g>
<g>
	<rect x="310.6" y="458.1" width="3.8" height="5.7"/>
</g>
<g>
	<path d="M307.2,463.8l-3.7-0.7c0.5-2.6,0.8-5.2,0.9-7.9l3.8,0.1C308,458.2,307.7,461,307.2,463.8z"/>
</g>
<g>
	<rect x="315.3" y="444.1" transform="matrix(0.9667 0.2558 -0.2558 0.9667 125.7884 -66.1507)" width="3.8" height="12.7"/>
</g>
<g>
	<path d="M305.7,453c-0.2-1.1-0.1-2.3,0.2-3.4l3.6,1.1c-0.2,0.5-0.2,1.1-0.1,1.7L305.7,453z"/>
</g>
<g>
	<path d="M319.5,454.9l-3.3-1.8c1.4-2.5,2.3-5.2,2.9-8l3.7,0.7C322.2,449,321.1,452.1,319.5,454.9z"/>
</g>
<g>
	<rect x="312" y="449.1" transform="matrix(0.8552 0.5184 -0.5184 0.8552 279.9609 -97.191)" width="3.8" height="6.6"/>
</g>
<g>
	<path d="M327.6,456l-3.8-0.3c0.2-3,0.7-6.1,1.3-9l3.7,0.7C328.2,450.2,327.8,453.1,327.6,456z"/>
</g>
<g>
	<rect x="315.7" y="457.1" width="3.8" height="4.1"/>
</g>
<g>
	<path d="M328.6,448.6h-3.8v-6c0-1.8,0.9-2.7,1.4-3.4c0.5-0.5,0.5-0.6,0.4-0.8l3.8-0.4c0.2,1.9-0.8,3-1.4,3.7
		c-0.4,0.5-0.5,0.6-0.5,0.9V448.6z"/>
</g>
<g>
	<path d="M333.6,440.4h-3.8v-5c0-1.2,0.3-2.5,0.5-3.8c0.2-0.7,0.3-1.5,0.4-2.1l3.8,0.4c-0.1,0.7-0.3,1.6-0.4,2.5
		c-0.2,1.1-0.5,2.2-0.5,3V440.4z"/>
</g>
<g>
	<path d="M336.8,429.4H333v-19.6l3.7,12.4c0,0.2,0.5,0.5,0.8,0.7c0.8,0.5,1.9,1.3,2.4,2.8l-3.1,0.9V429.4z"/>
</g>
<g>
	<polygon points="338,423.6 335.7,416.4 339.3,415.3 341.6,422.5 	"/>
</g>
<g>
	<path d="M339.3,414.7c-0.5-2.2-0.8-4.4-0.9-6.6l3.8-0.2c0.1,2,0.4,4,0.8,6L339.3,414.7z"/>
</g>
<g>
	<path d="M347.8,415.3l-3.8-0.2c0.1-2.5-0.2-4.9-0.8-7.3l3.6-1C347.6,409.6,347.9,412.5,347.8,415.3z"/>
</g>
<g>
	<rect x="341" y="418.4" transform="matrix(0.9911 0.1329 -0.1329 0.9911 59.0372 -41.845)" width="3.8" height="5.7"/>
</g>
<g>
	<path d="M339.2,434.8l-3.7-0.8c0.7-3.1,2.4-5.7,4-8.2c1-1.5,1.9-2.9,2.6-4.4l3.4,1.6c-0.8,1.7-1.8,3.3-2.9,4.9
		C341.2,430.2,339.7,432.4,339.2,434.8z"/>
</g>
<g>
	<path d="M326.7,451.1l-2-3.2c3.2-2,5.9-5.1,7.4-8.6l3.5,1.5C333.7,445,330.6,448.7,326.7,451.1z"/>
</g>
<g>
	<path d="M320,455.2l-3.4-1.7c2.8-5.6,6.1-10.9,9.9-15.8l3,2.3C325.8,444.8,322.6,449.8,320,455.2z"/>
</g>
<g>
	<path d="M309.2,466.5l-1.5-3.5c2.5-1.1,4.7-2.6,6.6-4.5l2.6,2.7C314.7,463.4,312.1,465.2,309.2,466.5z"/>
</g>
<g>
	<polygon points="300.4,470.4 298.8,467 299.8,466.5 301.4,469.9 	"/>
</g>
<g>
	<polygon points="298,472.9 296.1,469.6 303.1,465.6 305,468.9 	"/>
</g>
<g>
	<path d="M279.6,480.7l-0.9-3.7c2.9-0.8,5.7-2.2,8.1-4.1l2.4,2.9C286.4,478.1,283.1,479.8,279.6,480.7z"/>
</g>
<g>
	<path d="M256.7,484.4L255,481c0.1-0.1,0.1-0.1,0.3-0.4c0.3-0.6,1-1.9,3-2c5.2-0.3,10.4-1.1,15.4-2.5l1,3.6
		c-5.2,1.4-10.6,2.3-16,2.6C258.3,483.1,257.8,483.8,256.7,484.4z"/>
</g>
<g>
	<path d="M244.1,482.6c-1.9-1.3-3.8-2.8-5.4-4.5l2.7-2.7c1.5,1.5,3.1,2.9,4.9,4.1L244.1,482.6z"/>
</g>
<g>
	<path d="M234.5,477.8c-1.2-1-2.3-2.2-3.2-3.4l3.1-2.2c0.7,1,1.6,2,2.6,2.8L234.5,477.8z"/>
</g>
<g>
	<rect x="223.7" y="467.7" transform="matrix(0.7517 0.6595 -0.6595 0.7517 365.5259 -31.7643)" width="2.5" height="3.8"/>
</g>
<g>
	<path d="M219.4,467.8c-2.6-2-4.8-4.4-6.7-7l3.1-2.2c1.6,2.4,3.6,4.4,5.9,6.2L219.4,467.8z"/>
</g>
<g>
	<path d="M233.8,472.3c-2.8-0.4-5.4-1.8-7.3-3.8l2.7-2.6c1.4,1.4,3.2,2.4,5.2,2.7L233.8,472.3z"/>
</g>
<g>
	<path d="M247.2,478.4c-3.3-0.7-6.1-3.4-6.9-6.6l3.7-0.9c0.5,1.9,2.1,3.5,4,3.9L247.2,478.4z"/>
</g>
<g>
	<path d="M204.7,447.9l-3.7-0.5c0.6-4.3,2.3-8.4,5-11.8l3,2.3C206.7,440.8,205.2,444.3,204.7,447.9z"/>
</g>
<g>
	<polygon points="208.8,446 205.1,444.9 205.8,442.7 209.4,443.8 	"/>
</g>
<g>
	<path d="M208.7,447.8c-0.4-1.6,0-3.3,0.9-4.7l3.1,2.2c-0.3,0.5-0.4,1.1-0.3,1.6L208.7,447.8z"/>
</g>
<g>
	<path d="M213.5,451.8l-3.7-0.7c0.2-0.9,0.1-2,0.1-3.1c0-2.5-0.1-5.4,1.7-7.5l2.9,2.4c-0.8,1-0.8,3.1-0.8,5
		C213.7,449.2,213.7,450.6,213.5,451.8z"/>
</g>
<g>
	<path d="M219.9,443.5l-3.7-0.5c0.2-1.4,0.6-2.7,1.2-4l3.4,1.6C220.3,441.5,220,442.5,219.9,443.5z"/>
</g>
<g>
	<path d="M220,437.3c0,0,0.1-0.4,0.1-0.9l-3.7,0.5c-0.2-1.1,0.6-1.9,1.1-2.4c0-0.8,0.2-1.7,0.4-2.5c0.1-0.5,0.3-1,0.8-1.5l8.6-8.4
		l-5.5,10.5c0.2,0.6,0.4,1.2,0.4,1.9l-0.9-0.1c0,0.1,0,0.3,0,0.4C221.3,436,220.6,436.7,220,437.3C220,437.3,220,437.3,220,437.3z"
		/>
</g>
<g>
	<path d="M156.2,411.5l-3.7-0.7c0.5-2.6,1.2-5.1,2.2-7.5l3.5,1.4C157.3,406.8,156.6,409.1,156.2,411.5z"/>
</g>
<g>
	<path d="M144,391.6c-0.6-3.5-0.3-7,0.8-10.4l3.6,1.2c-0.9,2.7-1.2,5.7-0.7,8.5L144,391.6z"/>
</g>
<g>
	<rect x="145.6" y="392.6" transform="matrix(0.2022 0.9794 -0.9794 0.2022 504.764 169.2953)" width="5.8" height="3.8"/>
</g>
<g>
	<path d="M150,397.5c-1.7-2.3-2.6-5.2-2.5-8.1l3.8,0.1c-0.1,2.1,0.6,4.1,1.8,5.8L150,397.5z"/>
</g>
<g>
	<path d="M160.7,419.7c-0.5-1.4-1.4-3.2-2.3-4.9c-0.8-1.6-1.6-3.1-2.2-4.6l-0.5-0.2l-0.3-0.4c-1.2-1.5-2.1-3.1-2.6-4.9l3.6-1.1
		c0.4,1.2,1,2.3,1.7,3.4l1.1,0.5l0.3,0.7c0.5,1.4,1.4,3.2,2.3,4.9c0.9,1.8,1.9,3.7,2.5,5.3L160.7,419.7z"/>
</g>
<g>
	<polygon points="167.7,428 164.5,423.6 167.6,421.4 170.7,425.8 	"/>
</g>
<g>
	<rect x="167.2" y="427.3" transform="matrix(0.4011 0.916 -0.916 0.4011 496.2863 99.3935)" width="9.9" height="3.8"/>
</g>
<g>
	<rect x="175.4" y="435.2" transform="matrix(0.4809 0.8768 -0.8768 0.4809 476.0832 70.0702)" width="6.9" height="3.8"/>
</g>
<g>
	<polygon points="185.2,443.7 184.9,443.4 187.6,440.7 187.7,440.8 	"/>
</g>
<g>
	<rect x="345.6" y="414.3" width="3.8" height="2.5"/>
</g>
<g>
	<polygon points="349.4,411.8 346.1,409.8 351.9,400.1 355.2,402.1 	"/>
</g>
<g>
	<path d="M350,409.4l-3.1-2.2c1.7-2.4,3.7-6.2,4.8-8.9l3.5,1.4C354,402.7,351.9,406.7,350,409.4z"/>
</g>
<g>
	<path d="M355.7,394.6l-2.5-2.8c1.3-1.1,2.3-2.5,3.2-3.9l3.2,1.9C358.6,391.6,357.2,393.2,355.7,394.6z"/>
</g>
<g>
	<path d="M135.8,301c-0.2-0.9-0.5-1.9-0.9-2.9c-1-3-2.1-6.5-2-9.2l3.8-0.1c0.3,3,1.1,6,2.3,8.8l-0.2,0.1c0.3,0.9,0.5,1.7,0.7,2.4
		L135.8,301z"/>
</g>
<g>
	<path d="M137.8,304.2c-0.7-2.8-1.2-5.7-1.7-8.6l3.7-0.6c0.4,2.8,1,5.6,1.6,8.4L137.8,304.2z"/>
</g>
<g>
	<path d="M382,280.6l-3.8-0.3c0-0.4,0-0.7,0.1-1.1h-0.9v-11.6c0-0.9,0-1.8,0-2.7l3.8,0.1v2.5c0.1,1.6,0.2,3.1,0.4,4.6
		C381.9,274.8,382.2,277.5,382,280.6z"/>
</g>
<g>
	<path d="M383,284.1l-3.7-0.5c0.9-7,1.2-13.7,1.5-20.8l0.2-4.8l3.8,0.2l-0.2,4.8C384.2,269.9,383.9,277,383,284.1z"/>
</g>
<g>
	<path d="M378,289.3c-0.2-9,0.8-17.9,2.9-26.6l3.7,0.7c-0.2,1.4-0.5,2.6-0.7,3.7c-0.5,2.4-0.9,4.2-0.8,6.9l-0.5,0
		c-0.7,5-1,10.1-0.9,15.1L378,289.3z"/>
</g>
<g>
	<path d="M379.5,269.2l-3.7-0.8c0.5-2.2,0.4-4.1,0.3-6.2c-0.1-1.6-0.2-3.3,0-5.2l3.8,0.4c-0.2,1.6-0.1,3.1,0,4.7
		C380.1,264.2,380.2,266.5,379.5,269.2z"/>
</g>
<g>
	<path d="M380.2,257.9c-0.3-1.5-0.4-3-0.2-4.5l3.7,0.5c-0.1,1-0.1,2.1,0.2,3.1L380.2,257.9z"/>
</g>
<g>
	<path d="M377.1,262.4c-0.1-1.2,0-2.5,0.4-3.6l3.6,1.2c-0.2,0.7-0.3,1.4-0.2,2.1L377.1,262.4z"/>
</g>
<g>
	<path d="M381.6,264.2l-3.5-1.5l0.9-2.1c1.2-2.8,2.4-5.6,3.7-8.3l3.4,1.6c-1.3,2.7-2.5,5.4-3.6,8.2L381.6,264.2z"/>
</g>
<g>
	<path d="M138.4,300.9c-2.2-3.7-3.8-10.3-2.7-14.6l3.7,0.9c-0.8,3.2,0.6,8.7,2.3,11.7L138.4,300.9z"/>
</g>
<g>
	
		<rect x="234.5" y="356.1" transform="matrix(0.4374 0.8993 -0.8993 0.4374 455.5838 -10.8113)" fill="#0B0B0B" width="3.8" height="5.3"/>
</g>
<g>
	<path fill="#0B0B0B" d="M225.4,376.2l-2.3-3c0.5-0.4,0.9-0.8,1.3-1.2c-0.6,0-1.1,0-1.5,0.2l-1.2-3.6c1-0.3,2.1-0.4,3.1-0.4
		c0.6,0,1.8,0,2-0.2l9.7-15.8l-6.4,17.4C229.3,372.2,227.6,374.5,225.4,376.2z"/>
</g>
<g>
	<path fill="#0B0B0B" d="M201.5,383.8l-1.8-3.3c2.5-1.4,7.3-3.9,10-5.3c2.7-1.3,5.2-2.9,7.6-4.7l2.3,3c-2.6,1.9-5.3,3.6-8.2,5
		C208.7,379.9,203.9,382.5,201.5,383.8z"/>
</g>
<g>
	
		<rect x="232.7" y="355.3" transform="matrix(0.4433 0.8964 -0.8964 0.4433 450.4616 -11.592)" fill="#0B0B0B" width="3.8" height="3.2"/>
</g>
<g>
	<path fill="#0B0B0B" d="M226.7,367.5l11-9.8c1-0.9,2.2-1.8,3.3-2.6l2.2,3.1c-0.5,0.3-0.9,0.7-1.4,1.1l0.2,0.3
		c-0.7,0.4-1.4,0.9-2.2,1.2L226.7,367.5z"/>
</g>
<g>
	<path fill="#0B0B0B" d="M243.4,362.5l-1.6-3.4c1.4-0.7,3-0.8,4.6-0.5l-0.8,3.7C244.8,362.2,244,362.2,243.4,362.5z"/>
</g>
<g>
	<path fill="#0B0B0B" d="M270.3,365.7c-1.1-0.8-2.7-1.3-4.3-1.7c-1.4-0.4-2.9-0.8-4.3-1.5c-0.1,0-0.7,0.3-1.1,0.4
		c-1.2,0.4-2.8,1-4.2,0.1l-2.4-1.4l1.9-3.2l2.4,1.4c0-0.1,0.7-0.3,1-0.4c1.1-0.4,2.6-0.9,4.1-0.2c1,0.5,2.3,0.9,3.6,1.2
		c1.9,0.5,3.9,1.1,5.6,2.3L270.3,365.7z"/>
</g>
<g>
	
		<rect x="268.1" y="361.8" transform="matrix(0.5616 0.8274 -0.8274 0.5616 420.3776 -66.0545)" fill="#0B0B0B" width="8.9" height="3.8"/>
</g>
<g>
	<path fill="#0B0B0B" d="M278,372.8c-1.8-2.6-3.1-5.5-3.8-8.6l3.7-0.8c0.6,2.6,1.7,5.1,3.2,7.3L278,372.8z"/>
</g>
<g>
	<path fill="#0B0B0B" d="M288.9,376.4c-0.1,0-0.6-0.1-0.9-0.1c-1.1-0.1-2.7-0.2-3.8-1.6l-4.8-6.1l3-2.3l4.8,6.1
		c0.1,0,0.7,0.1,1.1,0.1c1.1,0.1,3.6,0.3,3.8,2.9l-3.8,0.2C288.4,376,288.7,376.3,288.9,376.4z"/>
</g>
<g>
	<rect x="284.2" y="377" fill="#0B0B0B" width="3.8" height="1.9"/>
</g>
<g>
	<path fill="#0B0B0B" d="M278.3,378.3c-1.8-1.6-3.5-3.4-5-5.3l3-2.4c1.4,1.8,2.9,3.4,4.6,4.9L278.3,378.3z"/>
</g>
<g>
	<path fill="#0B0B0B" d="M296.9,382c-1.4-2.6-2.9-5.2-4.5-7.7l3.2-2c1.7,2.6,3.2,5.3,4.6,8L296.9,382z"/>
</g>
<g>
	<rect x="313.9" y="387.8" fill="#0B0B0B" width="3.8" height="4.3"/>
</g>
<g>
	<rect x="306.9" y="394" fill="#0B0B0B" width="3.8" height="4.3"/>
</g>
<g>
	<polygon fill="#0B0B0B" points="317.4,403 313.7,402.1 314.8,397.3 318.5,398.2 	"/>
</g>
<g>
	
		<rect x="316.7" y="382.2" transform="matrix(0.9925 0.1221 -0.1221 0.9925 49.2839 -36.0242)" fill="#0B0B0B" width="3.8" height="3.8"/>
</g>
<g>
	<path fill="#0B0B0B" d="M326.1,385.1l-3.6-1.1c0.5-1.5,0.8-3,1.1-4.5c0.3-1.3,0.6-2.6,0.9-3.9l3.6,1c-0.3,1.2-0.6,2.5-0.9,3.7
		C326.9,381.9,326.6,383.5,326.1,385.1z"/>
</g>
<g>
	<rect x="328.1" y="371.3" fill="#0B0B0B" width="3.8" height="5.7"/>
</g>
<g>
	<polygon fill="#0B0B0B" points="335.1,374.5 331.3,373.7 332.4,368.6 336.1,369.3 	"/>
</g>
<g>
	<path fill="#0B0B0B" d="M338.1,368.9c-0.5,0-1-0.2-1.4-0.5l-1.6-0.3l2.1-9.9l1.9,6.8c0.4,0,0.9,0.1,1.4,0.3l-1.2,3.6
		c-0.2-0.1-0.2-0.1-0.5,0l0,0.1l-0.1,0C338.5,368.8,338.3,368.9,338.1,368.9z"/>
</g>
<g>
	<path fill="#0B0B0B" d="M340.2,364.7l-4.1-6.8l4.7,1.6c0.3-0.1,0.7-0.2,1-0.3c1.3-0.4,2.5-0.8,3.5,0l0.8,0.6l0.1,1.2l-3.8-0.1
		l1.9,0L343,362l0.2,0.4c0.3,0.2,0.6,0.2,0.7,0.2c-0.1,0-0.3,0.1-0.5,0.1l0.1,0.1L340.2,364.7z"/>
</g>
<g>
	
		<rect x="344.1" y="355" transform="matrix(0.3791 0.9254 -0.9254 0.3791 544.4155 -97.5342)" fill="#0B0B0B" width="1.5" height="3.8"/>
</g>
<g>
	<rect x="347" y="355.7" fill="#0B0B0B" width="3.8" height="0.9"/>
</g>
<g>
	<path fill="#0B0B0B" d="M356,368.2l-2-8.7l-1.8,5.9v-13.5c0-0.3-0.1-0.7,0-1.1v-15.6l2,8.7l1.8-5.9v13.5c0,0.3,0.1,0.7,0,1.1V368.2
		z"/>
</g>
<g>
	<rect x="357.4" y="343.9" fill="#0B0B0B" width="3.8" height="0.9"/>
</g>
<g>
	<path fill="#0B0B0B" d="M363.5,342.6l-0.5-0.5l-0.5-0.2l-2.8,0l0.8-0.6l-10.1-3.1l12.2-0.1h0c0.4,0,0.9,0,1.5,0l0.7,0l1.6-0.1
		l0.1,0.1l4.3,0.1l-3.7,2.8l-0.4,0.9l-0.8,0c-0.4,0.3-0.9,0.6-1.4,0.6H363.5z"/>
</g>
<g>
	<polygon fill="#0B0B0B" points="369.8,337.6 366.5,335.9 367,335 370.3,336.7 	"/>
</g>
<g>
	<rect x="370.2" y="331.2" fill="#0B0B0B" width="3.8" height="1.4"/>
</g>
<g>
	<polygon fill="#0B0B0B" points="359.1,348.9 355.7,347.4 357.5,343.1 361,344.6 	"/>
</g>
<g>
	<path fill="#0B0B0B" d="M347.6,363.1l-3.4-1.6c0.4-0.7,0.8-1.7,1.4-2.7c1.3-2.6,3-5.9,3.6-7.8l1.4-4.7l3.6,1l-1.4,4.7
		c-0.6,2.2-2.4,5.7-3.8,8.4C348.4,361.5,347.9,362.4,347.6,363.1z"/>
</g>
<g>
	<polygon fill="#0B0B0B" points="149.1,356.3 145.5,351.4 148.5,349.2 152.1,354 	"/>
</g>
<g>
	<path fill="#0B0B0B" d="M152.7,359.1c-1.7-2.6-2.3-5.9-1.6-9l3.7,0.9c-0.5,2-0.1,4.3,1.1,6.1L152.7,359.1z"/>
</g>
<g>
	<path fill="#0B0B0B" d="M174.9,379.4c-1.6-1.2-4.4-4.3-6-6.9l-2.1,2c-2.2-2.3-5.2-5.5-5.6-9.7l-1.1-10.5l4.7,9.5
		c1.1,2.3,2.4,3.1,5.3,4.1l0.8,0.3l0.3,0.8c0.7,1.9,4.3,6.1,5.9,7.4L174.9,379.4z"/>
</g>
<g>
	
		<rect x="178.8" y="377.1" transform="matrix(0.7578 0.6525 -0.6525 0.7578 290.9437 -25.7187)" fill="#0B0B0B" width="2.7" height="3.8"/>
</g>
<g>
	<polygon fill="#0B0B0B" points="186,392 185.3,390.5 188.8,388.8 189.5,390.4 	"/>
</g>
<g>
	<path fill="#0B0B0B" d="M192.6,390.6c-0.3-1.5-0.2-3.1,0.5-4.6l3.4,1.6c-0.3,0.6-0.4,1.4-0.2,2.1L192.6,390.6z"/>
</g>
<g>
	<path fill="#0B0B0B" d="M205.1,384.3l-2.6-2.7c2.1-2.1,5-3.4,8-3.6l0.3,3.8C208.6,382,206.5,382.9,205.1,384.3z"/>
</g>
<g>
	<path fill="#0B0B0B" d="M193.2,388.4l-3.2-2c0.9-1.4,2.1-2,3.1-2.5c0.8-0.4,1.3-0.7,1.6-1.1c1.7-3.4,5.2-5.9,8.9-6.6l0.7,3.7
		c-2.6,0.5-5,2.2-6.2,4.6c-0.8,1.6-2.2,2.3-3.2,2.8C194,387.6,193.5,387.9,193.2,388.4z"/>
</g>
<g>
	<path fill="#0B0B0B" d="M188,391.1c-0.7-2.8-0.4-5.9,0.9-8.4l3.4,1.7c-0.9,1.8-1.1,3.8-0.6,5.7L188,391.1z"/>
</g>
<g>
	<path fill="#0B0B0B" d="M244.3,362.6l-3.1-1.3l-0.4-2.2c0.9-0.2,2.4,0.1,3.1,1.1C244.6,360.9,244.7,361.8,244.3,362.6z"/>
</g>
<g>
	<polygon fill="#0B0B0B" points="259.6,364.7 256.8,362.9 258.8,359.7 261.7,361.5 	"/>
</g>
<g>
	<path fill="#0B0B0B" d="M267.1,368.6c-3.9-0.2-7.7-0.9-11.4-2.3l1.3-3.6c3.3,1.2,6.8,1.9,10.3,2L267.1,368.6z"/>
</g>
<g>
	<path fill="#0B0B0B" d="M265.3,365.1c-3.6-0.9-7.1-2.1-10.4-3.8l1.7-3.4c3.1,1.5,6.3,2.7,9.6,3.5L265.3,365.1z"/>
</g>
<g>
	<polygon fill="#0B0B0B" points="291.8,374.7 289,374.1 289.8,370.4 292.6,371 	"/>
</g>
<g>
	<path fill="#0B0B0B" d="M299.4,375.8c-0.8-0.4-1.6-0.9-2.5-1.4c-1.4-0.9-3-1.8-4.4-2.3c-0.5-0.1-1-0.1-1.6-0.2
		c-0.6-0.1-1.2-0.1-1.8-0.2l-11.7-1.7l11.7-2.1c1.5-0.3,2.9,0,4.4,0.5c1.2,0.2,2.5,0.4,3.7,0.9l-0.3,0.7c0.7,0.4,1.4,0.8,2,1.2
		c0.8,0.5,1.6,0.9,2.3,1.3L299.4,375.8z"/>
</g>
<g>
	
		<rect x="275.9" y="363" transform="matrix(0.9417 0.3364 -0.3364 0.9417 139.1554 -73.3891)" fill="#0B0B0B" width="10.9" height="3.8"/>
</g>
<g>
	
		<rect x="303.1" y="378.2" transform="matrix(0.2004 0.9797 -0.9797 0.2004 618.394 2.4797)" fill="#0B0B0B" width="9.2" height="3.8"/>
</g>
<g>
	<path fill="#0B0B0B" d="M300.4,391.8c-1.1-2.8-1.6-5.7-1.6-8.7l3.8,0c0,2.5,0.5,5,1.4,7.3L300.4,391.8z"/>
</g>
<g>
	<path fill="#0B0B0B" d="M297.8,393.1c-1.7-2.3-3-4.8-4-7.5l-3-8.1l5.3,5.3c1.3-0.6,2.2,0,2.6,0.4l-1.3,1.3c0.9,2.3,2,4.5,3.5,6.4
		L297.8,393.1z"/>
</g>
<g>
	<path d="M139.1,268.9l-7.7-5.2v-15l13.2,11.7L139.1,268.9z M135.2,261.7l2.8,1.9l1.6-2.5l-4.5-4V261.7z"/>
</g>
</svg>
