<?xml version="1.0" encoding="utf-8"?>
<!-- Generator: Adobe Illustrator 18.1.0, SVG Export Plug-In . SVG Version: 6.00 Build 0)  -->
<svg version="1.1" id="Layer_1" xmlns="http://www.w3.org/2000/svg" xmlns:xlink="http://www.w3.org/1999/xlink" x="0px" y="0px"
	 viewBox="0 0 512.9 512.9" enable-background="new 0 0 512.9 512.9" xml:space="preserve">
<path fill="#E5E5E5" d="M127.6,316.8c0,0,55.8,70.9,94.3,65.5c0,0,23.3-10.5,36.6-4.6c0,0,14.6-5,27.9,0.5
	c13.3,5.5,65.9,0.5,81-15.6c15.1-16,27.6-55.5,29.5-61.3c0,0-2.4,52.5-9.6,75c-7.2,22.5-20.1,54.4-30,65.1
	c-10,10.6-32.1,45.3-74.5,49.3c0,0-16.8-1.9-19.1-6c0,0-28.3,16.3-62.1-11.2l-8.1-6.2c0,0-22.8-9.2-35.7-32.9
	c-12.9-23.7-22-46.5-30.2-111V316.8z"/>
<g>
	<path d="M134.7,257.8c-1.9-5.3-3.5-10.8-5-16.2c-1.5-5.6-2.9-11.3-4.2-16.9c-1.2-5.7-2.3-11.4-3.2-17.2c-0.9-5.8-1.6-11.5-2-17.4
		c-0.4-5.8-0.5-11.7-0.3-17.5c0.2-5.8,0.9-11.7,2-17.4c1.2-5.7,2.9-11.4,5.6-16.7c1.3-2.6,2.8-5.2,4.6-7.6c0.4-0.6,0.9-1.2,1.4-1.8
		l1.4-1.7l2.7-3.4l10.9-13.6l5.5-6.8c0.5-0.6,0.9-1.1,1.3-1.7l1.3-1.8c0.9-1.2,1.8-2.3,2.7-3.5c3.6-4.6,7.5-9,11.8-13.1
		c4.2-4.1,8.8-7.8,13.8-11c2.5-1.6,5.1-3,7.8-4.3c2.7-1.2,5.5-2.2,8-3.4c2.6-1.2,5-2.6,7.3-4.3c1.2-0.8,2.3-1.7,3.6-2.5
		c1.3-0.8,2.7-1.5,4.1-2.1c2.9-1.1,5.8-1.6,8.7-2.1c2.9-0.4,5.8-0.7,8.8-0.9c5.8-0.4,11.7-0.7,17.5-0.8l-0.5,0.1
		c3.4-1.5,6.8-2.9,10.2-4.3c1.7-0.7,3.4-1.4,5.2-2c0.9-0.3,1.7-0.6,2.6-0.9c0.9-0.3,1.8-0.6,2.7-0.8c0.5-0.1,1-0.2,1.5-0.3
		c0.5-0.1,1-0.1,1.5-0.1c1,0,2,0,2.9,0.1c1.9,0.2,3.8,0.6,5.6,1.1c1.8,0.5,3.6,1.2,5.4,2.1c1.7,0.9,3.4,2,4.8,3.5l-0.7-0.4
		c2.3,0.4,4.5,0.9,6.7,1.4c2.2,0.5,4.4,1,6.6,1.6c4.4,1.2,8.7,2.5,13,4c4.3,1.5,8.5,3.3,12.5,5.6c2,1.1,3.9,2.4,5.7,3.9
		c1.8,1.5,3.4,3.4,4.4,5.7l-1.5-0.4c0.7-0.5,1.3-0.8,2-1.2c0.7-0.4,1.3-0.7,2-1c0.7-0.3,1.4-0.6,2.1-0.8c0.7-0.2,1.4-0.5,2.2-0.6
		c0.7-0.2,1.5-0.3,2.2-0.4c0.4-0.1,0.8-0.1,1.1-0.1c0.4,0,0.8-0.1,1.1-0.1c0.8,0,1.5,0,2.3,0.1c0.8,0.1,1.5,0.2,2.3,0.4l1.1,0.3
		c0.4,0.1,0.7,0.3,1.1,0.4c0.4,0.1,0.7,0.3,1.1,0.5c0.4,0.2,0.7,0.3,1,0.5c0.7,0.4,1.3,0.8,1.9,1.2c0.6,0.5,1.2,0.9,1.7,1.5l0.8,0.8
		l0.7,0.9c0.5,0.6,0.9,1.2,1.4,1.8c0.4,0.6,0.8,1.3,1.2,1.9l1.1,2l-1.3,0.8c-0.1-0.2-0.3-0.5-0.5-0.7c-0.2-0.2-0.4-0.4-0.6-0.7
		c-0.4-0.4-0.9-0.8-1.4-1.2c-0.2-0.2-0.5-0.4-0.7-0.6c-0.3-0.2-0.5-0.4-0.8-0.5c-0.5-0.3-1.1-0.6-1.6-0.9c-0.3-0.2-0.6-0.3-0.8-0.4
		c-0.3-0.1-0.6-0.3-0.8-0.4c-0.6-0.2-1.2-0.4-1.8-0.6c-0.6-0.2-1.2-0.3-1.8-0.4c-0.3-0.1-0.6-0.1-0.9-0.1l-0.9-0.1l0.6-1.2
		c2,2.1,3.8,4.2,5.6,6.4c1.8,2.2,3.6,4.4,5.2,6.7c3.4,4.5,6.6,9.2,9.5,14c0.7,1.2,1.5,2.4,2.2,3.7c0.7,1.2,1.4,2.5,2.1,3.7
		c0.7,1.2,1.3,2.5,1.9,3.8c0.6,1.3,1.2,2.5,1.8,3.8c0.6,1.3,1.1,2.6,1.7,3.9c0.5,1.3,1.1,2.6,1.6,4c0.5,1.3,1,2.7,1.4,4
		c0.5,1.3,0.8,2.7,1.3,4.1l-0.1-0.1c1,1.7,1.8,3.4,2.6,5.1c0.8,1.7,1.5,3.5,2.1,5.3c0.6,1.8,1.2,3.6,1.8,5.4c0.5,1.8,1,3.7,1.5,5.5
		c0.5,1.9,0.9,3.7,1.2,5.6c0.4,1.9,0.7,3.7,1,5.6c0.3,1.9,0.5,3.8,0.8,5.7c0.2,1.9,0.4,3.8,0.5,5.7c0.2,1.9,0.2,3.8,0.3,5.7
		c0.1,1.9,0.1,3.8,0.1,5.7c0,1.9,0,3.8,0,5.7c0,1.9-0.1,3.8-0.2,5.7c-0.1,1.9-0.3,3.8-0.4,5.7c-0.1,1.9-0.4,3.8-0.5,5.7l-0.7,5.7
		l-0.8,5.7l0,0l0,0c-1.5,5.9-3,11.9-4.5,17.8l-2.2,8.9l-1,4.5l-0.5,2.2l-0.2,1.1c-0.1,0.4-0.1,0.7-0.1,1.1l-1.2-0.6
		c1.3-1.2,2.7-2.4,4.1-3.5c1.4-1.1,2.9-2.2,4.4-3.1c1.5-0.9,3.1-1.8,5-2.4c0.9-0.3,1.9-0.5,2.9-0.4c0.5,0.1,1.1,0.2,1.6,0.5
		c0.5,0.3,0.9,0.7,1.2,1.2l0.2,0.3l-0.1,0.3c-0.2,1-0.4,1.9-0.6,2.8c-0.2,0.9-0.4,1.8-0.7,2.8l-1.5,5.5l-3.1,10.8l0-0.1
		c-0.9,4.5-1.8,9-2.6,13.5c-0.8,4.5-1.6,9-2.1,13.5c-0.1,0.6-0.1,1.1-0.1,1.7c0,0.6-0.1,1.1-0.1,1.6l0,3.5c-0.1,2.3-0.1,4.6-0.3,6.9
		c-0.2,4.6-0.6,9.2-1,13.8c-0.9,9.2-2.1,18.3-3.7,27.4c-1.6,9.1-3.6,18.1-6,27c-2.4,8.9-5.3,17.7-8.8,26.2c-3.4,8.6-7.4,17-12,25
		c-4.6,8-9.9,15.7-16,22.7c-6.1,7-12.9,13.4-20.5,18.8l0.2-0.1c-1.2,1.1-2.4,2.1-3.6,3c-1.2,1-2.4,1.9-3.7,2.8
		c-2.5,1.8-5.1,3.5-7.8,5c-5.4,3.1-11.1,5.6-17.1,7.2c-6,1.6-12.5,2.2-18.7,1.1c-3.1-0.5-6.2-1.5-9.1-2.8c-1.4-0.7-2.8-1.4-4.2-2.3
		c-1.3-0.8-2.6-1.8-3.8-2.8l1.8,0.1c-1.5,0.9-3,1.7-4.5,2.4c-1.5,0.7-3.1,1.3-4.7,1.9c-3.2,1.1-6.4,2-9.7,2.7
		c-6.6,1.2-13.5,1.3-20.1-0.1c-6.6-1.3-13-4.2-18.5-8c-5.6-3.8-10.3-8.6-14.5-13.9l0.7,0.5c-2.5-0.9-4.7-2-6.8-3.2
		c-2.2-1.2-4.2-2.6-6.2-4c-4-2.9-7.7-6.2-11.1-9.7c-3.4-3.5-6.5-7.3-9.4-11.3c-2.9-4-5.4-8.2-7.7-12.5c-2.4-4.3-4.3-8.8-6.2-13.2
		c-1.8-4.5-3.5-9.1-4.8-13.8l-1-3.5c-0.3-1.2-0.6-2.4-0.9-3.5l-0.9-3.5l-0.8-3.6l-0.8-3.6l-0.7-3.6l-0.7-3.6l-0.5-3.6l-0.5-3.6
		l-0.6-3.6l-1.1-7.2l-2.2-14.3c-1.4-9.6-2.8-19.1-3.9-28.8c-0.5-4.8-1.1-9.6-1.1-14.5c0.2-4.8-0.1-9.6-0.6-14.4
		c-0.5-4.8-1.2-9.6-2.1-14.3c-0.4-2.4-0.9-4.7-1.5-7.1c-0.6-2.3-1.2-4.7-2.3-6.8l0-0.1l0,0c-0.2-1-0.2-1.9-0.1-2.9
		c0.1-1,0.4-2,1.2-2.7c0.4-0.4,0.9-0.6,1.4-0.7c0.5-0.1,1-0.1,1.5-0.1c1,0.1,1.9,0.4,2.8,0.7c1.8,0.7,3.4,1.7,5,2.7
		C131.9,255.7,133.3,256.7,134.7,257.8z M134.9,258.3c-1.5-1.1-3.1-2.2-4.7-3.2c-1.6-1-3.3-1.9-5-2.6c-0.9-0.3-1.8-0.6-2.7-0.6
		c-0.9-0.1-1.8,0.1-2.4,0.7c-0.6,0.6-0.9,1.5-1,2.4c-0.1,0.9,0,1.8,0.2,2.7l0-0.1c1.2,2.2,1.8,4.6,2.5,6.9c0.6,2.3,1.2,4.7,1.7,7.1
		c1,4.8,1.7,9.5,2.3,14.4c0.6,4.8,1,9.7,0.8,14.5c0.1,4.8,0.7,9.6,1.3,14.4c1.2,9.6,2.7,19.1,4.2,28.7l2.3,14.3l1.2,7.1l0.6,3.6
		l0.6,3.6l0.6,3.6l0.7,3.5l0.7,3.5l0.8,3.5l0.8,3.5l0.9,3.5c0.3,1.2,0.6,2.3,0.9,3.5l1,3.4c1.4,4.6,3.1,9.1,4.8,13.5
		c1.9,4.4,3.9,8.8,6.2,13c2.3,4.2,4.8,8.3,7.6,12.1c2.8,3.9,5.9,7.5,9.2,10.9c3.3,3.4,6.9,6.6,10.8,9.3c1.9,1.4,3.9,2.6,6,3.8
		c2,1.1,4.2,2.2,6.3,2.9l0.5,0.2l0.3,0.3c1,1.3,2,2.5,3.1,3.7c1.1,1.2,2.2,2.4,3.3,3.5c1.1,1.1,2.3,2.2,3.6,3.2c1.2,1,2.5,2,3.8,2.9
		c5.2,3.6,11.2,6.2,17.4,7.5c6.2,1.3,12.7,1.2,19,0c3.1-0.6,6.2-1.4,9.2-2.5c1.5-0.5,3-1.2,4.4-1.8c1.4-0.7,2.9-1.4,4.2-2.2l1-0.6
		l0.8,0.7c4.5,3.7,9.9,6.3,15.6,7.2c5.7,1,11.7,0.5,17.4-1.1c5.7-1.5,11.2-4,16.3-6.9c2.6-1.5,5.1-3.1,7.5-4.8
		c1.2-0.9,2.4-1.8,3.6-2.7c1.2-0.9,2.3-1.9,3.4-2.8l0.1-0.1l0.1-0.1c7.4-5.2,14.1-11.4,20-18.3c6-6.8,11.2-14.3,15.7-22.2
		c4.6-7.9,8.5-16.1,11.9-24.6c3.4-8.5,6.3-17.1,8.8-25.9c4.9-17.6,8.2-35.6,10.1-53.8c0.5-4.5,0.9-9.1,1.1-13.7
		c0.1-2.3,0.2-4.6,0.3-6.8l0.1-3.4c0-0.6,0-1.2,0.1-1.8c0-0.6,0.1-1.2,0.2-1.7c0.5-4.6,1.4-9.1,2.2-13.7c0.9-4.5,1.8-9,2.7-13.5l0,0
		l0,0L405,259l1.5-5.4c0.3-0.9,0.5-1.8,0.7-2.7c0.2-0.9,0.5-1.8,0.6-2.7l0.1,0.6c-0.4-0.6-0.9-0.9-1.6-1c-0.7-0.1-1.5,0.1-2.3,0.3
		c-1.6,0.5-3.1,1.3-4.6,2.2c-1.5,0.9-2.9,1.9-4.3,3c-1.4,1.1-2.8,2.2-4.1,3.3l-1.4,1.3l0.2-1.9c0.1-0.8,0.2-1.6,0.4-2.4l0.5-2.3
		l1.1-4.5l2.2-8.9c1.5-5.9,3.1-11.9,4.7-17.8l0,0.1l0.8-5.6l0.7-5.6c0.2-1.9,0.4-3.8,0.5-5.7c0.1-1.9,0.3-3.8,0.4-5.7
		c0.1-1.9,0.2-3.8,0.2-5.7c0.1-1.9,0.1-3.8,0.1-5.7c0-1.9-0.1-3.8-0.1-5.7c-0.1-1.9-0.2-3.8-0.3-5.7c-0.1-1.9-0.3-3.8-0.5-5.7
		c-0.2-1.9-0.4-3.8-0.7-5.6c-0.3-1.9-0.6-3.7-1-5.6c-0.4-1.9-0.8-3.7-1.2-5.6c-0.4-1.8-0.9-3.7-1.5-5.5c-0.5-1.8-1.1-3.6-1.8-5.4
		c-0.7-1.8-1.4-3.5-2.1-5.3c-0.8-1.7-1.6-3.4-2.6-5l0-0.1l0-0.1c-0.4-1.3-0.8-2.7-1.3-4c-0.4-1.3-0.9-2.7-1.4-4
		c-0.5-1.3-1-2.6-1.6-3.9c-0.6-1.3-1.1-2.6-1.7-3.9c-0.6-1.3-1.2-2.5-1.8-3.8c-0.6-1.2-1.3-2.5-1.9-3.7c-0.7-1.2-1.4-2.5-2.1-3.7
		c-0.7-1.2-1.4-2.4-2.2-3.6c-2.9-4.8-6.1-9.4-9.5-13.9c-1.7-2.2-3.5-4.4-5.3-6.6c-1.8-2.1-3.7-4.3-5.6-6.3l-1.4-1.5l2,0.3l1,0.1
		c0.3,0.1,0.7,0.1,1,0.1c0.6,0.1,1.3,0.2,1.9,0.4c0.6,0.2,1.3,0.4,1.9,0.6c0.3,0.1,0.6,0.2,0.9,0.4c0.3,0.1,0.6,0.3,0.9,0.4
		c0.6,0.3,1.2,0.6,1.7,1c0.3,0.2,0.6,0.4,0.8,0.6c0.3,0.2,0.5,0.4,0.8,0.6c0.5,0.4,1,0.9,1.5,1.3c0.2,0.2,0.5,0.5,0.7,0.7
		c0.2,0.3,0.4,0.5,0.7,0.8l-1.3,0.8l-1.1-1.8c-0.4-0.6-0.8-1.2-1.2-1.8c-0.4-0.6-0.8-1.1-1.3-1.6l-0.7-0.8l-0.8-0.7
		c-0.5-0.5-1.1-0.9-1.6-1.3c-0.6-0.4-1.1-0.8-1.7-1.1c-0.3-0.2-0.6-0.3-0.9-0.5c-0.3-0.1-0.6-0.3-0.9-0.4l-1-0.3l-1-0.3
		c-0.7-0.1-1.3-0.3-2-0.3c-0.7-0.1-1.4-0.1-2.1-0.1c-0.3,0-0.7,0-1,0.1c-0.3,0-0.7,0.1-1,0.1c-0.7,0.1-1.4,0.2-2,0.4
		c-0.7,0.2-1.3,0.4-2,0.6c-0.7,0.2-1.3,0.5-2,0.8c-0.6,0.3-1.3,0.6-1.9,0.9c-0.6,0.3-1.2,0.7-1.8,1.1l-1,0.7l-0.5-1.1
		c-0.8-1.9-2.2-3.5-3.9-4.9c-1.6-1.4-3.5-2.6-5.4-3.7c-3.9-2.1-8-3.8-12.2-5.3c-4.2-1.5-8.5-2.7-12.8-3.8c-2.2-0.5-4.3-1.1-6.5-1.5
		c-2.2-0.5-4.4-0.9-6.6-1.3l-0.4-0.1l-0.3-0.3c-1.1-1.2-2.6-2.2-4.1-3c-1.5-0.8-3.2-1.4-4.9-1.9c-1.7-0.5-3.4-0.8-5.2-1
		c-0.9-0.1-1.7-0.1-2.6-0.1c-0.4,0-0.9,0-1.2,0.1c-0.4,0.1-0.8,0.2-1.2,0.3c-0.8,0.2-1.7,0.5-2.5,0.8c-0.9,0.3-1.7,0.6-2.6,0.9
		c-1.7,0.6-3.4,1.3-5.1,2c-3.4,1.4-6.8,2.8-10.1,4.3l-0.2,0.1l-0.3,0c-5.8,0.2-11.6,0.4-17.3,0.9c-2.9,0.2-5.7,0.5-8.6,0.9
		c-2.8,0.4-5.6,0.9-8.2,1.9c-2.6,0.9-4.8,2.5-7.2,4.2c-2.4,1.7-5,3.2-7.7,4.5c-2.7,1.3-5.5,2.2-8,3.4c-2.6,1.2-5.1,2.5-7.5,4.1
		c-4.8,3-9.3,6.7-13.5,10.6c-4.2,4-8,8.3-11.6,12.8c-0.9,1.1-1.8,2.3-2.6,3.4l-1.3,1.7c-0.4,0.6-0.9,1.2-1.4,1.8l-5.5,6.8l-11,13.5
		l-2.8,3.4l-1.4,1.7c-0.4,0.6-0.9,1.1-1.3,1.7c-1.7,2.3-3.2,4.7-4.5,7.2c-2.6,5.1-4.3,10.6-5.6,16.2c-1.2,5.6-1.9,11.4-2.2,17.1
		c-0.3,5.8-0.2,11.6,0.1,17.3c0.7,11.6,2.3,23.1,4.6,34.4c1.1,5.7,2.4,11.3,3.9,17c1.4,5.6,3,11.2,4.8,16.7l0.1,0.5L134.9,258.3z"/>
</g>
<path fill="#434444" d="M244.7,250.1c0,0-1.7-13.4-19.6-16.5l-30.6-3.4c0,0-19.2,7.9-27.5,10l-15.8,11.3c0,0,3.8,6.5,15.4,2.4
	s23.3-11.7,26.4-10.3C196.3,244.9,232,250.8,244.7,250.1z"/>
<path fill="#434444" d="M285.5,243.5c0,0-1-13.4,8.2-14.4c0,0,51.8,1.4,54.6,1c2.7-0.3,21.3,7.2,26.4,18.2c0,0-14.1-5.5-29.9-4.5
	C344.9,243.9,300.3,252.8,285.5,243.5z"/>
<path fill="none" stroke="#000000" stroke-miterlimit="10" d="M128.3,307.8"/>
<path fill="#434444" d="M129.2,308.8c0,0,5.7-39.4,10.3-54.7c0,0-2.1-61.1-1.4-68.2s20.8-51.7,31.8-58.6c0,0,127.2-8.7,143.7-22.7
	c0,0,42.8,1.6,70.7,69.3c0,0,9.6,24.3-6.2,36.4c0,0,9.4,29.3,8.7,48.1c0,0,6.4,32,7.1,41l2.5-3c0,0-8.7-33.6-5.5-44.9
	s10.5-37.3,10.5-53.8s-1.4-45.5-8.9-61.3c-7.6-15.8-10.8-26.3-15.8-34.3c-5-8-22.4-29.5-22.4-29.5l13.3,5.5c0,0-8.8-16.8-27.9-5.3
	c-19.1,11.6,0,0,0,0S337.1,64.2,321,60c0,0-21.5-8-29.3-8.5c-7.8-0.5,0,0,0,0s-10.5-14.3-40,1.4c0,0-30.1-1.1-42.2,9.2
	c0,0-30,12-38.2,23.3c-8.2,11.3-37.6,44.9-37.6,44.9s-12.2,20.9-12.1,36.3s0.5,45.7,4.6,57.3s8.9,34.3,8.9,34.3L129.2,308.8z"/>
<g>
	<path d="M210.4,405.6c4.1,0.3,8.1,0.4,12.2,0.2c1,0,2-0.1,3-0.2c1-0.1,2-0.2,3-0.4c0.5-0.1,1-0.2,1.5-0.3c0.5-0.1,1-0.2,1.5-0.4
		l0.7-0.2l0.7-0.3c0.4-0.2,0.9-0.4,1.4-0.6c0.9-0.4,1.9-0.8,2.9-1.1c1-0.3,2-0.5,3-0.7c1-0.2,2-0.3,3.1-0.4c0.5,0,1-0.1,1.5-0.1
		c0.5,0,1,0,1.5,0c1,0,2.1,0.1,3.1,0.2l1.5,0.2l1.5,0.3l1.5,0.4c0.5,0.2,1,0.4,1.5,0.5c0.5,0.2,0.9,0.5,1.4,0.7
		c0.5,0.3,0.9,0.6,1.3,0.8l-0.5,0c1-0.6,1.9-1,3-1.5c1-0.4,2-0.8,3.1-1.1l1.6-0.5l1.6-0.4c1.1-0.2,2.1-0.4,3.2-0.5
		c1.1-0.2,2.2-0.2,3.3-0.2c0.5,0,1.1,0,1.6,0c0.5,0,1.1,0,1.6,0.1l1.6,0.2c0.5,0.1,1.1,0.2,1.6,0.3c1.1,0.2,2.1,0.5,3.2,0.8l3.1,0.9
		c1,0.3,2.1,0.7,3.1,0.9l3.1,0.7c1,0.2,2.1,0.4,3.2,0.6c1.1,0.2,2.1,0.3,3.2,0.4c1.1,0.2,2.1,0.2,3.2,0.3c1.1,0.1,2.1,0.1,3.2,0.1
		l3.2,0l-3.2,0.2c-1.1,0-2.2,0.1-3.2,0c-1.1,0-2.2,0-3.2-0.2c-1.1-0.1-2.2-0.1-3.2-0.3c-1.1-0.2-2.1-0.3-3.2-0.5l-3.2-0.7
		c-1.1-0.2-2.1-0.5-3.1-0.8l-3.1-0.9c-1-0.3-2-0.6-3.1-0.7l-1.6-0.3l-1.6-0.2c-0.5-0.1-1.1-0.1-1.6-0.1c-0.5,0-1.1,0-1.6,0
		c-1.1,0.1-2.1,0.1-3.2,0.3c-1.1,0.1-2.1,0.3-3.1,0.5l-1.5,0.4l-1.5,0.5c-1,0.3-2,0.7-3,1.1c-1,0.4-1.9,0.9-2.8,1.4l-0.3,0.2
		l-0.3-0.2c-0.4-0.3-0.8-0.5-1.2-0.8c-0.4-0.2-0.9-0.4-1.3-0.6c-0.5-0.2-0.9-0.4-1.4-0.5l-1.4-0.4l-1.5-0.3l-1.5-0.2
		c-1-0.1-2-0.2-3-0.2c-0.5,0-1,0-1.5,0c-0.5,0-1,0-1.5,0.1c-1,0.1-2,0.2-3,0.3c-1,0.2-2,0.4-2.9,0.6c-1,0.3-1.9,0.6-2.8,1
		c-0.5,0.2-0.9,0.4-1.4,0.6l-0.7,0.3l-0.8,0.2c-0.5,0.1-1,0.3-1.5,0.3c-0.5,0.1-1,0.2-1.5,0.2c-1,0.1-2,0.2-3.1,0.3
		c-1,0-2,0.1-3.1,0.1c-2,0-4.1,0-6.1-0.2C214.4,406,212.4,405.8,210.4,405.6z"/>
</g>
<g>
	<path d="M229.9,427.9c0,0,0.2,0.1,0.6,0.3c0.4,0.2,1,0.4,1.8,0.7c0.8,0.3,1.8,0.6,2.9,0.9c1.1,0.3,2.4,0.6,3.8,1
		c0.7,0.2,1.4,0.3,2.2,0.5c0.8,0.2,1.6,0.3,2.4,0.4c0.8,0.1,1.7,0.3,2.5,0.4c0.9,0.1,1.7,0.2,2.6,0.3c1.8,0.3,3.7,0.3,5.6,0.4
		c1.9,0.1,3.8,0.1,5.8,0.1c1.9-0.1,3.9-0.1,5.7-0.2c1.9-0.2,3.8-0.3,5.5-0.5c1.8-0.3,3.5-0.5,5.2-0.7c1.6-0.3,3.2-0.6,4.6-0.9
		c1.4-0.3,2.7-0.5,3.9-0.8c1.1-0.3,2.1-0.5,3-0.7c1.6-0.4,2.6-0.6,2.6-0.6s-0.9,0.3-2.5,0.8c-0.8,0.3-1.8,0.6-2.9,0.9
		c-1.1,0.4-2.4,0.7-3.8,1c-1.4,0.3-2.9,0.7-4.6,1c-1.6,0.3-3.4,0.6-5.2,0.9c-1.8,0.2-3.7,0.4-5.6,0.6c-1.9,0.2-3.9,0.2-5.8,0.3
		c-1.9,0-3.9,0-5.8-0.1c-1.9-0.2-3.8-0.2-5.6-0.5c-0.9-0.1-1.8-0.2-2.7-0.4c-0.9-0.2-1.7-0.3-2.5-0.5c-0.8-0.1-1.6-0.3-2.4-0.5
		c-0.8-0.2-1.5-0.4-2.2-0.5c-1.4-0.4-2.7-0.8-3.8-1.2c-1.1-0.4-2.1-0.8-2.9-1.1C230.8,428.4,229.9,427.9,229.9,427.9z"/>
</g>
<g>
	<path fill="#434444" d="M358.7,249.2c0,0,0.2-0.1,0.5-0.1c0.3-0.1,0.8-0.1,1.4-0.1c0.3,0,0.6,0,0.9,0.1c0.3,0,0.6,0.2,1,0.3
		c0.3,0.1,0.7,0.2,1.1,0.3c0.4,0.1,0.7,0.1,1.1,0c0.4,0,0.8,0,1.1,0.1c0.4,0,0.7,0.1,1.1,0.1c0.3,0.1,0.7,0.1,1,0.2
		c0.3,0.1,0.6,0.2,0.9,0.3c1.1,0.4,1.7,0.9,1.7,0.9l0,0.1c0,0-0.8,0.1-1.9-0.1c-0.6-0.1-1.2-0.2-1.9-0.4c-0.3-0.1-0.7-0.2-1-0.3
		c-0.4-0.1-0.7-0.2-1-0.4c-0.4-0.1-0.7-0.2-1.1-0.3c-0.4-0.1-0.7-0.1-1.1,0c-0.4,0-0.7,0-1,0c-0.3,0-0.6-0.1-0.9-0.1
		c-0.6-0.1-1-0.2-1.3-0.3C358.8,249.4,358.7,249.3,358.7,249.2L358.7,249.2z"/>
</g>
<g>
	<path fill="#333333" d="M247.3,247c0,0-0.1-0.3-0.3-0.7c-0.2-0.5-0.5-1.1-0.7-1.9c-0.1-0.4-0.3-0.8-0.5-1.3
		c-0.1-0.5-0.4-0.9-0.6-1.4c-0.4-0.9-0.9-1.9-1.3-2.9c-0.5-1-1-1.9-1.5-2.9c-0.3-0.4-0.4-0.9-0.7-1.3c-0.3-0.4-0.5-0.8-0.7-1.1
		c-0.4-0.7-0.8-1.3-1-1.7c-0.2-0.4-0.4-0.7-0.4-0.7s0.2,0.2,0.5,0.6c0.3,0.4,0.8,0.9,1.3,1.5c0.3,0.3,0.6,0.7,0.9,1.1
		c0.3,0.4,0.5,0.8,0.8,1.3c0.5,0.9,1.1,1.9,1.6,2.9c0.4,1.1,0.8,2.1,1.2,3.1c0.2,0.5,0.4,1,0.5,1.4c0.1,0.5,0.2,0.9,0.3,1.3
		c0.2,0.8,0.3,1.5,0.4,2C247.2,246.7,247.3,247,247.3,247z"/>
</g>
<g>
	<path fill="#333333" d="M250.4,245.2c0,0-0.3-0.2-0.6-0.6c-0.3-0.4-0.7-1-0.9-1.6c-0.3-0.6-0.5-1.2-0.6-1.7
		c-0.1-0.5-0.1-0.9-0.1-0.9s0.3,0.2,0.6,0.6c0.3,0.4,0.7,0.9,1.1,1.5c0.3,0.6,0.4,1.2,0.5,1.7C250.4,244.8,250.4,245.2,250.4,245.2z
		"/>
</g>
<g>
	<path fill="#434444" d="M286,104.4c0,0-0.9,1.1-2.5,2.8c-1.7,1.7-4.2,4.1-7.3,6.7c-1.6,1.3-3.3,2.7-5.3,4.1c-1.9,1.4-4,2.8-6.2,4.2
		c-2.2,1.3-4.5,2.7-7,4c-2.4,1.3-5,2.4-7.5,3.5c-1.3,0.5-2.6,1-3.9,1.5c-1.3,0.4-2.6,0.9-3.9,1.3c-1.3,0.4-2.6,0.8-3.9,1
		c-1.3,0.3-2.6,0.6-3.9,0.8c-1.3,0.2-2.6,0.5-3.8,0.5c-0.6,0.1-1.2,0.1-1.9,0.2c-0.6,0-1.2,0.1-1.8,0.1c-0.6,0-1.2,0.1-1.8,0.1
		c-0.6,0-1.2,0-1.7,0c-1.1,0-2.2,0-3.3-0.2c-1-0.1-2-0.1-3-0.3c-0.9-0.2-1.8-0.3-2.7-0.5c-1.7-0.3-3.1-0.8-4.2-1
		c-2.3-0.8-3.6-1.3-3.6-1.3s1.4,0.2,3.7,0.5c1.2,0.1,2.6,0.2,4.3,0.3c0.8,0,1.7,0,2.6,0.1c0.9,0,1.9,0,2.9-0.1c1,0,2-0.1,3.1-0.2
		c0.5,0,1.1-0.1,1.6-0.1c0.6-0.1,1.1-0.1,1.7-0.2c0.6-0.1,1.1-0.2,1.7-0.2c0.6-0.1,1.2-0.2,1.8-0.3c0.6-0.1,1.2-0.2,1.8-0.3
		c0.6-0.1,1.2-0.3,1.8-0.4c2.4-0.5,4.9-1.3,7.4-2.1c1.3-0.4,2.5-0.9,3.7-1.3c1.2-0.5,2.5-1,3.7-1.5c2.5-1,4.9-2.1,7.3-3.2
		c2.4-1.2,4.7-2.3,6.9-3.5c2.2-1.2,4.3-2.4,6.3-3.6c2-1.2,3.8-2.4,5.6-3.4c1.7-1.1,3.3-2.1,4.6-3.1c1.4-0.9,2.6-1.8,3.5-2.4
		C284.9,105.2,286,104.4,286,104.4z"/>
</g>
<g>
	<path fill="#333333" d="M252.1,101.2c0,0-0.8-1.4-2.1-3.8c-0.6-1.2-1.4-2.8-2.2-4.5c-0.8-1.7-1.7-3.7-2.7-5.9
		c-0.9-2.2-1.9-4.6-2.8-7.1c-1-2.6-1.8-5.3-2.6-8.2c-0.8-2.9-1.6-5.8-2.2-8.9c-0.3-1.5-0.6-3.1-0.8-4.7c-0.2-1.6-0.4-3.2-0.4-4.8
		c0-1.6,0.1-3.2,0.4-4.8c0.4-1.6,1-3.1,2.1-4.4c1.1-1.3,2.6-2.1,4.2-2.5c0.7-0.2,1.5-0.3,2.2-0.5l1.1-0.2l1.1-0.2
		c3-0.6,5.9-0.7,8.6-0.8c2.7-0.1,5.3,0.1,7.7,0c2.3,0,4.5-0.4,6.2-1.1c0.2-0.1,0.4-0.2,0.6-0.3c0.2-0.1,0.4-0.2,0.6-0.4
		c0.4-0.2,0.7-0.5,1.1-0.7c0.3-0.3,0.6-0.5,0.9-0.8c0.3-0.2,0.6-0.5,0.8-0.8c0.4-0.5,0.8-1,1.2-1.4c0.3-0.4,0.6-0.8,0.8-1.1
		c0.4-0.6,0.6-0.9,0.6-0.9l0.1,0c0,0-0.2,0.3-0.6,1c-0.2,0.3-0.4,0.7-0.7,1.2c-0.3,0.4-0.7,0.9-1.1,1.5c-0.4,0.6-1,1.1-1.6,1.7
		c-0.3,0.3-0.7,0.5-1.1,0.8c-0.2,0.1-0.4,0.3-0.6,0.4c-0.2,0.1-0.4,0.2-0.7,0.3c-1.8,0.9-4,1.3-6.4,1.4c-2.4,0.1-5,0.1-7.7,0.1
		c-2.7,0.1-5.6,0.3-8.4,0.8l-1.1,0.2l-1.1,0.2c-0.7,0.2-1.5,0.3-2.2,0.5c-1.4,0.3-2.7,1-3.7,2.1c-1,1.1-1.6,2.5-2,4
		c-0.4,1.5-0.6,3.1-0.6,4.6c-0.1,3.1,0.4,6.3,1,9.3c0.7,3,1.5,6,2.4,8.8c0.9,2.8,2,5.5,2.9,8c1,2.5,1.9,4.9,2.8,7.1
		c0.9,2.2,1.8,4.2,2.5,6c0.8,1.8,1.4,3.3,2,4.6C251.5,99.7,252.2,101.2,252.1,101.2L252.1,101.2z"/>
</g>
<g>
	<path fill="#333333" d="M202.7,70.6c0,0-1.1-0.4-3.2-0.8c-1-0.2-2.2-0.4-3.7-0.6c-1.4-0.2-3-0.3-4.8-0.3c-1.8,0-3.7,0.1-5.7,0.4
		c-2,0.3-4.1,0.7-6.2,1.5c-2.1,0.7-4.2,1.7-6.1,3c-1,0.6-1.9,1.4-2.8,2.1c-0.9,0.8-1.7,1.6-2.5,2.5c-1.6,1.7-3,3.6-4.3,5.5
		c-1.3,2-2.5,3.9-3.8,5.7c-1.3,1.8-2.6,3.6-3.8,5.2c-0.6,0.8-1.3,1.6-1.9,2.3c-0.3,0.4-0.6,0.7-0.9,1.1c-0.3,0.3-0.7,0.7-1,1
		c-0.6,0.6-1.2,1.2-1.9,1.8c-0.3,0.3-0.6,0.5-0.9,0.8c-0.3,0.2-0.6,0.5-0.9,0.7c-1.2,0.9-2.3,1.5-3.4,1.8c-1,0.4-1.9,0.3-2.4,0.2
		c-0.6-0.2-0.8-0.4-0.8-0.4l0.1-0.1c0,0,0.2,0.2,0.8,0.3c0.5,0.1,1.3,0.1,2.3-0.4c0.9-0.4,2-1,3.1-2c0.3-0.2,0.6-0.5,0.8-0.7
		c0.3-0.3,0.6-0.5,0.8-0.8c0.6-0.5,1.2-1.2,1.8-1.8c0.3-0.3,0.6-0.7,0.9-1c0.3-0.4,0.6-0.7,0.9-1.1c0.6-0.7,1.3-1.5,1.9-2.3
		c0.6-0.8,1.3-1.6,1.9-2.5c0.6-0.9,1.2-1.8,1.9-2.6c1.3-1.8,2.6-3.7,3.9-5.7c1.3-1.9,2.9-3.8,4.6-5.4c3.4-3.4,7.5-6,11.6-7.7
		c2.1-0.9,4.2-1.5,6.2-1.8c2-0.4,4-0.4,5.8-0.4c1.8,0,3.4,0.2,4.9,0.5c1.4,0.3,2.7,0.5,3.7,0.8C201.6,70,202.7,70.5,202.7,70.6
		L202.7,70.6z"/>
</g>
<g>
	<path fill="#333333" d="M244.8,59.6c0,0-0.7-0.6-1.9-1.7c-0.6-0.6-1.2-1.3-1.9-2.1c-0.7-0.8-1.5-1.9-2.2-3c-0.7-1.2-1.5-2.5-2-4
		c-0.5-1.5-0.8-3.2-0.6-5c0.2-1.7,0.9-3.4,2.1-4.8c1.1-1.4,2.6-2.5,4.2-3.5c1.6-0.9,3.3-1.7,5-2.2c1.7-0.6,3.4-1,5-1.6
		c1.6-0.5,3.1-1,4.6-1.6c1.4-0.5,2.8-1,4-1.6c1.2-0.6,2.3-1.1,3.2-1.8c0.8-0.6,1.5-1.4,1.5-2.1c0-0.7-0.5-1.2-0.8-1.4
		c-0.3-0.3-0.5-0.4-0.5-0.4l0-0.1c0,0,0.2,0.1,0.6,0.3c0.3,0.2,1,0.6,1.1,1.6c0,0.9-0.7,1.8-1.5,2.6c-0.9,0.8-2,1.4-3.2,2
		c-1.2,0.6-2.6,1.2-4,1.8c-1.5,0.6-3,1.1-4.7,1.6c-1.6,0.5-3.3,0.9-5,1.4l-1.3,0.4l-1.3,0.4c-0.9,0.3-1.7,0.7-2.5,1
		c-1.6,0.8-3.1,1.8-4.2,3.2c-1.1,1.3-1.8,3-1.8,4.7c-0.1,1.7,0.4,3.2,0.9,4.6c0.5,1.4,1.2,2.7,1.8,3.9c1.4,2.3,2.8,4.1,3.8,5.3
		C244.2,58.8,244.8,59.5,244.8,59.6L244.8,59.6z"/>
</g>
<path d="M305.7,101.7c0,0-33.4,19.7-77.8,23.8"/>
<path d="M229.7,117.2c0,0-32.5-12.4-35.7-26.5"/>
<g>
	<path fill="#333333" d="M166.3,117.6c0,0,0.1-0.2,0.2-0.5c0.1-0.3,0.3-0.9,0.5-1.5c0.1-0.7,0.2-1.5,0-2.4c-0.2-0.9-0.7-1.8-1.4-2.7
		c-0.8-0.8-1.8-1.6-3-2.1c-1.2-0.6-2.5-1.2-3.9-1.6c-0.7-0.2-1.4-0.4-2.2-0.6c-0.7-0.2-1.5-0.3-2.3-0.4c-1.6-0.2-3.2-0.3-4.8-0.3
		c-1.6,0-3.2,0-4.8,0c-1.6,0.1-3.1,0-4.6,0.1c-3,0.1-5.8,0.3-8.2,0.4c-2.4,0.1-4.4,0.2-5.8,0.3c-1.4,0.1-2.2,0.1-2.2,0.1l0-0.1
		c0,0,0.8-0.1,2.2-0.4c0.7-0.1,1.5-0.2,2.5-0.4c1-0.1,2.1-0.3,3.3-0.4c1.2-0.1,2.5-0.3,3.9-0.4c1.4-0.1,2.8-0.2,4.3-0.2
		c1.5,0,3.1,0,4.7,0c1.6,0.1,3.2,0.1,4.8,0.3c0.8,0.1,1.6,0.1,2.4,0.3c0.8,0.1,1.6,0.2,2.4,0.3c0.8,0.1,1.6,0.2,2.3,0.3
		c0.8,0.1,1.5,0.2,2.3,0.4c1.5,0.3,2.9,0.7,4.2,1.3c1.3,0.6,2.4,1.4,3.3,2.4c0.8,1,1.3,2.1,1.4,3.1c0.1,1,0,1.9-0.2,2.6
		c-0.2,0.7-0.5,1.2-0.7,1.5C166.5,117.5,166.4,117.6,166.3,117.6L166.3,117.6z"/>
</g>
<g>
	<path fill="#333333" d="M176.6,112.2c0,0-0.4-0.5-1.1-1.5c-0.6-1-1.5-2.4-2.5-4.1c-0.5-0.9-1-1.8-1.5-2.9c-0.5-1-1-2.1-1.5-3.3
		c-0.9-2.3-2.1-4.7-3.3-7.1c-0.6-1.2-1.2-2.4-1.7-3.6c-0.5-1.2-1-2.4-1.4-3.6c-0.5-1.2-0.8-2.3-1.1-3.4c-0.3-1.1-0.5-2.2-0.8-3.2
		c-0.2-1-0.3-1.9-0.5-2.7c-0.1-0.4-0.1-0.8-0.2-1.1c0-0.4,0-0.7-0.1-1c0-1.2-0.1-1.8-0.1-1.8l0.1,0c0,0,0.1,0.7,0.4,1.8
		c0.1,0.3,0.1,0.6,0.2,0.9c0.1,0.3,0.2,0.7,0.3,1.1c0.2,0.8,0.4,1.7,0.7,2.6c0.3,0.9,0.6,2,0.9,3.1c0.4,1.1,0.7,2.2,1.1,3.4
		c0.4,1.2,0.8,2.4,1.3,3.6c0.4,1.2,0.9,2.5,1.4,3.7l0.7,1.9c0.3,0.6,0.5,1.2,0.8,1.8c0.5,1.2,1.1,2.3,1.8,3.4
		c0.6,1.1,1.2,2.1,1.8,3.1c0.5,1,1,2,1.5,2.9c0.4,0.9,0.8,1.7,1.2,2.4c0.4,0.7,0.7,1.4,0.9,1.9C176.4,111.6,176.6,112.2,176.6,112.2
		L176.6,112.2z"/>
</g>
<g>
	<path fill="#333333" d="M172.9,114c0,0-0.4-0.6-1.1-1.6c-0.7-1-1.7-2.5-2.9-4.2c-0.6-0.9-1.3-1.8-1.9-2.8c-0.7-1-1.3-2.1-2.1-3.2
		c-0.7-1.1-1.5-2.3-2.3-3.3c-0.4-0.5-0.9-1.1-1.3-1.6l-1.4-1.6c-0.9-1.1-1.9-2.1-2.8-3.1c-0.9-1-1.9-2-2.8-3c-0.9-1-1.8-1.8-2.7-2.7
		c-0.8-0.9-1.7-1.6-2.5-2.3c-0.4-0.4-0.8-0.7-1.1-1c-0.4-0.3-0.7-0.6-1-0.9c-0.3-0.3-0.6-0.5-0.9-0.8c-0.3-0.2-0.6-0.4-0.8-0.6
		c-1-0.7-1.6-1.1-1.6-1.1l0-0.1c0,0,0.6,0.3,1.7,0.9c0.3,0.1,0.6,0.3,0.9,0.5c0.3,0.2,0.6,0.4,1,0.7c0.7,0.5,1.6,1,2.4,1.7
		c0.8,0.7,1.8,1.4,2.6,2.2c0.4,0.4,0.9,0.9,1.3,1.3c0.5,0.4,0.9,0.9,1.4,1.4c0.9,1,1.8,2,2.7,3.1c0.4,0.5,0.9,1.1,1.3,1.6
		c0.4,0.6,0.8,1.1,1.3,1.7c1.7,2.3,3.3,4.6,5,6.6c0.8,1,1.6,2,2.3,3c0.7,1,1.3,2,1.9,2.9c1.1,1.8,2,3.3,2.6,4.4
		C172.7,113.3,173,114,172.9,114L172.9,114z"/>
</g>
<polygon fill="#4A494A" points="259.8,457.3 263.5,472.6 267.7,456.4 264.1,455.7 "/>
</svg>
