<?xml version="1.0" encoding="utf-8"?>
<!-- Generator: Adobe Illustrator 18.1.0, SVG Export Plug-In . SVG Version: 6.00 Build 0)  -->
<svg version="1.1" id="Layer_1" xmlns="http://www.w3.org/2000/svg" xmlns:xlink="http://www.w3.org/1999/xlink" x="0px" y="0px"
	 viewBox="0 0 512.9 512.9" enable-background="new 0 0 512.9 512.9" xml:space="preserve">
<g>
	<g>
		<path d="M96.9,237.5L94,211.5l-2.8-26.3c-1-8.8-1.9-17.5-2.7-26.3l-2.7-26.3l0-0.5l0.2-0.4c3.4-5.7,7-11.1,10.8-16.5
			c3.8-5.3,7.8-10.5,12-15.6c8.4-10.1,17.5-19.6,27.3-28.4c9.8-8.8,20.4-16.7,31.8-23.4c11.4-6.7,23.6-12.1,36.4-15.7
			c6.4-1.8,12.9-3,19.5-3.8c6.6-0.8,13.3-1,19.9-0.7c6.6,0.3,13.2,1.2,19.7,2.5l4.8,1.1l4.8,1.3c1.6,0.4,3.2,1,4.7,1.5
			c1.6,0.5,3.2,1,4.7,1.6l4.6,1.8c1.5,0.6,3,1.3,4.5,1.9l2.3,1l2.2,1.1l4.4,2.2c5.8,3.1,11.6,6.3,17,10c5.5,3.6,10.8,7.5,16,11.5
			c2.6,2,5.1,4.2,7.6,6.2l7.4,6.5l-0.8-0.3c4.3,0.1,8.4,0.6,12.5,1.5c4.1,0.9,8.1,2.1,11.9,3.7c7.7,3.2,14.8,8,20.4,14.2l2,2.4
			l1.9,2.5c0.7,0.8,1.2,1.7,1.7,2.6c0.6,0.9,1.1,1.8,1.6,2.7l1.5,2.8l1.3,2.9c0.4,0.9,0.8,1.9,1.1,2.9c0.3,1,0.7,2,1,2.9l0.8,3
			l0.4,1.5l0.3,1.5l0.6,3.1c0.2,1,0.3,2.1,0.5,3.1l0.4,3.1l0.2,3.1c0.1,1,0.2,2.1,0.2,3.1l0.1,3.1c0,1.1,0.1,2,0,3.1l-0.2,3.1
			l-0.4,6.2l-0.7,12.3l-1.5,24.6c-0.5,8.2-1,16.4-1.4,24.7l-1.4,24.7l-1.8-1.1c2.4-1.4,4.9-2.6,7.6-3.4c1.4-0.4,2.8-0.7,4.3-0.7
			c0.8,0,1.6,0.1,2.4,0.3c0.8,0.3,1.6,0.7,2.3,1.3c1.3,1.3,1.8,3,2,4.5c0.2,1.6,0,2.9-0.1,4.3c-0.1,1.4-0.3,2.7-0.4,4.1l-0.6,4
			c-0.2,1.4-0.4,2.7-0.7,4c-0.3,1.3-0.5,2.7-0.8,4l-0.9,4c-0.3,1.3-0.6,2.7-1,4l-1.2,3.9c-0.4,1.3-0.7,2.6-1.2,3.9l-2.8,7.6
			c-1.8,5.1-3.6,10.2-5.8,15.2c-0.5,1.3-1.1,2.5-1.8,3.8c-0.7,1.3-1.3,2.5-2.4,3.8l-0.7,0.8c0,0.1,0,0-0.1,0.1l-0.2,0.3
			c-0.2,0.4-0.4,1-0.6,1.5c-0.3,1.1-0.6,2.4-0.8,3.7c-0.4,2.6-0.6,5.2-0.8,7.9l-0.3,4c-0.1,0.7-0.1,1.4-0.2,2.1
			c0,0.4-0.1,0.7-0.1,1.1c0,0.2-0.1,0.4-0.1,0.6l-0.2,0.6c0,0.1-0.1,0.4-0.2,0.6l-0.3,0.6c-0.2,0.4-0.3,0.7-0.5,1.1
			c-0.4,0.7-0.8,1.3-1.2,1.9c-0.9,1.2-2,2.4-3.4,3.3c-1.4,0.9-3.1,1.6-4.9,1.6c-1.9,0-3.6-0.7-5-1.6l3.2-1.1
			c-2.9,9-5.9,17.9-9.1,26.8c-1.6,4.4-3.2,8.9-5,13.3c-0.9,2.2-1.8,4.4-2.8,6.6c-0.5,1.1-1,2.2-1.6,3.3c-0.6,1.1-1.1,2.2-2.3,3.5
			l0.5-0.9c-1,2.7-2,5.2-3.1,7.7c-1.1,2.5-2.3,5-3.6,7.4c-2.5,4.9-5.2,9.7-8.2,14.3c-5.9,9.3-12.7,18-20.6,25.8
			c-3.9,3.9-8.2,7.5-12.7,10.8c-4.5,3.3-9.2,6.2-14.3,8.7c-1.2,0.7-2.5,1.2-3.8,1.8c-0.7,0.3-1.2,0.6-2,0.9l-2,0.7
			c-2.6,0.9-5.3,1.7-8,2.4c-5.3,1.4-10.8,2.5-16.2,3.3c-5.5,0.8-11,1.3-16.5,1.4c-5.5,0.2-11.1-0.1-16.6-0.7
			c-1.4-0.2-2.8-0.3-4.1-0.5l-4.1-0.7c-1.4-0.2-2.7-0.6-4.1-0.8c-1.4-0.3-2.7-0.6-4-1l-4-1.1l-4-1.3l-2-0.7l-1.9-0.8l-3.9-1.6
			c-5-2.4-10-4.9-14.6-8.1c-4.7-3-8.9-6.6-13-10.4c-0.5-0.5-1-0.9-1.5-1.5l-1.4-1.5l-2.9-3c-1.8-2.1-3.6-4.2-5.3-6.4
			c-1.6-2.2-3.3-4.5-4.8-6.7l-4.4-7l0.3,0.4c-1.4-1.6-2.6-3.1-3.8-4.7c-1.2-1.6-2.4-3.2-3.6-4.8c-1.2-1.6-2.3-3.2-3.4-4.9
			c-1.1-1.7-2.2-3.3-3.3-5l-3.1-5.1l-3-5.2c-1-1.7-1.9-3.5-2.8-5.3c-1-1.7-1.8-3.5-2.6-5.3c-0.8-1.8-1.7-3.6-2.5-5.4l-2.3-5.5
			l-2.1-5.6c-0.3-0.9-0.7-1.9-1-2.8l-0.9-2.8c-0.6-1.9-1.2-3.8-1.7-5.7l-1.4-5.8c-0.2-1-0.5-1.9-0.7-2.9l-0.5-2.9l-1-5.9l0.2,0.5
			l-1.5-2.9l2,0.7c-0.8,0.3-1.4,0.4-2.1,0.5c-0.7,0.1-1.4,0.1-2.1,0.1c-1.4-0.1-3-0.5-4.3-1.5c-1.3-1-2.1-2.3-2.4-3.8
			c-0.2-0.5-0.3-1.3-0.4-2c-0.1-0.7-0.1-1.3-0.1-2c0-2.5,0.1-5,0.3-7.4l0.7-7.2c0.2-2.4,0.5-4.8,0.6-7.2c0.1-1.2,0.1-2.4,0.1-3.5
			c0-0.6-0.1-1.1-0.1-1.7l-0.2-0.7l0-0.2l0,0c0,0,0,0,0,0l0-0.1l-0.2-0.4c-0.9-2.1-1.9-4.4-2.9-6.6l-3-6.6c-2-4.4-4-8.8-5.9-13.3
			c-1.9-4.4-3.8-8.9-5.6-13.4c-0.9-2.3-1.7-4.6-2.3-7c-0.1-0.6-0.3-1.2-0.3-1.9c-0.1-0.7,0-1.2,0-1.9c0-1.2,0.1-2.4,0.2-3.7
			c0.1-1.2,0.4-2.5,0.8-3.6c0.4-1.2,1.1-2.3,2.2-3.1c1-0.8,2.3-1.1,3.6-1.1c0.6,0,1.2,0.1,1.9,0.1L96.9,237.5z M97.4,238.1l-2.1-0.4
			c-0.6,0-1.2-0.1-1.8-0.1c-1.2,0-2.3,0.4-3.2,1.1c-0.9,0.7-1.5,1.7-1.8,2.8c-0.3,1.1-0.5,2.3-0.6,3.5c-0.1,1.2-0.1,2.4-0.1,3.6
			c0,0.6,0,1.3,0.1,1.8c0.1,0.5,0.2,1.1,0.4,1.7c0.6,2.3,1.5,4.5,2.4,6.8c1.8,4.5,3.8,8.8,5.9,13.2c2,4.4,4.1,8.7,6.2,13.1l3.2,6.5
			c1,2.2,2.1,4.3,3.1,6.7l0.2,0.4l0,0.1l0,0.1l0,0.1l0.1,0.3l0.3,1c0.1,0.6,0.2,1.3,0.2,1.9c0.1,1.3,0,2.5,0,3.7
			c-0.1,2.5-0.3,4.9-0.5,7.3l-0.6,7.2c-0.1,2.4-0.3,4.8-0.2,7.1c0,0.6,0,1.2,0.1,1.7c0.1,0.5,0.1,0.9,0.3,1.5
			c0.2,0.9,0.8,1.7,1.4,2.2c0.7,0.5,1.5,0.7,2.5,0.8c0.9,0,2.1-0.2,2.9-0.5l1.3-0.5l0.7,1.2l1.5,2.8l0.1,0.2l0.1,0.3l1.1,5.7
			l0.6,2.9c0.2,0.9,0.5,1.9,0.7,2.8l1.5,5.6c0.5,1.9,1.2,3.7,1.8,5.5l0.9,2.8c0.3,0.9,0.7,1.8,1,2.7l2.1,5.4l2.3,5.3
			c0.7,1.8,1.6,3.5,2.5,5.3c0.9,1.7,1.7,3.5,2.6,5.2c0.9,1.7,1.8,3.4,2.8,5.1l2.9,5l3.1,4.9c1.1,1.6,2.2,3.2,3.3,4.8
			c1.1,1.6,2.3,3.2,3.4,4.7c1.2,1.5,2.3,3.1,3.6,4.6c1.2,1.5,2.5,3,3.7,4.4l0.1,0.1l0.1,0.2l4.3,6.7c1.6,2.2,3.2,4.3,4.7,6.4
			c1.7,2,3.4,4,5.2,6l2.8,2.8l1.4,1.4c0.5,0.5,0.9,0.9,1.4,1.4l3,2.6l1.5,1.3c0.5,0.4,1,0.8,1.6,1.2l3.1,2.4
			c0.5,0.4,1.1,0.8,1.6,1.1l1.7,1.1c4.3,3,9.1,5.4,13.8,7.6l3.7,1.5l1.8,0.7l1.9,0.6l3.8,1.2l3.8,1c1.3,0.4,2.6,0.6,3.9,0.9
			c1.3,0.3,2.6,0.6,3.9,0.8l3.9,0.6c1.3,0.2,2.6,0.3,3.9,0.5c1.3,0.1,2.6,0.3,4,0.3c1.3,0.1,2.6,0.2,4,0.2l4,0.1c1.3,0,2.7,0,4-0.1
			c5.3-0.1,10.6-0.6,15.9-1.4c5.3-0.8,10.5-1.8,15.6-3.2c2.6-0.7,5.1-1.4,7.6-2.3l1.8-0.6c0.5-0.2,1.2-0.5,1.8-0.8
			c1.2-0.6,2.4-1,3.6-1.6c9.5-4.6,18-11,25.7-18.3c7.6-7.4,14.3-15.8,20-24.8c2.9-4.5,5.6-9.1,8-13.9c1.2-2.4,2.4-4.8,3.5-7.2
			c1.1-2.4,2.2-4.9,3-7.3l0.1-0.2l0.5-0.7c0.1-0.1,0.2-0.2,0.3-0.4l0.4-0.6c0.3-0.5,0.5-0.9,0.8-1.4c0.5-1,1-2,1.5-3
			c1-2.1,1.9-4.2,2.7-6.4c1.8-4.3,3.4-8.7,5-13.1c3.2-8.8,6.3-17.7,9.3-26.6l0.9-2.6l2.3,1.5c1.8,1.1,3.4,1.2,5.2,0.1
			c0.9-0.6,1.7-1.4,2.4-2.3c0.3-0.5,0.7-0.9,0.9-1.4c0.1-0.2,0.3-0.5,0.4-0.8l0.1-0.3c0-0.1,0.1-0.2,0.1-0.4
			c0.3-0.9,0.4-2.3,0.5-3.6l0.3-4c0.2-2.7,0.5-5.4,1-8.2c0.2-1.4,0.5-2.8,1-4.2c0.2-0.7,0.5-1.4,0.9-2.2c0.1-0.2,0.2-0.4,0.3-0.6
			c0.1-0.2,0.4-0.5,0.5-0.7c0.1-0.1,0.1-0.1,0.2-0.2l0.3-0.3l0.2-0.2c0.6-0.7,1.3-1.8,1.9-3c0.6-1.1,1.2-2.3,1.7-3.5
			c2.2-4.8,4.1-9.8,5.9-14.9l2.9-7.5c0.5-1.2,0.9-2.5,1.3-3.8l1.2-3.8c0.4-1.3,0.7-2.6,1.1-3.8l1-3.9c0.3-1.3,0.5-2.6,0.8-3.9
			c0.3-1.3,0.6-2.6,0.7-3.9l0.6-3.9c0.1-1.3,0.3-2.6,0.4-3.9c0.1-1.3,0.3-2.7,0.2-3.8c-0.1-1.2-0.5-2.2-1.1-2.8
			c-0.6-0.6-1.7-0.9-2.8-0.9c-1.2,0-2.4,0.2-3.6,0.6c-2.4,0.7-4.9,1.8-7.1,3.1l-2,1.1l0.2-2.2l1.7-24.6c0.6-8.2,1.2-16.4,1.7-24.6
			l1.6-24.6l0.8-12.3l0.4-6.2l0.2-3.1c0-0.9,0-2,0-3l0-3.1c0-1-0.1-2-0.2-3.1l-0.2-3.1l-0.4-3c-0.2-1-0.2-2-0.5-3l-0.6-3l-0.3-1.5
			l-0.4-1.5l-0.8-2.9c-0.3-1-0.7-1.9-1-2.9c-0.3-1-0.7-1.9-1.1-2.8l-1.2-2.8l-1.4-2.7c-2-3.5-4.3-6.9-7.1-9.8
			c-5.5-6-12.4-10.5-19.9-13.5c-3.8-1.5-7.7-2.6-11.6-3.4c-4-0.8-8.1-1.3-12-1.2l-0.5,0l-0.4-0.3l-7.4-6.3c-2.5-2-5-4.1-7.6-6
			c-5.2-3.9-10.5-7.7-16-11.1c-5.4-3.5-11.1-6.6-16.9-9.5l-4.4-2l-2.2-1l-2.2-0.9c-1.5-0.6-3-1.2-4.5-1.8l-4.5-1.6
			c-6.1-2-12.3-3.9-18.6-5c-6.3-1.2-12.7-2-19.1-2.3c-12.8-0.4-25.7,1-38,4.5c-12.4,3.4-24.2,8.6-35.4,15.1
			c-11.1,6.5-21.5,14.2-31.3,22.7c-9.7,8.5-18.8,17.8-27.2,27.7c-4.2,4.9-8.2,10-12.1,15.2c-3.8,5.2-7.6,10.6-10.9,16l0.2-0.9
			l2.2,26.3c0.8,8.8,1.5,17.5,2.2,26.3l2.1,26.3L97.4,238.1z"/>
	</g>
	<path d="M97.2,249.8c0,0,8.8,49,10.3,53.5c0,0,7.1-105.5,10.6-116.1s1.5-32.3,1.5-32.3s50-59.5,113-33.8l18.2,6.6
		c0,0,9.1-12.6,23.7-13.1c0,0,55,14.6,69.1-2c0,0,16.1-15.6,4-30.8c0,0-24.7-28.3-78.2-47.4c0,0-56.5-21.2-116.6,27.8
		c0,0-51,42.9-65.6,76.5L97.2,249.8z"/>
	<path d="M333.6,121.6c0,0,34.8-12.1,19.2-38.4c0,0,25.2-1.5,42.9,22.2c0,0,19.2,26.2,9.6,72.7l-3.8,76.2c0,0-11.9,34.8-11.9,41.9
		l-15.1-112c0,0,2-12.6,0-18.2C372.5,160.5,333.6,124.2,333.6,121.6z"/>
	<path d="M135.3,231.7c0,0,62.1-14.6,79.2-4.5c0,0,11.1-5.6,8.1-11.6c0,0-43.9-8.1-46.4-7.6c-2.5,0.5-1-2.5-1-2.5
		S145.4,214.5,135.3,231.7z"/>
	<path d="M267.5,221.1c0,0,37.8-14.6,51.5-13.1c13.6,1.5,35.8,15.6,41.9,23.2c0,0-25.7-11.1-47.9-9.6c-22.2,1.5-32.3,7.6-35.3,6.1
		S266.5,225.6,267.5,221.1z"/>
	<g>
		<path fill="#727373" d="M177.7,430c0,0,0.5,0.3,1.3,0.9c0.8,0.6,2.1,1.4,3.7,2.5c1.6,1,3.6,2.3,5.9,3.7c2.3,1.4,4.9,2.8,7.8,4.4
			c1.5,0.7,3,1.6,4.6,2.3c0.8,0.4,1.6,0.8,2.4,1.2c0.8,0.4,1.7,0.8,2.5,1.2c1.7,0.8,3.5,1.5,5.3,2.3c1.8,0.7,3.7,1.5,5.6,2.1
			c3.8,1.4,7.8,2.6,11.9,3.6c1,0.3,2.1,0.5,3.1,0.7c1,0.2,2.1,0.5,3.1,0.7c2.1,0.3,4.2,0.8,6.4,0.9l3.2,0.4c1.1,0.1,2.1,0.1,3.2,0.2
			c2.1,0.2,4.2,0.1,6.4,0.1c1.1,0,2.1-0.1,3.1-0.2c1-0.1,2.1-0.1,3.1-0.2c2-0.3,4.1-0.5,6-0.9c2-0.4,3.9-0.8,5.8-1.3
			c1.9-0.5,3.7-1,5.5-1.6c1.7-0.6,3.4-1.3,5.1-1.9c1.6-0.7,3.1-1.4,4.6-2.1c0.4-0.2,0.7-0.3,1.1-0.5c0.3-0.2,0.7-0.4,1-0.6
			c0.7-0.4,1.4-0.7,2-1.1c1.3-0.7,2.6-1.3,3.7-2.1c1.1-0.7,2.2-1.4,3.2-2c1-0.6,1.9-1.2,2.7-1.7c3.1-2.2,5-3.5,5-3.5
			s-1.5,1.6-4.3,4.3c-0.7,0.7-1.5,1.4-2.4,2.1c-0.9,0.8-1.9,1.5-3,2.4c-1,0.9-2.3,1.7-3.5,2.5c-0.6,0.4-1.3,0.9-2,1.3
			c-0.3,0.2-0.7,0.5-1,0.7c-0.4,0.2-0.7,0.4-1.1,0.6c-1.5,0.8-3,1.7-4.6,2.6c-1.6,0.8-3.4,1.5-5.1,2.3c-1.8,0.7-3.7,1.3-5.6,2.1
			c-1,0.4-2,0.6-3,0.9c-1,0.3-2,0.5-3.1,0.8c-2.1,0.5-4.2,0.8-6.4,1.2c-2.2,0.2-4.4,0.5-6.6,0.6c-2.2,0-4.5,0.2-6.7,0
			c-1.1-0.1-2.3-0.1-3.4-0.2l-3.4-0.4c-2.3-0.2-4.5-0.7-6.7-1c-1.1-0.2-2.2-0.5-3.3-0.7c-1.1-0.3-2.2-0.5-3.2-0.8
			c-2.1-0.6-4.3-1.2-6.3-1.9c-1-0.4-2.1-0.7-3-1.1c-1-0.4-2-0.8-3-1.2c-2-0.8-3.8-1.7-5.7-2.5c-1.8-0.9-3.6-1.7-5.3-2.7
			c-3.4-1.8-6.5-3.7-9.3-5.5c-2.8-1.8-5.3-3.6-7.4-5.3c-2.2-1.6-3.9-3.2-5.4-4.4C179.2,431.6,177.7,430,177.7,430z"/>
	</g>
	<g>
		<path fill="#3A3A3A" d="M289,25.2c0,0,0.9,0.9,2.4,2.7c1.4,1.7,3.4,4.3,5.6,7.5c1.1,1.6,2.2,3.4,3.3,5.3c1.1,1.9,2.2,4,3.3,6.2
			c2.1,4.4,4,9.3,5.4,14.3c0.7,2.5,1.3,5.1,1.7,7.6c0.2,1.3,0.4,2.6,0.5,3.8c0.1,1.3,0.2,2.5,0.3,3.8c0,1.2,0.1,2.5,0,3.7
			c-0.1,1.2-0.1,2.4-0.2,3.5c-0.1,1.1-0.2,2.2-0.4,3.3c-0.2,1.1-0.4,2.1-0.6,3c-0.3,1-0.5,1.9-0.8,2.7c-0.3,0.9-0.6,1.6-0.9,2.4
			c-0.3,0.8-0.6,1.4-0.9,2c-0.3,0.6-0.6,1.2-0.8,1.7c-0.6,1-1.1,1.7-1.4,2.2c-0.3,0.5-0.5,0.8-0.5,0.8s0.4-1.3,1-3.4
			c0.1-0.5,0.3-1.1,0.4-1.8c0.1-0.6,0.3-1.3,0.4-2.1c0.1-0.8,0.3-1.6,0.4-2.4c0.1-0.9,0.2-1.7,0.3-2.7c0.1-1.9,0.2-3.9,0.1-6
			c0-1.1-0.1-2.2-0.2-3.3c-0.1-1.1-0.2-2.2-0.3-3.4c-0.2-1.1-0.3-2.3-0.5-3.5c-0.2-1.2-0.4-2.4-0.7-3.6c-0.3-1.2-0.5-2.4-0.8-3.6
			c-0.3-1.2-0.6-2.4-1-3.6c-0.6-2.4-1.4-4.8-2.2-7.1c-0.4-1.2-0.8-2.3-1.2-3.5c-0.4-1.1-0.8-2.3-1.3-3.4c-0.8-2.2-1.7-4.3-2.6-6.3
			c-0.8-2-1.7-3.9-2.4-5.6c-0.8-1.7-1.5-3.3-2.2-4.7c-0.7-1.4-1.2-2.6-1.7-3.7C289.6,26.3,289,25.2,289,25.2z"/>
	</g>
	<g>
		<path fill="#3A3A3A" d="M272,20.7c0,0,1.1,0.8,2.8,2.5c0.9,0.8,1.9,1.8,3.1,3.1c1.2,1.2,2.4,2.6,3.8,4.2c1.3,1.6,2.8,3.3,4.2,5.2
			c1.4,1.9,2.8,3.9,4.3,6.1c1.4,2.2,2.8,4.5,4.1,6.9c1.3,2.4,2.5,4.9,3.6,7.4c0.5,1.3,1.1,2.6,1.6,3.9c0.5,1.3,1,2.6,1.4,3.9
			c0.4,1.3,0.8,2.6,1.2,3.9c0.3,1.3,0.7,2.6,0.9,3.9c0.3,1.3,0.5,2.5,0.7,3.8c0.1,0.6,0.2,1.2,0.3,1.8c0.1,0.6,0.1,1.2,0.2,1.8
			c0.1,1.2,0.2,2.4,0.2,3.5c0,1.1,0.1,2.2,0,3.3c-0.1,1-0.1,2-0.1,3c-0.1,0.9-0.2,1.8-0.3,2.7c-0.2,1.7-0.6,3.1-0.8,4.3
			c-0.3,1.2-0.6,2.1-0.8,2.7c-0.2,0.6-0.3,0.9-0.3,0.9s0-1.4,0.1-3.8c0-1.2,0-2.6-0.1-4.3c-0.1-0.8-0.1-1.7-0.2-2.6
			c-0.1-0.9-0.2-1.9-0.3-2.9c-0.1-1-0.3-2-0.5-3.1c-0.1-0.5-0.2-1.1-0.3-1.6c-0.1-0.5-0.2-1.1-0.3-1.7c-0.1-0.6-0.2-1.1-0.3-1.7
			c-0.1-0.6-0.3-1.1-0.4-1.7c-0.1-0.6-0.3-1.2-0.4-1.8c-0.2-0.6-0.3-1.2-0.5-1.8c-0.7-2.4-1.5-4.8-2.4-7.3c-0.4-1.2-0.9-2.4-1.4-3.7
			c-0.5-1.2-1-2.4-1.5-3.7c-1.1-2.4-2.2-4.9-3.3-7.2c-1.2-2.4-2.4-4.6-3.6-6.8c-1.2-2.2-2.4-4.3-3.6-6.3c-1.2-2-2.3-3.9-3.4-5.6
			c-1.1-1.7-2.1-3.3-3-4.7c-0.9-1.4-1.7-2.6-2.3-3.6C272.8,21.9,272,20.7,272,20.7z"/>
	</g>
	<g>
		<path fill="#3A3A3A" d="M257.3,23.9c0,0,1.2,0.7,3.2,2c1,0.7,2.2,1.5,3.5,2.6c1.3,1,2.8,2.2,4.3,3.6c1.5,1.4,3.2,2.9,4.9,4.5
			c1.7,1.7,3.4,3.5,5.1,5.4c1.7,2,3.4,4,5,6.2c1.7,2.2,3.2,4.5,4.7,6.8c0.7,1.2,1.4,2.4,2.1,3.6c0.7,1.2,1.3,2.4,1.9,3.7
			c0.6,1.2,1.2,2.4,1.7,3.7c0.5,1.2,1.1,2.5,1.5,3.7c0.5,1.2,0.9,2.4,1.2,3.7c0.2,0.6,0.4,1.2,0.5,1.8c0.2,0.6,0.3,1.2,0.4,1.8
			c0.3,1.2,0.6,2.3,0.7,3.4c0.2,1.1,0.4,2.2,0.5,3.2c0.1,1,0.2,2,0.3,3c0,0.9,0,1.9,0.1,2.7c0,1.7-0.1,3.2-0.2,4.4
			c-0.1,1.2-0.3,2.1-0.4,2.8c-0.1,0.6-0.2,1-0.2,1s-0.2-1.4-0.5-3.7c-0.2-1.2-0.4-2.6-0.7-4.2c-0.2-0.8-0.4-1.6-0.6-2.5
			c-0.2-0.9-0.5-1.8-0.7-2.8c-0.2-1-0.6-2-0.9-3c-0.2-0.5-0.3-1-0.5-1.6c-0.2-0.5-0.4-1-0.6-1.6c-0.2-0.5-0.4-1.1-0.6-1.6
			c-0.2-0.5-0.4-1.1-0.7-1.6c-0.2-0.6-0.5-1.1-0.7-1.7c-0.3-0.6-0.5-1.1-0.8-1.7c-1-2.3-2.2-4.5-3.4-6.9c-0.6-1.2-1.3-2.3-1.9-3.4
			c-0.7-1.1-1.4-2.3-2.1-3.4c-1.4-2.3-2.9-4.5-4.4-6.6c-1.5-2.2-3-4.2-4.5-6.3c-1.5-2-3-3.9-4.5-5.7c-1.4-1.8-2.8-3.5-4.1-5
			c-1.3-1.5-2.5-2.9-3.6-4.2c-1.1-1.2-2.1-2.3-2.8-3.2C258.3,24.9,257.3,23.9,257.3,23.9z"/>
	</g>
	<g>
		<path fill="#3A3A3A" d="M191.8,31.8c0,0,0.4,0.1,1.1,0.2c0.7,0.1,1.8,0.3,3.1,0.7c1.3,0.3,3,0.7,4.8,1.3c1.8,0.6,3.9,1.2,6.2,2
			c2.2,0.8,4.6,1.7,7.2,2.8c2.5,1.1,5.1,2.3,7.8,3.7c1.3,0.7,2.7,1.4,4,2.2c1.3,0.7,2.7,1.6,4,2.4c1.3,0.8,2.6,1.7,4,2.6
			c1.3,1,2.6,1.9,3.9,2.9c1.2,1,2.5,2,3.7,3.1l1.8,1.6c0.6,0.6,1.1,1.1,1.7,1.7c2.3,2.2,4.3,4.7,6.1,7.1c0.9,1.2,1.7,2.5,2.5,3.7
			c0.7,1.3,1.4,2.5,2,3.8c0.6,1.3,1.2,2.5,1.6,3.7c0.4,1.3,0.9,2.4,1.2,3.6c0.3,1.2,0.6,2.3,0.8,3.4c0.2,1.1,0.3,2.1,0.4,3.1
			c0.2,1,0.2,1.9,0.2,2.7c0,0.8,0,1.6,0,2.3c-0.1,1.4-0.2,2.5-0.3,3.2c-0.1,0.7-0.1,1.1-0.1,1.1s-0.2-1.6-0.6-4.3
			c-0.1-0.7-0.3-1.4-0.5-2.2c-0.2-0.8-0.3-1.7-0.6-2.6c-0.3-0.9-0.5-1.9-0.9-2.8c-0.4-1-0.8-2-1.2-3.1c-0.5-1-1-2.1-1.5-3.2
			c-0.6-1.1-1.2-2.2-1.9-3.3c-0.7-1.1-1.5-2.2-2.2-3.3c-0.9-1.1-1.7-2.2-2.6-3.3c-1.8-2.2-3.8-4.3-6-6.4c-0.5-0.5-1.1-1-1.6-1.5
			l-1.7-1.5c-1.1-1-2.3-1.9-3.5-2.9c-1.2-1-2.4-1.9-3.6-2.8c-1.3-0.9-2.5-1.8-3.7-2.6c-2.5-1.7-5-3.3-7.5-4.8
			c-2.5-1.5-4.9-2.9-7.2-4.2c-2.4-1.3-4.6-2.5-6.7-3.5c-2.1-1-4-2-5.7-2.9c-1.7-0.8-3.2-1.5-4.5-2.1
			C193.2,32.5,191.8,31.8,191.8,31.8z"/>
	</g>
	<path fill="none" stroke="#000000" stroke-width="2" stroke-miterlimit="10" d="M223.2,290.6h-71.5c-4.2,0-7.6-4-7.6-8.8v-21.2
		c0-4.9,3.4-8.8,7.6-8.8h71.5c4.2,0,7.6,4,7.6,8.8v21.2C230.8,286.6,227.4,290.6,223.2,290.6z"/>
	<path fill="none" stroke="#000000" stroke-width="2" stroke-miterlimit="10" d="M342.8,290.6h-71.5c-4.2,0-7.6-4-7.6-8.8v-21.2
		c0-4.9,3.4-8.8,7.6-8.8h71.5c4.2,0,7.6,4,7.6,8.8v21.2C350.4,286.6,347,290.6,342.8,290.6z"/>
	<path fill="none" stroke="#000000" stroke-width="3" stroke-miterlimit="10" d="M230.7,264.7c0,0,20.8-3.5,34.3,0"/>
	<line fill="none" stroke="#000000" stroke-width="3" stroke-miterlimit="10" x1="143.4" y1="260.4" x2="97.2" y2="249.8"/>
	<line fill="none" stroke="#000000" stroke-width="3" stroke-miterlimit="10" x1="348.7" y1="262.9" x2="401.7" y2="248.3"/>
	<g>
		<path fill="#020202" d="M209.5,374.5c3-0.5,6-1,9-1.4c1.5-0.2,3-0.4,4.5-0.6c1.5-0.2,3-0.4,4.5-0.6l4.5-0.5l4.5-0.5l4.5-0.5
			l4.5-0.4l0.3,0l0.3,0.1c2.4,0.7,4.7,1.3,7.1,2l-0.8,0l4-1l0.3-0.1l0.3,0c1.4,0.2,2.9,0.4,4.3,0.6l4.3,0.6c2.9,0.4,5.7,0.9,8.5,1.3
			c1.4,0.2,2.8,0.5,4.3,0.7c1.4,0.2,2.8,0.5,4.3,0.7c1.4,0.3,2.8,0.5,4.2,0.7c1.4,0.2,2.8,0.5,4.3,0.8c-1.4,0-2.9,0-4.3-0.1
			c-1.5,0-2.9-0.1-4.3-0.2c-1.4-0.1-2.9-0.2-4.3-0.3c-1.4-0.1-2.9-0.2-4.3-0.3c-2.9-0.3-5.7-0.5-8.6-0.8c-2.9-0.3-5.7-0.6-8.6-0.9
			l0.5,0l-4,1l-0.4,0.1l-0.4-0.1c-2.4-0.6-4.7-1.4-7.1-2l0.5,0.1l-4.5,0.3l-4.5,0.3l-4.6,0.3l-4.6,0.2c-1.5,0.1-3,0.1-4.6,0.2
			c-1.5,0.1-3,0.1-4.6,0.1C215.6,374.4,212.5,374.5,209.5,374.5z"/>
	</g>
	<g>
		<path fill="#020202" d="M224.1,382.5c0,0,0.2,0.1,0.6,0.3c0.4,0.2,0.9,0.5,1.6,0.8c1.4,0.7,3.3,1.7,5.7,2.7c2.3,1,5.1,2.1,8.1,2.9
			c0.7,0.2,1.5,0.4,2.3,0.6c0.8,0.2,1.6,0.4,2.3,0.5c0.8,0.2,1.6,0.3,2.4,0.4c0.8,0.1,1.6,0.2,2.4,0.3c0.8,0.1,1.6,0.1,2.4,0.1
			c0.8,0,1.6,0,2.4,0c1.6-0.1,3.1-0.2,4.6-0.5c0.8-0.1,1.5-0.2,2.2-0.4c0.7-0.2,1.4-0.3,2.1-0.5c1.4-0.3,2.6-0.8,3.9-1.2
			c0.6-0.2,1.2-0.5,1.7-0.7c0.6-0.2,1.1-0.4,1.5-0.6c0.9-0.5,1.8-0.8,2.5-1.1c1.4-0.7,2.2-1,2.2-1s-0.6,0.7-1.6,1.8
			c-0.5,0.6-1.2,1.2-2.1,1.9c-0.8,0.8-1.8,1.5-2.9,2.3c-1.2,0.7-2.4,1.5-3.9,2.2c-0.7,0.4-1.5,0.6-2.2,0.9c-0.8,0.3-1.6,0.5-2.4,0.8
			c-0.8,0.3-1.7,0.4-2.6,0.6c-0.9,0.2-1.8,0.3-2.7,0.4c-0.9,0.1-1.8,0.1-2.8,0.1c-0.9,0-1.9,0-2.8-0.1c-1.9-0.2-3.7-0.5-5.4-0.9
			c-1.8-0.4-3.5-1-5-1.7c-1.6-0.6-3-1.4-4.4-2.2c-1.3-0.8-2.6-1.6-3.6-2.4c-1.1-0.8-2-1.6-2.8-2.4c-0.8-0.7-1.5-1.4-2-2
			C224.6,383.2,224.1,382.5,224.1,382.5z"/>
	</g>
</g>
</svg>
