<?xml version="1.0" encoding="utf-8"?>
<!-- Generator: Adobe Illustrator 18.1.0, SVG Export Plug-In . SVG Version: 6.00 Build 0)  -->
<svg version="1.1" id="Layer_1" xmlns="http://www.w3.org/2000/svg" xmlns:xlink="http://www.w3.org/1999/xlink" x="0px" y="0px"
	 viewBox="0 0 512.9 512.9" enable-background="new 0 0 512.9 512.9" xml:space="preserve">
<g>
	<path d="M122.8,307.6l5.1,6.3c0,0,2.9-97.3,9.2-104.7c6.3-7.4,9.7-41.2,9.7-41.2s7.4-45.8,50.9-52.1s113.3,1.1,120.1,1.7
		c6.9,0.6,44,23.5,48.1,35.5c0,0-6.9,26.9-3.4,30.9c3.4,4,22.3,35.5,21.2,42.9c-1.1,7.4,1.1,76.1,1.1,76.1s6.3-20.6,13.2-26.9
		c6.9-6.3,14.3-9.7,16-14.3c1.7-4.6,12-77.8,9.2-86.4c-2.9-8.6-2.9-25.2-0.6-37.2c0,0-29.2-57.2-61.2-87.5c0,0-16-10.9-44-9.7
		c0,0-25.7-17.7-79.5-13.2c0,0-5.7,1.1-13.2,5.7c0,0-24,1.7-48.1,28.6l-32,39.5C144.6,101.7,101.7,127.4,122.8,307.6z"/>
	<g>
		<path d="M122.6,307.6c-1.5-8.7-2.8-17.5-3.9-26.3c-1.1-8.8-2-17.6-2.7-26.5c-0.7-8.8-1.3-17.7-1.6-26.6
			c-0.3-8.9-0.4-17.8-0.2-26.7c0.1-4.4,0.2-8.9,0.5-13.3c0.3-4.4,0.6-8.9,1-13.3c0.9-8.9,2.2-17.7,4-26.5c0.9-4.4,2.1-8.7,3.4-13
			c1.3-4.3,2.9-8.6,4.7-12.7c1.8-4.2,3.9-8.2,6.4-12.1c2.5-3.9,5.3-7.5,8.7-10.8l-0.4,0.5c1.2-2,2.5-3.9,3.7-5.8
			c1.3-1.9,2.6-3.8,3.9-5.6c2.6-3.7,5.4-7.3,8.2-10.9c1.4-1.8,2.9-3.5,4.3-5.3c1.5-1.7,3-3.4,4.5-5.2c1.5-1.7,3.1-3.4,4.7-5
			c1.6-1.7,3.2-3.3,4.8-4.9c6.6-6.3,13.7-12.3,21.6-17.1c1-0.6,2-1.2,3-1.8l3.1-1.7c2.1-1,4.2-2,6.4-2.9l1.6-0.6l1.7-0.5
			c1.1-0.3,2.2-0.8,3.4-1c1.2-0.3,2.3-0.6,3.5-0.8l3.5-0.5l-1,0.3c1.8-1,3.6-1.9,5.5-2.8c0.9-0.4,1.9-0.9,2.8-1.3l1.5-0.6l1.5-0.5
			c0.3-0.1,0.5-0.2,0.8-0.3l0.9-0.2l0.9-0.2l0.1,0l0,0l0.1,0l0,0l0.2,0l0.4,0l0.9-0.1l0.8,0l1.5-0.1c2-0.1,4.1-0.1,6.1-0.1
			c8.1,0,16.2,0.4,24.2,1.2c2,0.2,4,0.4,6,0.7c2,0.3,4,0.5,6,0.9c2,0.3,4,0.7,6,1.1c2,0.4,4,0.8,6,1.3c2,0.5,4,1,5.9,1.6
			c2,0.6,3.9,1.3,5.8,2c1.9,0.7,3.8,1.6,5.7,2.5c0.9,0.4,1.8,1,2.7,1.5c0.9,0.5,1.8,1.1,2.7,1.7l-1.1-0.3c5.9,0.2,11.8,0.7,17.6,1.5
			c5.8,0.8,11.7,1.9,17.4,3.7c1.4,0.5,2.8,1,4.2,1.7c1.4,0.6,2.8,1.4,4.1,2.3c0.7,0.4,1.3,1,1.9,1.5c0.5,0.5,1.1,1.1,1.6,1.6
			c1,1.1,2,2.2,3,3.3c3.9,4.4,7.6,9,11.2,13.5c7.3,9.1,14.4,18.4,21.2,28c3.4,4.8,6.7,9.6,9.9,14.5c3.2,4.9,6.3,9.9,9,15.1
			c1.4,2.6,2.6,5.3,3.7,8.1c0.5,1.4,1,2.8,1.2,4.4c0.1,0.8,0.2,1.5,0.2,2.4c0,0.4,0,0.8-0.1,1.2l-0.1,1.1
			c-0.6,5.8-1.1,11.6-1.2,17.4c-0.1,5.8,0.4,11.6,1.8,17.1l0.2,1.1c0.1,0.4,0.2,0.7,0.2,1.1c0.1,0.8,0.2,1.6,0.2,2.3
			c0.1,1.5,0.1,3,0.1,4.4c0,2.9-0.1,5.9-0.3,8.8c-0.3,5.9-0.8,11.7-1.4,17.5c-0.6,5.8-1.2,11.6-1.9,17.4c-0.7,5.8-1.6,11.6-2.5,17.4
			c-0.5,2.9-1,5.8-1.7,8.7c-0.3,1.4-0.6,2.9-1.1,4.3c-0.2,0.7-0.4,1.5-0.7,2.2c-0.1,0.4-0.3,0.8-0.5,1.1c-0.1,0.2-0.2,0.4-0.3,0.6
			l-0.4,0.6l-2.3-2c1.2-1.3,2.5-2.3,3.9-3.3c1.4-0.9,3-1.8,4.8-2.2c1.8-0.5,3.8-0.5,5.7,0.2c1.9,0.7,3.4,2,4.4,3.5
			c0.3,0.4,0.5,0.7,0.8,1.1l0.2,0.3l0,0l0.1,0.1l0,0.1l0.1,0.1l0.3,0.6c0.3,0.8,0.6,1.6,0.9,2.4c0.5,1.6,1,3.2,1.3,4.8
			c0.2,0.8,0.3,1.6,0.5,2.4c0.1,0.8,0.3,1.6,0.4,2.4l0.3,2.4l0.2,2.4c0.1,1.6,0.1,3.3,0.1,4.9c0,1.6-0.2,3.3-0.3,4.9
			c-0.2,1.6-0.4,3.2-0.6,4.8c-0.3,1.6-0.6,3.2-0.9,4.8c-0.3,1.6-0.8,3.1-1.2,4.7c-0.4,1.6-1,3.1-1.5,4.6c-0.5,1.5-1,3.1-1.7,4.6
			l-1.9,4.5l0.1-0.2c-0.6,1.6-1.2,3.1-1.8,4.6c-0.6,1.5-1.2,3.1-1.9,4.6c-1.3,3-2.6,6.1-4,9.1c-1.4,3-2.9,6-4.5,8.9
			c-1.6,2.9-3.3,5.8-5.2,8.6c-1,1.4-2,2.8-3.2,4.1c-1.2,1.3-2.5,2.6-4.4,3.7c-0.4,0.3-1,0.5-1.6,0.7c-0.6,0.2-1.3,0.3-1.8,0.3
			l-2.5,0.1c-1.7,0.1-3.4,0.1-5.2,0.1c-1.8-0.1-3.6-0.3-5.4-0.8c-1.8-0.5-3.6-1.2-5.2-2.2c-1.6-1-3-2.1-4.3-3.3
			c-0.7-0.6-1.2-1.3-1.9-1.9c-0.6-0.6-1.1-1.3-1.7-2l4.7-1.2c-0.6,2.8-1.1,5.6-1.8,8.3c-0.6,2.8-1.3,5.5-2,8.2
			c-1.4,5.5-2.9,10.9-4.5,16.3c-0.8,2.7-1.7,5.4-2.5,8.1c-0.9,2.7-1.8,5.4-2.7,8c-0.9,2.7-1.9,5.3-2.9,8l-1.5,4l-1.6,3.9
			c-0.5,1.3-1.1,2.6-1.7,3.9c-0.6,1.3-1.1,2.6-1.7,3.9L353,428l-1.9,3.8c-0.6,1.3-1.3,2.5-2,3.8c-0.7,1.3-1.4,2.5-2.1,3.7
			c-0.7,1.2-1.4,2.5-2.2,3.7l-2.3,3.6c-1.6,2.4-3.3,4.7-5.1,7l-1.3,1.7l-1.4,1.6c-1,1.1-1.9,2.2-2.9,3.2l-1.5,1.6
			c-0.5,0.5-1,1-1.6,1.5c-1.1,1-2.2,2-3.4,2.9c-1.2,0.9-2.4,1.8-3.6,2.6l-3.8,2.3l0.2-0.1c-2.5,1.5-4.8,2.8-7.3,4.1
			c-1.2,0.6-2.4,1.2-3.7,1.8c-1.2,0.6-2.5,1.2-3.7,1.7c-5,2.3-10.1,4.3-15.3,5.9c-5.2,1.8-10.5,3.1-15.9,4.3c-5.4,1-10.8,2-16.3,2.3
			l-4.1,0.3l-4.1,0c-1.4,0-2.7,0-4.2,0c-1.4-0.1-2.8-0.2-4.2-0.3c-5.5-0.6-10.9-1.6-16.3-3c-5.3-1.4-10.6-3.1-15.7-5.2
			c-5.1-2.1-10-4.6-14.8-7.6c-4.7-2.9-9.2-6.3-13.2-10.1c-4.1-3.8-7.8-8-11-12.5c-0.9-1.1-1.6-2.3-2.3-3.5l-0.6-0.9l-0.1-0.2
			l-0.1-0.1l0-0.1c0.1,0.1-0.1-0.2-0.1-0.2l-0.2-0.4l-0.9-1.8c-1.2-2.4-2.4-4.8-3.6-7.3c-2.3-4.9-4.6-9.8-6.7-14.7
			c-1.1-2.5-2.1-5-3.1-7.5l-1.5-3.8l-1.5-3.8c-1-2.5-1.9-5.1-2.8-7.6c-0.9-2.5-1.8-5.1-2.6-7.7c-1.7-5.1-3.2-10.4-4.5-15.6
			c-0.4-1.3-0.6-2.6-0.9-4l-0.9-4c-0.5-2.7-0.9-5.4-1.4-8.1l3.8,1.5c-3.1,2.3-6.1,4.3-9.8,5.9c-0.9,0.4-1.9,0.7-2.9,1
			c-1,0.2-2.2,0.4-3.5,0.3c-0.6-0.1-1.3-0.2-2-0.6l-0.2-0.1l-0.1-0.1l-0.1,0c0.1,0.1-0.3-0.2-0.2-0.2l-0.3-0.2
			c-0.1-0.1-0.4-0.4-0.7-0.6l-0.4-0.4l-0.2-0.3l-0.5-0.6c-0.3-0.4-0.6-0.8-0.8-1.2c-2-3.2-3.7-6.5-5.3-9.8c-1.6-3.3-3-6.6-4.5-10
			c-2.8-6.7-5.4-13.5-7.5-20.5c-0.5-1.8-1-3.5-1.4-5.4c-0.2-0.9-0.4-1.9-0.5-2.8c0-0.5-0.1-1-0.1-1.5l0-1.4c-0.1-3.7,0-7.3,0.1-10.9
			c0.2-7.2,0.5-14.5,1.1-21.7c0.1-1.8,0.3-3.6,0.6-5.4l0.2-1.4c0-0.2,0.1-0.5,0.2-0.8c0-0.1,0.1-0.2,0.1-0.4l0.1-0.3
			c0.5-1,1-1.8,1.6-2.6c1.2-1.5,2.5-2.9,4.1-4c0.8-0.6,1.7-1,2.7-1.4c1-0.3,2.2-0.4,3.3,0c1.1,0.4,1.9,1.3,2.5,2.1l0.2,0.3
			c0.1,0.2,0.1,0.2,0.2,0.4l0.3,0.6l0.6,1.2c0.4,0.8,0.7,1.7,1,2.6c0.3,0.9,0.7,1.7,0.9,2.6c1.1,3.5,2,7,2.8,10.5
			c0.8,3.5,1.5,7.1,2.1,10.7c0.3,1.8,0.6,3.6,0.8,5.4l0.6,5.4L122.6,307.6z M122.6,307.6l-0.8-5.3c-0.3-1.8-0.7-3.5-1-5.3
			c-0.7-3.5-1.5-7-2.4-10.5c-0.9-3.5-1.9-6.9-3.1-10.3c-0.3-0.9-0.6-1.7-0.9-2.5c-0.3-0.8-0.6-1.6-1-2.5l-0.6-1.2l-0.3-0.6
			c0-0.1-0.1-0.3-0.1-0.3l-0.2-0.2c-0.4-0.7-0.9-1.1-1.5-1.3c-1.2-0.4-2.8,0.3-4.1,1.3c-1.3,1-2.5,2.3-3.5,3.6
			c-0.5,0.7-1,1.4-1.2,2.1l-0.1,0.3c0,0,0,0.2,0,0.2c0,0.2-0.1,0.4-0.1,0.6l-0.2,1.3c-0.2,1.8-0.3,3.5-0.4,5.3
			c-0.4,7.2-0.6,14.4-0.6,21.6c0,3.6,0,7.2,0.2,10.7l0.1,1.4c0,0.4,0.1,0.8,0.1,1.2c0.1,0.8,0.3,1.7,0.5,2.5
			c0.4,1.7,0.9,3.4,1.4,5.1c2.2,6.8,4.9,13.4,7.8,20c1.5,3.3,3,6.5,4.6,9.7c1.6,3.2,3.3,6.4,5.2,9.2c0.2,0.4,0.5,0.7,0.7,1l0.4,0.4
			l0.2,0.2l0.1,0.1c0.1,0.1,0.1,0.1,0.3,0.3l0.3,0.2c0.1,0-0.3-0.2-0.2-0.1l0,0l0,0l0.1,0c0.1,0.1,0.3,0.1,0.6,0.1
			c1,0.1,2.6-0.4,4.1-1c3-1.3,6-3.3,8.6-5.4l3-2.4l0.7,3.9c0.5,2.6,0.9,5.2,1.4,7.8l0.9,3.9c0.3,1.3,0.6,2.6,0.9,3.9
			c1.4,5.1,2.9,10.2,4.6,15.2c0.9,2.5,1.7,5,2.7,7.5c0.9,2.5,1.9,5,2.9,7.5l1.5,3.7l1.6,3.7c1,2.5,2.1,4.9,3.2,7.3
			c2.2,4.9,4.4,9.7,6.8,14.5c1.2,2.4,2.4,4.8,3.6,7.1l0.9,1.7l0.2,0.4c0,0.1-0.2-0.3-0.1-0.1l0,0.1l0.1,0.1l0.1,0.2l0.5,0.8
			c0.7,1.1,1.4,2.2,2.2,3.2c6.1,8.4,13.9,15.4,22.7,20.8c4.4,2.7,9.1,5,13.9,7c4.8,2,9.8,3.6,14.9,4.8c5.1,1.3,10.2,2.2,15.4,2.7
			c1.3,0.1,2.6,0.2,3.8,0.3c1.2,0,2.6,0,3.9,0l3.9,0l3.9-0.3c5.2-0.3,10.4-1.2,15.5-2.2c5.1-1.1,10.2-2.4,15.2-4.1
			c5-1.6,9.9-3.5,14.7-5.7c1.2-0.5,2.4-1.1,3.6-1.7c1.2-0.6,2.4-1.1,3.5-1.7c2.3-1.2,4.7-2.5,6.8-3.8l0.2-0.1l3.4-2
			c1.1-0.8,2.1-1.5,3.2-2.3c1-0.8,2-1.7,3-2.6c0.5-0.4,1-0.9,1.5-1.4l1.4-1.4c1-0.9,1.8-2,2.7-3l1.3-1.5l1.3-1.6
			c1.7-2.1,3.3-4.3,4.8-6.6l2.2-3.4c0.7-1.1,1.4-2.3,2.1-3.5c0.7-1.2,1.4-2.4,2-3.6c0.7-1.2,1.4-2.4,2-3.6l1.9-3.7l1.8-3.7
			c0.6-1.2,1.2-2.5,1.7-3.8c0.6-1.3,1.1-2.5,1.7-3.8l1.6-3.8l1.5-3.9c1-2.6,2-5.2,2.9-7.8c1-2.6,1.8-5.2,2.7-7.9
			c0.9-2.6,1.7-5.3,2.5-7.9c1.6-5.3,3.1-10.7,4.5-16.1c0.7-2.7,1.4-5.4,2-8.1c0.6-2.7,1.3-5.4,1.8-8.1l1.1-5.4l3.6,4.2l1.5,1.8
			c0.5,0.5,1,1.1,1.6,1.6c1.1,1.1,2.2,1.9,3.4,2.7c2.4,1.5,5,2.2,8.1,2.3c1.5,0.1,3.1,0.1,4.7,0l2.4-0.1c0.1,0,0.1,0,0.2,0l0.1,0
			c0.1,0,0.2,0,0.3,0c0.2-0.1,0.4-0.1,0.7-0.3c1-0.5,2.1-1.5,3.1-2.6c1-1.1,2-2.3,2.9-3.6c1.8-2.6,3.5-5.3,5-8.1
			c1.6-2.8,3-5.7,4.4-8.6c1.4-2.9,2.8-5.9,4.1-8.9c1.3-3,2.6-6,3.7-9l0-0.1l0-0.1l1.9-4.2c0.7-1.4,1.2-2.9,1.7-4.3
			c0.5-1.5,1.1-2.9,1.5-4.4c0.4-1.5,0.9-3,1.2-4.5c0.3-1.5,0.7-3,1-4.5c0.2-1.5,0.5-3,0.7-4.6c0.1-1.5,0.3-3.1,0.3-4.6
			c0-1.5,0.1-3.1,0-4.6l-0.1-2.3l-0.2-2.3c-0.1-0.8-0.2-1.5-0.3-2.3c-0.1-0.8-0.2-1.5-0.4-2.3c-0.3-1.5-0.7-3-1.2-4.4
			c-0.2-0.7-0.5-1.4-0.8-2.1l-0.2-0.5l-0.1-0.1l0-0.1l0,0c0.1,0.2,0,0,0,0.1l0,0l-0.1-0.2c-0.2-0.3-0.4-0.6-0.6-0.9
			c-0.8-1.1-1.8-2-2.9-2.4c-1.1-0.4-2.4-0.5-3.7-0.1c-1.3,0.3-2.6,1-3.8,1.7c-1.2,0.8-2.4,1.8-3.4,2.7l-7.1,7l4.8-9
			c0.1-0.1,0.1-0.2,0.2-0.3c0.1-0.1,0.1-0.2,0.2-0.4c0.1-0.3,0.3-0.6,0.4-0.9c0.2-0.6,0.5-1.3,0.7-2c0.4-1.3,0.8-2.7,1.1-4.1
			c0.7-2.8,1.2-5.7,1.8-8.5c1.1-5.7,2-11.5,2.8-17.2c1.6-11.5,3-23.1,3.7-34.7c0.2-2.9,0.3-5.8,0.3-8.7c0-1.4,0-2.9-0.1-4.3
			c0-0.7-0.1-1.4-0.2-2.1c0-0.3-0.1-0.7-0.2-1.1l-0.1-0.5l-0.1-0.5c-1.4-5.8-1.9-11.7-1.8-17.6c0.1-5.9,0.6-11.8,1.3-17.5l0.1-1.1
			c0-0.4,0.1-0.7,0.1-1c0-0.6,0-1.3-0.2-2c-0.2-1.4-0.7-2.7-1.1-4.1c-1-2.7-2.3-5.3-3.6-7.8c-2.7-5.1-5.8-10.1-9-14.9
			c-3.2-4.9-6.5-9.6-10-14.3c-3.4-4.7-7-9.4-10.5-14c-3.6-4.6-7.2-9.2-10.9-13.6c-3.7-4.5-7.5-8.9-11.4-13.2c-1-1.1-2-2.1-3-3.2
			c-0.5-0.5-1-1-1.5-1.5c-0.5-0.4-1-0.9-1.5-1.2c-1.1-0.8-2.3-1.4-3.6-1.9c-1.3-0.6-2.6-1-3.9-1.5c-5.4-1.7-11.1-2.6-16.9-3.3
			c-5.7-0.7-11.5-1-17.3-1.1l-0.5,0l-0.5-0.3c-0.8-0.5-1.6-1-2.4-1.5c-0.9-0.4-1.7-0.9-2.5-1.3c-1.7-0.8-3.5-1.6-5.3-2.3
			c-1.8-0.7-3.7-1.3-5.6-1.8c-1.9-0.5-3.8-1-5.7-1.5c-1.9-0.4-3.8-0.8-5.8-1.2c-1.9-0.3-3.9-0.6-5.8-0.9c-2-0.3-3.9-0.5-5.9-0.7
			c-2-0.2-3.9-0.4-5.9-0.6c-3.9-0.3-7.9-0.5-11.9-0.7c-4-0.1-7.9-0.2-11.9-0.2c-2,0-4,0.1-5.9,0.2l-1.5,0.1l-1.4,0.1l-0.4,0l-0.2,0
			l0,0c0,0,0.1,0,0,0l0,0l-0.1,0l-0.6,0.1l-0.6,0.1c-0.2,0-0.4,0.1-0.6,0.2l-1.3,0.5l-1.3,0.6c-0.9,0.4-1.7,0.8-2.6,1.2
			c-1.7,0.9-3.5,1.8-5.2,2.7l-0.4,0.2l-0.6,0.1l-3.1,0.5c-1,0.2-2.1,0.5-3.1,0.7c-1,0.2-2.1,0.6-3.1,0.9l-1.5,0.5l-1.5,0.6
			c-2,0.7-4,1.7-5.9,2.6l-2.9,1.6c-1,0.5-1.9,1.1-2.8,1.7c-0.9,0.5-1.9,1.2-2.8,1.8c-0.9,0.6-1.8,1.2-2.7,1.9l-2.7,1.9l-2.6,2
			c-0.9,0.7-1.7,1.4-2.6,2.1c-0.8,0.7-1.7,1.4-2.5,2.2c-1.7,1.5-3.3,3-4.9,4.5c-1.6,1.5-3.2,3.1-4.7,4.7c-1.6,1.6-3.1,3.2-4.6,4.9
			c-1.5,1.7-3,3.3-4.4,5c-1.4,1.7-2.9,3.4-4.3,5.1c-2.8,3.5-5.5,7-8.1,10.6c-1.3,1.8-2.6,3.6-3.8,5.5c-1.3,1.8-2.5,3.7-3.7,5.5
			l-0.2,0.3l-0.2,0.2c-6.1,5.8-10.7,13.3-14.2,21.1c-3.5,7.9-6.1,16.3-8.1,24.8c-2,8.5-3.4,17.2-4.4,26c-0.5,4.4-0.9,8.8-1.2,13.1
			c-0.3,4.4-0.6,8.8-0.8,13.2c-0.4,8.8-0.5,17.6-0.3,26.5c0.1,8.8,0.4,17.7,0.9,26.5c0.5,8.8,1.1,17.7,2,26.5
			c0.9,8.8,1.8,17.6,3,26.4L122.6,307.6z"/>
	</g>
	<path d="M148.6,234.4c0,0,24-21.2,30.9-20.6c6.9,0.6,42.3,5.1,42.9-1.1c0.6-6.3-17.7-26.9-63.5,0.6
		C158.9,213.2,150.9,221.2,148.6,234.4z"/>
	<path d="M273.9,208.6c0,0,41.8,5.7,60.1,2.3c0,0,18.3,1.1,22.9,12.6c0,0-18.9-30.9-58.4-25.7C259,202.9,272.7,208.1,273.9,208.6z"
		/>
	<g>
		<path d="M205.2,396.3c0,0,0.2-0.2,0.6-0.7c0.4-0.4,1-1.1,1.9-1.8c1.6-1.6,4-3.7,7.1-6.1c3.1-2.4,6.8-5,11.1-7.3
			c2.2-1.2,4.6-2.3,7.4-3l1.1-0.2c0.4-0.1,0.8-0.1,1.2-0.2c0.4-0.1,0.9,0,1.3,0c0.5,0,1,0.1,1.5,0.2c0.3,0.1,0.6,0.2,0.8,0.3
			l0.4,0.2l0.1,0l0.1,0l0.1,0l0.1,0.1l0.8,0.4c0.6,0.3,1.3,0.7,1.8,1.1c1.2,0.7,2.3,1.6,3.3,2.3c1,0.8,2,1.5,2.7,2
			c0.2,0.1,0.3,0.2,0.5,0.3c0.1,0,0.3,0.1,0.4,0.1c0.2,0.1,0.3,0,0.5,0.1c0.5-0.2,1-0.3,1.5-0.5c0.4-0.1,0.7-0.2,1.1-0.3l1-0.2
			c2.6-0.4,5-0.5,7.4-0.4c2.3,0.1,4.5,0.5,6.4,1c1.9,0.5,3.7,1.1,5.1,1.8c0.7,0.3,1.4,0.7,2,1c0.3,0.2,0.6,0.3,0.9,0.5
			c0.3,0.2,0.5,0.4,0.7,0.5c1,0.6,1.6,1.3,2.1,1.7c0.4,0.4,0.7,0.6,0.7,0.6s-0.3-0.1-0.9-0.3c-0.3-0.1-0.6-0.3-1-0.4
			c-0.4-0.2-0.9-0.3-1.4-0.5c-0.3-0.1-0.5-0.2-0.8-0.3c-0.3-0.1-0.6-0.1-0.9-0.2c-0.6-0.2-1.3-0.4-2.1-0.5c-0.4-0.1-0.7-0.1-1.1-0.2
			c-0.4,0-0.8-0.1-1.2-0.1c-0.8-0.1-1.7-0.2-2.6-0.2c-1.8-0.1-3.8-0.1-5.8,0.1c-2,0.2-4.2,0.5-6.3,1.1l-0.8,0.2
			c-0.2,0.1-0.4,0.1-0.6,0.2c-0.2,0.1-0.5,0.2-0.8,0.3l-0.5,0.2l-0.7,0.2c-1,0.2-2.1,0.3-3.1,0.1c-0.5-0.1-0.9-0.3-1.4-0.4
			c-0.4-0.2-0.8-0.4-1.1-0.6c-1.4-0.8-2.4-1.6-3.4-2.3c-1-0.7-2-1.4-2.9-2c-0.5-0.3-0.9-0.6-1.4-0.9l-0.8-0.5l-0.1-0.1l-0.1,0
			c-0.1,0,0.1,0,0,0l0,0c0,0,0,0,0,0c0,0,0,0-0.1,0c-0.4-0.1-1.4-0.1-2.4,0.1c-1,0.2-2.1,0.5-3.2,0.9c-1.1,0.4-2.1,0.8-3.2,1.2
			c-4.2,1.8-8.2,3.8-11.6,5.5c-3.4,1.7-6.3,3.1-8.3,4.1c-1,0.5-1.8,0.9-2.3,1.1C205.5,396.1,205.2,396.3,205.2,396.3z"/>
	</g>
	<g>
		<path fill="#636464" d="M163,97.1c0,0-0.2-0.1-0.5-0.4c-0.3-0.3-0.8-0.6-1.4-1.2c-1.1-1.1-2.6-2.7-3.9-5.1c-0.6-1.2-1.3-2.5-1.7-4
			c-0.4-1.5-0.9-3.1-1-4.8c-0.2-1.7-0.2-3.5,0-5.2c0.2-1.8,0.5-3.5,1-5.3c0.3-0.9,0.6-1.7,0.8-2.6c0.3-0.8,0.7-1.7,1-2.5
			c0.4-0.8,0.7-1.6,1.1-2.3c0.4-0.7,0.8-1.5,1.3-2.2c0.9-1.4,1.7-2.7,2.7-3.9c0.5-0.6,0.9-1.2,1.3-1.7c0.5-0.5,0.9-1.1,1.3-1.5
			c0.8-1,1.7-1.8,2.4-2.6c0.7-0.8,1.4-1.4,2-1.9c1.1-1,1.8-1.6,1.8-1.6s-0.5,0.7-1.4,2c-0.4,0.6-1,1.4-1.6,2.2
			c-0.6,0.9-1.3,1.8-2,2.9c-0.7,1.1-1.4,2.2-2.2,3.5c-0.8,1.2-1.5,2.6-2.2,4c-0.3,0.7-0.7,1.4-1.1,2.1c-0.3,0.7-0.6,1.5-1,2.2
			c-0.3,0.8-0.6,1.5-0.9,2.3c-0.2,0.8-0.5,1.6-0.7,2.4c-0.4,1.6-0.8,3.2-1,4.8c-0.2,1.6-0.3,3.2-0.2,4.7c0.1,1.5,0.3,3,0.5,4.4
			c0.3,1.4,0.7,2.7,1.1,3.8c0.9,2.3,1.9,4.2,2.8,5.4C162.5,96.4,163,97.1,163,97.1z"/>
	</g>
	<g>
		<path fill="#636464" d="M179.7,83.2c0,0-0.6-1.6-1.4-4.5c-0.4-1.4-0.8-3.2-1.2-5.2c-0.4-2-0.7-4.4-0.9-6.9c-0.2-2.6-0.3-5.4,0-8.3
			c0.3-3,0.8-6.1,1.9-9.2c1.1-3.1,2.8-6.2,5.3-8.8c2.4-2.6,5.6-4.6,8.9-5.9c3.3-1.3,6.9-1.8,10.3-2.1c3.3-0.3,6.6-0.5,9.8-0.8
			c6.3-0.5,12.3-0.8,17.3-0.9c5.1-0.2,9.3-0.2,12.3-0.3c1.5-0.1,2.6-0.1,3.4-0.3c0.4-0.1,0.7-0.1,0.9-0.2c0.2-0.1,0.3-0.1,0.3-0.1
			s-0.1,0-0.3,0.1c-0.2,0.1-0.5,0.2-0.8,0.3c-0.8,0.2-1.9,0.5-3.4,0.7c-2.9,0.4-7.2,0.9-12.2,1.4c-5,0.5-10.9,1.2-17.2,1.8
			c-3.2,0.3-6.4,0.7-9.7,1c-0.8,0.1-1.7,0.2-2.4,0.3c-0.8,0.1-1.6,0.2-2.4,0.4l-2.3,0.6l-2.3,0.8c-3,1.1-5.7,2.8-7.9,5.1
			c-2.2,2.2-3.8,4.9-4.9,7.7c-1.1,2.8-1.8,5.7-2.2,8.5c-0.4,2.8-0.5,5.5-0.5,8c0,5,0.5,9.2,1,12.1C179.4,81.5,179.7,83.2,179.7,83.2
			z"/>
	</g>
	<g>
		<path fill="#636464" d="M170.3,83.7c0,0-0.8-1.5-2-4.2c-0.6-1.4-1.2-3.1-1.9-5c-0.6-2-1.3-4.2-1.8-6.8c-0.5-2.5-1-5.3-1.1-8.3
			c-0.1-3,0-6.2,0.7-9.4c0.7-3.2,2-6.5,4.1-9.4c2.1-2.9,4.9-5.3,8.1-7c3.1-1.7,6.6-2.7,9.9-3.4c3.2-0.8,6.5-1.4,9.6-2
			c6.2-1.3,12.1-2.4,17.1-3.2c5-0.8,9.2-1.4,12.1-1.9c1.5-0.2,2.6-0.5,3.3-0.7c0.4-0.1,0.7-0.2,0.8-0.3c0.2-0.1,0.3-0.1,0.3-0.1
			s-0.1,0.1-0.3,0.2c-0.2,0.1-0.4,0.3-0.8,0.4c-0.7,0.3-1.8,0.7-3.3,1.1c-2.9,0.8-7,1.8-11.9,3c-4.9,1.2-10.7,2.6-16.8,4.1
			c-3.1,0.7-6.3,1.5-9.5,2.3c-0.8,0.2-1.6,0.4-2.4,0.6c-0.8,0.2-1.6,0.4-2.3,0.7l-2.3,0.9l-2.2,1.1c-2.8,1.5-5.3,3.6-7.1,6.1
			c-1.8,2.5-3.1,5.4-3.8,8.3c-0.7,2.9-1,5.9-1.1,8.8c0,2.8,0.2,5.5,0.5,8c0.7,5,1.7,9.1,2.5,11.9C169.8,82.1,170.3,83.7,170.3,83.7z
			"/>
	</g>
	<path fill="none" stroke="#4A4849" stroke-miterlimit="10" d="M140.6,357.9"/>
	<g opacity="0.4">
		<g>
			<path fill="none" stroke="#A5A2A2" stroke-miterlimit="10" d="M322.5,391.7"/>
		</g>
	</g>
	<g opacity="0.4">
		<g>
			<path fill="none" stroke="#A5A2A2" stroke-miterlimit="10" d="M318.5,406.6"/>
		</g>
	</g>
	<g opacity="0.4">
		<g>
			<path fill="none" stroke="#A5A2A2" stroke-miterlimit="10" d="M311.1,418"/>
		</g>
	</g>
	<g opacity="0.1">
		<g>
			<g>
				<g>
					<g opacity="0.8">
						<g opacity="0.8">
							<path fill="#E8E7E6" d="M357.3,412.6c-5.3,10.8-13,20.4-20.8,29.1c-7.8,8.6-15.8,16.4-22.2,24.2c-1.5,1.7-2.9,3.5-4.4,5.2
								c0.9-0.7,1.8-1.4,2.7-2.1c10.3-7.9,20.7-17.1,29.8-27.8c4.6-5.3,8.8-11,12.5-17.1c1.9-3,3.6-6.1,5.2-9.2
								c1.6-3.1,3-6.3,4.3-9.5c3-8,5.1-16.3,6.9-24.7c1.8-8.5,3.3-17.1,5.1-26c0.4-2-0.8-2.5-1.4-2.7c-1.1,1.6-2.2,3-3.4,4.2
								c-2.1,14.5-4.7,29-10.4,43.2C359.3,403.9,358.8,409.9,357.3,412.6z"/>
							<path fill="#DFDDDD" d="M372,355.5c-0.1,0.1-0.1,0.2-0.2,0.2c-0.1,0.7-0.2,1.5-0.3,2.2C371.7,357.2,371.8,356.4,372,355.5z"
								/>
							<path fill="#DDDBDB" d="M364.7,390.9c-1.3,4.8-3,9.4-5.1,13.8c-0.8,3.1-1.3,6.2-2.3,7.9c-5.3,10.8-13,20.4-20.8,29.1
								c-7.8,8.6-15.8,16.4-22.2,24.2c-1.4,1.7-2.9,3.4-4.3,5.1c1-0.8,2-1.5,2.9-2.3c7.1-5.5,14.3-11.6,21-18.4
								c0.3-0.4,0.6-0.9,0.9-1.3c3-4.5,7-7.6,10.3-11.7c4.3-6,8.1-11.6,11.6-17.5c3.5-5.9,6.6-12,9-19c1.8-5,2.3-10.6,4.2-16.4
								c0.6-2,1.2-3.9,1.8-5.8c1.6-7.9,3-15.9,4.7-24.2c0.4-2-0.8-2.5-1.4-2.7c-0.6,0.9-1.2,1.6-1.8,2.3c-1.5,6.6-2.9,13.3-4.7,20
								c-1.2,5.9-2.7,11.9-4.6,17.7C364.3,391.5,364.5,391.2,364.7,390.9z"/>
							<path fill="#DFDDDD" d="M362.7,390.8c-0.3,0.8,0.2,2.1,1.4,0.9c1.9-5.9,3.4-11.8,4.6-17.7
								C367.2,379.6,365.3,385.3,362.7,390.8z"/>
							<path fill="#EAE8E8" d="M358.9,388.5c-2.2,5.4-4.1,10.7-6.2,15.7c-2.1,5-4.5,9.6-7.5,13.3c-3.1,4-6.7,7.4-10.2,10.1
								c-1,1.3-1.9,2.5-2.9,3.7c-5.9,7.7-12.5,14.9-19.6,21.8c-3.5,3.4-7.2,6.8-10.9,10.1l-2.8,2.5c-0.9,0.8-1.9,1.7-2.7,2.3
								c-1.7,1.5-3.6,2.8-5.5,4c-7.7,4.8-16.6,7.5-25.6,7.7c-1.1,0-2.2,0-3.4,0l-3.7-0.1c-2.4-0.1-4.9-0.3-7.2-0.5
								c-4.8-0.4-9.5-1.1-14-2.1c-2.3-0.5-4.5-1-6.7-1.5c-2.2-0.6-4.3-1.2-6.5-1.9c-4.4-1.4-8.8-2.9-13-4.6
								c-8.5-3.4-16.6-8-24.1-14.4c-4.3-4-7.5-8.3-10.2-12.7c-0.6-1.1-1.3-2.3-1.9-3.4c-0.6-1.2-1.1-2.4-1.7-3.5
								c-0.6-1.2-1.1-2.4-1.6-3.7c-0.3-0.6-0.5-1.3-0.8-1.9c-0.3-0.6-0.5-1.3-0.8-2c-5.1-13.2-9.6-25.7-14.5-38.6
								c-1.2-3.2-2.4-6.5-3.7-9.7c-0.6-1.6-1.2-3.3-1.9-4.9c-0.6-1.7-1.2-3.3-2.1-5.2c-0.1-0.3-0.2-0.5-0.5-0.9
								c-0.1-0.1-0.3-0.5-0.6-0.7l-0.2-0.2l-0.1,0c0,0-0.1,0-0.1,0.1c-0.2,0.3-0.2,0.7-0.2,1c-0.1,0.7-0.1,1.4-0.2,2.2
								c0,0.8-0.1,1.6-0.1,2.3c0,0.2,0,0.4-0.1,0.6c0,0.2-0.1,0-0.1,0l-0.1-0.2c-0.1-0.3-0.2-0.6-0.3-0.9c-0.4-1.2-0.7-2.5-1.1-3.9
								c-0.2-0.7-0.3-1.5-0.5-2.2c-0.2-0.8-0.4-1.7-0.5-2.5c-1.6-7.9-6.7-8.3-6.5-6.3c0.3,1.6,0.6,3.1,0.9,4.7l0.4,2.3l0.5,3.1
								c0.4,2.4,0.8,4.8,1.3,7c0.2,1.1,0.6,2.1,1,2.9c0.4,0.9,0.8,1.5,1.2,2.1c0.2,0.3,0.4,0.5,0.7,0.8c0,0,0.1,0.1,0.1,0.1
								c0,0,0.1,0.1,0.1,0c0,0,0-0.1-0.1-0.2l-0.2-0.3c-0.3-0.5-0.6-1-0.9-1.7c-0.3-0.7-0.5-1.5-0.8-2.4c-0.1-0.4-0.2-0.9-0.3-1.4
								c0-0.2,0-0.5,0-0.7c0-0.1,0-0.2,0.1-0.1c0.1-0.1-0.1,0.5,0.6-0.6l0.7-1.1c4.8-4.1,1.2-1,2.3-1.9l-0.2,0.1
								c-0.4,0.3-1.2,0.8-1.9,1.1l-0.3,0.1c-0.1,0-0.3,0.1-0.2,0.1l0,0l0,0c0,0.1,0.1,0.2,0.1,0.3c0.1,0.3,0.2,0.6,0.3,0.9
								c0.2,0.7,0.4,1.4,0.6,2.1l1.2,4.5c3.3,11.9,6.4,23.9,10.6,35.6c4.2,11.7,9.5,23.3,17.2,33.7c1,1.3,2,2.6,3,3.8
								c1,1.2,2.1,2.4,3.2,3.6c2.1,2.4,4.5,4.6,6.9,6.8c4.8,4.3,10.2,8.1,15.9,11.3c4.4,2.5,9,4.6,13.6,6.4c2.3,0.9,4.6,1.8,6.9,2.5
								c2.3,0.8,4.7,1.5,7.1,2.1c9.5,2.5,19.2,3.4,28.6,3.9l3.5,0.2c1.2,0,2.3,0.1,3.6,0.1c2.4,0.1,4.9-0.1,7.3-0.3
								c4.9-0.5,9.7-1.5,14.4-3c4.7-1.5,9.2-3.6,13.4-6.2c1.1-0.6,2.1-1.3,3.1-2c1-0.7,2-1.5,3-2.2l5.5-4.2c1.5-1.7,2.9-3.5,4.4-5.2
								c6.4-7.8,14.3-15.5,22.2-24.2c7.8-8.6,15.5-18.3,20.8-29.1c1.5-2.7,2-8.6,4-13.3c5.7-14.2,8.3-28.8,10.4-43.2
								c-2.4,2.5-4.7,4.5-6.7,7.1C363.9,371.9,362.2,380.6,358.9,388.5z"/>
							<path fill="#D2D0D0" d="M358.9,388.5c3.3-7.8,5-16.6,6.2-25.3c-1,1.3-1.9,2.7-2.6,4.5c-3.9,10-7.3,20.6-11.5,30.9
								c-1,2.6-2.2,5.1-3.3,7.7c-1.2,2.5-2.4,5-3.7,7.4c-2.6,4.9-5.6,9.6-8.8,14c3.5-2.6,7.1-6.1,10.2-10.1c3-3.8,5.4-8.3,7.5-13.3
								C354.8,399.2,356.7,393.9,358.9,388.5z"/>
							<path fill="#DDDBDB" d="M358.9,388.5c3.2-7.5,4.9-15.8,6-24.1c-0.9,2.7-1.7,5.4-2.5,8.2c-2,7-4.2,14-6.9,20.7
								c-2.7,6.7-6,13.2-10,19c7.5-13.1,12.8-27.8,16.3-42.9c-3.7,9.8-7,20.1-11.2,30.1c-1,2.5-2.1,5-3.3,7.4l-1.8,3.6
								c-0.6,1.2-1.3,2.4-1.9,3.6c-2.6,4.7-5.5,9.3-8.6,13.5c3.5-2.6,7.1-6.1,10.2-10c3-3.8,5.4-8.3,7.5-13.3
								C354.8,399.2,356.7,393.9,358.9,388.5z"/>
							<path fill="#CFCDCD" d="M350.2,410.5c8.9-15.2,14.5-32.4,17.3-50.3c-0.6,0.7-1.2,1.3-1.8,2c-0.2,0.7-0.5,1.4-0.7,2.1
								c-1.2,8.3-2.9,16.6-6,24.1c-2.2,5.4-4.1,10.7-6.2,15.7c-2.1,5-4.5,9.6-7.5,13.3c-3,4-6.7,7.4-10.2,10
								c-0.9,1.2-1.8,2.3-2.7,3.5c-6,7.9-12.8,15.3-20,22.3c-3.6,3.5-7.3,6.9-11.1,10.3l-2.9,2.5l-1.4,1.2l-1.3,1.1
								c-1.8,1.4-3.7,2.8-5.7,4c-3.2,2.4-6.9,4.4-10.9,5.8c-4,1.4-8.2,2.3-12.6,2.5c-4.2,0.2-9-0.1-13.6-0.4c-4.6-0.4-9.1-1-13.4-2
								c4.1,0.7,8.3,1,12.6,1.2c2.1,0.1,4.3,0.1,6.4,0.2l3.2,0c1,0,2,0,3-0.1c-1.1,0-2.2,0-3.4,0l-3.6-0.1c-2.4-0.1-4.7-0.3-7.1-0.5
								c-4.7-0.4-9.3-1-13.7-2c-3.9-0.8-7.6-1.7-11.2-2.7c-3.7-1.1-7.5-2.3-11.1-3.7c-1.9,0.4-4.7,0.3-8.7-1.5
								c-6.3-2.9-11.7-6.9-17.6-10.8c-0.7-0.7,0.1-1.2-1.3-2.6c3.8,3.8,7.7,6.1,11.4,7.4c-4.1-2.4-8-5.1-11.8-8.3
								c-3.4-3.1-6.1-6.4-8.4-9.9c-0.6-0.9-1.1-1.7-1.7-2.6l-1.5-2.7l-0.7-1.3l-0.7-1.4c-0.4-0.9-0.9-1.9-1.4-2.8
								c-0.5-0.8-0.9-1.5-1.4-2.3c-2.3-3.9-4.7-7.8-7.1-11.9c0.7,1.8,1.5,3.5,2.2,5.4c-0.9-1.3-1.7-2.8-2.4-4.4
								c-0.7-1.6-1.3-3.2-1.8-4.6c0.7,1.2,1.4,2.4,2,3.6c-1.7-4.2-3.1-8.4-4.5-13c1.7,5.6,4.4,11.1,6.9,15.4
								c-2.2-4.9-4.2-9.6-5.8-14.5c-1.7-4.9-3.1-9.9-4.1-15.1c0.1,0.2,0.3,0.5,0.4,0.7c-2.7-7.2-5.4-14.4-8.2-21.7
								c-0.4-1-0.7-1.9-1.3-3.1c-0.1-0.2-0.2-0.3-0.3-0.5l-0.2-0.3c-0.1-0.2-0.2-0.3-0.4-0.5l-0.2-0.2c-0.1,0-0.1,0-0.1,0
								c0,0-0.1,0-0.1,0.1c0,0.1-0.1,0.2-0.1,0.3c-0.1,0.4-0.1,0.8-0.2,1.1c-0.1,0.8-0.1,1.6-0.2,2.5l-0.1,1.3l-0.1,0.7
								c0,0.1,0,0.2-0.1,0.3c-0.1-0.1-0.1-0.1-0.1-0.2c-0.5-1.2-0.8-2.7-1.2-4.2c-0.2-0.8-0.4-1.6-0.6-2.4c-0.2-0.9-0.4-1.8-0.6-2.7
								c-1.6-7.9-6.7-8.3-6.5-6.3c0.4,2.2,0.8,4.3,1.2,6.5c0.3,1.5,0.5,3,0.8,4.4c0.3,1.7,0.6,3.3,0.9,4.9c0.3,1.6,0.8,3,1.3,4.1
								c0.5,1.1,1.1,1.9,1.8,2.6c0,0,0.1,0.1,0.2,0.1c0,0,0-0.1,0-0.1c0-0.1-0.1-0.2-0.1-0.2l-0.3-0.5c-0.2-0.4-0.4-0.7-0.6-1.2
								c-0.4-0.9-0.8-2.2-1-3.5c-0.1-0.3-0.1-0.7-0.1-1c0-0.2,0-0.3,0-0.4c0,0,0,0,0.1,0l0,0.1l0,0c0,0,0.2-0.2,0.2-0.3l0.5-0.8
								l0.3-0.4c1.2-1-2.2,1.7,2.6-2.4c-0.1,0.1-0.3,0.3-0.5,0.4c-0.3,0.2-0.8,0.5-1.3,0.8c-0.3,0.1-0.5,0.2-0.8,0.4
								c-0.2,0.1-0.1,0.1-0.2,0.1l0,0c0,0,0,0.1,0.1,0.1c0.1,0.1,0.1,0.3,0.2,0.6c0.3,0.9,0.6,1.8,0.9,2.9c0.6,2.1,1.1,4.2,1.7,6.2
								c1.1,4.2,2.3,8.3,3.4,12.5c2.3,8.3,4.9,16.6,7.9,24.8c3.1,8.2,6.8,16.2,11.5,23.8c-1.5-3.8-2.9-7.6-4.1-11.5
								c-0.6-1.6-1.1-3.2-1.4-4.8c0.4,1.6,0.9,3.2,1.4,4.8c0.8,2.2,2,4.4,3.1,6.7c0.6,1.1,1.2,2.2,1.8,3.4l0.9,1.7l0.9,1.7
								c0.1,0.5,0.6,1.4,1.3,2.2c0.6,0.8,1.5,1.5,2.2,1.7c3.7,6.1,10,11.7,14.9,16.7c0.3,0.3,0.7,0.9,1.1,1.7
								c3.6,2.8,7.4,5.2,11.4,7.4c5.5,3.1,11.3,5.5,17,7.6c2.9,1,5.8,2.1,8.8,2.9c3,0.8,6,1.5,9,2c6,1.1,12,1.7,17.9,2
								c3,0.2,5.9,0.3,8.8,0.4c3.1,0.1,6.1,0,9.2-0.3c-3,0.1-5.9,0-8.6-0.4c-2.7-0.4-5.3-0.8-7.8-1.3c-3.3-0.8-8.6-1.1-14.5-1.7
								c-5.9-0.6-12.6-1.6-18.5-3.5c-3-0.8-4.4-2.4-7.1-3.6c5.4,0.8,11.1,2.7,17.1,4.1c6,1.5,12.4,2.6,18.4,2.8
								c4,0.2,8.4,0.4,13.1,0.6c4.6,0.1,9.5-0.3,14.4-1.3c4.8-1.1,9.6-2.8,13.8-5.2c4.3-2.3,7.9-5.4,10.9-8.6
								c4.9-5.3,10.7-9,15.6-12.2c-1.1,1.9-4.1,4.6-5.7,5.9c-3.4,3-6.9,5.8-10.3,8.7c-3.6,2.9-7.4,5.4-11.5,7.5
								c-8.2,4.1-17.3,6.4-26.6,6.6c4.8,0.3,9.6-0.2,14.3-1.2c4.7-1.1,9.2-2.7,13.5-4.9c2.2-1.1,4.2-2.3,6.2-3.6c1-0.7,2-1.3,3-2.1
								c1-0.7,1.9-1.5,2.8-2.2c3.7-2.9,7.3-5.7,11.1-8.6c-2.1,1.9-4.2,3.7-6.3,5.4c-1.1,0.9-2.1,1.7-3.2,2.5
								c-1.1,0.8-2.1,1.7-3.2,2.5c-2.2,1.7-4.5,3.3-6.9,4.8c-2.3,1.5-4.7,2.9-7,4.3c0.9-0.1,1.9-0.4,2.8-0.6c3.6-1.6,7-3.5,10.2-5.7
								c1.6-1.1,3.2-2.3,4.6-3.4l4.4-3.3c1.5-1.7,2.9-3.4,4.3-5.1c6.4-7.8,14.3-15.5,22.2-24.2c7.8-8.6,15.5-18.3,20.8-29.1
								c0.9-1.7,1.5-4.8,2.3-7.9c-3.2,6.9-7.2,13.4-11.4,19.7c0.9-1.2,1.9-2.4,2.9-3.5c1-1.1,1.9-2.2,2.9-3.2
								c-3.5,6.4-7.9,10.4-12.1,16.2c1.1-1.6,2.1-3.2,3.2-4.8c1-1.6,2.1-3.2,3.2-4.7c-2.9,3.5-5.9,7.4-9.1,10.9
								c0.6-1,1.3-1.9,1.9-2.8c0.7-0.9,1.3-1.8,2-2.7c1.4-1.8,2.8-3.5,4.2-5.2c2.7-3.6,5.3-7.3,6.8-11.9c-0.5,0.9-0.9,1.7-1.4,2.6
								c-0.5,0.8-1.1,1.7-1.6,2.5c0.5-0.9,1.1-1.7,1.6-2.6l1.5-2.6c0,0,0,0.1,0,0.1c2.8-5.4,4.8-11.1,6.2-16.4
								c-1.9,4.8-4.2,9.2-6.7,13.4c-2.5,4.2-5.2,8.2-7.9,12.4c-0.9,1.4-1.8,2.8-2.7,4.2c0.9-1.5,1.8-2.8,2.7-4.2
								c12.2-19.5,20.6-41.4,25.8-64.1c0.1-0.7,0.2-1.5,0.3-2.2c-0.5,0.6-1.1,1.1-1.6,1.6c-2.1,9.4-4.6,18.7-7.9,27.6
								C359,394,355,402.6,350.2,410.5z"/>
						</g>
					</g>
				</g>
			</g>
		</g>
	</g>
</g>
</svg>
