<?xml version="1.0" encoding="utf-8"?>
<!-- Generator: Adobe Illustrator 18.1.0, SVG Export Plug-In . SVG Version: 6.00 Build 0)  -->
<svg version="1.1" id="Layer_1" xmlns="http://www.w3.org/2000/svg" xmlns:xlink="http://www.w3.org/1999/xlink" x="0px" y="0px"
	 viewBox="0 0 512.9 512.9" enable-background="new 0 0 512.9 512.9" xml:space="preserve">
<g>
	<g>
		<path fill="#0D0D0D" d="M118.3,269.6c1.3,7.7,2.8,15.4,4.4,23.1c1.6,7.7,3.4,15.3,5.3,23c0.9,3.8,1.9,7.6,2.9,11.4
			c1,3.8,2,7.6,3.2,11.3c1.1,3.8,2.3,7.5,3.4,11.3c1.2,3.7,2.4,7.5,3.7,11.2c1.2,3.7,2.6,7.4,3.9,11.1c1.4,3.7,2.7,7.3,4.2,11
			c0.7,1.8,1.5,3.6,2.2,5.4c0.8,1.8,1.5,3.6,2.3,5.4l2.4,5.3c0.8,1.8,1.7,3.5,2.6,5.3c0.8,1.8,1.8,3.5,2.7,5.2l1.4,2.6
			c0.5,0.9,1,1.7,1.5,2.5c1.9,3.4,4,6.6,6.2,9.8l3.4,4.7l3.6,4.5l3.9,4.2c1.4,1.3,2.8,2.6,4.2,3.9l0.2,0.2l0.1,0.1
			c2.3,2.7,4.9,5.4,7.5,8c2.6,2.6,5.3,5.1,8.1,7.4c5.6,4.8,11.4,9.2,17.6,13.1c3.1,1.9,6.3,3.7,9.5,5.3c3.3,1.6,6.6,3,10,4.2
			c3.4,1.2,6.9,2.1,10.4,2.7c1.8,0.4,3.5,0.5,5.3,0.7c1.8,0.1,3.5,0.2,5.3,0.1l1.3,0l0.7,0l0.7,0c0.9,0,1.8-0.1,2.7-0.2
			c1.8-0.2,3.6-0.4,5.4-0.6c1.8-0.2,3.6-0.6,5.4-0.9c1.8-0.4,3.6-0.7,5.4-1.1c7.1-1.7,14.2-3.8,20.9-6.6c1.7-0.6,3.4-1.5,5-2.2
			l2.5-1.1c0.8-0.4,1.6-0.8,2.4-1.3c1.6-0.9,3.3-1.7,4.8-2.6l4.7-2.8c0.8-0.5,1.5-1,2.3-1.5l2.2-1.6c1.5-1.1,3-2.1,4.4-3.3l4.3-3.5
			l0.3-0.2l0.3-0.2c0.2-0.2,0.3-0.3,0.5-0.4c0.3-0.3,0.6-0.6,0.9-0.9c0.6-0.6,1.2-1.3,1.8-2c4.7-5.5,8.7-11.8,12.4-18.2
			c3.7-6.4,7.1-13,10.1-19.8c6.3-13.5,11.4-27.4,16.2-41.6c2.3-7.1,4.5-14.2,6.7-21.3l6.7-21.3c4.5-14.2,9.1-28.4,13.3-42.7
			c1.1-3.6,2.1-7.1,3.1-10.7c0.9-3.6,1.9-7.2,2.7-10.8c1.7-7.2,2.9-14.5,3.6-21.9c0.6-7.3,0.6-14.8,0.5-22.2
			c-0.1-7.4-0.6-14.8-1.2-22.2c-1.3-14.8-3.4-29.5-6.8-43.8l-1.3-5.4c-0.4-1.8-1-3.5-1.5-5.3c-0.5-1.8-1-3.6-1.6-5.3l-1.8-5.2
			c-0.6-1.8-1.3-3.4-2-5.1l-2.1-5.1l-2.4-4.9l-1.2-2.5c-0.4-0.8-0.9-1.6-1.4-2.4l-2.7-4.7c-1-1.6-2-3.2-3-4.7c-2-3.1-4-6.2-6.1-9.3
			c-4.2-6.1-8.6-12-13.4-17.5c-4.8-5.5-10.1-10.6-15.7-15.2c-5.7-4.6-11.8-8.5-18.2-11.9c-12.9-6.8-27-11.1-41.4-13.7
			c-14.4-2.6-29.2-3.5-43.9-3.5l-0.1,0l-0.2,0c-1-0.1-2.2-0.1-3.3-0.2c-1.1,0-2.3,0-3.4,0c-2.3,0-4.5,0.1-6.8,0.3
			c-4.5,0.3-9.1,0.8-13.6,1.6c-2.2,0.4-4.5,0.8-6.7,1.3c-2.2,0.5-4.4,1.1-6.6,1.6c-2.2,0.6-4.4,1.3-6.5,2c-1.1,0.3-2.2,0.7-3.2,1.1
			c-1.1,0.4-2.2,0.8-3.2,1.2l-3.2,1.3l-3.1,1.4c-1.1,0.4-2.1,1-3.1,1.4c-1,0.5-2.1,1-3.1,1.5l-3,1.6c-1,0.5-2,1.1-3,1.7
			c-2,1.1-3.9,2.4-5.8,3.6l-2.8,1.9c-0.9,0.6-1.9,1.3-2.8,2l-2.7,2c-0.9,0.7-1.8,1.4-2.7,2.1c-1.8,1.4-3.5,3-5.2,4.5
			c-1.7,1.5-3.3,3.2-5,4.7l0.2-0.3c-1,1.4-2.1,2.9-3.1,4.3c-1,1.5-2,2.9-3,4.4c-1,1.5-2,3-3,4.5c-1,1.5-1.9,3-2.9,4.5
			c-1,1.5-1.9,3-2.8,4.6c-0.9,1.5-1.8,3.1-2.7,4.6c-0.9,1.5-1.8,3.1-2.7,4.7c-0.9,1.6-1.8,3.1-2.6,4.7l-2.5,4.7
			c-0.8,1.6-1.6,3.2-2.4,4.8l-1.2,2.4l-1.1,2.4c-0.7,1.6-1.5,3.2-2.2,4.9l-2,5c-0.7,1.6-1.2,3.3-1.8,5c-0.6,1.7-1.2,3.4-1.7,5.1
			l-1.5,5.1l0,0.1l0,0c-0.8,2.3-1.4,4.9-1.9,7.4c-0.5,2.5-1,5.1-1.3,7.7c-0.2,1.3-0.3,2.6-0.5,3.9c-0.1,1.3-0.3,2.6-0.4,3.9
			l-0.3,3.9c-0.1,1.3-0.1,2.6-0.2,3.9c-0.1,2.6-0.2,5.2-0.2,7.8c-0.1,2.6,0.1,5.2,0.1,7.8c0,2.6,0.3,5.2,0.4,7.8
			c0.1,2.6,0.4,5.2,0.7,7.8l0.4,3.9l0.6,3.9l0.6,3.9l0.3,1.9l0.3,1.9l1.4,7.7c0.6,2.5,1.3,5.1,2,7.6L118.3,269.6L118.3,269.6z
			 M117.7,269.7l-8.3-30.4l-1-3.8c-0.3-1.3-0.7-2.5-1-3.8l-1.5-7.7l-0.4-1.9l-0.3-1.9l-0.6-3.9l-0.6-3.9l-0.5-3.9
			c-0.3-2.6-0.7-5.2-0.9-7.8c-0.2-2.6-0.5-5.2-0.7-7.9c-0.1-2.6-0.4-5.3-0.4-7.9c-0.1-2.6-0.1-5.3-0.1-7.9c0-1.3,0-2.6,0.1-4l0.2-4
			c0-1.3,0.2-2.6,0.3-4c0.1-1.3,0.2-2.6,0.4-4c0.3-2.6,0.7-5.3,1.1-7.9c0.2-1.3,0.5-2.6,0.8-3.9c0.3-1.3,0.6-2.6,1-4l0,0.1l1.4-5.3
			c0.4-1.8,1-3.5,1.6-5.2c0.6-1.7,1.1-3.5,1.7-5.2l1.9-5.1c0.6-1.7,1.4-3.4,2-5.1l1-2.5l1.1-2.5c0.8-1.7,1.5-3.3,2.3-5l2.4-4.9
			c0.8-1.6,1.7-3.2,2.5-4.8c0.8-1.6,1.7-3.2,2.6-4.8c0.9-1.6,1.7-3.2,2.7-4.8c0.9-1.6,1.8-3.2,2.7-4.7c0.9-1.6,1.9-3.1,2.8-4.7
			c1-1.5,1.9-3.1,2.9-4.6c1-1.5,2-3.1,3-4.6c1-1.5,2-3,3.1-4.5l0.1-0.2l0.1-0.1c1.7-1.7,3.3-3.4,5.1-5c1.8-1.6,3.5-3.2,5.4-4.7
			c0.9-0.8,1.8-1.5,2.8-2.3l2.8-2.2c0.9-0.7,1.9-1.4,2.9-2.1l2.9-2.1c2-1.3,4-2.6,6.1-3.8c1-0.6,2.1-1.2,3.1-1.8l3.2-1.7
			c1-0.6,2.1-1.1,3.2-1.6c1.1-0.5,2.1-1.1,3.2-1.5l3.3-1.5l3.3-1.3c1.1-0.5,2.2-0.9,3.3-1.3c1.1-0.4,2.2-0.8,3.4-1.2
			c2.3-0.8,4.5-1.5,6.8-2.1c2.3-0.6,4.6-1.2,6.9-1.8c2.3-0.5,4.7-1,7-1.4c4.7-0.8,9.4-1.4,14.2-1.8c2.4-0.2,4.8-0.3,7.2-0.3
			c1.2,0,2.4,0,3.6,0c1.2,0,2.4,0.1,3.7,0.2l-0.3,0c15.1,0,30.2,0.9,45.1,3.6c14.9,2.8,29.6,7.4,43.1,14.6
			c6.7,3.6,13.1,7.9,19.1,12.7c5.9,4.8,11.3,10.2,16.3,16c4.9,5.8,9.5,11.9,13.7,18.1c2.1,3.1,4.1,6.3,6.1,9.5c1,1.6,2,3.2,2.9,4.8
			l2.8,5c0.5,0.8,0.9,1.7,1.4,2.5l1.2,2.6l2.4,5.2l2.1,5.3c0.7,1.8,1.4,3.5,2,5.3l1.8,5.4c0.6,1.8,1,3.6,1.6,5.4
			c0.5,1.8,1,3.6,1.5,5.5l1.3,5.5l0.6,2.8l0.5,2.8l1.1,5.5c0.3,1.9,0.6,3.7,0.9,5.6c0.3,1.9,0.6,3.7,0.8,5.6c0.5,3.7,1,7.4,1.3,11.2
			c0.2,1.9,0.4,3.7,0.5,5.6l0.4,5.6c0.4,7.5,0.7,15,0.7,22.5c0,7.5-0.1,15-0.9,22.5c-1.5,15-5.8,29.5-10.2,43.7
			c-2.2,7.1-4.5,14.2-6.8,21.3l-6.8,21.3c-2.3,7.1-4.5,14.2-6.7,21.3c-2.2,7.1-4.4,14.3-6.7,21.4c-4.5,14.2-9.6,28.3-15.6,42.1
			c-2.9,6.9-6.2,13.6-9.8,20.2c-3.6,6.6-7.6,13-12.4,19c-0.6,0.7-1.2,1.5-1.9,2.2c-0.6,0.7-1.5,1.5-2.1,2.1l-4.3,3.7
			c-1.4,1.3-3,2.4-4.5,3.5l-2.3,1.7c-0.8,0.6-1.5,1.1-2.3,1.6l-4.8,3.1c-1.6,1-3.3,1.9-5,2.8c-0.8,0.5-1.7,0.9-2.5,1.4l-2.6,1.2
			c-1.7,0.8-3.4,1.7-5.2,2.4c-1.8,0.7-3.5,1.5-5.3,2.2l-5.4,1.9l-5.4,1.7c-1.8,0.5-3.7,1-5.5,1.5c-1.8,0.4-3.7,0.8-5.6,1.2
			c-1.9,0.3-3.7,0.7-5.6,1c-1.9,0.3-3.8,0.5-5.7,0.7c-1,0.1-1.9,0.2-2.9,0.2l-0.7,0l-0.7,0l-1.5,0c-2,0.1-3.9,0-5.9-0.1
			c-1.9-0.2-3.9-0.4-5.8-0.7c-3.8-0.6-7.6-1.6-11.2-2.9c-7.3-2.4-14.2-6-20.6-10c-6.5-4.1-12.5-8.7-18.2-13.7
			c-2.8-2.5-5.6-5.1-8.2-7.8c-2.7-2.7-5.2-5.5-7.7-8.5l0.3,0.3c-1.5-1.4-3-2.8-4.4-4.2c-1.3-1.5-2.7-3-4-4.5l-3.7-4.8l-3.4-5
			c-2.1-3.4-4.2-6.8-6-10.3c-0.5-0.9-1-1.7-1.4-2.6l-1.3-2.7c-0.9-1.8-1.8-3.5-2.6-5.3c-0.8-1.8-1.7-3.6-2.5-5.4l-2.3-5.5
			c-0.8-1.8-1.5-3.7-2.2-5.5c-0.7-1.8-1.4-3.7-2.1-5.5c-1.4-3.7-2.7-7.4-4-11.1c-1.2-3.7-2.5-7.5-3.6-11.2
			c-1.2-3.8-2.3-7.5-3.4-11.3c-1-3.8-2.1-7.6-3.1-11.4c-1-3.8-2-7.6-2.9-11.4c-0.9-3.8-1.9-7.6-2.8-11.5c-0.9-3.8-1.7-7.7-2.6-11.5
			c-0.8-3.8-1.7-7.7-2.4-11.5C120.4,285.2,118.9,277.5,117.7,269.7z"/>
	</g>
	<path fill="#0D0D0D" d="M398.2,283.1l7.7-3.4c0,0,3.2-18.9,7.6-32.4c4.3-13.5,13.7-170.8-101.7-210.3c0,0-69.5-21.1-125.5,2.3
		c0,0-35.2,17.2-48.5,40.1s-34.4,49.2-35.8,103c0,0,1.1,47.3,15.9,87.2l-0.3-63.3l21.9-40.5l-0.9-21.3c0,0,4,8.3,13.6,3.2
		s22.8-21.6,38.1-17.8c15.3,3.8,42.6,1.2,47.4-2.9c4.8-4.1,13.5,6.1,23.6,8c10,1.9,16.7-8,29.1-4.3c12.4,3.7,41.1,19.5,58.9,16.8
		c17.8-2.7,21.3-0.9,21.8,6.2c0.5,7.1-3.4,27.8-5.8,30.1c-2.4,2.3,29.2,28.8,29.2,28.8L398.2,283.1z"/>
	<polygon fill="#0D0D0D" points="149,212.7 173.5,195.9 227.8,203.8 238.2,219.9 173.2,216.6 147,225.7 	"/>
	<path fill="#0D0D0D" d="M270.8,215.6l15.6-12.2c0,0,49.2-5.8,56.2-0.4c7,5.4,26.4,17.5,26.4,17.5s-19.5,1.5-27.2-1
		c-7.7-2.5-63.3,1.5-63.3,1.5L270.8,215.6z"/>
	<g>
		<path fill="#0D0D0D" d="M235.7,421.6c0,0,0.6-0.4,1.8-1.1c0.6-0.3,1.3-0.7,2.2-1.1c0.9-0.4,1.8-0.8,2.9-1.2
			c0.5-0.2,1.1-0.4,1.7-0.6c0.6-0.2,1.2-0.4,1.9-0.5c1.3-0.4,2.6-0.7,4.1-1c0.7-0.1,1.4-0.2,2.2-0.4c0.7-0.1,1.5-0.2,2.3-0.3
			c1.5-0.1,3.1-0.3,4.6-0.3c0.8,0,1.6,0,2.3,0c0.8,0.1,1.5,0.1,2.3,0.2c1.5,0.1,3,0.4,4.5,0.6c1.4,0.2,2.8,0.6,4.1,0.9
			c0.6,0.2,1.3,0.3,1.9,0.5c0.6,0.2,1.2,0.4,1.7,0.6c1.1,0.4,2.1,0.8,2.9,1.2c0.8,0.4,1.6,0.8,2.2,1.1c1.2,0.6,1.8,1,1.8,1
			s-0.8-0.2-2.1-0.5c-0.6-0.2-1.4-0.4-2.3-0.6c-0.9-0.2-1.9-0.4-3-0.6c-0.5-0.1-1.1-0.2-1.7-0.4c-0.6-0.1-1.2-0.2-1.9-0.3
			c-1.3-0.2-2.6-0.4-4-0.5c-1.4-0.1-2.8-0.3-4.3-0.3c-0.7,0-1.5-0.1-2.2-0.1c-0.7,0-1.5,0-2.2,0c-1.5,0-3,0.1-4.4,0.2
			c-1.5,0.1-2.9,0.2-4.3,0.4c-1.4,0.2-2.7,0.3-4,0.5c-1.3,0.2-2.5,0.4-3.6,0.6c-2.2,0.4-4.1,0.8-5.4,1.1
			C236.4,421.4,235.7,421.6,235.7,421.6z"/>
	</g>
	<g>
		<path fill="#0D0D0D" d="M211.9,378.3c0,0,0.3-0.1,1-0.2c0.7-0.1,1.6-0.3,2.8-0.4c2.4-0.3,5.9-0.7,10.1-1c4.2-0.3,9.1-0.6,14.3-0.8
			c2.6-0.1,5.3-0.1,8.1-0.2c2.7,0,5.5,0,8.3,0c2.8,0,5.6,0.1,8.3,0.2c2.7,0.1,5.4,0.2,8,0.3c5.2,0.3,10.1,0.6,14.3,1.1
			c4.2,0.4,7.7,0.9,10.1,1.2c1.2,0.2,2.2,0.4,2.8,0.5c0.7,0.1,1,0.2,1,0.2s-0.3,0.1-1,0.2c-0.7,0.1-1.6,0.3-2.8,0.4
			c-2.4,0.3-5.9,0.7-10.1,1c-4.2,0.3-9.1,0.6-14.3,0.8c-2.6,0.1-5.3,0.2-8.1,0.2c-2.7,0-5.5,0-8.3,0c-2.8,0-5.6-0.1-8.3-0.2
			c-2.7-0.1-5.4-0.2-8-0.3c-5.2-0.3-10.1-0.6-14.3-1.1c-4.2-0.4-7.7-0.9-10.1-1.2c-1.2-0.2-2.2-0.3-2.8-0.5
			C212.2,378.3,211.9,378.3,211.9,378.3z"/>
	</g>
	<g>
		<path fill="#0D0D0D" d="M413.5,260c0.9-1.1,1.8-2.2,2.8-3.2c1-1,2-2,3-3c2.1-1.9,4.3-3.7,6.8-5.1c0.6-0.4,1.3-0.7,1.9-1
			c0.7-0.3,1.3-0.6,2.1-0.8c0.3-0.1,0.7-0.2,1.1-0.3c0.4-0.1,0.7-0.2,1.1-0.3c0.7-0.2,1.5-0.2,2.3-0.3c0.4,0,0.8,0,1.2,0l1.2,0.2
			l1.2,0.3c0.4,0.1,0.8,0.3,1.1,0.4c0.4,0.1,0.7,0.4,1.1,0.6c0.4,0.2,0.7,0.4,1,0.7c0.7,0.5,1.2,1.1,1.8,1.6l-0.3-0.3
			c0.7,0.5,1.1,0.9,1.6,1.4c0.4,0.5,0.9,1,1.2,1.6c0.7,1.1,1.2,2.3,1.7,3.4l0.6,1.8c0.2,0.6,0.2,1.2,0.4,1.8
			c0.3,1.2,0.3,2.4,0.4,3.7l0,0.9l0,0.9l-0.1,1.8c0,1.2-0.3,2.4-0.5,3.6l-0.3,1.8l-0.4,1.7c-0.3,1.1-0.6,2.3-0.9,3.5l-1.1,3.4
			l-0.6,1.7c-0.2,0.6-0.4,1.1-0.7,1.6l-1.4,3.2c-0.4,1.1-1,2.1-1.5,3.2l-1.6,3.1c-0.5,1-1.1,2.1-1.7,3.1l-3.5,6l0.3-0.6
			c-0.5,1.4-0.9,2.6-1.4,3.9c-0.5,1.3-1,2.5-1.5,3.8c-1.1,2.5-2.2,5-3.4,7.4c-0.6,1.2-1.2,2.4-1.9,3.6c-0.6,1.2-1.3,2.4-2,3.6
			c-0.7,1.2-1.4,2.4-2.2,3.5c-0.7,1.2-1.5,2.3-2.4,3.4c-0.8,1.1-1.7,2.2-2.6,3.3c-0.9,1.1-1.9,2.1-2.9,3.1l-1.6,1.5
			c-0.5,0.5-1.1,0.9-1.7,1.4c-1.2,0.9-2.4,1.7-3.7,2.5c-0.3,0.2-0.6,0.4-1,0.5l-1.1,0.5l-1.1,0.5l-1.1,0.3l-1.1,0.3
			c-0.4,0.1-0.8,0.1-1.2,0.2l-1.2,0.2c-0.4,0.1-0.8,0-1.2,0.1c-0.8,0-1.6,0.1-2.4-0.1c-0.8-0.1-1.6-0.2-2.3-0.4
			c-0.7-0.2-1.5-0.4-2.2-0.7l-2.1-0.9l-2.2-1l0.8-2.4l3.4-9.9l1.7-5l1.7-5l3.3-10l1.6-5l1.6-5c0.5-1.7,1.1-3.3,1.6-5l1.6-5l1.6-5
			c0.6-1.7,1-3.3,1.5-5l1.5-5c0.5-1.7,1-3.4,1.5-5C411.7,266.8,412.6,263.4,413.5,260z M413.5,260c-0.5,3.5-1,7-1.5,10.5
			c-0.3,1.7-0.7,3.5-1,5.2l-1.1,5.2c-0.4,1.7-0.7,3.5-1.1,5.2l-1.2,5.1l-1.2,5.1c-0.4,1.7-0.9,3.4-1.3,5.1
			c-0.9,3.4-1.8,6.8-2.7,10.2l-2.9,10.2c-0.9,3.4-2,6.8-3,10.1l-3.1,10.1l-1.4-3.4l1.6,0.6c0.5,0.2,1.1,0.3,1.6,0.4
			c0.5,0.2,1.1,0.2,1.6,0.2c0.5,0.1,1.1,0,1.6,0c0.3,0,0.5,0,0.8,0l0.8-0.1c0.3-0.1,0.5-0.1,0.8-0.1l0.8-0.3l0.8-0.2l0.8-0.4
			l0.8-0.3c0.3-0.1,0.5-0.3,0.8-0.4c1-0.5,2-1.3,2.9-2l1.4-1.2l1.3-1.3c0.9-0.9,1.7-1.8,2.5-2.8c0.8-0.9,1.6-2,2.3-3
			c0.7-1,1.5-2.1,2.2-3.1c0.7-1.1,1.4-2.2,2.1-3.3c0.7-1.1,1.3-2.2,1.9-3.4c0.6-1.1,1.2-2.3,1.8-3.4c1.2-2.3,2.3-4.7,3.3-7.1
			c0.5-1.2,1-2.4,1.5-3.6c0.5-1.2,1-2.4,1.4-3.6l0.1-0.3l0.2-0.3l3.5-5.7c0.6-0.9,1.1-1.9,1.7-2.9l1.6-3c0.5-1,1.1-2,1.5-3l1.4-3
			c0.2-0.5,0.5-1,0.7-1.5l0.6-1.5l1.2-3.1c0.4-1,0.6-2.1,1-3.1l0.5-1.6l0.3-1.6c0.2-1.1,0.5-2.1,0.6-3.2l0.2-1.6l0.1-0.8l0-0.8
			c0-1.1,0.1-2.1-0.1-3.1c-0.1-0.5-0.1-1-0.2-1.5l-0.4-1.5c-0.3-1-0.7-1.9-1.1-2.8c-0.2-0.5-0.5-0.8-0.8-1.2l-0.5-0.5l-0.4-0.4
			l-0.3-0.3c-0.4-0.4-0.8-0.9-1.3-1.3c-0.2-0.2-0.4-0.4-0.7-0.6c-0.2-0.2-0.5-0.4-0.7-0.5c-0.3-0.1-0.5-0.3-0.8-0.4l-0.8-0.3
			l-0.9-0.2c-0.3,0-0.6-0.1-0.9-0.1c-0.6,0-1.2,0-1.9,0c-0.3,0-0.6,0.1-1,0.1c-0.3,0.1-0.6,0.1-1,0.2c-0.6,0.1-1.3,0.4-1.9,0.6
			c-0.6,0.2-1.2,0.5-1.9,0.8c-2.5,1.1-4.8,2.6-7,4.3C417.7,256.3,415.6,258.1,413.5,260z"/>
	</g>
	<g>
		<path fill="#0D0D0D" d="M110,244.7c-1.6-0.9-3.2-1.7-4.8-2.4c-1.7-0.7-3.3-1.3-5-1.8c-0.9-0.2-1.7-0.4-2.6-0.5
			c-0.4-0.1-0.9-0.1-1.3-0.1c-0.4,0-0.9,0-1.3,0c-0.8,0-1.6,0.2-2.4,0.4c-0.7,0.3-1.4,0.6-2,1.1l-0.4,0.4c-0.1,0.1-0.2,0.3-0.4,0.4
			c-0.1,0.1-0.2,0.3-0.3,0.4l-0.3,0.5c-0.2,0.3-0.3,0.7-0.5,1.1l-0.2,0.6l-0.1,0.6c-0.2,0.8-0.3,1.6-0.4,2.4c0,0.8-0.1,1.7,0,2.5
			c0.1,0.9,0.1,1.7,0.2,2.6c0.1,0.9,0.2,1.7,0.4,2.6c0.2,0.9,0.3,1.7,0.5,2.6l0.6,2.6l0-0.1c1.3,3.7,2.7,7.5,4,11.2
			c1.4,3.7,2.8,7.4,4.2,11.1c2.8,7.4,5.8,14.8,9,22c1.6,3.6,3.2,7.2,5,10.7c1.7,3.5,3.6,7,5.6,10.2c1,1.6,2.1,3.2,3.2,4.7
			c1.1,1.5,2.3,2.9,3.5,4c0.6,0.6,1.3,1,1.8,1.4c0.3,0.2,0.6,0.3,0.8,0.3l0.1,0l0,0l0,0c0.2,0-0.2,0-0.2,0l0.1,0l0.4,0.1l0.7,0.1
			l5.9,1.1l-3.4,3.5l-5.2-24.1c-0.9-4-1.7-8-2.6-12l-2.5-12l-5-24.1l-2.5-12l-1.3-6l-0.7-3C110.6,246.6,110.3,245.7,110,244.7z
			 M110,244.7c0.4,0.9,0.9,1.9,1.2,2.8l1.1,2.9c0.7,1.9,1.3,3.9,2,5.9c1.3,3.9,2.4,7.9,3.6,11.8c1.2,3.9,2.3,7.9,3.4,11.9
			c1.1,4,2.2,7.9,3.2,11.9l3.1,11.9c1,4,2,8,3,11.9c1.9,8,3.9,15.9,5.8,23.9l1,4.3l-4.4-0.8l-5.9-1l-0.7-0.1l-0.4-0.1l-0.1,0l-0.2,0
			l0,0l-0.1,0l-0.3-0.1c-0.7-0.2-1.4-0.5-1.9-0.8c-1.2-0.6-2.1-1.4-3-2.1c-1.7-1.5-3.1-3.2-4.4-4.9c-1.3-1.7-2.4-3.4-3.5-5.2
			c-2.1-3.5-4-7.1-5.8-10.8c-1.8-3.6-3.4-7.3-5-11c-3.1-7.4-5.9-14.9-8.5-22.5c-1.3-3.8-2.5-7.6-3.7-11.4c-1.2-3.8-2.4-7.6-3.5-11.5
			l0-0.1l0,0l-0.5-2.7c-0.2-0.9-0.2-1.8-0.4-2.8c-0.1-0.9-0.2-1.9-0.2-2.8c-0.1-0.9-0.1-1.9-0.1-2.8c0-0.9,0.1-1.9,0.2-2.9
			c0.2-1,0.3-1.9,0.7-2.9l0.2-0.7l0.3-0.7c0.2-0.5,0.4-0.9,0.7-1.3l0.4-0.6c0.2-0.2,0.4-0.4,0.5-0.6c0.2-0.2,0.4-0.4,0.6-0.6
			l0.6-0.5c0.9-0.6,1.9-1,2.8-1.2c1-0.2,2-0.3,3-0.2c0.5,0,1,0.1,1.4,0.2c0.5,0.1,0.9,0.2,1.4,0.3c0.9,0.2,1.8,0.5,2.7,0.8
			c1.7,0.6,3.4,1.4,5,2.3C107.1,242.6,108.6,243.6,110,244.7z"/>
	</g>
</g>
</svg>
