<?xml version="1.0" encoding="utf-8"?>
<!-- Generator: Adobe Illustrator 17.0.0, SVG Export Plug-In . SVG Version: 6.00 Build 0)  -->
<!DOCTYPE svg PUBLIC "-//W3C//DTD SVG 1.1//EN" "http://www.w3.org/Graphics/SVG/1.1/DTD/svg11.dtd">
<svg version="1.1" id="Layer_1" xmlns="http://www.w3.org/2000/svg" xmlns:xlink="http://www.w3.org/1999/xlink" x="0px" y="0px"
	 width="136.687px" height="166.005px" viewBox="0 0 136.687 166.005" enable-background="new 0 0 136.687 166.005"
	 xml:space="preserve">
<g>
	<circle fill="#6D91AD" cx="68.64" cy="67.687" r="67.687"/>
	<g>
		<defs>
			<circle id="SVGID_1_" cx="68.64" cy="67.687" r="67.687"/>
		</defs>
		<clipPath id="SVGID_2_">
			<use xlink:href="#SVGID_1_"  overflow="visible"/>
		</clipPath>
		<polygon clip-path="url(#SVGID_2_)" fill="#8CB0CC" points="16.832,66.159 57.485,162.755 151.835,137.764 120.375,66.813 
			77.686,38.221 		"/>
	</g>
	<g>
		<defs>
			<circle id="SVGID_3_" cx="68.64" cy="67.687" r="67.687"/>
		</defs>
		<clipPath id="SVGID_4_">
			<use xlink:href="#SVGID_3_"  overflow="visible"/>
		</clipPath>
	</g>
	<g>
		<defs>
			<rect id="SVGID_5_" x="0" y="4.187" width="136.687" height="161.818"/>
		</defs>
		<clipPath id="SVGID_6_">
			<use xlink:href="#SVGID_5_"  overflow="visible"/>
		</clipPath>
		<g clip-path="url(#SVGID_6_)">
			<defs>
				<rect id="SVGID_7_" x="0" y="4.187" width="136.687" height="161.818"/>
			</defs>
			<clipPath id="SVGID_8_">
				<use xlink:href="#SVGID_7_"  overflow="visible"/>
			</clipPath>
			<g opacity="0.6" clip-path="url(#SVGID_8_)">
				<g>
					<defs>
						<path id="SVGID_9_" d="M68.707,159.649L68.707,159.649z"/>
					</defs>
					<clipPath id="SVGID_10_">
						<use xlink:href="#SVGID_9_"  overflow="visible"/>
					</clipPath>
				</g>
			</g>
			<path clip-path="url(#SVGID_8_)" fill="#DAC65E" d="M97.074,160.151c0,0,0.167-5.904-2.622-10.255s-3.846-6.211-3.846-6.211
				s-2.141-13.872-1.77-16.252c0,0,0.484-4.463-3.124-5.318c0,0-1.115-3.124-6.099-3.496c-4.983-0.372-7.14,1.339-7.958,2.529
				c0,0-2.232,4.016-2.455,4.76s-0.26,10.19-0.26,10.19s-0.623,4.668-0.595,5.588c0.028,0.921,0.641,14.56,0.641,14.56l-0.273,2.763
				l-0.006,0.64c0,0,1.172,6.276,14.184,6.35C82.891,165.999,93.411,166.427,97.074,160.151"/>
			<g opacity="0.6" clip-path="url(#SVGID_8_)">
				<g>
					<defs>
						<rect id="SVGID_11_" x="68.707" y="156.246" width="28.367" height="9.759"/>
					</defs>
					<clipPath id="SVGID_12_">
						<use xlink:href="#SVGID_11_"  overflow="visible"/>
					</clipPath>
					<path clip-path="url(#SVGID_12_)" fill="#636464" d="M68.986,156.246l-0.274,2.763l-0.005,0.64c0,0,1.172,6.276,14.183,6.35
						c0,0,10.521,0.428,14.184-5.848c0,0-3.18,5.16-10.237-1.06c0,0-3.012-2.454-6.052,0c0,0-9.121,7.419-12.078,0.558"/>
				</g>
			</g>
			<path clip-path="url(#SVGID_8_)" fill="#999999" d="M96.498,154.507c0,0,0.787,6.535-5.892,7.079c0,0,3.884,2.088,6.468-1.435
				C97.074,160.151,97.428,157.148,96.498,154.507"/>
			<path clip-path="url(#SVGID_8_)" fill="#999999" d="M69.297,155.586c0,0-0.599,2.507-0.59,3.82c0,0,0.559,5.44,8.528,2.315
				C77.236,161.721,69.84,160.061,69.297,155.586"/>
			<path clip-path="url(#SVGID_8_)" fill="#B15C4E" d="M90.101,144.094c0,0,3.273,4.165,2.678,4.649
				c-0.595,0.483-2.269,2.863-2.678,3.496c0,0-2.008,2.417-6.211-0.335c0,0-1.525-0.967-6.657,0.074c0,0-2.306,0.818-4.797-1.859
				c0,0-1.339-0.744-2.195,0.074c0,0-0.297-6.62,0.707-7.624c0,0,4.835,4.054,11.343,3.608
				C82.291,146.177,87.423,146.214,90.101,144.094"/>
			<path clip-path="url(#SVGID_8_)" fill="#B15C4E" d="M72.101,123.081c0.927,1.149,1.785,2.083,3.421,4.017
				c1.637,1.933,3.868,15.917,3.868,15.917s1.004,2.101-1.004,1.543s-6.304-2.175-6.638-4.351
				C71.413,138.031,70.822,121.495,72.101,123.081"/>
			<path clip-path="url(#SVGID_8_)" fill="#B15C4E" d="M83.555,142.286c0,0,0.223-14.667,0.669-16.006
				c0.447-1.339,1.414-2.603,1.414-2.603l0.632-1.388c0,0,2.542,0.912,2.586,4.473c0.044,3.561,0.344,6.598,0.43,7.32
				c0.087,0.722,1.265,9.249,1.265,9.249s-2.905,1.786-4.913,1.786c-2.009,0-2.083-0.67-2.083-0.67V142.286z"/>
			
				<path clip-path="url(#SVGID_8_)" fill="none" stroke="#FFFFFF" stroke-width="2" stroke-linecap="round" stroke-miterlimit="10" d="
				M85.638,143.015c0,0-4.388-0.521-8.107-0.446"/>
			
				<path clip-path="url(#SVGID_8_)" fill="none" stroke="#FFFFFF" stroke-width="2" stroke-linecap="round" stroke-miterlimit="10" d="
				M83.741,142.789c0,0-3.488-3.381-6.839-3.678"/>
			
				<path clip-path="url(#SVGID_8_)" fill="none" stroke="#FFFFFF" stroke-width="2" stroke-linecap="round" stroke-miterlimit="10" d="
				M86.642,139.854c0,0-5.095,0.655-8.256,2.708"/>
			
				<path clip-path="url(#SVGID_8_)" fill="none" stroke="#FFFFFF" stroke-width="2" stroke-linecap="round" stroke-miterlimit="10" d="
				M83.112,138.659c0,0-3.488-2.637-6.839-2.934"/>
			
				<path clip-path="url(#SVGID_8_)" fill="none" stroke="#FFFFFF" stroke-width="2" stroke-linecap="round" stroke-miterlimit="10" d="
				M85.861,136.395c0,0-4.944-0.016-8.105,2.037"/>
			
				<path clip-path="url(#SVGID_8_)" fill="none" stroke="#FFFFFF" stroke-width="2" stroke-linecap="round" stroke-miterlimit="10" d="
				M83.112,134.887c0,0-4.276-2.637-7.626-2.934"/>
			
				<path clip-path="url(#SVGID_8_)" fill="none" stroke="#FFFFFF" stroke-width="2" stroke-linecap="round" stroke-miterlimit="10" d="
				M85.638,132.825c0,0-4.721-0.217-7.882,1.835"/>
			
				<path clip-path="url(#SVGID_8_)" fill="none" stroke="#FFFFFF" stroke-width="2" stroke-linecap="round" stroke-miterlimit="10" d="
				M83.112,131.246c0,0-5.131-2.637-8.482-2.934"/>
			
				<path clip-path="url(#SVGID_8_)" fill="none" stroke="#FFFFFF" stroke-width="2" stroke-linecap="round" stroke-miterlimit="10" d="
				M86.27,128.623c0,0-5.353,0.343-8.514,2.396"/>
			<g opacity="0.6" clip-path="url(#SVGID_8_)">
				<g>
					<defs>
						<path id="SVGID_13_" d="M66.611,159.378L66.611,159.378z"/>
					</defs>
					<clipPath id="SVGID_14_">
						<use xlink:href="#SVGID_13_"  overflow="visible"/>
					</clipPath>
				</g>
			</g>
			<path clip-path="url(#SVGID_8_)" fill="#DAC65E" d="M38.244,159.88c0,0-0.167-5.904,2.622-10.255
				c2.789-4.351,3.846-6.211,3.846-6.211s2.141-13.872,1.77-16.252c0,0-0.484-4.463,3.124-5.318c0,0,1.115-3.124,6.099-3.496
				c4.983-0.372,7.14,1.339,7.958,2.529c0,0,2.232,4.016,2.455,4.76s0.26,10.19,0.26,10.19s0.623,4.668,0.595,5.588
				c-0.028,0.921-0.641,14.56-0.641,14.56l0.273,2.763l0.006,0.64c0,0-1.172,6.276-14.184,6.35
				C52.427,165.728,41.907,166.156,38.244,159.88"/>
			<g opacity="0.6" clip-path="url(#SVGID_8_)">
				<g>
					<defs>
						<rect id="SVGID_15_" x="38.244" y="155.975" width="28.367" height="9.759"/>
					</defs>
					<clipPath id="SVGID_16_">
						<use xlink:href="#SVGID_15_"  overflow="visible"/>
					</clipPath>
					<path clip-path="url(#SVGID_16_)" fill="#6B6B6B" d="M66.332,155.975l0.274,2.763l0.005,0.64c0,0-1.172,6.276-14.183,6.35
						c0,0-10.521,0.428-14.184-5.848c0,0,3.18,5.16,10.237-1.06c0,0,3.012-2.455,6.052,0c0,0,9.121,7.419,12.078,0.558"/>
				</g>
			</g>
			<path clip-path="url(#SVGID_8_)" fill="#999999" d="M38.82,154.237c0,0-0.787,6.535,5.892,7.079c0,0-3.884,2.088-6.468-1.435
				C38.244,159.881,37.89,156.878,38.82,154.237"/>
			<path clip-path="url(#SVGID_8_)" fill="#999999" d="M66.044,155.315c0,0,0.576,2.417,0.567,3.682c0,0-0.537,5.244-8.195,2.232
				C58.416,161.229,65.522,159.629,66.044,155.315"/>
			<path clip-path="url(#SVGID_8_)" fill="#B15C4E" d="M45.217,143.823c0,0-3.273,4.165-2.678,4.649
				c0.595,0.483,2.269,2.863,2.678,3.496c0,0,2.008,2.417,6.211-0.335c0,0,1.525-0.967,6.657,0.074c0,0,2.306,0.818,4.797-1.859
				c0,0,1.339-0.744,2.195,0.074c0,0,0.297-6.62-0.707-7.624c0,0-4.835,4.054-11.343,3.608
				C53.027,145.906,47.895,145.943,45.217,143.823"/>
			<path clip-path="url(#SVGID_8_)" fill="#B15C4E" d="M63.217,122.811c-0.927,1.149-1.785,2.083-3.421,4.017
				c-1.637,1.933-3.868,15.917-3.868,15.917s-1.004,2.101,1.004,1.543c2.008-0.558,6.304-2.175,6.638-4.351
				C63.905,137.761,64.496,121.225,63.217,122.811"/>
			<path clip-path="url(#SVGID_8_)" fill="#B15C4E" d="M51.763,142.015c0,0-0.223-14.667-0.669-16.006
				c-0.447-1.339-1.414-2.603-1.414-2.603l-0.632-1.388c0,0-2.542,0.912-2.586,4.473c-0.044,3.561-0.344,6.598-0.43,7.32
				c-0.087,0.722-1.265,9.249-1.265,9.249s2.905,1.786,4.913,1.786c2.009,0,2.083-0.67,2.083-0.67V142.015z"/>
			
				<path clip-path="url(#SVGID_8_)" fill="none" stroke="#FFFFFF" stroke-width="2" stroke-linecap="round" stroke-miterlimit="10" d="
				M49.68,142.745c0,0,4.388-0.521,8.107-0.446"/>
			
				<path clip-path="url(#SVGID_8_)" fill="none" stroke="#FFFFFF" stroke-width="2" stroke-linecap="round" stroke-miterlimit="10" d="
				M51.577,142.518c0,0,3.488-3.381,6.839-3.678"/>
			
				<path clip-path="url(#SVGID_8_)" fill="none" stroke="#FFFFFF" stroke-width="2" stroke-linecap="round" stroke-miterlimit="10" d="
				M48.676,139.584c0,0,5.095,0.655,8.256,2.708"/>
			
				<path clip-path="url(#SVGID_8_)" fill="none" stroke="#FFFFFF" stroke-width="2" stroke-linecap="round" stroke-miterlimit="10" d="
				M52.207,138.389c0,0,3.488-2.637,6.839-2.934"/>
			
				<path clip-path="url(#SVGID_8_)" fill="none" stroke="#FFFFFF" stroke-width="2" stroke-linecap="round" stroke-miterlimit="10" d="
				M49.457,136.125c0,0,4.944-0.016,8.105,2.037"/>
			
				<path clip-path="url(#SVGID_8_)" fill="none" stroke="#FFFFFF" stroke-width="2" stroke-linecap="round" stroke-miterlimit="10" d="
				M52.207,134.617c0,0,4.276-2.637,7.626-2.934"/>
			
				<path clip-path="url(#SVGID_8_)" fill="none" stroke="#FFFFFF" stroke-width="2" stroke-linecap="round" stroke-miterlimit="10" d="
				M49.68,132.555c0,0,4.721-0.217,7.882,1.835"/>
			
				<path clip-path="url(#SVGID_8_)" fill="none" stroke="#FFFFFF" stroke-width="2" stroke-linecap="round" stroke-miterlimit="10" d="
				M52.207,130.975c0,0,5.131-2.637,8.482-2.934"/>
			
				<path clip-path="url(#SVGID_8_)" fill="none" stroke="#FFFFFF" stroke-width="2" stroke-linecap="round" stroke-miterlimit="10" d="
				M49.048,128.352c0,0,5.353,0.343,8.514,2.396"/>
		</g>
	</g>
	<polygon fill="#3F4E5D" points="52.46,73.808 58.984,109.078 65.543,73.808 59.002,68.435 	"/>
	<polygon fill="#3F4E5D" points="71.042,73.808 77.565,109.078 84.125,73.808 77.584,68.435 	"/>
	<polygon fill="#FFFFFF" points="16.832,66.132 26.492,74.147 40.253,61.492 49.415,69.12 58.933,61.195 68.415,69.12 
		77.755,61.342 87.096,69.12 96.293,61.461 110.231,74.294 119.855,66.251 68.308,18.918 	"/>
	<path fill="#576F82" d="M68.337,25.736c2.043-0.005,3.702,2.787,3.705,6.234c0.002,3.448-1.651,6.246-3.695,6.251h-0.01
		c-2.044,0.005-3.702-2.784-3.706-6.233c-0.003-3.448,1.651-6.248,3.695-6.251H68.337z"/>
	<path fill="#3F4E5D" d="M64.725,34.574l0.072,0.62l3.565,31.901l3.529-31.901c0.047-0.443,0.063-0.735,0.072-1.123
		c0-3.067-1.602-5.559-3.601-5.559c-2,0-3.637,2.493-3.637,5.559c0,0.172,0.026,0.334,0.036,0.503H64.725z"/>
	<polygon fill="#3F4E5D" points="58.935,49.333 54.952,64.422 58.935,61.084 62.916,64.422 	"/>
	<polygon fill="#3F4E5D" points="77.677,49.333 73.696,64.422 77.677,61.084 81.661,64.422 	"/>
	<line fill="none" stroke="#80888E" stroke-miterlimit="10" x1="32.421" y1="68.961" x2="22.615" y2="60.83"/>
	<line fill="none" stroke="#80888E" stroke-miterlimit="10" x1="33.801" y1="67.586" x2="23.997" y2="59.455"/>
	<line fill="none" stroke="#80888E" stroke-miterlimit="10" x1="104.378" y1="69.438" x2="114.184" y2="61.307"/>
	<line fill="none" stroke="#80888E" stroke-miterlimit="10" x1="102.989" y1="67.586" x2="112.796" y2="59.455"/>
</g>
</svg>
