<?xml version="1.0" encoding="utf-8"?>
<!-- Generator: Adobe Illustrator 17.0.0, SVG Export Plug-In . SVG Version: 6.00 Build 0)  -->
<!DOCTYPE svg PUBLIC "-//W3C//DTD SVG 1.1//EN" "http://www.w3.org/Graphics/SVG/1.1/DTD/svg11.dtd">
<svg version="1.1" id="Layer_1" xmlns="http://www.w3.org/2000/svg" xmlns:xlink="http://www.w3.org/1999/xlink" x="0px" y="0px"
	 width="136.687px" height="166.005px" viewBox="0 0 136.687 166.005" enable-background="new 0 0 136.687 166.005"
	 xml:space="preserve">
<circle fill="#6D91AD" cx="68.64" cy="67.687" r="67.687"/>
<g>
	<defs>
		<circle id="SVGID_1_" cx="68.64" cy="67.687" r="67.687"/>
	</defs>
	<clipPath id="SVGID_2_">
		<use xlink:href="#SVGID_1_"  overflow="visible"/>
	</clipPath>
	<polygon clip-path="url(#SVGID_2_)" fill="#8CB0CC" points="69.239,69.945 29.929,102.121 27.08,103.075 131.75,190.937 
		189.5,123.687 125.5,64.187 68.332,11.206 	"/>
</g>
<g>
	<defs>
		<circle id="SVGID_3_" cx="68.64" cy="67.687" r="67.687"/>
	</defs>
	<clipPath id="SVGID_4_">
		<use xlink:href="#SVGID_3_"  overflow="visible"/>
	</clipPath>
</g>
<polygon fill="#3F4E5D" points="62.161,69.171 40.406,93.545 69.137,77.14 69.242,70.011 "/>
<polygon fill="#3F4E5D" points="74.936,64.239 68.649,27.94 64.348,64.532 69.796,69.938 "/>
<g>
	<polygon fill="#FFFFFF" points="51.165,26.951 54.387,29.624 58.976,25.403 62.031,27.947 65.205,25.304 68.367,27.947 
		71.482,25.354 74.597,27.947 77.664,25.393 82.312,29.673 85.522,26.991 68.332,11.206 	"/>
	<path fill="#576F82" d="M68.341,13.48c0.681-0.002,1.234,0.929,1.236,2.079c0.001,1.15-0.551,2.083-1.232,2.084h-0.003
		c-0.682,0.002-1.235-0.929-1.236-2.079c-0.001-1.15,0.551-2.083,1.232-2.085H68.341z"/>
	<path fill="#3F4E5D" d="M67.137,16.427l0.024,0.207l1.189,10.639l1.177-10.639c0.016-0.148,0.021-0.245,0.024-0.375
		c0-1.023-0.534-1.854-1.201-1.854c-0.667,0-1.213,0.831-1.213,1.854c0,0.057,0.009,0.111,0.012,0.168H67.137z"/>
	<polygon fill="#3F4E5D" points="65.206,21.349 63.878,26.381 65.206,25.268 66.533,26.381 	"/>
	<polygon fill="#3F4E5D" points="71.456,21.349 70.128,26.381 71.456,25.268 72.785,26.381 	"/>
</g>
<g>
	<polygon fill="#FFFFFF" points="49.84,108.036 50.168,103.862 44.075,102.543 44.394,98.58 40.405,97.508 40.744,93.401 
		36.829,92.349 37.155,88.309 33.3,87.273 34.12,81.008 30.079,79.93 27.08,103.075 	"/>
	<path fill="#576F82" d="M28.933,101.757c-0.394-0.556,0.048-1.544,0.987-2.208c0.939-0.663,2.02-0.75,2.414-0.194l0.002,0.003
		c0.394,0.556-0.048,1.544-0.987,2.208c-0.939,0.663-2.02,0.75-2.414,0.194L28.933,101.757z"/>
	<path fill="#3F4E5D" d="M32.036,101.044l0.155-0.139l8.011-7.101l-9.374,5.167c-0.13,0.072-0.212,0.124-0.32,0.196
		c-0.836,0.589-1.208,1.505-0.824,2.05c0.384,0.545,1.378,0.512,2.214-0.077c0.047-0.033,0.086-0.071,0.13-0.106L32.036,101.044z"/>
	<polygon fill="#3F4E5D" points="37.172,99.787 42.05,97.973 40.375,97.529 40.52,95.802 	"/>
	<polygon fill="#3F4E5D" points="33.571,94.678 38.449,92.864 36.774,92.42 36.918,90.693 	"/>
</g>
</svg>
