<?xml version="1.0" encoding="utf-8"?>
<!-- Generator: Adobe Illustrator 17.0.0, SVG Export Plug-In . SVG Version: 6.00 Build 0)  -->
<!DOCTYPE svg PUBLIC "-//W3C//DTD SVG 1.1//EN" "http://www.w3.org/Graphics/SVG/1.1/DTD/svg11.dtd">
<svg version="1.1" id="Layer_1" xmlns="http://www.w3.org/2000/svg" xmlns:xlink="http://www.w3.org/1999/xlink" x="0px" y="0px"
	 width="136.687px" height="166.005px" viewBox="11.833 11.98 136.687 166.005"
	 enable-background="new 11.833 11.98 136.687 166.005" xml:space="preserve">
<g>
	<circle fill="#6D91AD" cx="80.473" cy="79.667" r="67.687"/>
	<g>
		<g>
			<defs>
				<circle id="SVGID_1_" cx="80.473" cy="79.667" r="67.687"/>
			</defs>
			<clipPath id="SVGID_2_">
				<use xlink:href="#SVGID_1_"  overflow="visible"/>
			</clipPath>
			<polygon clip-path="url(#SVGID_2_)" fill="#8CB0CC" points="28.665,78.139 69.319,174.735 163.668,149.744 132.209,78.793 
				89.519,50.201 			"/>
		</g>
	</g>
	<g>
		<g>
			<defs>
				<rect id="SVGID_3_" x="11.833" y="16.167" width="136.687" height="161.818"/>
			</defs>
			<clipPath id="SVGID_4_">
				<use xlink:href="#SVGID_3_"  overflow="visible"/>
			</clipPath>
			<g clip-path="url(#SVGID_4_)">
				<g>
					<defs>
						<rect id="SVGID_5_" x="11.833" y="16.167" width="136.687" height="161.818"/>
					</defs>
					<defs>
						<rect id="SVGID_6_" x="11.833" y="16.167" width="136.687" height="161.818"/>
					</defs>
					<defs>
						<rect id="SVGID_7_" x="11.833" y="16.167" width="136.687" height="161.818"/>
					</defs>
					<clipPath id="SVGID_8_">
						<use xlink:href="#SVGID_5_"  overflow="visible"/>
					</clipPath>
					<clipPath id="SVGID_9_" clip-path="url(#SVGID_8_)">
						<use xlink:href="#SVGID_6_"  overflow="visible"/>
					</clipPath>
					<clipPath id="SVGID_10_" clip-path="url(#SVGID_9_)">
						<use xlink:href="#SVGID_7_"  overflow="visible"/>
					</clipPath>
					<path clip-path="url(#SVGID_10_)" fill="#DAC65E" d="M108.907,172.13c0,0,0.167-5.904-2.622-10.255s-3.846-6.211-3.846-6.211
						s-2.141-13.872-1.77-16.252c0,0,0.484-4.463-3.124-5.318c0,0-1.115-3.124-6.099-3.496c-4.983-0.372-7.14,1.339-7.958,2.529
						c0,0-2.232,4.016-2.455,4.76s-0.26,10.19-0.26,10.19s-0.623,4.668-0.595,5.588c0.028,0.921,0.641,14.56,0.641,14.56
						l-0.273,2.763l-0.006,0.64c0,0,1.172,6.276,14.184,6.35C94.724,177.978,105.244,178.406,108.907,172.13"/>
					<g clip-path="url(#SVGID_10_)">
						<g opacity="0.6">
							<g>
								<defs>
									<rect id="SVGID_11_" x="80.541" y="168.225" width="28.367" height="9.759"/>
								</defs>
								<clipPath id="SVGID_12_">
									<use xlink:href="#SVGID_11_"  overflow="visible"/>
								</clipPath>
								<path clip-path="url(#SVGID_12_)" fill="#636464" d="M80.82,168.225l-0.274,2.763l-0.005,0.64c0,0,1.172,6.276,14.183,6.35
									c0,0,10.521,0.428,14.184-5.848c0,0-3.18,5.16-10.237-1.06c0,0-3.012-2.454-6.052,0c0,0-9.121,7.419-12.078,0.558"/>
							</g>
						</g>
						<g>
							<defs>
								<rect id="SVGID_13_" x="11.833" y="16.167" width="136.687" height="161.818"/>
							</defs>
							<defs>
								<rect id="SVGID_14_" x="11.833" y="16.167" width="136.687" height="161.818"/>
							</defs>
							<defs>
								<rect id="SVGID_15_" x="11.833" y="16.167" width="136.687" height="161.818"/>
							</defs>
							<defs>
								<rect id="SVGID_16_" x="11.833" y="16.167" width="136.687" height="161.818"/>
							</defs>
							<defs>
								<rect id="SVGID_17_" x="11.833" y="16.167" width="136.687" height="161.818"/>
							</defs>
							<defs>
								<rect id="SVGID_18_" x="11.833" y="16.167" width="136.687" height="161.818"/>
							</defs>
							<defs>
								<rect id="SVGID_19_" x="11.833" y="16.167" width="136.687" height="161.818"/>
							</defs>
							<defs>
								<rect id="SVGID_20_" x="11.833" y="16.167" width="136.687" height="161.818"/>
							</defs>
							<defs>
								<rect id="SVGID_21_" x="11.833" y="16.167" width="136.687" height="161.818"/>
							</defs>
							<defs>
								<rect id="SVGID_22_" x="11.833" y="16.167" width="136.687" height="161.818"/>
							</defs>
							<defs>
								<rect id="SVGID_23_" x="11.833" y="16.167" width="136.687" height="161.818"/>
							</defs>
							<defs>
								<rect id="SVGID_24_" x="11.833" y="16.167" width="136.687" height="161.818"/>
							</defs>
							<defs>
								<rect id="SVGID_25_" x="11.833" y="16.167" width="136.687" height="161.818"/>
							</defs>
							<defs>
								<rect id="SVGID_26_" x="11.833" y="16.167" width="136.687" height="161.818"/>
							</defs>
							<defs>
								<rect id="SVGID_27_" x="11.833" y="16.167" width="136.687" height="161.818"/>
							</defs>
							<defs>
								<rect id="SVGID_28_" x="11.833" y="16.167" width="136.687" height="161.818"/>
							</defs>
							<defs>
								<rect id="SVGID_29_" x="11.833" y="16.167" width="136.687" height="161.818"/>
							</defs>
							<clipPath id="SVGID_30_">
								<use xlink:href="#SVGID_13_"  overflow="visible"/>
							</clipPath>
							<clipPath id="SVGID_31_" clip-path="url(#SVGID_30_)">
								<use xlink:href="#SVGID_14_"  overflow="visible"/>
							</clipPath>
							<clipPath id="SVGID_32_" clip-path="url(#SVGID_31_)">
								<use xlink:href="#SVGID_15_"  overflow="visible"/>
							</clipPath>
							<clipPath id="SVGID_33_" clip-path="url(#SVGID_32_)">
								<use xlink:href="#SVGID_16_"  overflow="visible"/>
							</clipPath>
							<clipPath id="SVGID_34_" clip-path="url(#SVGID_33_)">
								<use xlink:href="#SVGID_17_"  overflow="visible"/>
							</clipPath>
							<clipPath id="SVGID_35_" clip-path="url(#SVGID_34_)">
								<use xlink:href="#SVGID_18_"  overflow="visible"/>
							</clipPath>
							<clipPath id="SVGID_36_" clip-path="url(#SVGID_35_)">
								<use xlink:href="#SVGID_19_"  overflow="visible"/>
							</clipPath>
							<clipPath id="SVGID_37_" clip-path="url(#SVGID_36_)">
								<use xlink:href="#SVGID_20_"  overflow="visible"/>
							</clipPath>
							<clipPath id="SVGID_38_" clip-path="url(#SVGID_37_)">
								<use xlink:href="#SVGID_21_"  overflow="visible"/>
							</clipPath>
							<clipPath id="SVGID_39_" clip-path="url(#SVGID_38_)">
								<use xlink:href="#SVGID_22_"  overflow="visible"/>
							</clipPath>
							<clipPath id="SVGID_40_" clip-path="url(#SVGID_39_)">
								<use xlink:href="#SVGID_23_"  overflow="visible"/>
							</clipPath>
							<clipPath id="SVGID_41_" clip-path="url(#SVGID_40_)">
								<use xlink:href="#SVGID_24_"  overflow="visible"/>
							</clipPath>
							<clipPath id="SVGID_42_" clip-path="url(#SVGID_41_)">
								<use xlink:href="#SVGID_25_"  overflow="visible"/>
							</clipPath>
							<clipPath id="SVGID_43_" clip-path="url(#SVGID_42_)">
								<use xlink:href="#SVGID_26_"  overflow="visible"/>
							</clipPath>
							<clipPath id="SVGID_44_" clip-path="url(#SVGID_43_)">
								<use xlink:href="#SVGID_27_"  overflow="visible"/>
							</clipPath>
							<clipPath id="SVGID_45_" clip-path="url(#SVGID_44_)">
								<use xlink:href="#SVGID_28_"  overflow="visible"/>
							</clipPath>
							<clipPath id="SVGID_46_" clip-path="url(#SVGID_45_)">
								<use xlink:href="#SVGID_29_"  overflow="visible"/>
							</clipPath>
							<path clip-path="url(#SVGID_46_)" fill="#999999" d="M108.331,166.487c0,0,0.787,6.535-5.892,7.079
								c0,0,3.884,2.088,6.468-1.435C108.907,172.131,109.261,169.128,108.331,166.487"/>
							<path clip-path="url(#SVGID_46_)" fill="#999999" d="M81.131,167.565c0,0-0.599,2.507-0.59,3.82c0,0,0.559,5.44,8.528,2.315
								C89.069,173.7,81.673,172.04,81.131,167.565"/>
							<path clip-path="url(#SVGID_46_)" fill="#B15C4E" d="M101.934,156.074c0,0,3.273,4.165,2.678,4.649
								c-0.595,0.483-2.269,2.863-2.678,3.496c0,0-2.008,2.417-6.211-0.335c0,0-1.525-0.967-6.657,0.074
								c0,0-2.306,0.818-4.797-1.859c0,0-1.339-0.744-2.195,0.074c0,0-0.297-6.62,0.707-7.624c0,0,4.835,4.054,11.343,3.608
								C94.124,158.157,99.256,158.194,101.934,156.074"/>
							<path clip-path="url(#SVGID_46_)" fill="#B15C4E" d="M83.934,135.061c0.927,1.149,1.785,2.083,3.421,4.017
								c1.637,1.933,3.868,15.917,3.868,15.917s1.004,2.101-1.004,1.543s-6.304-2.175-6.638-4.351
								C83.246,150.011,82.655,133.475,83.934,135.061"/>
							<path clip-path="url(#SVGID_46_)" fill="#B15C4E" d="M95.389,154.266c0,0,0.223-14.667,0.669-16.006
								c0.447-1.339,1.414-2.603,1.414-2.603l0.632-1.388c0,0,2.542,0.912,2.586,4.473s0.344,6.598,0.43,7.32
								c0.087,0.722,1.265,9.249,1.265,9.249s-2.905,1.786-4.913,1.786c-2.009,0-2.083-0.67-2.083-0.67V154.266z"/>
							
								<path clip-path="url(#SVGID_46_)" fill="none" stroke="#FFFFFF" stroke-width="2" stroke-linecap="round" stroke-miterlimit="10" d="
								M97.471,154.995c0,0-4.388-0.521-8.107-0.446"/>
							
								<path clip-path="url(#SVGID_46_)" fill="none" stroke="#FFFFFF" stroke-width="2" stroke-linecap="round" stroke-miterlimit="10" d="
								M95.575,154.768c0,0-3.488-3.381-6.839-3.678"/>
							
								<path clip-path="url(#SVGID_46_)" fill="none" stroke="#FFFFFF" stroke-width="2" stroke-linecap="round" stroke-miterlimit="10" d="
								M98.476,151.834c0,0-5.095,0.655-8.256,2.708"/>
							
								<path clip-path="url(#SVGID_46_)" fill="none" stroke="#FFFFFF" stroke-width="2" stroke-linecap="round" stroke-miterlimit="10" d="
								M94.945,150.639c0,0-3.488-2.637-6.839-2.934"/>
							
								<path clip-path="url(#SVGID_46_)" fill="none" stroke="#FFFFFF" stroke-width="2" stroke-linecap="round" stroke-miterlimit="10" d="
								M97.695,148.375c0,0-4.944-0.016-8.105,2.037"/>
							
								<path clip-path="url(#SVGID_46_)" fill="none" stroke="#FFFFFF" stroke-width="2" stroke-linecap="round" stroke-miterlimit="10" d="
								M94.945,146.867c0,0-4.276-2.637-7.626-2.934"/>
							
								<path clip-path="url(#SVGID_46_)" fill="none" stroke="#FFFFFF" stroke-width="2" stroke-linecap="round" stroke-miterlimit="10" d="
								M97.471,144.805c0,0-4.721-0.217-7.882,1.835"/>
							
								<path clip-path="url(#SVGID_46_)" fill="none" stroke="#FFFFFF" stroke-width="2" stroke-linecap="round" stroke-miterlimit="10" d="
								M94.945,143.225c0,0-5.131-2.637-8.482-2.934"/>
							
								<path clip-path="url(#SVGID_46_)" fill="none" stroke="#FFFFFF" stroke-width="2" stroke-linecap="round" stroke-miterlimit="10" d="
								M98.104,140.602c0,0-5.353,0.343-8.514,2.396"/>
							<path clip-path="url(#SVGID_46_)" fill="#DAC65E" d="M50.077,171.86c0,0-0.167-5.904,2.622-10.255s3.846-6.211,3.846-6.211
								s2.141-13.872,1.77-16.252c0,0-0.484-4.463,3.124-5.318c0,0,1.115-3.124,6.099-3.496c4.983-0.372,7.14,1.339,7.958,2.529
								c0,0,2.232,4.016,2.455,4.76c0.223,0.744,0.26,10.19,0.26,10.19s0.623,4.668,0.595,5.588
								c-0.028,0.921-0.641,14.56-0.641,14.56l0.273,2.763l0.006,0.64c0,0-1.172,6.276-14.184,6.35
								C64.26,177.708,53.74,178.136,50.077,171.86"/>
							<g clip-path="url(#SVGID_46_)">
								<g opacity="0.6">
									<g>
										<defs>
											<rect id="SVGID_47_" x="50.077" y="167.955" width="28.367" height="9.759"/>
										</defs>
										<clipPath id="SVGID_48_">
											<use xlink:href="#SVGID_47_"  overflow="visible"/>
										</clipPath>
										<path clip-path="url(#SVGID_48_)" fill="#6B6B6B" d="M78.165,167.955l0.274,2.763l0.005,0.64c0,0-1.172,6.276-14.183,6.35
											c0,0-10.521,0.428-14.184-5.848c0,0,3.18,5.16,10.237-1.06c0,0,3.012-2.455,6.052,0c0,0,9.121,7.419,12.078,0.558"/>
									</g>
								</g>
								<g>
									<defs>
										<rect id="SVGID_49_" x="11.833" y="16.167" width="136.687" height="161.818"/>
									</defs>
									<defs>
										<rect id="SVGID_50_" x="11.833" y="16.167" width="136.687" height="161.818"/>
									</defs>
									<defs>
										<rect id="SVGID_51_" x="11.833" y="16.167" width="136.687" height="161.818"/>
									</defs>
									<defs>
										<rect id="SVGID_52_" x="11.833" y="16.167" width="136.687" height="161.818"/>
									</defs>
									<defs>
										<rect id="SVGID_53_" x="11.833" y="16.167" width="136.687" height="161.818"/>
									</defs>
									<defs>
										<rect id="SVGID_54_" x="11.833" y="16.167" width="136.687" height="161.818"/>
									</defs>
									<defs>
										<rect id="SVGID_55_" x="11.833" y="16.167" width="136.687" height="161.818"/>
									</defs>
									<defs>
										<rect id="SVGID_56_" x="11.833" y="16.167" width="136.687" height="161.818"/>
									</defs>
									<defs>
										<rect id="SVGID_57_" x="11.833" y="16.167" width="136.687" height="161.818"/>
									</defs>
									<defs>
										<rect id="SVGID_58_" x="11.833" y="16.167" width="136.687" height="161.818"/>
									</defs>
									<defs>
										<rect id="SVGID_59_" x="11.833" y="16.167" width="136.687" height="161.818"/>
									</defs>
									<defs>
										<rect id="SVGID_60_" x="11.833" y="16.167" width="136.687" height="161.818"/>
									</defs>
									<defs>
										<rect id="SVGID_61_" x="11.833" y="16.167" width="136.687" height="161.818"/>
									</defs>
									<defs>
										<rect id="SVGID_62_" x="11.833" y="16.167" width="136.687" height="161.818"/>
									</defs>
									<clipPath id="SVGID_63_">
										<use xlink:href="#SVGID_49_"  overflow="visible"/>
									</clipPath>
									<clipPath id="SVGID_64_" clip-path="url(#SVGID_63_)">
										<use xlink:href="#SVGID_50_"  overflow="visible"/>
									</clipPath>
									<clipPath id="SVGID_65_" clip-path="url(#SVGID_64_)">
										<use xlink:href="#SVGID_51_"  overflow="visible"/>
									</clipPath>
									<clipPath id="SVGID_66_" clip-path="url(#SVGID_65_)">
										<use xlink:href="#SVGID_52_"  overflow="visible"/>
									</clipPath>
									<clipPath id="SVGID_67_" clip-path="url(#SVGID_66_)">
										<use xlink:href="#SVGID_53_"  overflow="visible"/>
									</clipPath>
									<clipPath id="SVGID_68_" clip-path="url(#SVGID_67_)">
										<use xlink:href="#SVGID_54_"  overflow="visible"/>
									</clipPath>
									<clipPath id="SVGID_69_" clip-path="url(#SVGID_68_)">
										<use xlink:href="#SVGID_55_"  overflow="visible"/>
									</clipPath>
									<clipPath id="SVGID_70_" clip-path="url(#SVGID_69_)">
										<use xlink:href="#SVGID_56_"  overflow="visible"/>
									</clipPath>
									<clipPath id="SVGID_71_" clip-path="url(#SVGID_70_)">
										<use xlink:href="#SVGID_57_"  overflow="visible"/>
									</clipPath>
									<clipPath id="SVGID_72_" clip-path="url(#SVGID_71_)">
										<use xlink:href="#SVGID_58_"  overflow="visible"/>
									</clipPath>
									<clipPath id="SVGID_73_" clip-path="url(#SVGID_72_)">
										<use xlink:href="#SVGID_59_"  overflow="visible"/>
									</clipPath>
									<clipPath id="SVGID_74_" clip-path="url(#SVGID_73_)">
										<use xlink:href="#SVGID_60_"  overflow="visible"/>
									</clipPath>
									<clipPath id="SVGID_75_" clip-path="url(#SVGID_74_)">
										<use xlink:href="#SVGID_61_"  overflow="visible"/>
									</clipPath>
									<clipPath id="SVGID_76_" clip-path="url(#SVGID_75_)">
										<use xlink:href="#SVGID_62_"  overflow="visible"/>
									</clipPath>
									<path clip-path="url(#SVGID_76_)" fill="#999999" d="M50.654,166.216c0,0-0.787,6.535,5.892,7.079
										c0,0-3.884,2.088-6.468-1.435C50.078,171.86,49.724,168.857,50.654,166.216"/>
									<path clip-path="url(#SVGID_76_)" fill="#999999" d="M77.877,167.295c0,0,0.576,2.417,0.567,3.682
										c0,0-0.537,5.244-8.195,2.232C70.249,173.209,77.356,171.609,77.877,167.295"/>
									<path clip-path="url(#SVGID_76_)" fill="#B15C4E" d="M57.05,155.803c0,0-3.273,4.165-2.678,4.649
										c0.595,0.483,2.269,2.863,2.678,3.496c0,0,2.008,2.417,6.211-0.335c0,0,1.525-0.967,6.657,0.074
										c0,0,2.306,0.818,4.797-1.859c0,0,1.339-0.744,2.195,0.074c0,0,0.297-6.62-0.707-7.624c0,0-4.835,4.054-11.343,3.608
										C64.86,157.886,59.728,157.923,57.05,155.803"/>
									<path clip-path="url(#SVGID_76_)" fill="#B15C4E" d="M75.05,134.791c-0.927,1.149-1.785,2.083-3.421,4.017
										c-1.637,1.933-3.868,15.917-3.868,15.917s-1.004,2.101,1.004,1.543c2.008-0.558,6.304-2.175,6.638-4.351
										C75.738,149.741,76.329,133.205,75.05,134.791"/>
									<path clip-path="url(#SVGID_76_)" fill="#B15C4E" d="M63.596,153.995c0,0-0.223-14.667-0.669-16.006
										c-0.447-1.339-1.414-2.603-1.414-2.603l-0.632-1.388c0,0-2.542,0.912-2.586,4.473s-0.344,6.598-0.43,7.32
										c-0.087,0.722-1.265,9.249-1.265,9.249s2.905,1.786,4.913,1.786c2.009,0,2.083-0.67,2.083-0.67V153.995z"/>
									
										<path clip-path="url(#SVGID_76_)" fill="none" stroke="#FFFFFF" stroke-width="2" stroke-linecap="round" stroke-miterlimit="10" d="
										M61.513,154.724c0,0,4.388-0.521,8.107-0.446"/>
									
										<path clip-path="url(#SVGID_76_)" fill="none" stroke="#FFFFFF" stroke-width="2" stroke-linecap="round" stroke-miterlimit="10" d="
										M63.41,154.498c0,0,3.488-3.381,6.839-3.678"/>
									
										<path clip-path="url(#SVGID_76_)" fill="none" stroke="#FFFFFF" stroke-width="2" stroke-linecap="round" stroke-miterlimit="10" d="
										M60.509,151.563c0,0,5.095,0.655,8.256,2.708"/>
									
										<path clip-path="url(#SVGID_76_)" fill="none" stroke="#FFFFFF" stroke-width="2" stroke-linecap="round" stroke-miterlimit="10" d="
										M64.04,150.368c0,0,3.488-2.637,6.839-2.934"/>
									
										<path clip-path="url(#SVGID_76_)" fill="none" stroke="#FFFFFF" stroke-width="2" stroke-linecap="round" stroke-miterlimit="10" d="
										M61.29,148.105c0,0,4.944-0.016,8.105,2.037"/>
									
										<path clip-path="url(#SVGID_76_)" fill="none" stroke="#FFFFFF" stroke-width="2" stroke-linecap="round" stroke-miterlimit="10" d="
										M64.04,146.597c0,0,4.276-2.637,7.626-2.934"/>
									
										<path clip-path="url(#SVGID_76_)" fill="none" stroke="#FFFFFF" stroke-width="2" stroke-linecap="round" stroke-miterlimit="10" d="
										M61.513,144.534c0,0,4.721-0.217,7.882,1.835"/>
									
										<path clip-path="url(#SVGID_76_)" fill="none" stroke="#FFFFFF" stroke-width="2" stroke-linecap="round" stroke-miterlimit="10" d="
										M64.04,142.955c0,0,5.131-2.637,8.482-2.934"/>
									
										<path clip-path="url(#SVGID_76_)" fill="none" stroke="#FFFFFF" stroke-width="2" stroke-linecap="round" stroke-miterlimit="10" d="
										M60.881,140.332c0,0,5.353,0.343,8.514,2.396"/>
								</g>
							</g>
							<polygon clip-path="url(#SVGID_46_)" fill="#3F4E5D" points="64.294,85.788 70.817,121.058 77.376,85.788 70.835,80.414 
															"/>
							<polygon clip-path="url(#SVGID_46_)" fill="#3F4E5D" points="82.875,85.788 89.399,121.058 95.958,85.788 89.417,80.414 
															"/>
							<polygon clip-path="url(#SVGID_46_)" fill="#FFFFFF" points="28.665,78.112 38.325,86.126 52.086,73.471 61.248,81.1 
								70.766,73.174 80.248,81.1 89.588,73.322 98.929,81.1 108.126,73.44 122.064,86.274 131.689,78.23 80.142,30.897 							"/>
							<path clip-path="url(#SVGID_46_)" fill="#576F82" d="M80.17,37.716c2.043-0.005,3.702,2.787,3.705,6.234
								c0.002,3.448-1.651,6.246-3.695,6.251h-0.01c-2.044,0.005-3.702-2.784-3.706-6.233c-0.003-3.448,1.651-6.248,3.695-6.251
								h0.011V37.716z"/>
							<path clip-path="url(#SVGID_46_)" fill="#3F4E5D" d="M76.559,46.554l0.072,0.62l3.565,31.901l3.529-31.901
								c0.047-0.443,0.063-0.735,0.072-1.123c0-3.067-1.602-5.559-3.601-5.559c-2,0-3.637,2.493-3.637,5.559
								c0,0.172,0.026,0.334,0.036,0.503C76.595,46.554,76.559,46.554,76.559,46.554z"/>
							<polygon clip-path="url(#SVGID_46_)" fill="#3F4E5D" points="70.768,61.312 66.785,76.402 70.768,73.064 74.749,76.402 
															"/>
							<polygon clip-path="url(#SVGID_46_)" fill="#3F4E5D" points="89.51,61.312 85.529,76.402 89.51,73.064 93.494,76.402 							
								"/>
							
								<line clip-path="url(#SVGID_46_)" fill="none" stroke="#80888E" stroke-miterlimit="10" x1="44.255" y1="80.941" x2="34.449" y2="72.81"/>
							
								<line clip-path="url(#SVGID_46_)" fill="none" stroke="#80888E" stroke-miterlimit="10" x1="45.635" y1="79.566" x2="35.83" y2="71.435"/>
							
								<line clip-path="url(#SVGID_46_)" fill="none" stroke="#80888E" stroke-miterlimit="10" x1="116.211" y1="81.418" x2="126.017" y2="73.287"/>
							
								<line clip-path="url(#SVGID_46_)" fill="none" stroke="#80888E" stroke-miterlimit="10" x1="114.822" y1="79.566" x2="124.629" y2="71.435"/>
							<path clip-path="url(#SVGID_46_)" fill="#333333" d="M109.059,41.948c-0.012-0.182-0.099-0.296-0.275-0.342
								c-0.124-0.032-0.247-0.067-0.372-0.086c-1.787-0.281-3.577-0.555-5.383-0.68c-1.442-0.1-2.886-0.164-4.332-0.229
								c-2.782-0.125-5.558-0.064-8.324,0.286c-1.69,0.214-3.363,0.52-4.989,1.045c-0.821,0.266-1.629,0.575-2.451,0.836
								c-1.283,0.406-2.601,0.589-3.933,0.339c-0.801-0.151-1.591-0.379-2.368-0.631c-1.405-0.454-2.81-0.902-4.267-1.171
								c-2.834-0.523-5.691-0.764-8.353-0.735c-2.171,0.003-4.121,0.077-6.062,0.31c-1.592,0.191-3.182,0.404-4.772,0.62
								c-0.338,0.046-0.668,0.146-0.999,0.233c-0.177,0.046-0.294,0.164-0.3,0.361c-0.031,0.939-0.063,1.878-0.087,2.818
								c-0.003,0.141,0.031,0.284,0.053,0.425c0.018,0.119,0.083,0.202,0.198,0.252c0.121,0.053,0.246,0.106,0.354,0.181
								c0.522,0.364,0.773,0.914,0.974,1.486c0.142,0.409,0.235,0.834,0.353,1.25c0.073,0.26,0.171,0.513,0.229,0.776
								c0.276,1.226,0.532,2.457,0.814,3.682c0.269,1.168,0.62,2.31,1.179,3.379c0.624,1.194,1.513,2.108,2.776,2.634
								c0.764,0.318,1.559,0.521,2.374,0.651c1.46,0.231,2.929,0.259,4.403,0.152c1.492-0.108,2.965-0.334,4.4-0.767
								c1.065-0.323,2.072-0.772,2.927-1.499c1.305-1.113,2.356-2.434,3.163-3.949c0.806-1.513,1.372-3.122,1.879-4.754
								c0.146-0.468,0.284-0.94,0.453-1.399c0.25-0.677,0.736-1.096,1.458-1.207c0.23-0.036,0.468-0.045,0.702-0.032
								c0.542,0.032,1.063,0.146,1.425,0.599c0.158,0.197,0.303,0.415,0.405,0.645c0.198,0.448,0.385,0.904,0.532,1.37
								c0.637,2.017,1.482,3.938,2.551,5.763c0.886,1.517,2.055,2.742,3.605,3.587c1.096,0.598,2.268,0.979,3.489,1.216
								c1.836,0.356,3.69,0.444,5.555,0.362c1.127-0.049,2.241-0.192,3.325-0.516c1.112-0.334,2.09-0.875,2.82-1.804
								c0.473-0.599,0.824-1.267,1.112-1.97c0.608-1.481,0.998-3.025,1.351-4.582c0.173-0.761,0.351-1.522,0.537-2.28
								c0.097-0.397,0.219-0.786,0.329-1.179c0.103-0.368,0.19-0.742,0.423-1.06c0.234-0.32,0.474-0.634,0.865-0.772
								c0.171-0.061,0.257-0.18,0.294-0.342c0.028-0.125,0.058-0.253,0.058-0.378c0.001-0.562,0.001-1.124-0.015-1.684
								C109.126,42.752,109.084,42.351,109.059,41.948 M54.192,43.726c-0.608,0-1.1-0.121-1.1-0.27c0-0.15,0.492-0.271,1.1-0.271
								c0.607,0,1.098,0.121,1.098,0.271C55.29,43.605,54.798,43.726,54.192,43.726 M75.433,49.667
								c-0.385,1.64-1.021,3.177-1.871,4.629c-0.464,0.793-0.991,1.536-1.659,2.173c-0.882,0.842-1.943,1.338-3.109,1.644
								c-2.359,0.617-4.745,0.772-7.158,0.41c-0.473-0.071-0.939-0.195-1.404-0.313c-0.958-0.246-1.685-0.804-2.238-1.627
								c-0.611-0.911-0.987-1.912-1.238-2.968c-0.328-1.379-0.513-2.782-0.652-4.191c-0.082-0.818-0.066-1.632,0.035-2.445
								c0.051-0.409,0.084-0.825,0.176-1.225c0.328-1.425,1.209-2.333,2.625-2.704c1.294-0.339,2.613-0.539,3.944-0.647
								c0.987-0.081,1.977-0.122,2.616-0.159c2.272,0.029,4.179,0.173,6.055,0.606c0.766,0.175,1.542,0.334,2.244,0.707
								c0.345,0.183,0.68,0.402,0.981,0.65c0.497,0.41,0.751,0.968,0.857,1.6C75.858,47.109,75.732,48.393,75.433,49.667
								 M104.826,49.059c-0.05,1.98-0.383,3.914-1.089,5.772c-0.285,0.752-0.672,1.448-1.255,2.012
								c-0.65,0.63-1.458,0.964-2.317,1.197c-1.079,0.293-2.184,0.363-3.295,0.372c-1.678,0.015-3.332-0.194-4.972-0.543
								c-1.624-0.345-2.92-1.196-3.951-2.484c-1.321-1.651-2.167-3.525-2.641-5.576c-0.219-0.948-0.404-1.901-0.38-2.88
								c0.011-0.421,0.054-0.846,0.131-1.261c0.189-1.034,0.824-1.709,1.78-2.098c0.961-0.389,1.966-0.626,2.979-0.827
								c1.128-0.224,2.266-0.391,3.413-0.465c0.896-0.058,1.794-0.083,2.402-0.109c2.404,0.118,4.505,0.295,6.549,0.878
								c0.376,0.107,0.735,0.278,1.09,0.445c0.337,0.158,0.596,0.416,0.763,0.75c0.185,0.37,0.374,0.739,0.52,1.124
								c0.171,0.451,0.208,0.935,0.227,1.413C104.808,47.539,104.845,48.3,104.826,49.059 M106.723,43.726
								c-0.607,0-1.099-0.121-1.099-0.27c0-0.15,0.492-0.271,1.099-0.271s1.099,0.121,1.099,0.271
								C107.821,43.605,107.329,43.726,106.723,43.726"/>
						</g>
					</g>
				</g>
			</g>
		</g>
	</g>
</g>
</svg>
