<?xml version="1.0" encoding="utf-8"?>
<!-- Generator: Adobe Illustrator 18.1.0, SVG Export Plug-In . SVG Version: 6.00 Build 0)  -->
<svg version="1.1" id="Layer_1" xmlns="http://www.w3.org/2000/svg" xmlns:xlink="http://www.w3.org/1999/xlink" x="0px" y="0px"
	 viewBox="0 0 512.9 512.9" enable-background="new 0 0 512.9 512.9" xml:space="preserve">
<path fill="#434343" d="M411.4,206.5c46.3,26.9,13.4,54.6,13.4,54.6c25.2,19.7,2.5,39.2,0,78.1s-64.5,76.3-64.5,76.3l21.8-60.6
	c0,0,5.5-33.8,10.8-70.5c4.8-33.3-21.2-57.9-21.2-57.9"/>
<g>
	<path fill="#020202" d="M159.5,259.8c0,0,1.2-0.2,3.4-0.5c2.2-0.3,5.3-0.7,9-1.1c1.9-0.2,3.9-0.4,6.1-0.5c2.2-0.1,4.4-0.2,7,0.1
		c0.3,0,0.7,0.1,1,0.2c0.2,0,0.4,0.1,0.6,0.2l0.5,0.2c0.5,0.2,1.1,0.3,1.6,0.5c1.1,0.3,2.3,0.7,3.5,1c2.3,0.7,4.7,1.3,7.1,2
		c4.8,1.3,9.7,2.2,14.2,3.5c2.2,0.6,4.4,1.3,6.4,2c2,0.7,3.9,1.3,5.7,1.9c1.8,0.6,3.4,1.2,4.8,1.7c1.4,0.5,2.7,0.9,3.7,1.2
		c1,0.3,1.8,0.5,2.4,0.5c0.3,0,0.4,0,0.6,0c0.1,0,0.2,0,0.2,0l0.4,0.5c0,0-0.1,0.1-0.2,0.2c-0.2,0.1-0.4,0.3-0.7,0.4
		c-0.6,0.2-1.6,0.4-2.7,0.5c-1.2,0.1-2.5,0.1-4.1,0.1c-1.6,0-3.3-0.2-5.2-0.4c-1.9-0.2-3.9-0.6-6.1-1c-2.1-0.4-4.4-0.9-6.6-1.5
		c-4.6-1.2-9.2-3.1-13.9-4.8c-2.4-0.9-4.7-1.7-7-2.6c-1.2-0.4-2.3-0.9-3.4-1.3c-0.6-0.2-1.1-0.4-1.8-0.7l-0.3-0.2
		c-0.1,0-0.1-0.1-0.3-0.1c-0.2-0.1-0.4-0.1-0.7-0.2c-2-0.5-4.3-0.6-6.4-0.8c-2.1-0.1-4.1-0.2-6-0.3c-3.7-0.1-6.8-0.1-9-0.1
		c-2.2,0-3.4,0-3.4,0L159.5,259.8z"/>
</g>
<g>
	<path fill="#020202" d="M287.1,276.7c0.7-0.5,1.4-0.7,2.2-1.1c0.7-0.3,1.5-0.6,2.2-0.9c1.5-0.6,3-1.2,4.4-1.7
		c1.5-0.6,3-1.1,4.5-1.6l4.5-1.6l8.9-3c1.5-0.5,2.9-1,4.4-1.5c0.7-0.3,1.4-0.5,2.1-0.8c0.7-0.3,1.3-0.6,1.9-0.8l0.1-0.1l0.1,0
		c1-0.4,1.8-0.7,2.7-1c0.9-0.3,1.8-0.6,2.7-0.9c1.8-0.5,3.6-1,5.4-1.4c0.9-0.2,1.8-0.4,2.8-0.5c0.9-0.2,1.9-0.3,2.8-0.4
		c0.9-0.1,1.9-0.2,2.8-0.3c0.9-0.1,1.9-0.1,2.8-0.1c1.9-0.1,3.8,0,5.6,0.1c0.9,0.1,1.9,0.2,2.8,0.3c0.9,0.1,1.9,0.3,2.8,0.5
		c0.9,0.2,1.8,0.4,2.7,0.7c0.9,0.3,1.8,0.5,2.7,0.9c0.9,0.3,1.7,0.7,2.6,1.1c0.8,0.4,1.6,0.8,2.4,1.3c-0.9-0.1-1.8-0.3-2.7-0.4
		c-0.9-0.1-1.8-0.2-2.7-0.3c-0.9-0.1-1.8-0.1-2.7-0.1c-0.9,0-1.8,0-2.7,0c-0.9,0-1.8,0.1-2.6,0.1c-0.9,0-1.8,0.1-2.6,0.2
		c-0.9,0.1-1.7,0.2-2.6,0.3c-0.9,0.1-1.7,0.2-2.6,0.3c-0.9,0.1-1.7,0.3-2.6,0.4c-0.9,0.1-1.7,0.3-2.6,0.5c-1.7,0.3-3.4,0.8-5.1,1.2
		c-1.7,0.4-3.4,0.9-5,1.4l-2.5,0.8c-0.8,0.3-1.7,0.6-2.4,0.9l0.2-0.1c-0.9,0.5-1.7,0.7-2.5,1c-0.8,0.3-1.6,0.5-2.4,0.8
		c-1.6,0.5-3.1,0.9-4.7,1.3c-3.1,0.8-6.2,1.5-9.3,2.1c-1.6,0.3-3.1,0.6-4.7,0.8c-1.6,0.3-3.1,0.5-4.7,0.7c-1.6,0.2-3.1,0.4-4.7,0.6
		l-2.4,0.3C288.7,276.5,287.9,276.5,287.1,276.7z"/>
</g>
<g>
	<path fill="#020202" d="M212.9,415c1.8,0.6,3.5,1.1,5.3,1.5c0.9,0.2,1.8,0.4,2.7,0.6c0.9,0.2,1.8,0.3,2.7,0.4
		c0.9,0.1,1.8,0.2,2.7,0.3c0.9,0.1,1.8,0.2,2.7,0.2l1.4,0l1.4,0c0.9,0,1.8-0.1,2.7-0.1l-0.2,0c1.2-0.3,2.3-0.5,3.4-0.7
		c1.1-0.2,2.3-0.4,3.4-0.5c1.2-0.1,2.3-0.2,3.5-0.2c0.6,0,1.2,0,1.7,0l1.8,0.1c0.6,0,1.2,0.1,1.8,0.1c0.6,0,1.2,0.1,1.8,0.2
		c0.6,0.1,1.2,0.2,1.7,0.3l1.7,0.4l1.7,0.6c0.6,0.2,1.1,0.4,1.7,0.7c0.5,0.3,1.1,0.5,1.6,0.8l1.6,1l-1.5-0.1c2-1,4.1-1.9,6.2-2.8
		c2.1-0.8,4.2-1.6,6.5-2.2c1.1-0.3,2.3-0.5,3.6-0.5c1.2,0,2.3,0,3.4,0c2.2,0.1,4.4,0.2,6.7,0.3c2.2,0.1,4.4,0.2,6.6,0.3
		c2.2,0.1,4.4,0.2,6.6,0.1c2.2,0,4.4,0,6.6-0.4c0.5-0.1,1.1-0.2,1.6-0.3c0.5-0.2,0.9-0.4,1.4-0.7l1.4-0.9l0.4-0.2l0.2-0.1l0.1-0.1
		l0,0l0,0c0,0,0.1,0.2,0.1,0.1c0,0,0,0,0,0l-0.7,0.4l0.7-0.5c0,0,0,0,0.1,0c0-0.1,0.1,0.1,0.1,0.1l0,0l0,0l-0.1,0.1l-0.2,0.1
		l-0.3,0.3l-1.3,1.1c-0.4,0.3-0.9,0.7-1.5,0.9c-0.5,0.2-1.1,0.4-1.6,0.6c-1.1,0.3-2.2,0.5-3.3,0.7c-1.1,0.2-2.2,0.3-3.3,0.4
		c-4.5,0.4-8.9,0.4-13.4,0.4c-2.2,0-4.4,0-6.7,0c-1.1,0-2.2,0-3.2,0.1c-1,0.1-2,0.3-3,0.6c-2,0.5-4.1,1.3-6.1,2.1
		c-1,0.4-2,0.9-3,1.3c-1,0.5-2,0.9-2.9,1.4l-0.8,0.4l-0.8-0.5l-1.3-0.8c-0.4-0.3-0.9-0.5-1.4-0.7c-0.5-0.2-0.9-0.5-1.5-0.6l-1.5-0.5
		l-1.6-0.4c-0.5-0.2-1.1-0.2-1.6-0.3c-0.5-0.1-1.1-0.2-1.6-0.3c-0.5-0.1-1.1-0.1-1.6-0.2l-1.6-0.1c-0.5,0-1.1,0-1.6,0
		c-1.1,0-2.2,0-3.3,0.1c-1.1,0.1-2.2,0.1-3.3,0.3c-1.1,0.1-2.2,0.3-3.2,0.5l-0.1,0l0,0c-1,0-1.9,0-2.8,0l-1.4-0.1l-1.4-0.2
		c-0.9-0.1-1.9-0.3-2.8-0.4c-0.9-0.2-1.8-0.4-2.8-0.6c-0.9-0.2-1.8-0.5-2.7-0.7c-0.9-0.3-1.8-0.6-2.7-0.9
		C216.3,416.6,214.5,415.9,212.9,415z"/>
</g>
<g>
	<path fill="#020202" d="M212.9,418.4c0.9,1.4,1.9,2.7,2.9,4.1c1,1.3,2,2.6,3.1,3.9c1.1,1.3,2.2,2.5,3.3,3.8l1.7,1.8l1.8,1.7
		c1.2,1.1,2.4,2.2,3.7,3.3l1,0.8l1,0.7c0.7,0.5,1.3,1,2,1.4c1.4,0.9,2.8,1.6,4.3,2.2c1.5,0.6,3.1,1.2,4.6,1.6
		c0.8,0.3,1.6,0.5,2.4,0.7c0.8,0.2,1.6,0.4,2.4,0.6c1.6,0.4,3.2,0.7,4.8,0.9l2.4,0.3c0.8,0.1,1.6,0.1,2.5,0.2
		c1.6,0.2,3.3,0.1,4.9,0.1l2.4-0.1l1.2-0.1l1.2-0.2l2.4-0.3c0.8-0.2,1.6-0.4,2.4-0.5c1.6-0.3,3.1-0.9,4.7-1.4c0.8-0.2,1.5-0.6,2.2-1
		l2.2-1l0.1,0c0.6-0.3,1.2-0.6,1.8-0.9c0.6-0.3,1.2-0.7,1.8-1c1.2-0.7,2.4-1.4,3.5-2.2c0.6-0.4,1.1-0.8,1.7-1.2
		c0.6-0.4,1.1-0.8,1.7-1.2c0.5-0.4,1.1-0.8,1.6-1.3l1.6-1.3c0.5-0.5,1-0.9,1.6-1.4c0.5-0.5,1-0.9,1.5-1.4l1.5-1.4l1.5-1.5
		c1-1,1.9-2.1,2.8-3.1c0.5-0.5,0.9-1.1,1.4-1.6l1.3-1.6l-1.2,1.7c-0.4,0.6-0.8,1.2-1.2,1.7c-0.9,1.1-1.7,2.2-2.6,3.3l-1.4,1.6
		l-1.4,1.6c-0.5,0.5-1,1-1.5,1.5c-0.5,0.5-1,1-1.5,1.5l-1.6,1.4c-0.5,0.5-1.1,0.9-1.6,1.4c-0.5,0.5-1.1,0.9-1.7,1.3
		c-0.6,0.4-1.1,0.9-1.7,1.3c-1.1,0.8-2.3,1.6-3.5,2.4c-0.6,0.4-1.2,0.7-1.8,1.1c-0.6,0.4-1.2,0.7-1.9,1l0.1,0l-2.3,1.1
		c-0.8,0.4-1.5,0.8-2.3,1c-1.6,0.6-3.2,1.2-4.9,1.6c-0.8,0.2-1.7,0.4-2.5,0.6l-2.5,0.4l-1.3,0.2l-1.3,0.1l-2.5,0.2
		c-1.7,0-3.4,0-5.1-0.1c-0.8-0.1-1.7-0.1-2.5-0.2l-2.5-0.3c-1.7-0.3-3.3-0.6-5-1c-0.8-0.2-1.6-0.4-2.5-0.6c-0.8-0.2-1.6-0.5-2.4-0.7
		c-1.6-0.5-3.2-1.1-4.8-1.8c-1.5-0.7-3.1-1.5-4.5-2.5c-0.7-0.4-1.4-1-2.1-1.5l-1-0.8l-1-0.8c-1.3-1.1-2.5-2.3-3.7-3.5l-1.7-1.9
		l-1.6-1.9c-1.1-1.3-2.1-2.6-3.1-4c-1-1.4-1.9-2.7-2.8-4.1C214.6,421.3,213.7,419.9,212.9,418.4z"/>
</g>
<path fill="#020202" d="M204.7,429.9c-0.6,1.8-1.2,3-2.6,3s-2.6-1.5-2.6-3s1.2-2.6,2.6-2.6S205.1,428.5,204.7,429.9z"/>
<path fill="#020202" d="M208.4,422c0,1.1-0.5,2.1-1.6,2.1s-2.1-0.9-2.1-2.1c0-1.1,0.9-2.4,2.1-2.4S208.4,420.8,208.4,422z"/>
<g>
	<path fill="#020202" d="M394,276.7c-0.1,2.4-0.2,4.8-0.4,7.2c-0.2,2.4-0.4,4.8-0.6,7.2c-0.5,4.8-1,9.6-1.6,14.3
		c-0.6,4.8-1.2,9.5-1.8,14.3c-0.7,4.8-1.3,9.5-2,14.3l0-0.2c-0.2,4.4-0.8,8.7-1.5,12.9c-0.7,4.2-1.5,8.5-2.3,12.7l-1.3,6.3l-0.2,0.8
		l-0.1,0.4l-0.1,0.3l-0.1,0.2l-0.4,1.5l-0.8,3.1l-0.8,3.1l-0.9,3.1c-0.7,2.1-1.2,4.1-2,6.2l-2.1,6.1l-2.3,6.1l-2.5,6
		c-0.9,2-1.7,4-2.7,5.9c-1,1.9-1.9,3.9-3,5.8c-1,1.9-2.1,3.8-3.2,5.7l-1.7,2.8c-0.6,0.9-1.2,1.8-1.8,2.7c-0.6,0.9-1.3,1.8-2,2.7
		c-0.3,0.4-0.7,0.9-1,1.3c-0.4,0.4-0.7,0.8-1.2,1.3l0.2-0.3c-1.3,1.8-2.8,3.5-4.3,5.1c-1.5,1.6-3.1,3.1-4.6,4.6
		c-3.2,3-6.4,5.8-9.8,8.5c-6.7,5.4-13.6,10.5-20.6,15.4c-1.8,1.2-3.5,2.4-5.3,3.6l-1.4,0.9l-1.4,0.8l-2.7,1.7
		c-1.8,1.1-3.7,2.2-5.5,3.3c-1.8,1.1-3.7,2.2-5.6,3.2c-1.9,1-3.7,2.1-5.7,3.1c-1.9,1-3.8,1.9-5.8,2.9c-2,0.9-3.9,1.8-6,2.5
		c-1,0.4-2.1,0.7-3.1,1c-0.5,0.2-1.1,0.2-1.6,0.4c-0.3,0-0.6,0.1-0.9,0.1c-0.3,0-0.5,0.1-1,0l0.3,0c-1,0.1-2,0.3-3.1,0.4
		c-1,0.1-2,0.2-3.1,0.2c-1,0-2.1,0-3.1,0c-1,0-2-0.1-3.1-0.2c-4.1-0.4-8.1-1.3-12-2.5c-3.9-1.2-7.7-2.8-11.3-4.5
		c-1.8-0.9-3.6-1.8-5.4-2.8c-0.9-0.5-1.8-1-2.6-1.6c-0.9-0.5-1.7-1.1-2.6-1.7l0,0l-0.1-0.1l-34.1-28.6l-4.3-3.6l-2.1-1.8l-0.5-0.4
		l-0.6-0.5l-1-0.9c-2.9-2.6-5.4-5.5-7.8-8.5c-2.3-3-4.4-6.2-6.3-9.5c-1.9-3.3-3.7-6.6-5.2-10.1c-3.2-6.8-5.8-13.9-8.1-21
		c-2.3-7.1-4.2-14.4-5.9-21.7c-0.4-1.8-0.8-3.6-1.2-5.5l-1.1-5.5c-0.7-3.7-1.4-7.3-2-11c-1.2-7.3-2.4-14.7-3.5-22l2.3,2.6
		c-0.9-0.3-1.7-0.6-2.6-0.9c-0.8-0.4-1.7-0.8-2.5-1.4c-1.6-1.1-3-2.5-4.1-4.1c-1.1-1.6-1.8-3.5-2.2-5.3c-0.2-0.9-0.3-1.8-0.4-2.8
		c0-0.5,0-0.9,0-1.4c0-0.2,0-0.5,0-0.7c0-0.3,0-0.4,0.1-0.8l0,0.7c-0.1-1.4-0.3-2.8-0.5-4.2c-0.2-1.4-0.5-2.8-0.8-4.2
		c-0.7-2.8-1.5-5.5-2.6-8.1l-0.2-0.5c0-0.1-0.1-0.2-0.1-0.1l-0.1-0.3c-0.2-0.4-0.3-0.6-0.5-1.1c-0.2-0.4-0.4-0.8-0.5-1.2l-0.4-1.1
		c-0.5-1.5-1-3-1.4-4.5c-0.4-1.5-0.8-3-1.1-4.5l-0.5-2.3l-0.4-2.3l0-0.2l0-0.2c0-0.5-0.1-1.2-0.3-1.9c-0.1-0.7-0.3-1.5-0.5-2.2
		c-0.4-1.5-0.9-3-1.4-4.6c-0.5-1.5-1.1-3-1.7-4.6l-0.9-2.3l-0.9-2.2l-0.1-0.3l0-0.1c-0.4-1.5-0.8-3-1.1-4.5
		c-0.2-0.8-0.3-1.5-0.5-2.3c-0.1-0.8-0.3-1.5-0.4-2.3c-0.3-1.5-0.5-3.1-0.7-4.7c-0.1-0.8-0.2-1.6-0.2-2.4c-0.1-0.8-0.1-1.6-0.2-2.4
		c-0.1-1.6-0.1-3.2,0-4.8c0.1-0.8,0.1-1.6,0.3-2.4c0.1-0.8,0.3-1.6,0.5-2.5c0.2-0.8,0.5-1.6,0.8-2.5c0.3-0.8,0.8-1.6,1.3-2.4
		c0.5-0.8,1.2-1.5,1.9-2.1c0.4-0.3,0.8-0.6,1.3-0.9c0.2-0.1,0.5-0.2,0.7-0.3c0.1-0.1,0.3-0.1,0.4-0.1c0.2,0,0.3-0.1,0.6-0.1l0.2,0
		l0.1,0c0.5,0,1,0.2,1.5,0.3c0.5,0.2,0.8,0.4,1.2,0.7c0.7,0.5,1.1,1.1,1.5,1.7c0.8,1.2,1.3,2.3,1.7,3.5c0.4,1.2,0.7,2.4,1,3.6
		c0.3,1.2,0.4,2.4,0.6,3.6l-0.6,0.1c-0.5-1.1-1-2.2-1.5-3.2c-0.5-1-1.1-2.1-1.7-3c-0.6-0.9-1.3-1.9-2-2.5c-0.4-0.3-0.7-0.6-1-0.7
		c-0.2-0.1-0.3-0.1-0.4-0.1c-0.1,0-0.2,0-0.2,0l0.3,0c0.1,0,0,0,0,0c0,0-0.1,0-0.1,0.1c-0.1,0-0.2,0.1-0.3,0.2
		c-0.2,0.1-0.4,0.3-0.6,0.4c-0.4,0.4-0.8,0.8-1.1,1.3c-0.3,0.5-0.6,1.1-0.8,1.7c-0.2,0.6-0.4,1.2-0.5,1.9c-0.1,0.7-0.2,1.3-0.3,2
		c-0.1,0.7-0.1,1.4-0.1,2.1c0,1.4,0,2.9,0.1,4.3c0,0.7,0.1,1.5,0.2,2.2c0.1,0.7,0.2,1.5,0.3,2.2c0.2,1.5,0.5,2.9,0.8,4.4
		c0.1,0.7,0.3,1.5,0.5,2.2c0.2,0.7,0.3,1.4,0.5,2.2c0.4,1.4,0.8,2.9,1.2,4.3l-0.1-0.4l1,2.3l1,2.3c0.6,1.6,1.3,3.1,1.9,4.7
		c0.6,1.6,1.2,3.2,1.7,4.9c0.3,0.8,0.5,1.7,0.7,2.6c0.2,0.9,0.4,1.8,0.4,3l0-0.4l0.4,2.1l0.5,2.1c0.3,1.4,0.7,2.8,1.1,4.2
		c0.4,1.4,0.8,2.7,1.3,4l0.4,1l0.4,0.8c0.1,0.3,0.3,0.6,0.5,1l0.1,0.3l0.2,0.4l0.2,0.6c1.2,3,2.2,5.9,3,9c0.4,1.5,0.7,3.1,1,4.6
		c0.3,1.6,0.5,3.1,0.6,4.7l0,0.2l0,0.5l0,0.3l0,0.4c0,0.3,0,0.6,0,0.9c0,0.6,0.1,1.2,0.3,1.8c0.3,1.2,0.7,2.2,1.3,3.1
		c0.6,0.9,1.4,1.7,2.3,2.3c0.5,0.3,1,0.6,1.5,0.8c0.5,0.2,1.1,0.4,1.7,0.6l2,0.6l0.3,2c1,7.3,2.2,14.6,3.4,21.9l1.9,10.9l1,5.4
		c0.3,1.8,0.7,3.6,1.1,5.4c1.5,7.2,3.3,14.3,5.5,21.3c2.1,7,4.6,13.9,7.6,20.5c3,6.6,6.4,13.1,10.6,18.9c2.1,2.9,4.4,5.6,6.9,8.1
		l1,1l0.3,0.2l0.2,0.2l0.5,0.5l2.1,1.9l4.1,3.7l33,29.8l-0.1-0.1c0.8,0.6,1.6,1.1,2.4,1.7c0.8,0.5,1.7,1.1,2.5,1.6
		c1.7,1,3.4,2,5.2,2.9c3.5,1.8,7.2,3.4,10.9,4.6c3.8,1.3,7.6,2.1,11.6,2.6c1,0.1,2,0.2,2.9,0.2c1,0.1,2,0,2.9,0c1,0,2-0.1,2.9-0.2
		c1-0.1,1.9-0.3,2.9-0.4l0.1,0l0.2,0c0.1,0,0.4,0,0.6,0c0.2,0,0.5-0.1,0.7-0.1c0.5-0.1,1-0.2,1.5-0.3c1-0.3,2-0.6,3-0.9
		c2-0.7,3.9-1.6,5.8-2.5c1.9-0.9,3.8-1.9,5.6-2.9c1.9-1,3.7-2.1,5.5-3.2c1.8-1.1,3.6-2.2,5.4-3.3c1.8-1.2,3.6-2.3,5.3-3.5l2.6-1.8
		l1.3-0.9l1.3-0.9c1.7-1.2,3.4-2.5,5.1-3.8c6.8-5.1,13.4-10.5,19.8-16.1c3.2-2.8,6.3-5.7,9.2-8.7c2.9-3,5.7-6.1,8-9.4l0-0.1l0.2-0.2
		c0.2-0.3,0.6-0.7,0.9-1.1c0.3-0.4,0.6-0.8,0.9-1.2c0.6-0.8,1.2-1.7,1.8-2.5l1.7-2.6l1.6-2.7c1-1.8,2.1-3.6,3.1-5.5
		c1-1.8,1.9-3.7,2.8-5.6c0.9-1.9,1.8-3.8,2.7-5.7l2.5-5.8l2.3-5.9l2.1-6c0.7-2,1.3-4,2-6l1-3l0.9-3.1l0.9-3.1l0.5-1.5l0.1-0.2
		c0,0.2,0,0,0,0.1l0,0l0,0l0-0.1l0.1-0.4l0.2-0.8l1.5-6.2c0.9-4.1,1.8-8.3,2.7-12.4c0.8-4.1,1.5-8.3,1.9-12.4l0-0.2l0-0.1l2.6-14.1
		l2.6-14.2c0.8-4.7,1.6-9.4,2.4-14.2c0.4-2.4,0.8-4.7,1.1-7.1c0.4-2.4,0.7-4.7,1-7.1L394,276.7z"/>
</g>
<path fill="none" stroke="#020202" stroke-miterlimit="10" d="M115.4,234.6c0,0,1.7,10.7,5.7,19.1"/>
<g>
	<path fill="#020202" d="M235.4,386c0,0,1,0.3,2.7,0.9c1.7,0.6,4.2,1.6,7,2.9c1.4,0.7,3,1.4,4.5,2.4c0.8,0.5,1.6,1,2.4,1.7
		c0.5,0.4,0.7,0.6,1,0.9c0.3,0.3,0.7,0.5,1.1,0.8c1.5,1,3.3,1.7,5.1,2.2c1.8,0.4,3.7,0.6,5.6,0.3c1.9-0.3,3.7-0.8,5.4-1.8
		c0.4-0.2,0.8-0.4,1.3-0.7c0.4-0.3,0.8-0.5,1.2-0.8c0.8-0.5,1.6-1.1,2.4-1.7c3.2-2.3,6.4-4.2,9.2-5.6c0.7-0.4,1.4-0.7,2-1
		c0.7-0.3,1.3-0.6,1.9-0.8c0.6-0.2,1.2-0.5,1.7-0.6c0.5-0.2,1-0.3,1.5-0.4c0.9-0.2,1.6-0.4,2.1-0.4c0.5,0,0.7-0.1,0.7-0.1
		s-0.2,0.1-0.7,0.2c-0.5,0.1-1.1,0.4-1.9,0.8c-0.4,0.2-0.8,0.4-1.3,0.7c-0.5,0.3-1,0.6-1.5,0.9c-1.1,0.7-2.3,1.4-3.5,2.3
		c-1.3,0.9-2.6,1.9-4.1,2.9c-1.4,1-2.9,2.2-4.4,3.4c-0.8,0.6-1.5,1.2-2.4,1.8c-0.4,0.3-0.9,0.6-1.3,1c-0.5,0.3-0.9,0.5-1.4,0.8
		c-1.9,1.1-4.1,1.8-6.3,2.2c-2.3,0.3-4.6,0.1-6.7-0.5c-2.2-0.6-4.1-1.6-5.8-2.8c-0.4-0.3-0.8-0.6-1.2-1c-0.4-0.3-0.9-0.8-1.1-1
		c-0.6-0.6-1.3-1.1-2-1.6c-1.4-1-2.8-1.9-4.1-2.7c-2.6-1.6-4.9-3-6.4-3.9C236.3,386.6,235.4,386,235.4,386z"/>
</g>
<g>
	<path fill="#020202" d="M310,379.3c0,0,1.8,1.3,4.2,3.5c1.2,1.1,2.6,2.4,4,3.9c0.7,0.8,1.4,1.5,2.1,2.3c0.7,0.8,1.4,1.6,2.1,2.5
		c0.7,0.9,1.3,1.7,2,2.6c0.7,0.8,1.2,1.7,1.8,2.6c0.6,0.8,1.1,1.7,1.5,2.5c0.5,0.8,0.9,1.6,1.2,2.4c0.4,0.7,0.6,1.4,0.9,2.1
		c0.2,0.6,0.4,1.2,0.5,1.6c0.2,0.9,0.3,1.5,0.3,1.5s-0.3-0.5-0.7-1.3c-0.2-0.4-0.5-0.9-0.8-1.5c-0.3-0.6-0.7-1.2-1.2-1.8
		c-0.9-1.3-2-2.8-3.2-4.4c-0.3-0.4-0.6-0.8-0.9-1.2c-0.3-0.4-0.7-0.8-1-1.2c-0.6-0.8-1.3-1.7-2-2.5c-1.3-1.7-2.7-3.3-4-4.9
		c-1.3-1.5-2.5-3-3.5-4.3C311.3,381,310,379.3,310,379.3z"/>
</g>
<path fill="none" stroke="#020202" stroke-miterlimit="10" d="M363.9,169.2"/>
<path fill="#434343" d="M104.8,229.3"/>
<g>
	<path fill="#676767" d="M374.7,225.8c0,0,0.7,0.7,2,1.9c0.6,0.6,1.4,1.3,2.2,2.1c0.9,0.8,1.9,1.7,2.9,2.7c1.1,1,2.2,2,3.5,3.1
		c0.6,0.6,1.3,1.1,1.9,1.7c0.7,0.6,1.3,1.1,2,1.7c1.3,1.2,2.8,2.3,4.3,3.6c1.5,1.2,3,2.3,4.5,3.5c0.8,0.6,1.6,1.1,2.3,1.7
		c0.8,0.6,1.5,1.1,2.3,1.6c1.6,1,3.1,2.1,4.6,3c1.5,0.9,3,1.9,4.5,2.6c0.7,0.4,1.4,0.8,2.1,1.1c0.7,0.4,1.3,0.8,2,1
		c1.3,0.6,2.5,1.1,3.6,1.7c1.1,0.5,2.1,0.8,2.9,1.1c1.6,0.6,2.5,1,2.5,1s-1-0.1-2.7-0.2c-0.9-0.1-1.9-0.2-3.1-0.4
		c-1.2-0.3-2.5-0.6-4-1c-1.5-0.3-3-1-4.6-1.6c-1.6-0.6-3.2-1.4-4.9-2.2c-0.4-0.2-0.8-0.4-1.3-0.6c-0.4-0.2-0.8-0.5-1.2-0.7
		c-0.8-0.5-1.7-1-2.5-1.5c-1.7-1-3.3-2.2-4.9-3.4c-1.6-1.2-3.1-2.5-4.6-3.8c-1.4-1.3-2.9-2.6-4.2-3.9c-0.6-0.7-1.3-1.3-1.9-2
		c-0.6-0.7-1.2-1.3-1.7-2c-1.1-1.3-2.1-2.5-3-3.7c-1.8-2.3-3.2-4.4-4.1-5.9C375.1,226.7,374.7,225.8,374.7,225.8z"/>
</g>
<path fill="#676767" d="M397.3,357.1c0.1-4.1,0.2-8.4,0.1-12.8c0-5.3,0-10.8-0.2-16.3c-0.1-2.8-0.2-5.6-0.2-8.4
	c-0.1-2.8-0.3-5.6-0.4-8.4c-0.1-2.8-0.3-5.6-0.4-8.4c-0.2-2.8-0.4-5.6-0.6-8.4c-0.3-5.5-0.9-11-1.3-16.3c-0.5-5.3-1-10.4-1.6-15.2
	c-0.6-4.8-1.1-9.4-1.7-13.6c-0.5-4.2-1.1-8-1.6-11.4c-0.5-3.4-1-6.4-1.4-8.8c-0.4-2.5-0.8-4.4-1-5.7c-0.2-1.3-0.4-2-0.4-2l-7.4,2
	c0,0,0.2,0.7,0.5,1.9c0.3,1.3,0.7,3.1,1.2,5.5c0.5,2.4,1.1,5.3,1.8,8.6c0.6,3.3,1.4,7.1,2.1,11.2c0,0,0,0.1,0,0.1
	c-0.6-2.8-1.2-5.5-1.8-7.9c-0.9-3.7-1.7-6.9-2.4-9.6c-0.7-2.6-1.3-4.7-1.7-6.2c-0.4-1.4-0.6-2.2-0.6-2.2l-7.1,2.8
	c0,0,0.2,0.7,0.7,2.1c0.4,1.3,1.1,3.3,1.8,5.9c0.8,2.6,1.7,5.7,2.7,9.3c1,3.6,2.1,7.7,3.2,12.1c1.2,4.5,2.2,9.3,3.4,14.5
	c0.6,2.6,1.1,5.3,1.7,8c0.5,2.7,1.2,5.5,1.7,8.4c0.5,2.8,1,5.7,1.5,8.7c0.3,1.5,0.5,2.9,0.8,4.4c0.2,1.5,0.5,3,0.7,4.5
	c0.5,3,0.9,6,1.4,9.1c0.5,3,0.8,6.1,1.2,9.2c0.4,3.1,0.8,6.1,1.1,9.2c0.3,3.1,0.5,6.1,0.8,9.2c0.2,3,0.6,6.1,0.7,9
	c0.2,3,0.3,5.9,0.5,8.8c0.1,2.9,0.4,5.8,0.4,8.6c0,2.8,0.1,5.5,0.1,8.2c0,0.7,0,1.5,0,2.2c0,2,0,3.9-0.1,5.7
	c-0.1,3.4-0.3,6.4-0.4,8.9c-0.2,4.9-0.3,7.7-0.3,7.7s0.2-2.8,0.6-7.6c-0.1,4-0.2,7.6-0.3,10.9c-0.3,3.8-0.5,7.1-0.7,9.8
	c-0.4,5.4-0.6,8.5-0.6,8.5s0.3-3.1,0.9-8.5c0.3-2.7,0.7-6,1.1-9.8c0.3-3.8,0.5-8.1,0.8-12.7c0.1-2.3,0.3-4.8,0.4-7.3
	c0.1-2.5,0.1-5.1,0.2-7.8c0.1-2.7,0.1-5.4,0.2-8.3c0.1-2.8-0.1-5.7-0.1-8.6C397.3,358.9,397.3,358,397.3,357.1z"/>
<g>
	<path fill="#676767" d="M388.7,266.3c0,0,0.3,1,0.8,2.8c0.3,0.9,0.6,2,1,3.2c0.4,1.2,0.8,2.6,1.3,4.1c1,3,2.2,6.4,3.7,10
		c0.4,0.9,0.8,1.8,1.2,2.7c0.4,0.9,0.8,1.8,1.3,2.7c0.9,1.8,1.8,3.6,2.9,5.4c1,1.8,2.1,3.5,3.3,5.1c0.6,0.8,1.2,1.6,1.8,2.4
		c0.6,0.7,1.2,1.5,1.9,2.2c0.6,0.7,1.3,1.4,1.9,2c0.7,0.6,1.3,1.3,2,1.8c0.7,0.6,1.3,1.1,2,1.6c0.7,0.5,1.3,1,1.9,1.4
		c0.6,0.4,1.3,0.8,1.9,1.2c0.6,0.3,1.2,0.7,1.8,1c1.1,0.6,2.1,1,3,1.4c1.7,0.6,2.7,1,2.7,1s-1.1-0.1-2.9-0.3
		c-0.9-0.2-2.1-0.4-3.3-0.7c-0.6-0.2-1.3-0.4-2-0.6c-0.7-0.2-1.4-0.6-2.2-0.9c-0.8-0.3-1.5-0.7-2.3-1.1c-0.8-0.4-1.5-0.9-2.3-1.4
		c-1.6-1-3.1-2.3-4.6-3.7c-1.5-1.4-2.9-3-4.2-4.7c-1.3-1.7-2.5-3.5-3.6-5.4c-1.1-1.9-2.1-3.8-2.9-5.8c-0.9-1.9-1.6-3.9-2.2-5.8
		c-0.7-1.9-1.1-3.8-1.6-5.6c-0.4-1.8-0.8-3.5-1-5.1c-0.5-3.2-0.7-5.8-0.8-7.7C388.6,267.3,388.7,266.3,388.7,266.3z"/>
</g>
<g>
	<path fill="#676767" d="M393.3,328.9c0,0,0.2,0.8,0.6,2.2c0.3,1.4,0.8,3.4,1.4,5.8c1.1,4.8,2.5,11.1,4.2,17.3
		c0.4,1.5,0.9,3.1,1.4,4.6c0.5,1.5,1,3,1.5,4.3c0.5,1.4,1.1,2.7,1.7,3.9c0.6,1.2,1.2,2.3,1.8,3.3c0.3,0.5,0.7,0.9,1,1.4
		c0.3,0.4,0.7,0.8,1,1.2c0.7,0.7,1.2,1.3,1.8,1.7c0.5,0.5,1,0.7,1.3,1c0.3,0.2,0.5,0.3,0.5,0.3s-0.2,0-0.6-0.1
		c-0.4-0.1-1-0.2-1.7-0.5c-0.7-0.2-1.5-0.7-2.4-1.3c-0.4-0.3-0.9-0.7-1.3-1c-0.4-0.4-0.9-0.8-1.4-1.3c-0.4-0.5-0.9-1-1.3-1.5
		c-0.4-0.6-0.9-1.1-1.3-1.7c-0.8-1.2-1.6-2.6-2.3-4c-0.4-0.7-0.7-1.4-1-2.2c-0.3-0.7-0.6-1.5-0.9-2.3c-0.6-1.6-1.1-3.2-1.5-4.8
		c-0.4-1.6-0.8-3.2-1.2-4.9c-0.3-1.6-0.6-3.2-0.8-4.7c-0.2-1.5-0.4-3-0.5-4.5c-0.1-1.4-0.2-2.8-0.2-4c-0.1-2.5,0-4.6,0.1-6
		C393.2,329.7,393.3,328.9,393.3,328.9z"/>
</g>
<g>
	<path fill="#676767" d="M393.3,328.9c0,0,0.1,1.2,0.3,3.2c0.1,2,0.3,4.9,0.3,8.4c0,3.5-0.1,7.6-0.3,11.9c-0.3,4.4-0.7,9-1.3,13.6
		c-0.3,2.3-0.7,4.6-1.1,6.9c-0.2,1.1-0.4,2.3-0.7,3.4c-0.2,1.1-0.5,2.2-0.7,3.3c-0.5,2.1-1.1,4.2-1.7,6.1c-0.3,1-0.6,1.9-1,2.8
		c-0.3,0.9-0.7,1.7-1,2.6c-0.4,0.8-0.7,1.6-1.1,2.3c-0.4,0.7-0.8,1.4-1.1,2c-0.4,0.6-0.8,1.2-1.1,1.7c-0.4,0.5-0.8,0.9-1.1,1.3
		c-0.8,0.7-1.4,1.3-1.9,1.5c-0.5,0.3-0.7,0.4-0.7,0.4s0.2-0.2,0.6-0.6c0.4-0.3,0.8-1,1.4-1.8c0.2-0.4,0.5-0.9,0.8-1.4
		c0.2-0.5,0.5-1.1,0.8-1.8c0.2-0.7,0.5-1.3,0.7-2.1c0.2-0.7,0.5-1.5,0.7-2.3c0.4-1.6,0.9-3.4,1.3-5.4c0.4-1.9,0.8-4,1.1-6.1
		c0.7-4.2,1.4-8.8,2-13.3c0.3-2.3,0.6-4.6,0.9-6.8c0.3-2.2,0.6-4.5,0.8-6.6c0.3-2.1,0.6-4.2,0.8-6.2c0.2-2,0.5-3.8,0.7-5.5
		c0.5-3.4,0.9-6.3,1.2-8.3C393.1,330.1,393.3,328.9,393.3,328.9z"/>
</g>
<g>
	<path fill="#434343" d="M157,201.5c0,0-1.2,6.9-2.8,17.2c-0.8,5.2-1.6,11.3-2.4,17.8c-0.4,3.3-0.8,6.6-1.2,10
		c-0.2,1.7-0.4,3.4-0.6,5.2c-0.2,1.7-0.3,3.5-0.5,5.2c-0.4,3.5-0.6,7-0.9,10.4c-0.3,3.4-0.4,6.8-0.6,10.1c-0.2,3.3-0.2,6.4-0.3,9.5
		c-0.1,3,0,5.8,0,8.5c0,0.7,0,1.3,0,1.9c0,0.6,0.1,1.2,0.1,1.8c0.1,1.2,0.1,2.3,0.2,3.4c0.1,1.1,0.1,2.1,0.1,3
		c0.1,0.9,0.2,1.8,0.3,2.5c0.3,3.1,0.5,4.8,0.5,4.8s-0.3-1.7-0.8-4.8c-0.1-0.8-0.3-1.6-0.4-2.5c-0.1-0.9-0.2-1.9-0.3-3
		c-0.1-1.1-0.2-2.2-0.3-3.4c-0.1-0.6-0.1-1.2-0.2-1.8c0-0.6-0.1-1.3-0.1-1.9c-0.1-2.6-0.4-5.5-0.4-8.5c-0.1-3-0.2-6.2-0.2-9.5
		c0-3.3,0-6.7,0.1-10.2c0.1-3.5,0.1-7,0.3-10.5c0.1-1.8,0.1-3.5,0.2-5.3c0.1-1.7,0.2-3.5,0.3-5.2c0.2-3.5,0.4-6.9,0.6-10.2
		c0.5-6.6,1-12.7,1.5-18c0.5-5.3,1-9.6,1.3-12.7c0.4-3.1,0.6-4.8,0.6-4.8L157,201.5z"/>
</g>
<path fill="#434343" d="M141.8,325.7c-0.1-0.7-0.3-1.4-0.4-2.1c-1.8-0.1-10.5-0.9-10.5-3.1c0.1-1.6,1.7-34.1,2.8-56.3
	c-4.2-15.9-9.2-29.6-9.2-29.6s-20.3,8.5-15.3,23.7c0,0-10.2,19.7-1.7,30.2c10.2,12.6-7,46.3,0.1,60.6c6,12.2,41.3,50.5,54.8,59.1
	C159.7,398,143.2,339,141.8,325.7z"/>
<path fill="#676767" d="M411.6,206.4c-0.1-2.6-10.8-114.7-60.6-148.8c-51-34.9-127-37.8-178.8,9.3s-50.5,146.5-50.5,146.5
	c-14.5,21-14.1,27.1-13.1,44.8s43.9,188.3,43.9,188.3s-6.7-48.8-13.7-97.3c-6-41.7,5.3-106.1,8.6-123.3c0,0,28.9-56,113.2-87.9
	c0,0,105.8,26.9,110.9,89.8l1.7-0.9c-0.1,3.9,0.4,8,1.9,12.2c5.5,16.1,11.4,30.6,28.9,30.6c17.5,0,31.7-13.8,31.7-30.7
	C435.7,224.6,424.6,214.7,411.6,206.4z"/>
<g>
	<path fill="#434343" d="M393.9,267.3c0,0,0.2,0.1,0.7,0.2c0.5,0.1,1.2,0.3,2,0.4c1.8,0.3,4.3,0.8,7.4,1.1c1.6,0.2,3.2,0.3,5,0.4
		c1.8,0.1,3.7,0.2,5.6,0.2c2,0,4-0.1,6-0.2c2-0.2,4.1-0.4,6.2-0.8c2.1-0.3,4.1-0.8,6-1.4c1-0.3,1.9-0.6,2.9-1
		c0.9-0.4,1.9-0.7,2.8-1.1c0.9-0.4,1.8-0.8,2.6-1.3c0.8-0.5,1.6-0.9,2.4-1.4c0.8-0.5,1.5-1,2.1-1.5c0.7-0.5,1.3-1,1.9-1.5
		c0.6-0.5,1.2-1,1.7-1.5c0.5-0.5,1-1,1.4-1.5c0.8-1,1.5-1.9,2.1-2.6c1-1.5,1.6-2.4,1.6-2.4s-0.5,0.9-1.5,2.5c-0.5,0.7-1.2,1.7-2,2.7
		c-0.4,0.5-0.9,1-1.3,1.6c-0.5,0.5-1,1.1-1.6,1.6c-0.5,0.6-1.2,1.1-1.9,1.6c-0.6,0.6-1.4,1.1-2.1,1.6c-0.7,0.6-1.5,1-2.4,1.5
		c-0.8,0.5-1.7,0.9-2.6,1.4c-0.9,0.5-1.8,0.8-2.8,1.3c-1,0.4-1.9,0.7-2.9,1.1c-2,0.7-4,1.3-6.1,1.7c-2.1,0.5-4.2,0.8-6.3,1.1
		c-2.1,0.2-4.1,0.4-6.1,0.5c-2,0.1-3.9,0.1-5.8,0.1c-1.8,0-3.6-0.1-5.2-0.2c-3.2-0.2-5.8-0.5-7.7-0.8c-0.9-0.1-1.7-0.3-2.2-0.4
		c-0.5-0.1-0.8-0.1-0.8-0.1L393.9,267.3z"/>
</g>
<g>
	<path fill="#434343" d="M395.7,267.3c0,0,0.3,0,0.7,0c0.5,0,1.2,0,2.1,0c1.8,0,4.4,0,7.5-0.2c1.6-0.1,3.2-0.3,5-0.5
		c1.8-0.2,3.6-0.5,5.6-0.9c1.9-0.4,3.9-0.8,5.9-1.3c2-0.6,4-1.1,5.9-1.9c2-0.7,3.9-1.6,5.7-2.5c0.9-0.5,1.8-1,2.7-1.5
		c0.8-0.5,1.7-1,2.5-1.6c0.8-0.6,1.6-1.1,2.3-1.7c0.7-0.6,1.5-1.2,2.1-1.8c0.7-0.6,1.3-1.2,1.8-1.9c0.6-0.6,1.1-1.2,1.6-1.9
		c0.5-0.6,1-1.2,1.3-1.8c0.4-0.6,0.8-1.2,1.1-1.7c0.7-1.1,1.1-2.1,1.6-2.9c0.7-1.7,1.1-2.7,1.1-2.7s-0.4,1-1,2.7
		c-0.4,0.8-0.8,1.9-1.4,3c-0.3,0.6-0.7,1.2-1,1.8c-0.4,0.6-0.8,1.2-1.3,1.9c-0.4,0.7-1,1.3-1.5,2c-0.5,0.7-1.2,1.3-1.8,2
		c-0.6,0.7-1.3,1.3-2,1.9c-0.7,0.7-1.5,1.2-2.3,1.9c-0.8,0.6-1.6,1.2-2.5,1.8c-0.9,0.6-1.8,1.1-2.7,1.6c-1.8,1-3.7,2-5.7,2.8
		c-2,0.9-4,1.6-6,2.2c-2,0.6-4,1.2-5.9,1.6c-1.9,0.5-3.8,0.8-5.6,1.1c-1.8,0.3-3.5,0.5-5.1,0.7c-3.2,0.4-5.8,0.5-7.7,0.6
		c-0.9,0-1.7,0-2.2,0c-0.5,0-0.8,0-0.8,0L395.7,267.3z"/>
</g>
<g>
	<path fill="#FFFFFF" d="M260,140.9c0,0,0.4-4.3,0.7-10.8c0.1-3.3,0.3-7.1,0.3-11.1c0-2,0-4.1,0-6.3c0-2.1-0.1-4.3-0.1-6.5
		c-0.1-2.2-0.2-4.3-0.3-6.5c-0.2-2.1-0.3-4.2-0.5-6.3c-0.2-2-0.4-4-0.7-5.8c-0.3-1.9-0.5-3.6-0.8-5.2c-0.3-1.6-0.6-3.1-0.8-4.4
		c-0.2-1.3-0.6-2.4-0.8-3.4c-0.4-1.9-0.7-2.9-0.7-2.9s0.3,1,0.9,2.9c0.3,0.9,0.6,2,0.9,3.3c0.3,1.3,0.7,2.8,1.1,4.4
		c0.4,1.6,0.7,3.4,1.1,5.2c0.4,1.8,0.6,3.8,1,5.8c0.3,2,0.6,4.1,0.9,6.3c0.3,2.1,0.5,4.3,0.7,6.5c0.2,2.2,0.4,4.4,0.5,6.5
		c0.1,2.2,0.3,4.3,0.4,6.3c0.2,4.1,0.3,8,0.3,11.2c0.1,6.6-0.1,11-0.1,11L260,140.9z"/>
</g>
<g>
	<path fill="#676767" d="M133.1,311.7c0,0,0.1,0.8,0.1,2.2c0,1.4,0,3.5-0.3,5.9c-0.3,2.4-0.8,5.2-1.6,8.2c-0.4,1.5-0.9,3-1.5,4.5
		c-0.3,0.8-0.6,1.5-0.9,2.3c-0.4,0.7-0.7,1.5-1.1,2.2c-0.8,1.5-1.6,2.9-2.5,4.3c-0.9,1.4-2,2.6-3,3.8c-0.5,0.6-1.1,1.1-1.7,1.6
		c-0.6,0.5-1.1,1-1.7,1.4c-0.6,0.4-1.2,0.8-1.7,1.2c-0.6,0.3-1.2,0.7-1.7,1c-0.6,0.3-1.1,0.5-1.6,0.7c-0.5,0.2-1.1,0.4-1.5,0.5
		c-1,0.3-1.9,0.4-2.5,0.6c-0.7,0.1-1.3,0.1-1.7,0.1c-0.4,0-0.6,0-0.6,0s0.8-0.4,2-0.9c0.3-0.2,0.6-0.4,1-0.6
		c0.4-0.2,0.8-0.4,1.2-0.7c0.4-0.3,0.8-0.5,1.3-0.8c0.4-0.3,0.9-0.6,1.3-1c0.4-0.4,0.9-0.8,1.3-1.2c0.5-0.4,0.9-0.9,1.4-1.3
		c0.4-0.5,0.9-1,1.3-1.5c0.4-0.5,0.9-1.1,1.3-1.6c0.8-1.1,1.7-2.3,2.5-3.6c0.8-1.3,1.5-2.6,2.2-4c2.8-5.5,4.8-11.4,6.4-15.9
		c0.7-2.3,1.3-4.2,1.8-5.5C132.9,312.5,133.1,311.7,133.1,311.7z"/>
</g>
<g>
	<path fill="#676767" d="M133.9,256.3c0,0,0.1,0.8,0.1,2.2c0,1.4,0,3.5-0.3,5.9c-0.3,2.4-0.8,5.2-1.6,8.2c-0.4,1.5-0.9,3-1.5,4.5
		c-0.3,0.8-0.6,1.5-0.9,2.3c-0.4,0.7-0.7,1.5-1.1,2.2c-0.8,1.5-1.6,2.9-2.5,4.3c-0.9,1.4-2,2.6-3,3.8c-0.5,0.6-1.1,1.1-1.7,1.6
		c-0.6,0.5-1.1,1-1.7,1.4c-0.6,0.4-1.2,0.8-1.7,1.2c-0.6,0.3-1.2,0.7-1.7,1c-0.6,0.3-1.1,0.5-1.6,0.7c-0.5,0.2-1.1,0.4-1.5,0.5
		c-1,0.3-1.9,0.4-2.5,0.6c-0.7,0.1-1.3,0.1-1.7,0.1c-0.4,0-0.6,0-0.6,0s0.8-0.4,2-0.9c0.3-0.2,0.6-0.4,1-0.6
		c0.4-0.2,0.8-0.4,1.2-0.7c0.4-0.3,0.8-0.5,1.3-0.8c0.4-0.3,0.9-0.6,1.3-1c0.4-0.4,0.9-0.8,1.3-1.2c0.5-0.4,0.9-0.9,1.4-1.3
		c0.4-0.5,0.9-1,1.3-1.5c0.4-0.5,0.9-1.1,1.3-1.6c0.8-1.1,1.7-2.3,2.5-3.6c0.8-1.3,1.5-2.6,2.2-4c2.8-5.5,4.8-11.4,6.4-15.9
		c0.7-2.3,1.3-4.2,1.8-5.5C133.6,257.1,133.9,256.3,133.9,256.3z"/>
</g>
</svg>
