<?xml version="1.0" encoding="utf-8"?>
<!-- Generator: Adobe Illustrator 18.1.0, SVG Export Plug-In . SVG Version: 6.00 Build 0)  -->
<svg version="1.1" id="Layer_1" xmlns="http://www.w3.org/2000/svg" xmlns:xlink="http://www.w3.org/1999/xlink" x="0px" y="0px"
	 viewBox="0 0 512.9 512.9" enable-background="new 0 0 512.9 512.9" xml:space="preserve">
<g>
	<g>
		<path d="M143,318.9L143,318.9c-1.6-2.2-3.3-4.3-5.3-6.1c-1-0.9-2-1.8-3.2-2.5c-1.1-0.7-2.4-1.3-3.7-1.4c-0.6-0.1-1.3,0-1.9,0.2
			c-0.6,0.2-1,0.7-1.4,1.2c-0.7,1.1-1,2.4-1.3,3.8c-0.5,2.7-0.5,5.4-0.5,8.1c0.1,5.4,0.8,10.8,1.7,16.2c0.9,5.3,2.2,10.6,3.8,15.8
			c0.8,2.6,1.7,5.1,2.6,7.7c0.9,2.6,1.6,5.2,2.3,7.9c1.4,5.3,2.3,10.7,3.6,15.9c0.7,2.6,1.6,5.1,3,7.2c0.7,1,1.6,1.9,2.6,2.6
			c0.5,0.3,1,0.6,1.6,0.8c0.6,0.2,1.1,0.4,1.8,0.5c2.6,0.7,5.2,1.3,7.8,1.5c1.3,0.1,2.6,0.1,3.7-0.2c0.6-0.1,1-0.3,1.3-0.6
			c0.3-0.3,0.5-0.5,0.6-0.9l1.3-5.1l1.4,5.1c3.1,11.4,6.5,22.8,10.4,34c1.9,5.6,4,11.1,6.4,16.5c1.2,2.7,2.5,5.3,3.9,7.8
			c0.7,1.3,1.5,2.5,2.3,3.6c0.4,0.6,0.8,1.1,1.3,1.7l0.7,0.7c0.2,0.3,0.4,0.5,0.7,0.7l0.7,0.6l0.9,0.7l1.8,1.3l3.6,2.7l7.1,5.4
			c4.7,3.6,9.5,7.2,14.3,10.7c4.8,3.5,9.6,7,14.5,10.3c1.2,0.8,2.5,1.6,3.7,2.4l1.9,1.2l1.9,1.1c1.3,0.8,2.5,1.4,3.8,2.1l1.9,0.8
			c0.7,0.3,1.4,0.5,2.1,0.7c11.1,3.6,23.1,4.8,34.7,3.1c11.6-1.6,22.8-6.3,32.2-13.4c1.2-0.8,2.3-1.8,3.5-2.7c1.1-0.9,2.3-2,3.3-2.9
			c2-2.2,4-4.4,6-6.6c4-4.4,7.9-8.9,11.6-13.5c3.7-4.6,7.3-9.3,10.5-14.3c3.3-4.9,5.3-10.5,6.9-16.2c1.6-5.7,2.9-11.5,4.2-17.3
			l3.5-17.5c0.3-1.5,0.6-2.9,0.9-4.4l0.5-2.2c0.1-0.6,0.3-1.5,0.4-2.1c0.3-2.8,0.4-5.8,0.5-8.8c0.1-5.9-0.1-11.9-0.4-17.8
			c-0.6-11.9-1.6-23.7-2.9-35.5c-1.3-11.8-3-23.5-5.4-35.2c-1.2-5.8-2.5-11.6-4.1-17.2c-1.6-5.7-3.5-11.2-6-16.5
			c-2.4-5.2-5.6-10.2-9.1-14.9c-3.5-4.7-7.4-9.1-11.5-13.3c-4.1-4.2-8.5-8.2-12.9-12.2c-4.4-4-9-7.8-13.3-12.1
			c-1.1-1.1-2.1-2.2-3.2-3.4c-1-1.2-2-2.5-2.8-4.1l-0.3-0.6c-0.1-0.2-0.2-0.4-0.2-0.6c-0.2-0.4-0.3-0.8-0.4-1.4
			c-0.1-0.5-0.2-1-0.2-1.5l0-0.8c0-0.1,0-0.3,0-0.4l0-0.3c0.2-1.5,0.4-3,0.7-4.5c1.1-6,2.7-11.8,4.6-17.6l4,1.4l-3.8,10.6l-0.3,0.7
			l-0.6,0.4c-2.4,1.4-4.7,2.5-7,3.7c-2.4,1.1-4.7,2.2-7.1,3.1c-4.8,2-9.6,3.8-14.5,5.4c-4.9,1.7-9.8,3.1-14.8,4.5
			c-2.5,0.7-5,1.3-7.5,2c-2.5,0.6-5,1.2-7.5,1.8c-2.5,0.6-5,1.1-7.5,1.6l-3.7,0.8l-3.7,0.8l-3.7,0.8c-1.2,0.3-2.4,0.7-3.6,1
			c-2.4,0.7-4.9,1.3-7.2,2.2c-2.4,0.8-4.8,1.6-7.1,2.6l-3.5,1.4c-1.2,0.5-2.3,1.1-3.4,1.6l-3.4,1.6l-3.3,1.8
			c-2.3,1.1-4.3,2.6-6.5,3.9c-1.1,0.7-2.1,1.5-3.1,2.2c-1,0.7-2.1,1.5-3,2.3l-2.9,2.4l-2.7,2.6c-3.5,3.6-6.6,7.6-8.7,12.1
			c-0.3,0.5-0.5,1.1-0.7,1.7c-0.2,0.6-0.4,1.2-0.6,1.7c-0.2,1.2-0.5,2.3-0.6,3.6c-0.3,2.5-0.6,5.1-0.9,7.6l-1.5,15.3
			c-1,10.2-1.9,20.4-2.8,30.6c-0.2,2.6-0.5,5.1-0.6,7.7c-0.1,1.3-0.3,2.6-0.6,3.8c-0.3,1.3-0.7,2.5-1.3,3.7
			c-0.3,0.6-0.7,1.1-1.2,1.6c-0.5,0.4-1.2,0.7-1.9,0.7c-0.7,0-1.3-0.3-1.9-0.6c-0.6-0.3-1.1-0.7-1.6-1.2
			C145.8,323.2,144.3,321.1,143,318.9z M143.3,318.7c1.4,2.1,2.9,4.2,4.7,5.9c0.9,0.8,2,1.6,3.2,1.6c0.6,0,1.1-0.2,1.6-0.6
			c0.4-0.4,0.8-0.9,1.1-1.5c1.1-2.2,1.5-4.8,1.7-7.3l0.6-7.7l2.2-30.6l1.2-15.3c0.2-2.5,0.4-5.1,0.7-7.7c0.1-1.3,0.4-2.6,0.6-3.9
			c0.2-0.6,0.4-1.3,0.6-1.9c0.2-0.6,0.4-1.3,0.7-1.9c2.1-4.9,5.3-9.1,8.8-12.9l2.7-2.8l2.9-2.6c1-0.9,2-1.7,3-2.5
			c1-0.8,2-1.6,3.1-2.3c2.2-1.4,4.3-3,6.6-4.2l3.4-2l3.5-1.7c1.2-0.6,2.3-1.2,3.5-1.7l3.6-1.5c2.4-1.1,4.8-1.9,7.3-2.8
			c2.4-0.9,4.9-1.6,7.4-2.4c1.2-0.4,2.5-0.8,3.7-1.1l3.7-0.9l3.7-0.9l3.8-0.9c2.5-0.6,5-1.1,7.4-1.7c4.9-1.2,9.9-2.5,14.8-3.9
			c4.9-1.4,9.8-2.9,14.6-4.5c4.8-1.6,9.6-3.4,14.2-5.4c2.3-1,4.6-2,6.9-3.1c2.2-1.1,4.6-2.3,6.6-3.5l-0.9,1.1l3.8-10.6l4,1.4
			c-1.9,5.5-3.4,11.2-4.5,16.9c-0.3,1.4-0.5,2.8-0.7,4.3l0,0.3c0,0.1,0,0.1,0,0.2c0,0.1,0,0.2,0,0.3c0,0.2,0.1,0.5,0.1,0.7
			c0,0.2,0.2,0.5,0.2,0.8c0.1,0.1,0.1,0.3,0.1,0.4l0.2,0.4c0.5,1.1,1.4,2.2,2.3,3.3c0.9,1.1,1.9,2.1,2.9,3.2c4.1,4.1,8.6,8,13,12
			c4.4,4,8.8,8.1,13,12.4c8.3,8.7,15.9,18.3,21.1,29.4c2.5,5.5,4.5,11.3,6,17.1c1.6,5.8,2.9,11.7,4,17.5c2.2,11.8,3.8,23.6,5,35.5
			c1.2,11.9,1.9,23.8,2.3,35.7c0.2,6,0.2,11.9,0.1,17.9c-0.1,3-0.2,6-0.6,9c-0.1,0.8-0.3,1.5-0.4,2.3l-0.6,2.1
			c-0.3,1.4-0.7,2.9-1,4.3l-3.7,17.5c-1.2,5.8-2.6,11.6-4.3,17.4c-0.4,1.4-0.9,2.9-1.3,4.3c-0.5,1.4-1,2.9-1.6,4.2
			c-0.5,1.4-1.3,2.8-1.9,4.1c-0.8,1.3-1.5,2.6-2.3,3.9c-3.3,5-6.9,9.7-10.7,14.4c-3.7,4.6-7.6,9.2-11.6,13.6c-2,2.2-4,4.4-6,6.6
			c-1.2,1.1-2.2,2-3.4,3c-1.2,0.9-2.3,1.9-3.5,2.8c-9.6,7.3-20.9,12.3-32.8,14.2c-11.9,2-24.3,1-35.9-2.6c-0.7-0.2-1.4-0.5-2.2-0.7
			l-2.2-0.9c-1.4-0.7-2.8-1.4-4-2.1l-2-1.1l-1.9-1.2c-1.3-0.8-2.5-1.6-3.8-2.4c-5-3.3-9.9-6.6-14.8-10.1c-4.9-3.5-9.7-7-14.4-10.5
			l-7.1-5.4l-3.6-2.7l-1.8-1.3l-0.9-0.7c-0.3-0.2-0.6-0.5-1-0.8c-0.3-0.3-0.6-0.6-0.9-0.9l-0.8-0.9c-0.5-0.6-1-1.2-1.4-1.9
			c-0.9-1.3-1.7-2.6-2.5-3.9c-1.5-2.7-2.8-5.4-4-8.2c-2.4-5.5-4.5-11.2-6.4-16.8c-1.9-5.7-3.6-11.4-5.3-17.1
			c-1.7-5.7-3.2-11.5-4.6-17.3l2.7,0c-0.2,0.9-0.9,1.9-1.6,2.4c-0.8,0.6-1.6,0.9-2.4,1c-1.6,0.3-3,0.2-4.5,0.1
			c-2.8-0.3-5.6-1-8.2-1.7c-0.6-0.2-1.4-0.4-2.1-0.7c-0.7-0.3-1.4-0.7-2-1.1c-1.3-0.9-2.3-2-3.1-3.2c-1.6-2.5-2.4-5.2-3.1-7.9
			c-1.3-5.4-2.1-10.7-3.3-16c-0.6-2.6-1.3-5.3-2.1-7.8c-0.8-2.6-1.8-5.2-2.5-7.8c-1.5-5.3-2.6-10.6-3.5-16
			c-0.9-5.4-1.5-10.8-1.5-16.3c0-2.7,0.1-5.5,0.5-8.2c0.3-1.3,0.6-2.7,1.4-3.9c0.4-0.6,1-1.2,1.6-1.4c0.7-0.3,1.4-0.3,2.1-0.2
			c1.4,0.1,2.7,0.8,3.9,1.5c1.2,0.7,2.2,1.6,3.2,2.5C139.9,314.4,141.7,316.5,143.3,318.7L143.3,318.7L143.3,318.7z"/>
	</g>
	<path d="M143.1,318.8c0,0-15.2-59.9-6.1-100.1c9.1-40.2,28.1-83.4,28.8-93.3c0,0,8.3-19.7,17.4-27.3c0,0-18.2,1.5-24.3,21.2
		c0,0,8.3-49.3,32.6-58.4c0,0-9.9-3.8-18.2,3c-8.3,6.8,25.8-34.9,61.4-15.2c0,0-30.3-21.2-35.6-19.7c0,0,35.6,10.6,43.2,25
		c0,0-12-22.7-15.7-29.6s18,23.5,28.6,32.6c0,0,0.8-27.9-10.6-50.6c0,0,21.2,43,19.7,64.3c0,0,29.6-100.1,130.4-54.6
		c0,0-59.9-15.2-91.7,35.6c0,0,73.5-49.3,108.4-1.5c0,0-30.3-49.3-114.5,17.4c0,0,56.9-3.8,83.4,44c0,0,45.5,53.8,47.8,113.7
		c0,0,26.5,125.1-59.1,150.9c0,0-1.5-95.5-23.5-123.6c0,0-11.4-22-43.2-46.3c0,0-11.4-3-2.3-29.6c0,0,6.8,12.9-62.9,29.6
		c0,0-43.2,5.3-69.8,34.9c0,0-6.5,2.3-7.6,30.3c-1,26.1,1.5,56.4-12.9,52.3C132.2,319.9,143.1,318.8,143.1,318.8z"/>
	<g>
		<path d="M183.7,301.7c1.4-0.9,2.8-1.7,4.3-2.5l4.3-2.5c2.9-1.6,5.8-3.2,8.7-4.8l0.1-0.1l0.2,0c1.1-0.1,2.2,0,3.4,0
			c1.1,0,2.2,0.1,3.3,0.1c2.2,0.1,4.4,0.4,6.6,0.7c1.1,0.2,2.2,0.4,3.3,0.5c1.1,0.2,2.2,0.5,3.3,0.7c1.1,0.2,2.2,0.5,3.2,0.8
			c1.1,0.3,2.1,0.6,3.2,1c1,0.4,2.1,0.7,3.1,1.1l3.1,1.3c1,0.4,2,1,3,1.4c1,0.5,2,1,2.9,1.6l2.8,1.7c0.9,0.6,1.8,1.3,2.7,2l1.3,1
			l1.2,1.1c0.8,0.7,1.6,1.5,2.4,2.2c-0.9-0.6-1.8-1.3-2.7-1.9l-1.3-1l-1.4-0.8l-2.8-1.7l-2.9-1.5c-1-0.5-2-0.9-3-1.4
			c-1-0.4-2-0.9-3-1.3l-3.1-1.1c-1-0.4-2.1-0.7-3.1-1c-1-0.3-2.1-0.6-3.1-0.9c-1-0.3-2.1-0.6-3.2-0.8c-1.1-0.2-2.1-0.5-3.2-0.7
			c-1.1-0.2-2.1-0.4-3.2-0.6c-1.1-0.1-2.1-0.3-3.2-0.4c-1.1-0.1-2.2-0.3-3.2-0.3c-2.2-0.2-4.3-0.3-6.5-0.3l0.3-0.1
			c-3,1.4-6,2.9-9,4.3l-4.5,2.1C186.7,300.4,185.2,301.1,183.7,301.7z"/>
	</g>
	<g>
		<path d="M287.2,304.6c1.9-0.9,3.8-1.8,5.8-2.6c1.9-0.9,3.9-1.7,5.8-2.5c3.9-1.6,7.8-3.2,11.8-4.7c2-0.8,4-1.5,5.9-2.2l3-1.1
			c1-0.4,2-0.7,3-1c1-0.3,2-0.7,3-1c1-0.3,2-0.6,3-0.9c1-0.3,2-0.6,3.1-0.8c0.5-0.1,1-0.3,1.6-0.3l1.7-0.2l0.1,0l0.1,0
			c0.9,0.2,1.7,0.5,2.5,0.8c0.8,0.3,1.6,0.6,2.4,0.9c0.8,0.3,1.6,0.7,2.3,1.1c0.8,0.4,1.5,0.8,2.3,1.2c0.4,0.2,0.7,0.4,1.1,0.7
			l1.1,0.7l1,0.8c0.3,0.2,0.7,0.5,1,0.8l1,0.8l0.9,0.9c0.6,0.6,1.2,1.2,1.8,1.8c-0.7-0.5-1.3-1.1-2-1.6l-1-0.8l-1.1-0.7
			c-1.4-0.9-2.9-1.7-4.4-2.5c-1.5-0.7-3-1.4-4.6-2c-0.8-0.3-1.6-0.5-2.4-0.8c-0.8-0.2-1.6-0.5-2.4-0.6l0.2,0l-1.5,0.3
			c-0.5,0.1-1,0.3-1.5,0.4c-1,0.2-2,0.6-3,0.9c-2,0.6-4,1.3-6,1.9l-6,2l-6,2.1l-11.9,4.1c-2,0.7-4,1.4-6,2
			C291.2,303.3,289.2,304,287.2,304.6z"/>
	</g>
	<g>
		<path d="M236,437.7l14.8-1.6c2.5-0.3,4.9-0.6,7.4-0.9c1.2-0.2,2.5-0.3,3.7-0.6c0.6-0.1,1.2-0.2,1.8-0.3c0.6-0.1,1.2-0.3,1.8-0.4
			l0.2,0l0.1,0c3.2,1.1,6.5,2.2,9.7,3.4l-0.4,0l6.8-3.9l0.2-0.1l0.2,0c2.2,0.5,4.3,0.8,6.5,1.2c2.2,0.4,4.4,0.7,6.6,0.9
			c2.2,0.2,4.4,0.4,6.6,0.3c1.1,0,2.2-0.1,3.3-0.3c0.5-0.1,1.1-0.2,1.6-0.4c0.5-0.2,1-0.4,1.5-0.7c-0.4,0.3-0.9,0.6-1.4,0.8
			c-0.5,0.2-1.1,0.4-1.6,0.5c-1.1,0.2-2.2,0.4-3.3,0.5c-2.2,0.2-4.5,0.1-6.7-0.1c-4.4-0.3-8.8-0.9-13.2-1.8l0.3-0.1l-6.8,4l-0.2,0.1
			l-0.2-0.1c-3.2-1.1-6.4-2.3-9.7-3.4l0.3,0c-0.6,0.2-1.2,0.3-1.9,0.5c-0.6,0.1-1.2,0.2-1.9,0.3c-1.2,0.2-2.5,0.4-3.7,0.5
			c-2.5,0.3-4.9,0.5-7.4,0.7c-2.5,0.2-5,0.4-7.4,0.6C241,437.4,238.5,437.6,236,437.7z"/>
	</g>
	<g>
		<path d="M242.8,440.5c0,0,0.8,0.6,2.3,1.6c0.7,0.5,1.6,1.1,2.6,1.7c1,0.7,2.2,1.4,3.5,2.1c1.3,0.8,2.7,1.6,4.2,2.3
			c0.8,0.4,1.5,0.8,2.4,1.2c0.8,0.4,1.6,0.8,2.5,1.1c1.7,0.7,3.5,1.3,5.4,1.8c1.9,0.4,3.8,0.6,5.8,0.6c2,0,4-0.1,5.9-0.3
			c1.9-0.2,3.8-0.6,5.6-1.1c1.8-0.6,3.5-1.1,5-1.9c1.5-0.7,2.9-1.5,4.2-2.3c1.2-0.8,2.4-1.6,3.3-2.3c1-0.7,1.8-1.4,2.5-2
			c1.3-1.1,2.1-1.8,2.1-1.8s-0.7,0.7-2,1.9c-0.7,0.6-1.4,1.3-2.4,2.1c-0.5,0.4-1,0.8-1.5,1.2c-0.6,0.4-1.1,0.8-1.8,1.3
			c-1.3,0.8-2.6,1.7-4.2,2.5c-1.5,0.8-3.2,1.5-5.1,2.1c-1.8,0.5-3.7,0.9-5.7,1.2c-2,0.3-4,0.3-6,0.3c-2,0-4.1-0.2-6-0.7
			c-1.9-0.5-3.8-1.2-5.5-1.9c-0.9-0.4-1.7-0.7-2.5-1.2c-0.8-0.4-1.6-0.8-2.3-1.2c-1.5-0.8-2.9-1.7-4.2-2.5c-1.3-0.8-2.4-1.6-3.4-2.3
			c-1-0.7-1.8-1.3-2.5-1.9C243.6,441.1,242.8,440.5,242.8,440.5z"/>
	</g>
	<path d="M230.3,431.8c0,0-1.9,5.3-3.4,5.3s6.1-0.4,6.1-0.4L230.3,431.8z"/>
	<g>
		<g>
			<circle fill="none" stroke="#000000" stroke-width="3" stroke-miterlimit="10" cx="214.4" cy="336.2" r="32.6"/>
			<circle fill="none" stroke="#000000" stroke-width="3" stroke-miterlimit="10" cx="318.3" cy="336.2" r="32.6"/>
			<rect x="246.6" y="327.7" width="39" height="7.3"/>
			<path d="M156.4,319.6l28.8,2.7c0,0-4.2,7.6-3.4,14l-30.3-9.9L156.4,319.6z"/>
		</g>
		<path d="M346.3,319.6l15.9-9.1l2.3,19.7l-13.6,6.1C350.9,336.2,349.4,321.8,346.3,319.6z"/>
	</g>
</g>
</svg>
