<?xml version="1.0" encoding="utf-8"?>
<!-- Generator: Adobe Illustrator 18.1.0, SVG Export Plug-In . SVG Version: 6.00 Build 0)  -->
<svg version="1.1" id="Layer_1" xmlns="http://www.w3.org/2000/svg" xmlns:xlink="http://www.w3.org/1999/xlink" x="0px" y="0px"
	 viewBox="0 0 512.9 512.9" enable-background="new 0 0 512.9 512.9" xml:space="preserve">
<g>
	<path fill="#454545" d="M77.9,260.9l18.8,26.5c0,0,9.2-154.7,28.5-167.9s33.6-41.2,88.5-29s115,0.5,125.2-7.1
		c0,0,60,17.8,63.6,149.6l3.1,44.3c0,0,24.4-23.4,25.9-35.1S431,180,415.2,148S365.4,56.9,314,45.7s-74.8-14.2-125.2,4.1
		S86.6,122.5,82,197.8C82,197.8,75.4,248.2,77.9,260.9z"/>
	<g>
		<path fill="#020202" d="M77.6,260.6c-0.2-4.3-0.3-8.5-0.3-12.8c0-4.3,0.1-8.7,0.3-13c0.2-4.3,0.4-8.7,0.7-13
			c0.3-4.3,0.7-8.7,1.2-13c0.5-4.3,1-8.7,1.7-13c0.3-2.2,0.7-4.3,1-6.5c0.4-2.1,0.7-4.3,1.2-6.4c0.4-2.1,0.8-4.3,1.3-6.4l1.5-6.4
			c1.1-4.2,2.1-8.5,3.4-12.7c1.2-4.2,2.6-8.3,4-12.5l2.3-6.2c0.8-2.1,1.7-4,2.5-6.1c0.4-1,0.8-2,1.3-3l1.4-3l1.4-3l0.7-1.5l0.8-1.5
			l3.1-5.8l3.4-5.6c1.1-1.9,2.4-3.7,3.7-5.5l1.9-2.7c0.6-0.9,1.4-1.7,2-2.6c1.4-1.7,2.7-3.5,4.2-5.2l4.5-4.9
			c0.7-0.8,1.6-1.6,2.4-2.3l2.4-2.3c0.8-0.8,1.6-1.6,2.4-2.3l2.6-2.1c1.7-1.4,3.4-2.9,5.2-4.1l5.5-3.8l-0.3,0.2
			c2.4-2,4.8-3.7,7.3-5.5c2.5-1.7,5-3.4,7.5-5c2.5-1.6,5.1-3.1,7.7-4.6c2.6-1.5,5.3-2.9,7.9-4.3c2.7-1.3,5.4-2.7,8.1-3.9
			c2.7-1.2,5.5-2.4,8.3-3.5c1.4-0.6,2.8-1.1,4.2-1.6c1.4-0.5,2.8-1.1,4.2-1.5l4.3-1.4l4.3-1.3c1.4-0.4,2.9-0.8,4.4-1.2
			c1.5-0.4,2.9-0.8,4.4-1.1c1.5-0.3,2.9-0.7,4.4-1l4.4-0.8c1.5-0.3,3-0.4,4.5-0.7c1.5-0.2,3-0.4,4.5-0.6l4.5-0.5l4.5-0.3
			c0.8,0,1.5-0.1,2.3-0.1l2.3,0c1.5,0,3-0.1,4.5-0.1c3,0.1,6,0.1,9,0.4c1.5,0.1,3,0.2,4.5,0.4l4.5,0.6c0.7,0.1,1.5,0.2,2.2,0.3
			l2.2,0.4l4.4,0.8l-0.3,0c3.1,0.3,5.9,0.7,8.9,1.3c1.4,0.3,2.9,0.6,4.3,0.9c1.4,0.3,2.9,0.7,4.3,1c5.7,1.5,11.3,3.3,16.8,5.3
			c5.5,2,10.8,4.5,16.1,7.1l3.9,2.1l1.9,1l1.9,1.1l3.8,2.2c1.2,0.8,2.5,1.6,3.7,2.4c4.9,3.2,9.6,6.7,14.1,10.4
			c1.2,0.9,2.2,1.9,3.3,2.8l3.3,2.9c2.2,2,4.2,4.1,6.3,6.1c2,2.1,4,4.2,6,6.4c1.9,2.2,3.8,4.4,5.7,6.7c1,1.1,1.8,2.3,2.7,3.4
			l2.6,3.5l1.3,1.7l1.2,1.8l2.5,3.6c1.7,2.4,3.2,4.9,4.7,7.4l2.3,3.7c0.7,1.3,1.4,2.6,2.1,3.8l2,3.9c0.7,1.3,1.4,2.6,2,3.9l3.7,7.9
			c1.2,2.7,2.2,5.4,3.3,8.1c0.5,1.4,1.1,2.7,1.6,4.1l1.4,4.1l1.4,4.1c0.5,1.4,1,2.7,1.4,4.1l2.5,8.4c0.9,2.8,1.5,5.6,2.2,8.4
			c0.7,2.8,1.4,5.6,2,8.5c0.5,2.9,1,5.7,1.5,8.6c0.4,2.9,0.8,5.8,1.1,8.7c0.7,5.8,1.1,11.6,1.4,17.4c0,2.9,0.2,5.8,0.1,8.8l-0.3,8.8
			l-1.6-1.5c0.9-0.1,1.6,0,2.4,0c0.8,0.1,1.6,0.2,2.3,0.4c1.5,0.4,3.1,1.2,4.3,2.3c1.3,1.1,2.2,2.6,2.7,4.2c0.2,0.4,0.2,0.8,0.3,1.2
			c0.1,0.4,0.2,0.8,0.2,1.2l0.1,1.2l0,0.6l0,0.6c0,0.7,0,1.4-0.1,2.1l-0.3,2.2c-0.2,1.4-0.4,2.9-0.7,4.3c-0.5,2.8-1.1,5.6-1.7,8.4
			c-0.6,2.8-1.3,5.5-1.9,8.3l-2,8.3l-2,8.2c-0.6,2.7-1.3,5.5-1.8,8.1c-0.1,0.6-0.2,1.2-0.2,1.9l0,2.1l0,4.3c0,2.8-0.1,5.7-0.3,8.6
			c-0.3,5.7-0.8,11.5-1.8,17.2c-0.5,2.9-1.1,5.7-1.9,8.5c-0.8,2.8-1.8,5.6-3.3,8.4c-1.4,2.7-3.3,5.4-6.1,7.4
			c-0.4,0.2-0.7,0.5-1.1,0.7l-1.1,0.6c-0.7,0.4-1.6,0.6-2.4,0.9c-0.8,0.2-1.7,0.3-2.6,0.4c-0.8,0-1.7,0-2.5,0l2.8-2.5
			c-0.1,2.4-0.3,4.5-0.6,6.7c-0.3,2.2-0.6,4.4-1,6.6c-0.8,4.3-1.8,8.6-3.1,12.9c-0.6,2.1-1.3,4.2-2,6.3c-0.8,2.1-1.5,4.2-2.3,6.2
			c-1.7,4.1-3.5,8.1-5.6,12c-1,2-2.1,3.9-3.2,5.8l-1.7,2.8c-0.6,1-1.2,1.8-1.8,2.8c-1.2,1.8-2.5,3.7-3.8,5.4
			c-1.4,1.8-2.6,3.6-4.1,5.2l-2.2,2.5l-1.1,1.3l-1.2,1.2c-1.6,1.6-3.1,3.2-4.7,4.7l-5,4.4c-1.7,1.4-3.5,2.8-5.2,4.1l-1.3,1l-1.4,0.9
			l-2.7,1.9l-2.8,1.9l-2.9,1.7l-2.9,1.7c-1,0.6-1.9,1.1-2.9,1.6l-5.9,3c-1,0.5-2,0.9-3,1.3l-3.1,1.3l-3.1,1.3
			c-1,0.4-2.1,0.7-3.1,1.1l-6.3,2.1c-2.1,0.7-4.3,1.2-6.4,1.7c-4.2,1.2-8.6,2-12.9,2.8c-2.2,0.5-4.3,0.7-6.5,1l-6.5,0.9
			c-4.4,0.4-8.7,0.7-13.1,1.1l-13.1,0.3l0.3,0c-2.3,0.1-4.4,0.2-6.6,0.2c-2.2,0-4.3-0.1-6.5-0.1c-4.3-0.2-8.6-0.5-12.8-1
			c-2.1-0.3-4.3-0.5-6.4-0.8l-3.2-0.5l-3.2-0.5c-1.1-0.2-2.1-0.4-3.2-0.6l-3.1-0.6c-2.1-0.4-4.2-0.9-6.3-1.4
			c-2.1-0.5-4.2-1.1-6.2-1.6c-1-0.3-2.1-0.6-3.1-0.9l-3.1-1l-3.1-1l-3-1.1c-2-0.7-4-1.5-6-2.3c-4-1.6-7.9-3.5-11.7-5.4l-5.7-3.1
			c-1.9-1.1-3.7-2.2-5.5-3.3c-1.9-1.1-3.6-2.4-5.4-3.6l-2.7-1.8c-0.9-0.6-1.7-1.3-2.6-2l-2.5-2c-0.9-0.7-1.7-1.3-2.5-2l-4.8-4.3
			c-1.6-1.5-3.1-3-4.6-4.6c-0.7-0.8-1.5-1.5-2.2-2.3l-2.1-2.4l-2.1-2.4l-1.1-1.2c-0.3-0.4-0.7-0.9-1-1.3l-3.9-5.1
			c-0.7-0.8-1.2-1.8-1.8-2.7l-1.8-2.7l-1.8-2.7c-0.6-0.9-1.1-1.9-1.6-2.8l-3.2-5.6c-1-1.9-1.9-3.9-2.8-5.8c-2-3.8-3.4-7.9-5-11.8
			c-0.8-2-1.4-4-2.1-6.1l-1.9-6.1l2,1.5c-1.6,0-2.9-0.1-4.4-0.3c-1.4-0.2-2.9-0.5-4.3-1c-1.4-0.5-2.8-1-4.1-1.9
			c-1.3-0.8-2.5-1.9-3.5-3.1c-0.4-0.7-1-1.3-1.2-2.1l-0.5-1.1l0,0c0,0.1,0-0.1,0-0.1l0-0.1l0-0.1l-0.1-0.2l-0.1-0.5l-0.3-1l-0.2-1.1
			c-0.1-0.7-0.3-1.4-0.4-2.1c-0.5-2.7-0.9-5.4-1.3-8.1c-0.8-5.4-1.5-10.7-2.4-16.1c-0.4-2.7-0.9-5.3-1.4-8l-0.8-4l-0.9-3.9
			c-0.3-1.3-0.7-2.6-1-3.9c-0.4-1.3-0.8-2.5-1.2-3.8c-0.2-0.6-0.5-1.2-0.7-1.8c-0.3-0.6-0.5-1.2-0.8-1.8l-0.9-1.7
			c-0.3-0.6-0.7-1.2-1-1.8c-1.4-2.5-2.4-5.1-3.2-7.7c-0.8-2.6-1.5-5.3-2-8c-0.5-2.7-0.9-5.4-1.1-8.1c-0.2-2.7-0.3-5.5-0.1-8.2
			c0.2-2.7,0.6-5.5,1.6-8.1c0.5-1.3,1.2-2.6,2.3-3.5C75,261.2,76.3,260.7,77.6,260.6z M77.9,261.2c-1.3,0-2.5,0.5-3.4,1.5
			c-0.9,0.9-1.5,2.1-2,3.3c-0.9,2.5-1.1,5.2-1.3,7.8c-0.1,5.4,0.6,10.7,1.7,16c0.6,2.6,1.3,5.2,2.2,7.7c0.9,2.5,2,5,3.3,7.2
			c0.3,0.6,0.7,1.1,1.1,1.7l1.1,1.8c0.4,0.6,0.6,1.3,0.9,1.9c0.3,0.6,0.6,1.3,0.9,1.9c0.5,1.3,1,2.6,1.4,3.9c0.4,1.3,0.8,2.6,1.2,4
			l1,4l0.9,4c0.6,2.7,1.1,5.3,1.6,8c1,5.4,1.8,10.7,2.7,16.1c0.4,2.7,0.9,5.3,1.4,7.9c0.1,0.7,0.3,1.2,0.4,1.9l0.2,0.9l0.3,1
			l0.1,0.5l0.1,0.2l0,0.1l0,0.1c0,0,0-0.1,0-0.1l0,0l0.4,0.7c0.2,0.5,0.6,0.9,0.9,1.4c1.4,1.7,3.5,2.9,5.9,3.6
			c1.2,0.4,2.4,0.6,3.7,0.8c1.2,0.2,2.6,0.2,3.7,0.2l1.5,0l0.5,1.5l2,5.9c0.7,2,1.3,4,2.1,5.9c1.6,3.8,3.1,7.7,5,11.4
			c0.9,1.9,1.8,3.7,2.8,5.6l3.1,5.4c0.5,0.9,1,1.8,1.6,2.7l1.7,2.6l1.7,2.6c0.6,0.9,1.1,1.7,1.8,2.5l3.8,4.9c0.3,0.4,0.6,0.8,1,1.2
			l1,1.2l2.1,2.3l2.1,2.3c0.7,0.8,1.5,1.5,2.2,2.2c1.5,1.4,2.9,2.9,4.5,4.3l4.7,4c0.8,0.7,1.6,1.3,2.4,1.9l2.5,1.9
			c0.8,0.6,1.6,1.3,2.5,1.9l2.6,1.7c1.7,1.1,3.4,2.4,5.2,3.4c1.8,1,3.5,2.1,5.3,3.1l5.5,2.9c3.7,1.8,7.5,3.5,11.3,5
			c1.9,0.8,3.9,1.5,5.8,2.2l2.9,1.1l3,0.9l3,0.9c1,0.3,2,0.6,3,0.8c2,0.6,4,1.1,6,1.6c2,0.5,4,1,6.1,1.3l3.1,0.6
			c1,0.2,2,0.3,3.1,0.5l3.1,0.5l3.1,0.4c2.1,0.3,4.1,0.5,6.2,0.7c4.1,0.4,8.3,0.7,12.4,0.8c2.1,0.1,4.1,0.1,6.2,0.1
			c2,0,4.2-0.1,6.1-0.2l0.1,0l0.2,0l12.8-0.3c4.2-0.3,8.5-0.6,12.7-1l6.3-0.9c2.1-0.3,4.2-0.5,6.3-1c4.2-0.8,8.4-1.5,12.4-2.7
			c2-0.6,4.1-1,6.1-1.7l6-2c1-0.4,2-0.6,3-1l2.9-1.2l2.9-1.2c1-0.4,2-0.8,2.9-1.3l5.7-2.8c1-0.4,1.9-1,2.8-1.5l2.7-1.6l2.7-1.6
			l2.6-1.8l2.6-1.8l1.3-0.9l1.2-1c1.7-1.3,3.3-2.6,5-3.9l4.7-4.2c1.5-1.4,3-3,4.5-4.5l1.1-1.1l1-1.2l2.1-2.4c1.4-1.5,2.7-3.3,4-4.9
			c1.3-1.6,2.5-3.4,3.7-5.1c0.6-0.9,1.2-1.7,1.8-2.6l1.7-2.7c1.1-1.8,2.1-3.7,3.1-5.5c2-3.7,3.8-7.6,5.4-11.5c0.8-2,1.5-3.9,2.3-5.9
			c0.7-2,1.4-4,2-6c1.3-4,2.2-8.2,3.1-12.3c0.4-2.1,0.8-4.2,1.1-6.2c0.3-2.1,0.5-4.2,0.7-6.2l0.2-2.7l2.6,0.3
			c2.3,0.2,4.5-0.3,6.3-1.6c1.9-1.3,3.4-3.3,4.7-5.6c1.2-2.3,2.2-4.8,3-7.4c0.8-2.6,1.4-5.3,1.9-8c1-5.4,1.6-11,2-16.6
			c0.2-2.8,0.3-5.6,0.4-8.4l0.1-4.2l0.1-2.2c0-0.7,0.1-1.5,0.3-2.3c0.6-3,1.3-5.7,2-8.4l2.2-8.2l2.2-8.2c0.7-2.7,1.4-5.5,2.1-8.2
			c0.7-2.7,1.3-5.5,1.8-8.2c0.3-1.4,0.5-2.7,0.7-4.1l0.3-2c0.1-0.7,0.1-1.4,0.2-2.1l0-0.5l0-0.5l0-0.9c0-0.3-0.1-0.6-0.1-0.9
			c-0.1-0.3-0.1-0.6-0.2-0.9c-0.3-1.1-1-2.1-1.8-2.9c-1.6-1.6-4.4-2.2-6.8-2.1l-1.7,0.1l0.1-1.6l0.5-8.6c0.1-2.9,0-5.7,0-8.6
			c-0.1-5.8-0.5-11.5-1.1-17.2c-0.6-5.7-1.3-11.5-2.4-17.1c-0.6-2.8-1.3-5.6-1.9-8.4c-0.7-2.8-1.3-5.6-2.1-8.4l-2.4-8.3
			c-0.4-1.4-0.9-2.7-1.3-4.1l-1.4-4.1l-1.4-4.1c-0.5-1.4-1.1-2.7-1.6-4c-1.1-2.7-2.1-5.4-3.3-8l-3.7-7.8c-0.6-1.3-1.3-2.6-2-3.9
			l-2-3.8c-0.7-1.3-1.3-2.6-2.1-3.8l-2.2-3.7c-1.5-2.5-3-4.9-4.6-7.3c-3.2-4.8-6.7-9.4-10.3-13.8c-1.9-2.2-3.7-4.4-5.7-6.5
			c-2-2.1-4-4.2-6-6.2c-2.1-2-4.2-4-6.3-5.8l-3.3-2.8c-1.1-0.9-2.2-1.9-3.3-2.7c-4.5-3.5-9.2-6.9-14.1-9.9c-1.2-0.8-2.4-1.5-3.7-2.3
			l-3.8-2.1l-1.9-1.1l-1.9-1l-3.8-1.9c-5.2-2.4-10.4-4.7-15.8-6.6c-5.4-1.9-10.9-3.6-16.4-4.9c-1.4-0.3-2.8-0.7-4.2-0.9
			c-1.4-0.3-2.8-0.5-4.2-0.8c-2.8-0.5-5.7-0.9-8.4-1l-0.1,0l-0.2,0l-4.3-0.7l-2.2-0.3c-0.7-0.1-1.4-0.2-2.2-0.2l-4.3-0.5
			c-1.4-0.1-2.9-0.2-4.4-0.3c-2.9-0.2-5.8-0.2-8.7-0.3c-1.5,0-2.9,0.1-4.4,0.1l-2.2,0.1c-0.7,0-1.5,0.1-2.2,0.1l-4.4,0.3l-4.3,0.5
			c-1.4,0.1-2.9,0.4-4.3,0.6c-1.4,0.2-2.9,0.4-4.3,0.7l-4.3,0.8c-1.4,0.3-2.8,0.6-4.3,0.9c-1.4,0.3-2.8,0.7-4.2,1
			c-1.4,0.4-2.8,0.7-4.2,1.1l-4.2,1.2l-4.2,1.4c-1.4,0.4-2.7,1-4.1,1.5c-1.4,0.5-2.7,1-4.1,1.6c-2.7,1.1-5.4,2.2-8.1,3.4
			c-2.7,1.2-5.3,2.4-7.9,3.7c-2.6,1.3-5.2,2.7-7.7,4.1c-2.5,1.4-5.1,2.9-7.5,4.4c-2.5,1.5-4.9,3.1-7.3,4.8c-2.4,1.6-4.8,3.4-7,5.1
			l-0.1,0.1l-0.2,0.1c-3.5,2.4-7.1,4.7-10.3,7.4l-2.5,2c-0.8,0.7-1.6,1.4-2.3,2.1l-2.3,2.2c-0.8,0.7-1.6,1.4-2.3,2.2l-4.3,4.7
			c-1.4,1.6-2.7,3.3-4.1,4.9c-0.7,0.8-1.4,1.6-2,2.5l-1.9,2.6c-1.2,1.8-2.5,3.4-3.6,5.3l-3.4,5.4l-3.1,5.6l-0.8,1.4l-0.7,1.4
			l-1.4,2.9l-1.4,2.9c-0.5,1-0.9,2-1.3,2.9c-0.9,2-1.8,3.9-2.6,5.9l-2.4,6c-1.5,4-3,8.1-4.2,12.2c-1.4,4.1-2.5,8.3-3.6,12.4
			l-1.6,6.3c-0.5,2.1-1,4.2-1.4,6.3c-0.5,2.1-0.9,4.2-1.3,6.3l-0.6,3.2l-0.6,3.2c-0.8,4.3-1.4,8.5-2.1,12.8
			c-0.6,4.3-1.1,8.6-1.6,12.9c-0.4,4.3-0.8,8.6-1.1,12.9c-0.3,4.3-0.5,8.6-0.7,13c-0.2,4.3-0.3,8.7-0.2,13l0,0.3L77.9,261.2z"/>
	</g>
	<path d="M124.7,233.5l17.8-19.8c0,0,57-1.5,67.7,12.2l-66.1-2L124.7,233.5z"/>
	<path d="M270.8,223.3c0,0,20.9-28,88-4.1c0,0-40.2,6.1-49.4,7.1C300.3,227.3,284.5,226.8,270.8,223.3z"/>
	<g>
		<path d="M184.2,381.8c1.3-0.3,2.5-0.6,3.8-1c1.2-0.4,2.5-0.8,3.7-1.3c1.2-0.4,2.4-0.9,3.6-1.4l3.6-1.4c2.4-0.9,4.9-1.9,7.4-2.8
			c1.2-0.4,2.5-0.9,3.8-1.2c1.3-0.4,2.6-0.7,3.9-1c1.3-0.3,2.6-0.5,4-0.7c1.3-0.2,2.7-0.3,4-0.3c1.4,0,2.7,0,4,0.1
			c0.7,0,1.3,0.1,2,0.2c0.7,0.1,1.3,0.2,2,0.3c1.3,0.2,2.6,0.6,3.9,1c1.3,0.4,2.5,0.9,3.7,1.4c1.2,0.5,2.4,1,3.6,1.5
			c1.2,0.5,2.4,1,3.6,1.5l-0.9,0.1c1.2-0.9,2.4-1.8,3.6-2.6c1.2-0.8,2.5-1.5,3.9-2.2c0.7-0.3,1.3-0.6,2-0.9c0.7-0.3,1.4-0.6,2.1-0.8
			c1.4-0.5,2.9-0.9,4.4-1.1c0.8-0.1,1.5-0.2,2.3-0.3c0.8,0,1.6-0.1,2.3-0.1c0.8,0.1,1.6,0.1,2.4,0.2c0.7,0.1,1.4,0.2,2.1,0.3
			l2.2,0.4l2.1,0.5c1.4,0.3,2.8,0.7,4.2,1.1c2.8,0.8,5.5,1.7,8.2,2.6l4.1,1.4l4.1,1.4l4,1.4l4.1,1.4c1.4,0.5,2.7,0.9,4.1,1.3
			l2.1,0.6l2.1,0.5l0,0.4c-0.7,0-1.5,0.1-2.2,0c-0.7,0-1.5-0.1-2.2-0.1c-1.4-0.2-2.9-0.3-4.3-0.6c-1.4-0.2-2.9-0.5-4.3-0.8
			c-1.4-0.3-2.8-0.6-4.2-0.9c-2.8-0.6-5.6-1.4-8.4-2.1c-2.8-0.7-5.5-1.5-8.3-2.2l-4.1-1.1l-2-0.5l-2-0.5c-0.7-0.2-1.4-0.3-2.1-0.4
			c-0.6-0.1-1.3-0.2-1.9-0.3c-0.6-0.1-1.3,0-2-0.1c-0.7,0-1.3,0.1-2,0.1c-0.7,0.1-1.3,0.2-2,0.3c-0.7,0.2-1.3,0.3-2,0.4
			c-1.3,0.3-2.6,0.7-3.9,1.2c-1.3,0.5-2.6,1-3.9,1.6c-1.3,0.6-2.5,1.2-3.7,2l-0.5,0.3l-0.4-0.2c-1.2-0.6-2.3-1.2-3.5-1.8
			c-1.2-0.6-2.3-1.2-3.5-1.7c-1.2-0.6-2.3-1-3.6-1.4c-0.6-0.2-1.2-0.3-1.9-0.4c-0.6-0.1-1.3-0.2-1.9-0.2c-1.3-0.1-2.5-0.1-3.8,0
			c-1.3,0.1-2.5,0.3-3.8,0.5c-1.3,0.2-2.5,0.5-3.7,0.8c-1.2,0.3-2.5,0.7-3.7,1c-2.5,0.7-4.9,1.5-7.4,2.2c-2.5,0.8-5,1.6-7.5,2.3
			c-1.3,0.4-2.5,0.7-3.8,1.1c-1.3,0.3-2.6,0.6-3.9,0.9c-1.3,0.3-2.6,0.5-4,0.6c-1.3,0.1-2.7,0.2-4,0.1L184.2,381.8z"/>
	</g>
	<line fill="none" stroke="#000000" stroke-width="4" stroke-miterlimit="10" x1="303.3" y1="375.4" x2="317.1" y2="386.1"/>
	<path fill="none" stroke="#000000" stroke-width="4" stroke-miterlimit="10" d="M405.6,277.2"/>
	<path fill="none" stroke="#000000" stroke-width="3" stroke-miterlimit="10" d="M216.9,287.4h-86.4c-4,0-7.3-3.5-7.3-7.8v-25.2
		c0-4.3,3.3-7.8,7.3-7.8h86.4c4,0,7.3,3.5,7.3,7.8v25.2C224.2,283.9,220.9,287.4,216.9,287.4z"/>
	<path fill="none" stroke="#000000" stroke-width="3" stroke-miterlimit="10" d="M355.8,287.4h-86.4c-4,0-7.3-3.5-7.3-7.8v-25.2
		c0-4.3,3.3-7.8,7.3-7.8h86.4c4,0,7.3,3.5,7.3,7.8v25.2C363.1,283.9,359.8,287.4,355.8,287.4z"/>
	<line fill="none" stroke="#000000" stroke-width="4" stroke-miterlimit="10" x1="122.2" y1="268.6" x2="77.4" y2="258.9"/>
	<g>
		<path d="M225,263.5c0,0,0.5-0.3,1.4-0.8c0.9-0.5,2.3-1.1,4-1.6c0.8-0.3,1.8-0.6,2.8-0.8c1-0.3,2-0.5,3.1-0.7
			c1.1-0.2,2.2-0.4,3.4-0.5c1.2-0.2,2.4-0.2,3.6-0.3c1.2,0,2.4,0,3.6,0c0.6,0,1.2,0.1,1.8,0.1c0.6,0,1.2,0.1,1.7,0.2
			c1.1,0.2,2.2,0.4,3.2,0.7c1,0.3,2,0.5,2.8,0.9c0.8,0.3,1.6,0.7,2.3,1c0.7,0.3,1.2,0.7,1.6,1c0.9,0.6,1.4,0.9,1.4,0.9
			s-0.6-0.1-1.6-0.4c-0.5-0.1-1.1-0.3-1.8-0.4c-0.7-0.1-1.5-0.2-2.3-0.4c-0.4-0.1-0.9-0.1-1.3-0.2c-0.5-0.1-0.9-0.1-1.4-0.2
			c-1-0.2-2-0.1-3.1-0.2c-1.1-0.1-2.2,0-3.3-0.1c-1.1,0-2.3,0-3.4,0c-1.1,0.1-2.3,0.1-3.4,0.2c-1.1,0.1-2.2,0.2-3.3,0.3
			c-1.1,0.1-2.1,0.2-3.1,0.3c-1,0.1-1.9,0.2-2.8,0.3C227.3,263.2,225,263.5,225,263.5z"/>
	</g>
	<g>
		<path d="M363.9,267c0,0,1-0.6,2.7-1.7c1.8-1.1,4.3-2.5,7.4-4.2c1.5-0.8,3.2-1.7,5-2.6c1.8-0.9,3.7-1.9,5.6-2.8
			c3.9-1.9,8.2-3.8,12.5-5.5c4.3-1.8,8.7-3.4,12.8-4.8c2.1-0.7,4.1-1.3,6-1.9c1-0.3,1.9-0.6,2.8-0.8c0.9-0.2,1.8-0.5,2.7-0.7
			c1.7-0.4,3.3-0.7,4.7-1c0.7-0.1,1.4-0.2,2-0.3c0.6-0.1,1.2-0.1,1.7-0.2c1-0.1,1.8-0.1,2.4-0.1c0.5,0,0.8,0,0.8,0s-0.3,0.1-0.8,0.2
			c-0.5,0.1-1.3,0.3-2.3,0.6c-1,0.3-2.1,0.7-3.4,1.2c-1.3,0.5-2.8,1.1-4.4,1.7c-1.6,0.6-3.3,1.4-5.2,2.1c-1.8,0.8-3.8,1.6-5.8,2.4
			c-4,1.7-8.3,3.4-12.5,5.2c-2.1,0.9-4.3,1.7-6.4,2.6c-2.1,0.8-4.2,1.7-6.2,2.5c-2,0.8-4,1.5-5.9,2.3c-1.9,0.7-3.6,1.4-5.3,2
			c-3.3,1.2-6,2.1-8,2.8C365,266.7,363.9,267,363.9,267z"/>
	</g>
</g>
</svg>
