<?xml version="1.0" encoding="utf-8"?>
<!-- Generator: Adobe Illustrator 18.1.0, SVG Export Plug-In . SVG Version: 6.00 Build 0)  -->
<svg version="1.1" id="Layer_1" xmlns="http://www.w3.org/2000/svg" xmlns:xlink="http://www.w3.org/1999/xlink" x="0px" y="0px"
	 viewBox="0 0 512.9 512.9" enable-background="new 0 0 512.9 512.9" xml:space="preserve">
<g>
	<g>
		<path fill="none" d="M114.2,254.6c0,0,2.3-72.2,5.1-89"/>
	</g>
	<g>
		<path d="M277.5,475.7c-10.9,0-32.6-1.1-55.5-8.4c-27.6-8.8-49-23.8-63.6-44.6c-0.5-0.7-13.7-19.2-21.9-58.5
			c-2.9-0.8-10.5-3.6-15.2-11l-0.1-0.2c-0.6-1.3-6-12.5-6.4-17c-0.2-1.8-1.4-4.7-2.6-7.5c-1.5-3.5-3-7.2-3.3-10.1
			c-0.3-4.2-0.6-14.9,3.8-23.8c-1-4.3-5.8-27.3,1.3-37.8c0.1-3.3,0.5-20.8,1.2-39.3c0.8-19.9,2.7-53.5,4.3-62.3
			c0.2-1.3,0.5-2.9,0.7-4.8c0.8-5.4,1.8-12.9,4.1-20.6c2.8-9.2,6.8-16.6,12-21.9l11.9-12.2l-3-1.3l2.1-1.8
			c0.7-0.6,17.1-14.7,26.6-19c4.6-2.1,8.8-4.7,12.2-6.8c4.1-2.5,6.2-3.8,7.8-3.9c0.5-0.3,1.5-1.4,2.4-2.3c3.2-3.4,8.5-9.1,16.7-10.5
			c11.1-1.9,32.5-7,32.7-7l0.2,0c1.2-0.2,28.9-3.7,40.5-3.7c1.6,0,2.8,0.1,3.7,0.2c9.8,1.5,43.8,8.5,72.3,33.2l0.1,0.1l41.2,42.4
			l-0.1,0.8c-0.2,1.6-0.5,6.3,0.6,8.8c0.5,1,1.5,2.7,2.6,4.7c2.7,4.5,6,10.1,6.8,14.4c1.1,5.7,6.6,45.4,6.7,54.9
			c0.2,2.2,2.7,35.1,1.5,42.9c-0.8,5.7,0,13.6,0.5,17.2c0.5,0.1,0.9,0.4,1.2,0.8c0.8,1,3.1,3.5-0.1,29.6c0.4,1.5,2.1,7,3.4,13.9
			c1.6,8-0.6,19.3-5.2,26.5c-0.6,1.5-4.7,12.2-5.7,16.1c-2.4,8.7-6.8,14.3-13,16.5c-0.7,5.7-4.5,30.9-18.4,55.8
			c-9.2,16.6-21,29.8-35.1,39.4c-17.6,11.9-38.7,18-62.8,18.1C286.3,475.4,282.9,475.7,277.5,475.7z M124.3,351.3
			c5,7.8,13.9,9.7,14,9.7l1.1,0.2l0.2,1.1c6.4,31.4,16.9,51.9,21.6,58.3c10.9,15.5,44.1,51.5,116.3,51.5c5.6,0,9-0.3,9-0.3l0.1,0
			c23.4-0.1,43.9-6,60.9-17.5c13.6-9.2,25.1-22.1,34-38.2c15.3-27.5,18.1-55.3,18.1-55.6l0.1-1.2l1.2-0.3c5.5-1.5,9.5-6.5,11.7-14.4
			c1.2-4.3,5.7-16.1,5.9-16.6l0.1-0.2l0.1-0.2c4.1-6.4,6.3-17,4.8-24.1c-1.5-7.6-3.4-13.8-3.5-13.9l-0.1-0.4l0-0.4
			c2.1-17.4,1.8-23.8,1.4-26.1l-1.6,1.9l-0.6-3.9c-0.1-0.5-2-12.1-0.8-20.1c1.1-7.5-1.5-41.8-1.6-42.2l0-0.1
			c0-9.3-5.5-48.6-6.6-54.3c-0.7-3.7-4-9.2-6.4-13.3c-1.2-2.1-2.3-3.9-2.8-5.1c-1.4-3.1-1.2-7.9-1-9.8l-40-41.1
			c-27.8-24.1-61-30.8-70.5-32.3c-0.7-0.1-1.8-0.2-3.2-0.2c-11,0-38.2,3.4-40,3.7c-1.5,0.4-21.9,5.2-32.8,7
			c-7,1.2-11.6,6.2-14.7,9.5c-2,2.1-3.2,3.4-4.7,3.4c-0.8,0.1-3.6,1.8-6.2,3.4c-3.5,2.1-7.8,4.8-12.6,7
			c-7.1,3.2-18.8,12.7-23.6,16.7l2.5,1.1l-15.4,15.9c-11.2,11.5-13.7,29.7-15.2,40.6c-0.3,1.9-0.5,3.6-0.7,5
			c-1.6,8.6-3.5,42-4.3,61.8c-0.8,20.4-1.2,39.6-1.2,39.8l0,0.6l-0.3,0.5c-7.2,9.8-0.9,35.8-0.9,36l0.2,0.6l-0.3,0.6
			c-4.3,8.2-4,18.4-3.7,22.5c0.2,2.4,1.6,5.8,3,9c1.4,3.2,2.6,6.2,2.8,8.5C118.5,338.9,122.7,348,124.3,351.3z"/>
	</g>
	<g>
		<path fill="#1E1E1E" d="M115.7,257.3c0,0,13.7,29.7,14.3,46.7c0,0,7-88.4,18.2-107.2c0,0-3.5-33.4,7-46.3
			c10.5-12.9,32.2-27.5,35.7-35.1c0,0,0,18.2,10,22.8c0,0-10-7-7.6-24.6c0,0,23.4,6.4,11.7,28.7c0,0,17-8.8,25.8-24
			c8.8-15.2,130-19.3,124.2,12.3c0,0,8.8,20.5,14.6,24c0,0-6.4-5.9,1.2-12.9c0,0,12.3-4.1,15.2,32.2c0,0-4.7,9.4,5.9,22.8
			c0,0,16.4,42.2,15.8,73.2l2.9,34c0,0,5.9-14.6,4.7-24.6c-1.2-10,6.4-12.5,5.9-18.5c-0.6-6.1-2.9-72.2-2.9-72.2l-6.1-44.5
			c0,0-7.7-18.2-10.3-20.2l0.2-8.3c0,0-34.5-35.9-38.6-39.7c-4.1-3.8-26.9-21.4-41.3-25.8c-14.3-4.4-24.6-11.1-49.5-8.5
			s-61.5,8.8-67.3,12.9s-6.8,7.6-11,10c-4.2,2.3-39.1,20.8-45.7,29.3l2.7,1.2c0,0-24.5,19.9-26.8,41.3
			C124.4,136.2,114.1,201.9,115.7,257.3z"/>
	</g>
	<g>
		<path fill="none" stroke="#000000" stroke-miterlimit="10" d="M117.1,312.8"/>
	</g>
	<g>
		<path fill="#1E1E1E" d="M155.7,222.6c0,0,6.4-19.9,31.6-25.2c0,0,46.3,0,62.7,7c0,0,3.5,12.3,2.3,15.8c0,0-45.1-14.1-67.3-8.2
			C185,212,169.2,212.6,155.7,222.6z"/>
	</g>
	<g>
		<path fill="#1E1E1E" d="M291.6,217.3c0,0,2.9-15.2-1.2-21.1c0,0,3.5,7.6,4.7,11.7s-1.8-10,22.3-13.5c24-3.5,56.2-1.2,69.7,25.8
			c0,0-26.4-17.6-44.5-12.3C342.6,207.9,302.7,219.7,291.6,217.3z"/>
	</g>
	<g>
		<path fill="#111111" d="M312.1,85.5c0,0-35.1-8.2-54.5,31C257.6,116.6,237.1,69.1,312.1,85.5z"/>
	</g>
	<g>
		<path fill="#111111" d="M147.5,120.1c0,0-23.4,28.1-19.3,58.6c0,0,11.7-31,23.4-33.4C151.6,145.3,139.3,133.6,147.5,120.1z"/>
	</g>
	<g>
		<path fill="#111111" d="M308.6,98.4c0,0-0.2,0-0.5,0.1c-0.3,0.1-0.9,0.2-1.5,0.4c-0.6,0.2-1.4,0.4-2.3,0.6
			c-0.4,0.1-0.9,0.3-1.4,0.4c-0.5,0.2-1,0.3-1.5,0.5c-0.5,0.2-1.1,0.3-1.6,0.6c-0.6,0.2-1.1,0.4-1.7,0.6c-0.6,0.2-1.2,0.5-1.8,0.7
			c-0.3,0.1-0.6,0.2-0.9,0.4c-0.3,0.1-0.6,0.3-0.9,0.4c-0.6,0.3-1.3,0.6-1.9,0.9c-0.6,0.3-1.3,0.7-1.9,1c-1.3,0.6-2.6,1.4-3.8,2.1
			c-0.3,0.2-0.6,0.3-1,0.5l-0.9,0.6c-0.6,0.4-1.2,0.8-1.8,1.2c-1.2,0.8-2.3,1.7-3.5,2.5c-0.6,0.4-1.1,0.9-1.6,1.3
			c-0.5,0.4-1,0.8-1.5,1.2c-0.2,0.2-0.5,0.4-0.7,0.6c-0.2,0.2-0.5,0.4-0.7,0.6c-0.4,0.4-0.9,0.8-1.3,1.2c-0.4,0.4-0.8,0.7-1.2,1.1
			c-0.2,0.2-0.4,0.3-0.6,0.5c-0.2,0.2-0.3,0.3-0.5,0.5c-0.6,0.7-1.2,1.2-1.7,1.7c-1,0.9-1.5,1.4-1.5,1.4s0.4-0.7,1.1-1.8
			c0.4-0.6,0.8-1.3,1.3-2c0.5-0.8,1.2-1.6,1.9-2.5c0.7-0.9,1.5-1.9,2.4-2.8c0.5-0.5,0.9-0.9,1.4-1.4c0.2-0.2,0.5-0.5,0.7-0.7
			c0.2-0.3,0.5-0.5,0.8-0.7c0.6-0.5,1.1-0.9,1.7-1.4c0.6-0.5,1.1-1,1.8-1.4c0.6-0.4,1.3-0.9,1.9-1.3l1-0.6c0.3-0.2,0.7-0.4,1-0.6
			c1.3-0.7,2.7-1.5,4.1-2.1c0.7-0.3,1.4-0.6,2.1-0.9c0.7-0.3,1.4-0.5,2.1-0.8c0.3-0.1,0.7-0.2,1-0.4c0.3-0.1,0.7-0.2,1-0.3
			c0.7-0.2,1.3-0.4,2-0.6c1.3-0.3,2.5-0.6,3.6-0.7c0.6-0.1,1.1-0.2,1.6-0.2c0.5,0,1-0.1,1.5-0.1c0.9-0.1,1.7-0.1,2.4-0.1
			C307.8,98.3,308.6,98.4,308.6,98.4z"/>
	</g>
	<g>
		<path d="M320.9,98.4c0,0-0.2,0-0.5,0.1c-0.3,0.1-0.9,0.2-1.5,0.3c-0.6,0.2-1.4,0.3-2.3,0.6c-0.4,0.1-0.9,0.2-1.4,0.4
			c-0.5,0.1-1,0.3-1.5,0.5c-0.5,0.2-1.1,0.3-1.7,0.5c-0.6,0.2-1.2,0.4-1.8,0.6c-0.6,0.2-1.2,0.5-1.8,0.7c-0.3,0.1-0.6,0.2-0.9,0.4
			c-0.3,0.1-0.6,0.3-0.9,0.4c-0.6,0.3-1.3,0.6-1.9,0.9c-0.6,0.3-1.3,0.7-1.9,1c-1.3,0.6-2.6,1.4-3.9,2.1c-0.3,0.2-0.6,0.3-1,0.5
			l-0.9,0.6c-0.6,0.4-1.2,0.8-1.8,1.2c-1.2,0.8-2.3,1.7-3.5,2.5c-0.6,0.4-1.1,0.9-1.6,1.3c-0.5,0.4-1,0.8-1.5,1.2
			c-0.2,0.2-0.5,0.4-0.7,0.6c-0.2,0.2-0.4,0.4-0.7,0.6c-0.4,0.4-0.9,0.8-1.3,1.2c-0.4,0.4-0.8,0.7-1.2,1.1c-0.2,0.2-0.4,0.3-0.6,0.5
			c-0.2,0.2-0.3,0.3-0.5,0.5c-0.6,0.7-1.2,1.2-1.6,1.7c-0.9,0.9-1.5,1.5-1.5,1.5s0.4-0.6,1.1-1.8c0.4-0.6,0.8-1.2,1.3-2
			c0.1-0.2,0.3-0.4,0.4-0.6c0.2-0.2,0.3-0.4,0.5-0.6c0.3-0.4,0.7-0.8,1-1.3c0.7-0.9,1.5-1.9,2.5-2.8c0.9-0.9,1.9-1.9,3-2.8
			c0.6-0.5,1.1-0.9,1.7-1.4c0.6-0.5,1.1-1,1.8-1.4c0.6-0.4,1.3-0.8,1.9-1.3l1-0.6c0.3-0.2,0.7-0.4,1-0.6c1.3-0.7,2.7-1.5,4.1-2.1
			c0.7-0.3,1.4-0.6,2-0.9c0.7-0.3,1.4-0.5,2-0.8c0.3-0.1,0.7-0.3,1-0.4c0.3-0.1,0.7-0.2,1-0.3c0.7-0.2,1.3-0.4,1.9-0.6
			c1.3-0.3,2.5-0.6,3.6-0.8c0.6-0.1,1.1-0.2,1.6-0.3c0.5-0.1,1-0.1,1.5-0.2c0.9-0.1,1.7-0.1,2.4-0.1
			C320.1,98.3,320.9,98.4,320.9,98.4z"/>
	</g>
	<g>
		<path d="M330.9,97.3c0,0-0.2,0-0.5,0.1c-0.3,0.1-0.9,0.2-1.5,0.3c-0.6,0.2-1.4,0.3-2.3,0.6c-0.4,0.1-0.9,0.2-1.4,0.4
			c-0.5,0.1-1,0.3-1.5,0.5c-0.5,0.2-1.1,0.3-1.7,0.5c-0.6,0.2-1.2,0.4-1.8,0.6c-0.6,0.2-1.2,0.5-1.8,0.7c-0.3,0.1-0.6,0.2-0.9,0.4
			c-0.3,0.1-0.6,0.3-0.9,0.4c-0.6,0.3-1.3,0.6-1.9,0.9c-0.6,0.3-1.3,0.7-1.9,1c-1.3,0.6-2.6,1.4-3.9,2.1c-0.3,0.2-0.6,0.3-1,0.5
			l-0.9,0.6c-0.6,0.4-1.2,0.8-1.8,1.2c-1.2,0.8-2.3,1.7-3.5,2.5c-0.6,0.4-1.1,0.9-1.6,1.3c-0.5,0.4-1,0.8-1.5,1.2
			c-0.2,0.2-0.5,0.4-0.7,0.6c-0.2,0.2-0.4,0.4-0.7,0.6c-0.4,0.4-0.9,0.8-1.3,1.2c-0.4,0.4-0.8,0.7-1.2,1.1c-0.2,0.2-0.4,0.3-0.6,0.5
			c-0.2,0.2-0.3,0.3-0.5,0.5c-0.6,0.7-1.2,1.2-1.6,1.7c-0.9,0.9-1.5,1.5-1.5,1.5s0.4-0.6,1.1-1.8c0.4-0.6,0.8-1.2,1.3-2
			c0.1-0.2,0.3-0.4,0.4-0.6c0.2-0.2,0.3-0.4,0.5-0.6c0.3-0.4,0.7-0.8,1-1.3c0.7-0.9,1.5-1.9,2.5-2.8c0.9-0.9,1.9-1.9,3-2.8
			c0.6-0.5,1.1-0.9,1.7-1.4c0.6-0.5,1.1-1,1.8-1.4c0.6-0.4,1.3-0.8,1.9-1.3l1-0.6c0.3-0.2,0.7-0.4,1-0.6c1.3-0.7,2.7-1.5,4.1-2.1
			c0.7-0.3,1.4-0.6,2-0.9c0.7-0.3,1.4-0.5,2-0.8c0.3-0.1,0.7-0.3,1-0.4c0.3-0.1,0.7-0.2,1-0.3c0.7-0.2,1.3-0.4,1.9-0.6
			c1.3-0.3,2.5-0.6,3.6-0.8c0.6-0.1,1.1-0.2,1.6-0.3c0.5-0.1,1-0.1,1.5-0.2c0.9-0.1,1.7-0.1,2.4-0.1
			C330.1,97.2,330.9,97.3,330.9,97.3z"/>
	</g>
	<g>
		<path d="M130.8,309.5l-0.4-0.4c0.4-0.4,0.6-1,0.5-1.5l0.6-0.1C131.5,308.2,131.3,308.9,130.8,309.5z"/>
	</g>
	<g>
		<path d="M130.9,317.3l-0.6-0.2c0.2-0.8,0.8-1.5,1.6-1.9l0.3,0.5C131.6,316,131.1,316.6,130.9,317.3z"/>
	</g>
	<g>
		<path d="M130.1,316.7l-0.6-0.2c0.1-0.4,0.1-0.9,0.2-1.5c0-1.1,0.1-2.2,0.7-2.7l1.4-1.2l0.4,0.4l-1.4,1.2c-0.4,0.4-0.5,1.4-0.5,2.3
			C130.2,315.7,130.2,316.3,130.1,316.7z"/>
	</g>
	<g>
		<path d="M131.1,321.4l-0.5-0.3c0.5-0.8,1.1-1.4,1.9-1.8l0.3,0.5C132.1,320.2,131.5,320.8,131.1,321.4z"/>
	</g>
	<g>
		<rect x="132.8" y="322.2" transform="matrix(0.5547 0.8321 -0.8321 0.5547 328.3919 33.3308)" width="0.6" height="2.5"/>
	</g>
	<g>
		<rect x="132.7" y="324.9" transform="matrix(0.5994 0.8005 -0.8005 0.5994 314.4145 24.2039)" width="0.6" height="2.7"/>
	</g>
	<g>
		<rect x="135.1" y="326.6" transform="matrix(0.3633 0.9317 -0.9317 0.3633 391.2167 82.316)" width="0.6" height="1.6"/>
	</g>
	<g>
		<rect x="133.3" y="331.2" transform="matrix(0.469 0.8832 -0.8832 0.469 363.9549 58.1668)" width="0.6" height="1.1"/>
	</g>
	<g>
		<rect x="131.4" y="328.7" transform="matrix(0.1818 0.9833 -0.9833 0.1818 431.8696 140.1297)" width="0.6" height="1.8"/>
	</g>
	<g>
		<path d="M135,326C135,326,135,326,135,326l0-0.6c0.3,0,0.6-0.2,0.8-0.5l0.5,0.2C136.1,325.6,135.5,326,135,326z"/>
	</g>
	<g>
		<rect x="138.4" y="328.7" transform="matrix(0.5511 0.8344 -0.8344 0.5511 337.408 32.2468)" width="0.6" height="2.1"/>
	</g>
	<g>
		<rect x="136.1" y="333.8" transform="matrix(0.5641 0.8257 -0.8257 0.5641 335.6726 33.2059)" width="0.6" height="1.5"/>
	</g>
	<g>
		<rect x="139.6" y="333.8" transform="matrix(0.3419 0.9397 -0.9397 0.3419 406.6159 88.7796)" width="0.6" height="1.9"/>
	</g>
	<g>
		<rect x="136.1" y="338" transform="matrix(0.6482 0.7615 -0.7615 0.6482 306.5592 15.5757)" width="0.6" height="3.1"/>
	</g>
	<g>
		<path d="M138.6,342.6l-0.2-0.6c0.8-0.2,1.5-0.7,2.2-1.2l0.4,0.4C140.3,341.9,139.4,342.4,138.6,342.6z"/>
	</g>
	<g>
		<rect x="144.5" y="337" transform="matrix(0.7071 0.7071 -0.7071 0.7071 280.8524 -3.5931)" width="0.6" height="0.4"/>
	</g>
	<g>
		<rect x="139.9" y="344" transform="matrix(0.5488 0.8359 -0.8359 0.5488 351.9913 38.6281)" width="0.6" height="2.8"/>
	</g>
	<g>
		<path d="M143.5,343.3c-0.2,0-0.4-0.1-0.5-0.2l0.3-0.5c0.1,0,0.2,0.1,0.3,0c0.1,0,0.2-0.1,0.2-0.2l0.5,0.2
			c-0.1,0.2-0.3,0.4-0.6,0.5C143.7,343.3,143.6,343.3,143.5,343.3z"/>
	</g>
	<g>
		<rect x="141.7" y="347.1" transform="matrix(0.5722 0.8201 -0.8201 0.5722 346.6184 32.6508)" width="0.6" height="2.9"/>
	</g>
	<g>
		<path d="M145.5,349.2L145,349c0.2-0.5,0.9-0.9,1.5-0.8l-0.1,0.6C146,348.7,145.6,348.9,145.5,349.2z"/>
	</g>
	<g>
		<path d="M142.2,353l-0.5-0.2c0.2-0.4,0.6-0.8,1-1l0.2,0.5C142.7,352.4,142.4,352.7,142.2,353z"/>
	</g>
	<g>
		<path d="M144.4,356.2l-0.4-0.5c0.7-0.5,1.4-0.9,2.3-1l0.1,0.6C145.7,355.5,145,355.8,144.4,356.2z"/>
	</g>
	<g>
		<rect x="143.9" y="351.3" transform="matrix(0.469 0.8832 -0.8832 0.469 387.846 59.8224)" width="0.6" height="2.2"/>
	</g>
	<g>
		<rect x="144.9" y="360.8" transform="matrix(0.2933 0.956 -0.956 0.2933 448.4514 116.8108)" width="0.6" height="1.9"/>
	</g>
	<g>
		<rect x="150.1" y="359.1" transform="matrix(0.4728 0.8812 -0.8812 0.4728 396.9065 57.4549)" width="0.6" height="2.6"/>
	</g>
	<g>
		<rect x="148.1" y="355" transform="matrix(0.1425 0.9898 -0.9898 0.1425 479.8382 158.5419)" width="0.6" height="2.4"/>
	</g>
	<g>
		<rect x="146.8" y="367" transform="matrix(0.3731 0.9278 -0.9278 0.3731 433.4886 94.1115)" width="0.6" height="1.6"/>
	</g>
	<g>
		<rect x="144.5" y="373.7" transform="matrix(0.3885 0.9215 -0.9215 0.3885 433.3091 95.3933)" width="0.6" height="0.9"/>
	</g>
	<g>
		<rect x="144" y="364.1" transform="matrix(0.422 0.9066 -0.9066 0.422 414.6116 80.3088)" width="0.6" height="2.5"/>
	</g>
	<g>
		<path d="M141.5,360.4l-0.4-0.4c0.9-0.7,2.1-1,3.2-0.8l-0.1,0.6C143.3,359.5,142.3,359.8,141.5,360.4z"/>
	</g>
	<g>
		<path d="M142.5,351.3L142,351c0.4-0.7,1.2-1.3,2-1.3l0,0.6C143.4,350.3,142.8,350.7,142.5,351.3z"/>
	</g>
	<g>
		<rect x="142.3" y="344.4" transform="matrix(0.526 0.8505 -0.8505 0.526 361.148 42.3511)" width="0.6" height="1.5"/>
	</g>
	<g>
		<rect x="138" y="336.4" transform="matrix(0.7071 0.7071 -0.7071 0.7071 278.5515 0.7906)" width="0.6" height="0.4"/>
	</g>
	<g>
		<path d="M139.3,340.8l-0.5-0.4c0.5-0.6,1.2-1.1,1.9-1.3l0.2,0.6C140.3,339.9,139.7,340.3,139.3,340.8z"/>
	</g>
	<g>
		<rect x="136" y="333.4" transform="matrix(0.4705 0.8824 -0.8824 0.4705 367.0236 56.689)" width="0.6" height="1.6"/>
	</g>
	<g>
		<path d="M132.7,331.7l-0.2-0.5c0.7-0.3,1.3-0.7,1.8-1.3l0.4,0.4C134.1,330.9,133.4,331.4,132.7,331.7z"/>
	</g>
	<g>
		<path d="M148.1,379.1l-0.5-0.2c0.2-0.5,0.9-0.9,1.5-0.8l-0.1,0.6C148.6,378.6,148.3,378.8,148.1,379.1z"/>
	</g>
	<g>
		<path d="M147.5,371.1l-0.5-0.2c0.2-0.5,0.6-0.9,1.1-1l0.2,0.6C147.9,370.6,147.6,370.8,147.5,371.1z"/>
	</g>
	<g>
		<rect x="149.7" y="379" transform="matrix(0.5858 0.8104 -0.8104 0.5858 370.2935 35.9007)" width="0.6" height="2.5"/>
	</g>
	<g>
		<rect x="149.6" y="385" transform="matrix(0.5699 0.8217 -0.8217 0.5699 382.5332 43.3481)" width="0.6" height="4.2"/>
	</g>
	<g>
		<rect x="149.1" y="388.6" transform="matrix(0.526 0.8505 -0.8505 0.526 403.2008 58.1558)" width="0.6" height="4.3"/>
	</g>
	<g>
		<path d="M150.1,395.8l-0.5-0.3c0.5-0.7,1.2-1.2,2-1.5l0.2,0.6C151.1,394.7,150.5,395.2,150.1,395.8z"/>
	</g>
	<g>
		<path d="M153.1,397.9L153.1,397.9l0-0.6c0,0,0,0,0,0c0.4,0,0.8-0.2,1-0.6l0.5,0.3C154.3,397.5,153.7,397.9,153.1,397.9z"/>
	</g>
	<g>
		<rect x="151" y="400.2" transform="matrix(0.469 0.8832 -0.8832 0.469 434.3441 79.2149)" width="0.6" height="1.3"/>
	</g>
	<g>
		<rect x="154.9" y="392.5" transform="matrix(0.3279 0.9447 -0.9447 0.3279 476.4932 118.2333)" width="0.6" height="3.1"/>
	</g>
	<g>
		<rect x="154.4" y="389.3" transform="matrix(0.4276 0.904 -0.904 0.4276 441.507 83.6664)" width="0.6" height="2.2"/>
	</g>
	<g>
		<rect x="152.8" y="386.1" transform="matrix(0.4488 0.8936 -0.8936 0.4488 429.7167 76.1777)" width="0.6" height="0.7"/>
	</g>
	<g>
		<rect x="154.1" y="379.8" transform="matrix(0.2283 0.9736 -0.9736 0.2283 489.632 143.3113)" width="0.6" height="1.5"/>
	</g>
	<g>
		<rect x="148.8" y="369.6" transform="matrix(0.6115 0.7912 -0.7912 0.6115 351.7394 26.2488)" width="0.6" height="3.5"/>
	</g>
	<g>
		<rect x="149.3" y="375" transform="matrix(0.7071 0.7071 -0.7071 0.7071 309.2883 4.1828)" width="0.6" height="0.8"/>
	</g>
	<g>
		<rect x="151.8" y="368.5" transform="matrix(0.7071 0.7071 -0.7071 0.7071 305.5656 0.5789)" width="0.6" height="1.2"/>
	</g>
	<g>
		<rect x="152.8" y="375.8" transform="matrix(0.2968 0.9549 -0.9549 0.2968 467.1196 118.4952)" width="0.6" height="1.2"/>
	</g>
	<g>
		<rect x="157.1" y="376.3" transform="matrix(0.7071 0.7071 -0.7071 0.7071 312.2858 -1.004)" width="0.6" height="0.4"/>
	</g>
	<g>
		<rect x="154.8" y="369.4" transform="matrix(0.4721 0.8816 -0.8816 0.4721 408.15 58.6384)" width="0.6" height="1.3"/>
	</g>
	<g>
		<rect x="159.8" y="375.5" transform="matrix(0.6793 0.7339 -0.7339 0.6793 327.7874 3.3445)" width="0.6" height="2.3"/>
	</g>
	<g>
		<path d="M156.3,385.5l-0.6-0.2c0.3-0.9,1-1.7,1.9-2.2l0.3,0.5C157.2,384,156.6,384.7,156.3,385.5z"/>
	</g>
	<g>
		<rect x="161.9" y="406.6" transform="matrix(0.6003 0.7998 -0.7998 0.6003 390.946 33.2812)" width="0.6" height="2.3"/>
	</g>
	<g>
		<path d="M156.2,404.1l-0.3-0.5c1-0.6,2.2-0.9,3.4-0.9l0,0.6C158.2,403.3,157.1,403.5,156.2,404.1z"/>
	</g>
	<g>
		<rect x="159" y="407.1" width="2" height="0.6"/>
	</g>
	<g>
		<path d="M160.3,405.6l-0.3-0.5c1-0.6,2.1-1,3.3-1.2l0.1,0.6C162.3,404.6,161.2,405,160.3,405.6z"/>
	</g>
	<g>
		<rect x="163.1" y="415.1" transform="matrix(0.4488 0.8936 -0.8936 0.4488 461.2722 82.9986)" width="0.6" height="0.7"/>
	</g>
	<g>
		<rect x="159.8" y="410.9" transform="matrix(0.3279 0.9447 -0.9447 0.3279 496.0605 125.1122)" width="0.6" height="0.7"/>
	</g>
	<g>
		<path d="M163.3,421l-0.5-0.3c0.9-1.5,2-2.8,3.3-3.9l0.4,0.5C165.2,418.3,164.1,419.5,163.3,421z"/>
	</g>
	<g>
		<rect x="166.3" y="421.3" transform="matrix(0.4472 0.8944 -0.8944 0.4472 469.5253 84.28)" width="0.6" height="1.3"/>
	</g>
	<g>
		<rect x="160.6" y="413.3" transform="matrix(0.4339 0.901 -0.901 0.4339 463.9289 89.3254)" width="0.6" height="1"/>
	</g>
	<g>
		<rect x="162.3" y="416.5" transform="matrix(0.5881 0.8088 -0.8088 0.5881 405.1599 40.7462)" width="0.6" height="3.2"/>
	</g>
	<g>
		<path d="M167.3,425.2l-0.3-0.5c0.2-0.1,0.1-0.8,0-1.2c0-0.3-0.1-0.6-0.1-0.8c-0.8,0.6-1.6,1.3-2.2,2.1l-0.5-0.4
			c0.9-1,1.9-1.9,3.1-2.6c0,0,0,0,0,0c0,0,0,0,0,0l0.3,0.5c0,0,0,0,0,0c-0.2,0.1-0.1,0.8,0,1.2C167.7,424.2,167.9,424.9,167.3,425.2
			z"/>
	</g>
	<g>
		<rect x="169.4" y="425.9" transform="matrix(0.6993 0.7149 -0.7149 0.6993 356.8027 7.3407)" width="0.6" height="3.7"/>
	</g>
	<g>
		<path d="M169.6,431.6l-0.2-0.5c0.4-0.2,0.5-0.7,0.4-1.1l0-0.2l0.2-0.1c0.5-0.3,1-0.6,1.4-1.1l0.5,0.4c-0.4,0.5-0.9,0.9-1.4,1.2
			C170.4,430.7,170.2,431.4,169.6,431.6z"/>
	</g>
	<g>
		<path d="M172.6,432.8l-0.3-0.5c-0.1,0-0.1,0.1-0.1,0.2c0,0-0.1-0.1-0.1-0.1c-0.1-0.2-0.4-0.5-0.2-0.8l1.2-1.5l0.5,0.4l-1.1,1.4
			c0,0,0.1,0.1,0.1,0.1c0.1,0.1,0.3,0.3,0.2,0.5C172.8,432.6,172.7,432.7,172.6,432.8z"/>
	</g>
	<g>
		<path d="M173.6,434.7l-0.6-0.2c0.3-0.8,0.7-1.5,1.2-2.1l0.5,0.4C174.2,433.3,173.9,434,173.6,434.7z"/>
	</g>
	<g>
		<rect x="176.4" y="433.8" transform="matrix(0.8047 0.5937 -0.5937 0.8047 292.8078 -19.93)" width="0.6" height="2.5"/>
	</g>
	<g>
		<rect x="178.6" y="434.1" transform="matrix(0.7339 0.6793 -0.6793 0.7339 343.6897 -5.5127)" width="0.6" height="3.5"/>
	</g>
	<g>
		<path d="M182.8,439.7l-0.5-0.2c0.7-1.6,1.6-3.2,2.7-4.6l0.3-1l0.6,0.2l-0.4,1.2C184.4,436.6,183.5,438.1,182.8,439.7z"/>
	</g>
	<g>
		<path d="M186.2,438.2l-0.6-0.2c0.3-0.9,0.8-1.6,1.6-2.2l0.4,0.5C186.9,436.8,186.4,437.5,186.2,438.2z"/>
	</g>
	<g>
		<rect x="176.2" y="430.5" transform="matrix(0.7071 0.7071 -0.7071 0.7071 356.7195 1.5177)" width="0.6" height="1.7"/>
	</g>
	<g>
		<rect x="172" y="426" transform="matrix(0.8005 0.5994 -0.5994 0.8005 290.1359 -18.142)" width="0.6" height="1.5"/>
	</g>
	<g>
		<rect x="180.3" y="429.5" transform="matrix(0.4472 0.8944 -0.8944 0.4472 484.6283 76.2408)" width="0.6" height="1.3"/>
	</g>
	<g>
		<rect x="182.8" y="439.6" transform="matrix(0.6016 0.7988 -0.7988 0.6016 424.5474 29.0921)" width="0.6" height="1.1"/>
	</g>
	<g>
		<path d="M189.4,443.6l-0.5-0.3c0.7-0.9,1.4-1.7,2.3-2.5l0.4,0.4C190.8,441.9,190,442.7,189.4,443.6z"/>
	</g>
	<g>
		<path d="M195.5,447.5l-0.6-0.1c0.2-1.1,0.9-2,1.7-2.7l0.4,0.5C196.2,445.7,195.7,446.6,195.5,447.5z"/>
	</g>
	<g>
		<rect x="198.3" y="448.2" transform="matrix(0.6782 0.7349 -0.7349 0.6782 393.9948 -1.3975)" width="0.6" height="1.9"/>
	</g>
	<g>
		<rect x="191.9" y="444.4" transform="matrix(0.4181 0.9084 -0.9084 0.4181 516.6049 84.6912)" width="0.6" height="2.2"/>
	</g>
	<g>
		<path d="M190.3,445.6l-0.5-0.3c0.7-1,1.6-1.8,2.8-2.2l0.2,0.6C191.7,444,190.9,444.7,190.3,445.6z"/>
	</g>
	<g>
		<path d="M201,451.3l-0.6-0.1c0.3-1.3,1.4-2.3,2.7-2.6l0.1,0.6C202.2,449.4,201.3,450.3,201,451.3z"/>
	</g>
	<g>
		<rect x="207.3" y="452.1" transform="matrix(0.4472 0.8944 -0.8944 0.4472 519.687 64.6091)" width="0.6" height="1.3"/>
	</g>
	<g>
		<rect x="210.1" y="454.6" transform="matrix(0.3337 0.9427 -0.9427 0.3337 569.4496 105.1129)" width="0.6" height="1.6"/>
	</g>
	<g>
		<path d="M194.3,437.3l-0.5-0.3c0.6-1.2,1.6-2.1,2.8-2.7l0.2,0.5C195.8,435.4,194.9,436.3,194.3,437.3z"/>
	</g>
	<g>
		<rect x="189.7" y="435.3" transform="matrix(0.5407 0.8412 -0.8412 0.5407 454.3481 40.5901)" width="0.6" height="2.1"/>
	</g>
	<g>
		<rect x="189" y="438.1" transform="matrix(0.6093 0.7929 -0.7929 0.6093 422.3333 21.5946)" width="0.6" height="2.5"/>
	</g>
	<g>
		<path d="M194,442.1l-0.4-0.4c0.4-0.4,1-0.7,1.6-0.7l0,0.6C194.8,441.6,194.4,441.8,194,442.1z"/>
	</g>
	<g>
		<path d="M200.5,443.2l-0.5-0.3c0.7-1.1,1.8-2,3.1-2.4l0.2,0.6C202.1,441.4,201.1,442.2,200.5,443.2z"/>
	</g>
	<g>
		<polygon points="202.7,449.1 201.9,448.3 204.1,446.3 204.5,446.7 202.7,448.3 203.1,448.7 		"/>
	</g>
	<g>
		<rect x="209.2" y="450" transform="matrix(0.295 0.9555 -0.9555 0.295 578.3644 117.5871)" width="0.6" height="1.6"/>
	</g>
	<g>
		<rect x="203.4" y="448.2" transform="matrix(0.6545 0.7561 -0.7561 0.6545 409.6994 1.1023)" width="0.6" height="1.2"/>
	</g>
	<g>
		<rect x="212" y="450.8" transform="matrix(0.732 0.6813 -0.6813 0.732 364.5534 -23.6139)" width="0.6" height="1.7"/>
	</g>
	<g>
		<rect x="215" y="454.3" transform="matrix(0.6913 0.7226 -0.7226 0.6913 395.7185 -14.9314)" width="0.6" height="2.7"/>
	</g>
	<g>
		<rect x="216.8" y="457.8" transform="matrix(0.7405 0.6721 -0.6721 0.7405 364.4434 -26.9138)" width="0.6" height="1.2"/>
	</g>
	<g>
		<rect x="219.6" y="458.5" transform="matrix(0.8824 0.4705 -0.4705 0.8824 241.9598 -49.429)" width="0.6" height="1.6"/>
	</g>
	<g>
		<rect x="221.9" y="459.9" transform="matrix(0.8728 0.4881 -0.4881 0.8728 253.2737 -49.8299)" width="0.6" height="2.1"/>
	</g>
	<g>
		<path d="M222.1,466.3l-0.5-0.2c0.9-2.2,2.2-4.3,3.9-5.9l0.4,0.4C224.3,462.2,223,464.1,222.1,466.3z"/>
	</g>
	<g>
		<path d="M225.4,465.1l-0.5-0.2c0.4-1,1.2-1.9,2.2-2.5l0.3,0.5c-0.4,0.2-0.3,0.3-0.2,0.6c0.1,0.3,0.2,0.7,0.1,1.3l-0.6-0.2
			c0.1-0.4,0-0.7-0.1-0.9c0-0.1,0-0.1-0.1-0.2C226,464,225.6,464.5,225.4,465.1z"/>
	</g>
	<g>
		<path d="M237.1,466.3l-0.5-0.2c0.1-0.3,0.1-1,0.2-1.6c0-0.4,0-0.7,0.1-1c-0.7,0.5-1.2,1.2-1.5,2l-0.5-0.2c0.5-1.1,1.3-2,2.3-2.6
			l0.8-0.4l-0.4,0.8c-0.1,0.3-0.1,1-0.2,1.6C237.3,465.2,237.3,465.9,237.1,466.3z"/>
	</g>
	<g>
		<rect x="240.1" y="464.5" transform="matrix(0.833 0.5533 -0.5533 0.833 298.0428 -55.1484)" width="0.6" height="3.2"/>
	</g>
	<g>
		<rect x="228.6" y="463.3" transform="matrix(0.9855 0.1698 -0.1698 0.9855 82.1279 -32.1182)" width="0.6" height="1.8"/>
	</g>
	<g>
		<rect x="231" y="464.1" transform="matrix(0.8944 0.4472 -0.4472 0.8944 232.2588 -54.3724)" width="0.6" height="1.3"/>
	</g>
	<g>
		<rect x="241" y="465.2" transform="matrix(0.8791 0.4767 -0.4767 0.8791 251.4829 -58.626)" width="0.6" height="2.4"/>
	</g>
	<g>
		<path d="M245.1,468.3c-0.1-0.9,0.1-1.8,0.7-2.5l0.5,0.4c-0.5,0.6-0.7,1.4-0.6,2.1L245.1,468.3z"/>
	</g>
	<g>
		<path d="M248,468.9l-0.6-0.2c0.3-1,0.4-2.1,0.3-3.1l0.6,0C248.4,466.7,248.3,467.8,248,468.9z"/>
	</g>
	<g>
		<rect x="253.5" y="466.8" width="0.6" height="2.6"/>
	</g>
	<g>
		<rect x="257.9" y="465.6" width="0.6" height="5.6"/>
	</g>
	<g>
		<rect x="262.3" y="468.3" width="0.6" height="1.5"/>
	</g>
	<g>
		<rect x="254.3" y="467.4" transform="matrix(0.9731 0.2306 -0.2306 0.9731 114.7913 -46.0893)" width="0.6" height="1.5"/>
	</g>
	<g>
		<path d="M258.4,471.9l-0.6-0.1c0.3-1.3,0.4-2.7,0.5-4.1l0.6,0C258.8,469.1,258.7,470.5,258.4,471.9z"/>
	</g>
	<g>
		<path d="M263.7,469.6l-0.5-0.4c0-0.1,0.1-0.2,0-0.2c0-0.1-0.1-0.2-0.2-0.2l0.2-0.5c0.2,0.1,0.4,0.3,0.5,0.6
			C263.9,469.1,263.9,469.4,263.7,469.6z"/>
	</g>
	<g>
		<rect x="266.1" y="468.4" transform="matrix(0.1674 0.9859 -0.9859 0.1674 684.5182 126.8114)" width="2.1" height="0.6"/>
	</g>
	<g>
		<path d="M218.1,450.7l-0.4-0.5c1.5-1.1,2.8-2.5,3.9-3.9l0.5,0.4C220.9,448.2,219.6,449.6,218.1,450.7z"/>
	</g>
	<g>
		<path d="M211.9,447.5l-0.6,0c0-0.5,0.5-0.8,0.9-0.8l0,0.6C212.1,447.2,212,447.3,211.9,447.5z"/>
	</g>
	<g>
		<rect x="213.5" y="448" transform="matrix(0.6659 0.746 -0.746 0.6659 406.4714 -9.4368)" width="0.6" height="2.3"/>
	</g>
	<g>
		<rect x="214.9" y="451" width="0.6" height="0.6"/>
	</g>
	<g>
		<rect x="209.5" y="446.5" transform="matrix(0.7792 0.6268 -0.6268 0.7792 326.6688 -32.7545)" width="0.6" height="1.5"/>
	</g>
	<g>
		<path d="M202.8,445.4l-0.4-0.4c0.9-0.8,1.9-1.6,2.9-2.2l0.3,0.5C204.6,443.9,203.7,444.6,202.8,445.4z"/>
	</g>
	<g>
		<path d="M201.1,452.5l-0.4-0.4c1.4-1.7,3-3.3,4.6-4.8l0.4,0.4C204.1,449.2,202.6,450.8,201.1,452.5z"/>
	</g>
	<g>
		<path d="M218,452.8l-0.2-0.5c1.1-0.5,2.1-1.3,2.7-2.3l0.5,0.3C220.3,451.4,219.2,452.3,218,452.8z"/>
	</g>
	<g>
		<path d="M222.8,457l-0.5-0.3c0.5-1,1.2-2,2.1-2.7l0.4,0.4C223.9,455.1,223.3,456,222.8,457z"/>
	</g>
	<g>
		<path d="M228.4,457.7l-0.5-0.4c0.5-0.6,0.9-1.3,1.2-2.1l0.5,0.2C229.4,456.3,229,457,228.4,457.7z"/>
	</g>
	<g>
		<rect x="238.6" y="456" width="0.6" height="3.2"/>
	</g>
	<g>
		<path d="M245.3,462.2l-0.6,0v-1.6c0-0.6-0.1-1.2,0-1.7l0.6,0v1.6C245.4,461.1,245.4,461.7,245.3,462.2z"/>
	</g>
	<g>
		<rect x="248.9" y="463" width="0.6" height="0.9"/>
	</g>
	<g>
		<rect x="254" y="464.4" transform="matrix(0.9833 0.1818 -0.1818 0.9833 88.8406 -38.4794)" width="0.6" height="1.8"/>
	</g>
	<g>
		<rect x="256.2" y="462.1" width="0.6" height="3.5"/>
	</g>
	<g>
		<rect x="259.7" y="463.3" width="0.6" height="1.8"/>
	</g>
	<g>
		<rect x="264.4" y="463.6" width="0.6" height="1.2"/>
	</g>
	<g>
		<rect x="261.2" y="465.9" width="0.6" height="0.9"/>
	</g>
	<g>
		<rect x="262.3" y="462.1" width="0.6" height="1.8"/>
	</g>
	<g>
		<rect x="263.5" y="467.1" width="0.6" height="2"/>
	</g>
	<g>
		<rect x="266.1" y="463" width="0.6" height="1.5"/>
	</g>
	<g>
		<rect x="270.2" y="470.9" width="0.6" height="1.2"/>
	</g>
	<g>
		<rect x="267" y="471.8" width="0.6" height="0.9"/>
	</g>
	<g>
		<rect x="269.5" y="466.7" transform="matrix(0.153 0.9882 -0.9882 0.153 690.4127 128.4236)" width="1.5" height="0.6"/>
	</g>
	<g>
		<rect x="275.3" y="467.5" transform="matrix(0.3339 0.9426 -0.9426 0.3339 624.8768 51.328)" width="1.6" height="0.6"/>
	</g>
	<g>
		<rect x="281.1" y="468" transform="matrix(0.2459 0.9693 -0.9693 0.2459 666.3696 80.0382)" width="1.2" height="0.6"/>
	</g>
	<g>
		<path d="M278.6,464.8c-1.3-0.4-2.5-1.4-3.2-2.6l0.5-0.3c0.6,1.1,1.7,1.9,2.9,2.3L278.6,464.8z"/>
	</g>
	<g>
		<rect x="285.6" y="464.5" transform="matrix(0.5756 0.8177 -0.8177 0.5756 501.9906 -37.7531)" width="3.6" height="0.6"/>
	</g>
	<g>
		<path d="M291,467c-1.1-0.5-0.9-2.1-0.9-2.6l0.6,0.1c-0.1,1.1,0.1,1.8,0.5,2.1L291,467z"/>
	</g>
	<g>
		<rect x="281.1" y="467.2" transform="matrix(0.3185 0.9479 -0.9479 0.3185 635.646 50.8579)" width="2.8" height="0.6"/>
	</g>
	<g>
		<rect x="286" y="470.6" width="0.3" height="0.6"/>
	</g>
	<g>
		<rect x="276.1" y="470.3" width="0.6" height="0.9"/>
	</g>
	<g>
		<rect x="283" y="470" transform="matrix(0.9245 0.3811 -0.3811 0.9245 200.6935 -72.4539)" width="0.6" height="0.9"/>
	</g>
	<g>
		<path d="M278.7,471.8c-0.1-0.7,0-1.5,0.3-2.2l0.5,0.3c-0.3,0.6-0.4,1.2-0.3,1.9L278.7,471.8z"/>
	</g>
	<g>
		<rect x="279.6" y="462" transform="matrix(0.3954 0.9185 -0.9185 0.3954 594.1542 21.9117)" width="1.6" height="0.6"/>
	</g>
	<g>
		<rect x="278.2" y="458.9" transform="matrix(0.2459 0.9693 -0.9693 0.2459 655.3626 76.031)" width="1.2" height="0.6"/>
	</g>
	<g>
		<rect x="277.3" y="454.2" width="0.6" height="2.6"/>
	</g>
	<g>
		<rect x="279" y="456.6" transform="matrix(0.1927 0.9813 -0.9813 0.1927 675.2545 93.0052)" width="4.2" height="0.6"/>
	</g>
	<g>
		<rect x="274.2" y="459.7" transform="matrix(0.9245 0.3811 -0.3811 0.9245 196.1242 -69.8794)" width="0.6" height="0.9"/>
	</g>
	<g>
		<path d="M290,465.1c-0.7-1-1-2.9-1-5.7V458h0.6v1.5c0,3.3,0.5,4.7,0.9,5.3L290,465.1z"/>
	</g>
	<g>
		<rect x="289.5" y="469.4" transform="matrix(0.4493 0.8934 -0.8934 0.4493 579.4225 -0.5295)" width="1.3" height="0.6"/>
	</g>
	<g>
		<path d="M295.3,469.4c0-0.7-0.2-1.4-0.6-2l0.5-0.3c0.4,0.7,0.7,1.5,0.7,2.3L295.3,469.4z"/>
	</g>
	<g>
		<path d="M294.4,464.3c-0.6-0.6-1-1.4-1-2.2l0.6,0c0,0.7,0.3,1.3,0.8,1.8L294.4,464.3z"/>
	</g>
	<g>
		<rect x="301.1" y="468.4" transform="matrix(0.4382 0.8989 -0.8989 0.4382 591.4572 -8.8741)" width="3.5" height="0.6"/>
	</g>
	<g>
		<path d="M297.6,464.1c-0.8-0.7-1.4-1.5-1.8-2.4l0.5-0.2c0.4,0.9,1,1.6,1.7,2.2L297.6,464.1z"/>
	</g>
	<g>
		<path d="M303.3,470.3c-0.4,0-0.7-0.2-1-0.5c-0.3-0.3-0.4-0.7-0.3-1.1l0.6,0.1c0,0.2,0,0.4,0.2,0.6c0.1,0.2,0.4,0.3,0.5,0.3h0
			L303.3,470.3L303.3,470.3z"/>
	</g>
	<g>
		<path d="M307,465.5c-1.5-0.8-2.7-1.9-3.7-3.2l0.5-0.3c0.9,1.3,2.1,2.3,3.5,3L307,465.5z"/>
	</g>
	<g>
		<rect x="308.5" y="468.1" transform="matrix(0.7071 0.7071 -0.7071 0.7071 421.6419 -81.1214)" width="0.4" height="0.6"/>
	</g>
	<g>
		<path d="M310.3,461.8c-2.7-0.6-5.2-1.7-7.4-3.3l0.3-0.5c2.1,1.6,4.6,2.7,7.2,3.2L310.3,461.8z"/>
	</g>
	<g>
		<rect x="309.2" y="464.3" transform="matrix(0.7925 0.6098 -0.6098 0.7925 347.7607 -92.9527)" width="2.5" height="0.6"/>
	</g>
	<g>
		<polygon points="314.4,467.7 312.8,466.1 313.3,465.6 314.8,467.2 		"/>
	</g>
	<g>
		<path d="M314.9,460.6c-0.7-0.3-1.3-0.8-1.7-1.6l0.5-0.3c0.3,0.6,0.8,1,1.4,1.3L314.9,460.6z"/>
	</g>
	<g>
		<rect x="318.8" y="463.6" transform="matrix(0.7882 0.6154 -0.6154 0.7882 353.1144 -98.2462)" width="1.1" height="0.6"/>
	</g>
	<g>
		<rect x="315.1" y="460" transform="matrix(0.6123 0.7906 -0.7906 0.6123 486.5844 -71.7541)" width="2.7" height="0.6"/>
	</g>
	<g>
		<path d="M318.5,466.7c-0.6-0.1-1.1-0.6-1.5-1.1c-0.3-0.6-0.4-1.2-0.2-1.8l0.6,0.2c-0.1,0.4-0.1,0.9,0.2,1.3
			c0.2,0.4,0.6,0.8,1.1,0.9L318.5,466.7z"/>
	</g>
	<g>
		<rect x="318.3" y="460.6" transform="matrix(0.7789 0.6271 -0.6271 0.7789 359.7065 -98.6455)" width="2.9" height="0.6"/>
	</g>
	<g>
		<rect x="321.5" y="464.2" transform="matrix(0.697 0.717 -0.717 0.697 430.7169 -90.3905)" width="1.7" height="0.6"/>
	</g>
	<g>
		<path d="M327,462c-2-0.3-3.9-1.5-5-3.1l0.5-0.3c1,1.5,2.8,2.6,4.6,2.9L327,462z"/>
	</g>
	<g>
		<rect x="328.3" y="464.1" transform="matrix(0.7808 0.6248 -0.6248 0.7808 362.3348 -103.8246)" width="1.6" height="0.6"/>
	</g>
	<g>
		<path d="M329.3,460c-1.1-0.2-2.2-0.9-2.8-1.8l0.5-0.3c0.6,0.8,1.5,1.4,2.5,1.6L329.3,460z"/>
	</g>
	<g>
		<path d="M325.4,456c-0.9,0-1.8-0.5-2.1-1.3l0.5-0.3c0.3,0.7,1.1,1.1,1.8,1l0.1,0.6C325.5,456,325.5,456,325.4,456z"/>
	</g>
	<g>
		<rect x="329.7" y="451.7" transform="matrix(0.7674 0.6411 -0.6411 0.7674 366.7382 -107.0169)" width="2.3" height="0.6"/>
	</g>
	<g>
		<rect x="332.5" y="458.9" transform="matrix(0.4486 0.8937 -0.8937 0.4486 594.1034 -44.5883)" width="1.3" height="0.6"/>
	</g>
	<g>
		<path d="M327.2,454.3c-0.9-0.3-1.8-0.6-2.6-1.1l0.3-0.5c0.8,0.4,1.7,0.8,2.5,1L327.2,454.3z"/>
	</g>
	<g>
		<path d="M337.7,456.8c-0.8-0.6-1.6-1.1-2.6-1.5l0.2-0.5c1,0.4,1.9,0.9,2.7,1.5L337.7,456.8z"/>
	</g>
	<g>
		<path d="M335.6,452.8c-0.2-0.4-0.6-0.8-1-0.9l0.2-0.6c0.6,0.2,1.2,0.7,1.4,1.3L335.6,452.8z"/>
	</g>
	<g>
		<path d="M336.3,448.7c-1.4-0.3-2.7-1.1-3.6-2.2l0.5-0.4c0.8,1,2,1.7,3.3,2L336.3,448.7z"/>
	</g>
	<g>
		<path d="M342.1,452.7c-1.1-0.7-2.1-1.5-3-2.4l0.4-0.4c0.8,0.9,1.8,1.7,2.8,2.3L342.1,452.7z"/>
	</g>
	<g>
		<path d="M336.4,446.5c-1,0-2.1-0.4-2.8-1.2l0.4-0.4c0.6,0.6,1.5,1,2.4,1L336.4,446.5z"/>
	</g>
	<g>
		<path d="M346.6,449.8c-1.4-0.3-2.6-0.9-3.7-1.8l0.4-0.4c1,0.8,2.1,1.4,3.4,1.7L346.6,449.8z"/>
	</g>
	<g>
		<rect x="340.9" y="444.4" transform="matrix(0.8006 0.5992 -0.5992 0.8006 334.6645 -116.257)" width="2.3" height="0.6"/>
	</g>
	<g>
		<path d="M343.7,441.9c-1.3,0-2.5-0.3-3.6-0.9l0.3-0.5c1.1,0.5,2.2,0.8,3.4,0.8L343.7,441.9z"/>
	</g>
	<g>
		<rect x="350.3" y="445.5" transform="matrix(0.9195 0.3931 -0.3931 0.9195 203.5452 -102.3986)" width="2.9" height="0.6"/>
	</g>
	<g>
		<path d="M362.4,445.4c-0.4-0.1-0.8-0.3-1.3-0.4c-2-0.6-4.4-1.4-6.2-1.3c-1.9,0.1-3.8-0.5-5.3-1.7l0.4-0.5c1.3,1.1,3.1,1.7,4.9,1.6
			c1.9-0.1,4.4,0.7,6.4,1.4c0.5,0.1,0.9,0.3,1.3,0.4L362.4,445.4z"/>
	</g>
	<g>
		<rect x="353.1" y="436.5" transform="matrix(0.9251 0.3798 -0.3798 0.9251 192.3892 -101.5505)" width="0.9" height="0.6"/>
	</g>
	<g>
		<rect x="353.6" y="446.6" transform="matrix(0.9028 0.4301 -0.4301 0.9028 226.5961 -108.8706)" width="1" height="0.6"/>
	</g>
	<g>
		<rect x="348.7" y="450" transform="matrix(0.8436 0.5369 -0.5369 0.8436 296.4701 -117.3978)" width="2.1" height="0.6"/>
	</g>
	<g>
		<rect x="344.9" y="444.9" transform="matrix(0.956 0.2935 -0.2935 0.956 145.8863 -81.764)" width="0.9" height="0.6"/>
	</g>
	<g>
		<path d="M348.2,441.2c-0.2,0-0.4,0-0.5-0.1c-0.8-0.3-1.4-1-1.6-1.8l0.6-0.1c0.1,0.6,0.6,1.1,1.2,1.3c0.5,0.2,1.4-0.2,2.2-0.5
			c0.7-0.2,1.3-0.5,1.8-0.5l0,0.6c-0.4,0-1,0.2-1.6,0.5C349.6,440.9,348.8,441.2,348.2,441.2z"/>
	</g>
	<g>
		<path d="M349.3,434.6c-0.8,0-1.6-0.6-1.8-1.4l0.6-0.1c0.1,0.6,0.8,1,1.4,0.9l0.1,0.6C349.5,434.6,349.4,434.6,349.3,434.6z"/>
	</g>
	<g>
		<rect x="359.2" y="439.4" transform="matrix(0.7071 0.7071 -0.7071 0.7071 416.1878 -125.3471)" width="0.4" height="0.6"/>
	</g>
	<g>
		<rect x="357.1" y="434.3" transform="matrix(0.9467 0.3222 -0.3222 0.9467 159.101 -92.1842)" width="1.9" height="0.6"/>
	</g>
	<g>
		<rect x="365.4" y="434.9" width="1.2" height="0.6"/>
	</g>
	<g>
		<path d="M364.2,431.6c-1.2,0-2.3-1.1-2.4-2.3l0.6,0c0.1,0.9,0.9,1.7,1.8,1.7L364.2,431.6z"/>
	</g>
	<g>
		<path d="M366,439.9c0,0-0.1,0-0.1,0l-0.2-0.1l0-0.2h0.3l-0.1-0.2c0.1,0,0.2-0.2,0.3-0.3c0,0,0,0,0.1-0.1c-0.4-0.2-0.9-0.6-1.1-1.1
			c-0.1-0.3-0.1-0.6,0-0.8l0.5,0.2c-0.1,0.1-0.1,0.2,0,0.4c0.1,0.3,0.5,0.7,1.1,0.9c0,0,0,0,0,0l0,0c0,0,0,0,0,0l0,0l0.2,0.3v0.4
			l-0.2-0.1c-0.1,0.1-0.1,0.1-0.2,0.2C366.3,439.7,366.2,439.9,366,439.9z"/>
	</g>
	<g>
		<path d="M357.8,430.8c-0.7,0-1.4-0.5-1.7-1.1l0.5-0.3c0.2,0.4,0.7,0.7,1.2,0.8L357.8,430.8z"/>
	</g>
	<g>
		<path d="M367.7,433.4c-0.9-0.3-1.7-0.8-2.2-1.6l0.5-0.3c0.4,0.6,1.1,1.1,1.9,1.4L367.7,433.4z"/>
	</g>
	<g>
		<polygon points="365.9,429.4 364.5,428.9 364.5,427.9 365.1,427.9 365.1,428.5 366.1,428.8 		"/>
	</g>
	<g>
		<rect x="373.9" y="422.4" transform="matrix(0.8944 0.4472 -0.4472 0.8944 228.553 -122.7139)" width="0.7" height="0.6"/>
	</g>
	<g>
		<rect x="370.1" y="426.1" width="1.2" height="0.6"/>
	</g>
	<g>
		<rect x="372.1" y="425.9" transform="matrix(0.7071 0.7071 -0.7071 0.7071 410.437 -138.4027)" width="0.4" height="0.6"/>
	</g>
	<g>
		<path d="M375.5,427.8c-0.8-0.3-1.5-1-1.8-1.7c-0.2-0.5-0.1-0.9,0.1-1.3l0.5,0.3c-0.1,0.3-0.1,0.5,0,0.8c0.2,0.5,0.8,1.1,1.5,1.3
			L375.5,427.8z"/>
	</g>
	<g>
		<rect x="372.8" y="420.5" transform="matrix(0.8288 0.5596 -0.5596 0.8288 299.4912 -137.1723)" width="2.1" height="0.6"/>
	</g>
	<g>
		<path d="M379.2,419.1c0-0.4-0.2-0.7-0.5-1l0.4-0.5c0.4,0.3,0.7,0.9,0.7,1.4L379.2,419.1z"/>
	</g>
	<g>
		<path d="M368.3,423.4c-1.4-0.4-2.4-1.8-2.3-3.2l0.6,0c-0.1,1.2,0.7,2.3,1.8,2.6L368.3,423.4z"/>
	</g>
	<g>
		<rect x="364.5" y="427.3" width="0.6" height="1.5"/>
	</g>
	<g>
		<rect x="357.2" y="428" transform="matrix(0.6535 0.757 -0.757 0.6535 448.2829 -122.672)" width="1.9" height="0.6"/>
	</g>
	<g>
		<rect x="355.8" y="433.8" transform="matrix(0.6865 0.7271 -0.7271 0.6865 427.6549 -123.83)" width="3.3" height="0.6"/>
	</g>
	<g>
		<path d="M361.5,426.4c-1.1-0.4-2.1-1.2-2.7-2.2l0.5-0.3c0.5,0.9,1.4,1.6,2.4,2L361.5,426.4z"/>
	</g>
	<g>
		<rect x="367.5" y="415.8" width="0.6" height="0.6"/>
	</g>
	<g>
		<rect x="377.6" y="417.6" transform="matrix(0.6382 0.7699 -0.7699 0.6382 458.4692 -139.8549)" width="0.8" height="0.6"/>
	</g>
	<g>
		<path d="M376.2,415.8c-2.7,0-5.4-0.9-7.5-2.5l0.4-0.5c2.4,1.8,5.4,2.6,8.3,2.3l0.1,0.6C377,415.7,376.6,415.8,376.2,415.8z"/>
	</g>
	<g>
		<path d="M379.2,415.6c0-0.3,0.1-0.6,0.4-0.8c0.3-0.2,0.6-0.2,0.9-0.1l-0.3,0.5c-0.1-0.1-0.2,0-0.3,0c-0.1,0-0.2,0.1-0.2,0.2
			L379.2,415.6z"/>
	</g>
	<g>
		<path d="M382.6,414.9c-1.6-0.7-3.1-1.9-4.2-3.3l0.5-0.4c1.1,1.3,2.4,2.4,4,3.1L382.6,414.9z"/>
	</g>
	<g>
		<rect x="374.9" y="411.4" transform="matrix(0.6739 0.7388 -0.7388 0.6739 426.7132 -143.305)" width="1.7" height="0.6"/>
	</g>
	<g>
		<path d="M384.6,410.3l-2.2-0.9c-0.3-0.1-0.7-0.2-0.8-0.4l-1.1-1.1l2.2,0.9c0.3,0.1,0.7,0.2,0.8,0.4L384.6,410.3z"/>
	</g>
	<g>
		<path d="M385.6,404.8c-0.2,0-0.3,0-0.5-0.1c-0.8-0.4-1.5-1.2-1.7-2.1l0.6-0.1c0.2,0.7,0.7,1.4,1.4,1.7c0.3,0.1,0.8,0,1.2-0.2
			c0.5-0.2,1-0.3,1.4-0.2l-0.1,0.6c-0.3,0-0.7,0.1-1.1,0.2C386.4,404.7,386,404.8,385.6,404.8z"/>
	</g>
	<g>
		<rect x="382.1" y="406.7" transform="matrix(0.9591 0.283 -0.283 0.9591 130.8305 -91.6697)" width="1.2" height="0.6"/>
	</g>
	<g>
		<rect x="387" y="399.7" transform="matrix(0.9373 0.3484 -0.3484 0.9373 163.6829 -110.1574)" width="2.1" height="0.6"/>
	</g>
	<g>
		<rect x="386.9" y="396.7" transform="matrix(0.8528 0.5222 -0.5222 0.8528 264.381 -144.0811)" width="1.7" height="0.6"/>
	</g>
	<g>
		<rect x="375.6" y="399" transform="matrix(0.6068 0.7949 -0.7949 0.6068 465.7451 -142.8462)" width="3.3" height="0.6"/>
	</g>
	<g>
		<path d="M377.4,405c-2.3-0.4-4.6-1.6-6.3-3.3l0.4-0.4c1.6,1.6,3.8,2.7,6,3.1L377.4,405z"/>
	</g>
	<g>
		<rect x="376.8" y="406.6" transform="matrix(0.1647 0.9863 -0.9863 0.1647 716.9675 -32.7481)" width="2.1" height="0.6"/>
	</g>
	<g>
		<path d="M380.2,399.8l-0.2-0.1c-0.3-0.1-0.4-0.1-0.5-0.1h0c-0.3,0-0.5-0.1-1-0.6l-1.2-1.1l3,1.3c0.1,0,0.2,0.1,0.3,0.1
			L380.2,399.8z"/>
	</g>
	<g>
		<rect x="382.6" y="398.9" transform="matrix(0.7586 0.6516 -0.6516 0.7586 352.586 -153.2739)" width="1" height="0.6"/>
	</g>
	<g>
		<path d="M390.6,396.9c-2.3,0-4.6-0.7-6.5-2.1l0.3-0.5c1.9,1.3,4.2,2,6.4,2l0,0.6C390.8,396.9,390.7,396.9,390.6,396.9z"/>
	</g>
	<g>
		<path d="M390.3,394.9l-1-0.2l-0.1-0.1c-0.3-0.4-0.5-0.9-0.4-1.4l0.6,0.1c-0.1,0.3,0,0.6,0.2,0.8l0.8,0.2L390.3,394.9z"/>
	</g>
	<g>
		<path d="M391.6,391.9L391.6,391.9c-0.5,0-0.7-0.1-1-0.3c-0.2-0.1-0.4-0.3-1-0.6l0.2-0.5l4,1.3l-1.4,0.1
			C392,391.9,391.8,391.9,391.6,391.9z"/>
	</g>
	<g>
		<path d="M393.7,388.4c-1.3,0-2.6-0.2-3.8-0.6l0.2-0.6c1.5,0.5,3,0.7,4.6,0.6l0.1,0.6C394.4,388.3,394,388.4,393.7,388.4z"/>
	</g>
	<g>
		<path d="M394.4,382.8l-0.5-0.3c-0.5-0.1-0.7-0.3-0.8-0.5l-1.8-1.1l1.1,0.1l-0.2-0.3l0.5,0.3c0.5,0.1,0.7,0.3,0.8,0.5l1.8,1.1
			l-1.1-0.1L394.4,382.8z"/>
	</g>
	<g>
		<rect x="393" y="383.2" transform="matrix(0.8227 0.5685 -0.5685 0.8227 287.8777 -155.8525)" width="1.5" height="0.6"/>
	</g>
	<g>
		<path d="M393.2,385.4c-1,0-2-0.4-2.8-1l0.4-0.5c0.8,0.7,1.9,1,3,0.8l0.1,0.6C393.6,385.4,393.4,385.4,393.2,385.4z"/>
	</g>
	<g>
		<path d="M394.7,380.7L394.7,380.7l-2-1.1l2.5,0l0,0.6c0,0,0.1,0,0.1,0c0,0-0.1,0.1-0.1,0.2C395.1,380.4,395,380.7,394.7,380.7z"/>
	</g>
	<g>
		<rect x="396.2" y="376.9" width="0.3" height="0.6"/>
	</g>
	<g>
		<path d="M400,374.6h-7.5l1.5-0.6c0.2-0.1,0.6-0.3,1-0.5c1-0.5,2.2-1.1,2.9-1l-0.1,0.6c-0.5-0.1-1.6,0.5-2.4,0.9h4.5V374.6z"/>
	</g>
	<g>
		<path d="M396.7,368.7h-2.9v-0.6h2.9c0.1,0,0.5-0.3,0.7-0.5c0.6-0.5,0.8-0.6,1.1-0.6v0.6c-0.1,0-0.5,0.3-0.7,0.5
			C397.2,368.5,397,368.7,396.7,368.7z"/>
	</g>
	<g>
		<rect x="395" y="370.2" width="3.8" height="0.6"/>
	</g>
	<g>
		<rect x="387.8" y="387.4" transform="matrix(0.1231 0.9924 -0.9924 0.1231 726.9617 -43.5247)" width="0.6" height="4.4"/>
	</g>
	<g>
		<rect x="389.1" y="376.9" width="1.5" height="0.6"/>
	</g>
	<g>
		<path d="M386.3,376c-0.1,0-0.3,0-0.4,0l0-0.6c2.5,0.1,4.7-0.6,6.6-2.1l0.4,0.5C391,375.3,388.8,376,386.3,376z"/>
	</g>
	<g>
		<rect x="392.3" y="371" width="0.6" height="0.3"/>
	</g>
	<g>
		<path d="M392.3,368.7h-1.2v-0.6h1.2c0,0,0.2-0.4,0.4-0.6c0.2-0.5,0.5-0.9,0.8-0.9l0.1,0.6c-0.1,0-0.3,0.4-0.4,0.6
			C393,368.3,392.7,368.7,392.3,368.7z"/>
	</g>
	<g>
		<rect x="380.9" y="386.3" width="0.9" height="0.6"/>
	</g>
	<g>
		<rect x="378" y="392.4" width="1.5" height="0.6"/>
	</g>
	<g>
		<path d="M377.3,395.6c-0.5,0-1-0.1-1.5-0.4l0.3-0.5c0.4,0.2,0.8,0.3,1.3,0.3L377.3,395.6C377.4,395.6,377.4,395.6,377.3,395.6z"/>
	</g>
	<g>
		<rect x="370.7" y="400.3" width="2" height="0.6"/>
	</g>
	<g>
		<rect x="368.9" y="409.1" transform="matrix(0.9449 0.3273 -0.3273 0.9449 154.3597 -98.3083)" width="0.6" height="0.6"/>
	</g>
	<g>
		<rect x="366.6" y="416.7" width="1.8" height="0.6"/>
	</g>
	<g>
		<rect x="368.9" y="407.7" transform="matrix(0.479 0.8778 -0.8778 0.479 550.5241 -111.4869)" width="0.6" height="0.7"/>
	</g>
	<g>
		<rect x="356" y="422" width="2.3" height="0.6"/>
	</g>
	<g>
		<path d="M361.4,427.3c-1,0-2.1-0.1-3.1-0.4l0.1-0.6c1.3,0.3,2.7,0.4,4,0.3l0,0.6C362.1,427.3,361.8,427.3,361.4,427.3z"/>
	</g>
	<g>
		<rect x="367.7" y="414.7" width="0.3" height="0.6"/>
	</g>
	<g>
		<rect x="366.9" y="421.7" width="0.6" height="0.6"/>
	</g>
	<g>
		<rect x="369.6" y="385.2" transform="matrix(0.6741 0.7386 -0.7386 0.6741 405.4784 -147.4957)" width="0.6" height="1.2"/>
	</g>
	<g>
		<path d="M376.5,384.3c-0.4,0-0.9-0.1-1.3-0.3l0.2-0.5c0.5,0.2,1.1,0.3,1.6,0.2l0.1,0.6C376.9,384.3,376.7,384.3,376.5,384.3z"/>
	</g>
	<g>
		<rect x="373.3" y="390.1" width="2" height="0.6"/>
	</g>
	<g>
		<rect x="381.9" y="386.3" transform="matrix(0.3845 0.9231 -0.9231 0.3845 593.213 -114.2001)" width="0.6" height="2.9"/>
	</g>
	<g>
		<path d="M360,406l-0.2-0.6c2.5-0.7,5.1-1.5,7.5-2.5l0.2,0.5C365.1,404.5,362.5,405.3,360,406z"/>
	</g>
	<g>
		<rect x="367.3" y="395.1" transform="matrix(0.1524 0.9883 -0.9883 0.1524 702.8651 -27.7572)" width="0.6" height="1.5"/>
	</g>
	<g>
		<rect x="365.7" y="401.4" transform="matrix(0.3673 0.9301 -0.9301 0.3673 606.3523 -85.462)" width="0.6" height="3.2"/>
	</g>
	<g>
		<rect x="366" y="407.1" width="0.3" height="0.6"/>
	</g>
	<g>
		<rect x="362.2" y="410.2" transform="matrix(0.125 0.9922 -0.9922 0.125 725.3271 0.315)" width="0.6" height="2.4"/>
	</g>
	<g>
		<rect x="361.6" y="416.9" transform="matrix(0.4061 0.9138 -0.9138 0.4061 597.3524 -82.1755)" width="0.6" height="3.2"/>
	</g>
	<g>
		<rect x="359.8" y="420.9" transform="matrix(0.3145 0.9493 -0.9493 0.3145 647.8443 -52.2849)" width="0.6" height="3.1"/>
	</g>
	<g>
		<path d="M312,446.5c-0.5-0.4-1.1-0.7-1.7-0.9c-0.8-0.4-1.6-0.7-2.2-1.3c-0.1,0-0.3-0.1-0.4-0.2c-0.2-0.2-0.3-0.5-0.2-0.7l0.2-0.7
			l0.4,0.6c0.6,0.9,1.5,1.4,2.5,1.8c0.6,0.3,1.2,0.6,1.8,1L312,446.5z"/>
	</g>
	<g>
		<path d="M313,450.6c-0.3-0.3-0.5-0.8-0.7-1.2l-0.7-1.2l0.5-0.3c0.3,0.3,0.5,0.8,0.7,1.2l0.7,1.2L313,450.6z"/>
	</g>
	<g>
		<rect x="307.6" y="451" transform="matrix(0.5086 0.861 -0.861 0.5086 540.425 -44.2673)" width="2.8" height="0.6"/>
	</g>
	<g>
		<rect x="314.7" y="448.9" transform="matrix(0.5965 0.8026 -0.8026 0.5965 487.9853 -72.1993)" width="2.3" height="0.6"/>
	</g>
	<g>
		<rect x="317" y="455.1" transform="matrix(0.2459 0.9693 -0.9693 0.2459 680.8795 35.5627)" width="1.2" height="0.6"/>
	</g>
	<g>
		<path d="M322.7,452.8l-1.6-0.7c-1.3-0.6-2.5-1.7-3.1-3.1l-0.7-1.4l1.1,1.1c0.5,0.5,1,1,1.5,1.5c0.5,0.5,1,1,1.5,1.4L322.7,452.8z"
			/>
	</g>
	<g>
		<rect x="322.7" y="450.4" width="0.6" height="0.3"/>
	</g>
	<g>
		<rect x="228.5" y="447" transform="matrix(0.5823 0.8129 -0.8129 0.5823 459.3793 0.876)" width="0.6" height="1.1"/>
	</g>
	<g>
		<path d="M199.5,436.1c-0.1,0-0.3,0-0.4,0l0-0.6c1.4,0.1,2.8-0.3,4-1.1l0.3,0.5C202.2,435.7,200.9,436.1,199.5,436.1z"/>
	</g>
	<g>
		<rect x="200" y="435.8" transform="matrix(0.4488 0.8936 -0.8936 0.4488 500.6989 61.8092)" width="0.6" height="2"/>
	</g>
	<g>
		<rect x="189.6" y="433.8" transform="matrix(0.1991 0.98 -0.98 0.1991 578.158 162.1948)" width="0.6" height="2.1"/>
	</g>
	<g>
		<path d="M181.9,431.5l-0.1-0.6c2.4-0.4,5-1.4,6.8-2.6l0.3,0.5l0,0v0l-3,2l-0.2,0.5l-0.5-0.3l0.3-0.5
			C184.3,431,183,431.3,181.9,431.5z"/>
	</g>
	<g>
		<rect x="174.9" y="422.3" transform="matrix(0.4919 0.8706 -0.8706 0.4919 458.5923 63.1174)" width="0.6" height="4.3"/>
	</g>
	<g>
		<path d="M248.7,342.5l-0.4-0.4c0.4-0.4,1.1-0.9,1.9-1.4c0.8-0.5,1.6-1.1,2-1.4c0.2-0.2,0-0.9-0.1-1.4c-0.1-0.4-0.2-0.8-0.2-1.2
			l-0.6,0.3l-0.3-0.5l2.7-1.4l-1.2,1.2c-0.2,0.2,0,0.9,0.1,1.4c0.2,0.8,0.3,1.5,0,1.9c-0.4,0.4-1.3,1-2.1,1.5
			C249.8,341.7,249.1,342.2,248.7,342.5z"/>
	</g>
	<g>
		<rect x="245" y="344.6" transform="matrix(0.9066 0.422 -0.422 0.9066 168.5638 -71.2891)" width="0.6" height="1"/>
	</g>
	<g>
		<path d="M243.5,343.9l-0.5-0.4c0.7-1,1.7-1.8,2.8-2.4l0.3,0.5C245.1,342.3,244.2,343,243.5,343.9z"/>
	</g>
	<g>
		<rect x="248.4" y="346" transform="matrix(0.5664 0.8242 -0.8242 0.5664 393.7297 -54.5564)" width="0.6" height="1.7"/>
	</g>
	<g>
		<path d="M246.5,342.4l-0.6-0.1c0.3-1.3,1.3-2.3,2.6-2.6l0.1,0.6C247.6,340.5,246.7,341.4,246.5,342.4z"/>
	</g>
	<g>
		<rect x="248.3" y="346.6" transform="matrix(0.7071 0.7071 -0.7071 0.7071 318.1926 -74.1212)" width="0.6" height="0.8"/>
	</g>
	<g>
		<rect x="249.3" y="343.5" transform="matrix(0.5466 0.8374 -0.8374 0.5466 401.5378 -52.9255)" width="0.6" height="1.7"/>
	</g>
	<g>
		<path d="M239.8,349.8l-0.5-0.3c0.3-0.6,0.7-1,1.3-1.3l0.3,0.5C240.4,349,240,349.4,239.8,349.8z"/>
	</g>
	<g>
		<rect x="234.8" y="353.5" transform="matrix(0.3279 0.9447 -0.9447 0.3279 492.222 15.722)" width="0.6" height="0.7"/>
	</g>
	<g>
		<path d="M229,350l0-0.6c0.9-0.1,1.8-0.5,2.5-1.1l0.4,0.4C231,349.4,230,349.9,229,350z"/>
	</g>
	<g>
		<path d="M233.5,351.6l-0.3-0.5c0.6-0.3,1.3-0.4,2-0.3l-0.2,0.6C234.5,351.3,233.9,351.4,233.5,351.6z"/>
	</g>
	<g>
		<rect x="223.2" y="348.7" transform="matrix(0.2927 0.9562 -0.9562 0.2927 491.9385 33.2293)" width="0.6" height="0.9"/>
	</g>
	<g>
		<rect x="211.8" y="354.8" transform="matrix(0.6566 0.7543 -0.7543 0.6566 341.1695 -37.7727)" width="0.6" height="1.9"/>
	</g>
	<g>
		<path d="M203.7,363.8l-0.5-0.3c0.6-1.2,1.6-2.1,2.8-2.7l0.3,0.5C205.2,361.9,204.2,362.8,203.7,363.8z"/>
	</g>
	<g>
		<path d="M200.3,363.8c-0.2-0.8,0-1.8,0.7-2.3l0.4,0.4c-0.5,0.4-0.7,1.1-0.5,1.7L200.3,363.8z"/>
	</g>
	<g>
		<rect x="200.1" y="369.4" transform="matrix(0.7071 0.7071 -0.7071 0.7071 320.3381 -33.328)" width="0.6" height="1.2"/>
	</g>
	<g>
		<path d="M197.6,369.4c-0.2-0.6-0.1-1.2,0.2-1.7l0.5,0.3c-0.2,0.4-0.3,0.9-0.2,1.3L197.6,369.4z"/>
	</g>
	<g>
		<rect x="205" y="355" transform="matrix(0.5547 0.8321 -0.8321 0.5547 387.5616 -12.3667)" width="0.6" height="1.7"/>
	</g>
	<g>
		<rect x="208.9" y="358.1" transform="matrix(0.7071 0.7071 -0.7071 0.7071 314.6288 -42.9703)" width="0.6" height="0.4"/>
	</g>
	<g>
		<path d="M213.3,360.4L213,360c0.2-0.1,0.2-0.4,0.2-0.5l0.6-0.2C213.8,359.7,213.7,360.2,213.3,360.4z"/>
	</g>
	<g>
		<rect x="215.8" y="353.8" width="0.6" height="0.3"/>
	</g>
	<g>
		<path d="M217.7,361.6l-0.4-0.4c1-1,1.8-2.1,2.3-3.4c0,0,1-2.2,1.8-1.9l-0.2,0.6c-0.2,0.1-0.9,1.1-1.1,1.6
			C219.6,359.3,218.8,360.6,217.7,361.6z"/>
	</g>
	<g>
		<rect x="225.4" y="354.6" width="0.9" height="0.6"/>
	</g>
	<g>
		<rect x="225.4" y="350.8" width="2.3" height="0.6"/>
	</g>
	<g>
		<path d="M253.1,343.2c-0.4-0.1-0.3-0.7-0.2-1.3l-0.5,0.2l0.7-1l0.1,0l0.7-0.3l0.2,0.5l-0.7,0.3c0,0.1,0,0.1,0,0.2
			c0,0.2-0.1,0.7-0.1,0.9c0,0,0-0.1-0.1-0.1L253.1,343.2z"/>
	</g>
	<g>
		<path d="M256.5,339.1l-0.1-0.6c0.3,0,0.5-0.2,0.7-0.5l0.5,0.3C257.4,338.8,257,339.1,256.5,339.1z"/>
	</g>
	<g>
		<path d="M257.6,343.7l-0.5-0.3c0.5-0.9,1.3-1.6,2.2-2.1l0.3,0.5C258.8,342.2,258.1,342.9,257.6,343.7z"/>
	</g>
	<g>
		<path d="M258.5,348.4l-0.5-0.4c0.5-0.7,1.2-1.2,1.9-1.6c0-0.1,0.1-0.2,0.2-0.2c0.3-0.2,0.7-0.1,1.1,0c0.3,0.1,0.7,0.2,0.8,0
			c0.8-1,1.8-2.8,1.7-3.6l0.6-0.1c0.2,1.2-1.3,3.3-1.8,4c-0.3,0.4-0.9,0.3-1.4,0.2c-0.2,0-0.6-0.1-0.6-0.1l0,0.2l-0.1,0
			C259.6,347.3,259,347.8,258.5,348.4z"/>
	</g>
	<g>
		<rect x="261.6" y="337.8" transform="matrix(0.8383 0.5452 -0.5452 0.8383 227.0237 -87.9844)" width="0.6" height="1.9"/>
	</g>
	<g>
		<path d="M270.8,343l-0.6-0.1c0-0.1,0-0.2-0.1-0.3c-0.1-0.1-0.2-0.2-0.3-0.2l0.1-0.6c0.3,0.1,0.5,0.2,0.7,0.5
			C270.8,342.5,270.9,342.7,270.8,343z"/>
	</g>
	<g>
		<rect x="265.3" y="344.1" width="0.3" height="0.6"/>
	</g>
	<g>
		<path d="M280.6,339.9l-0.6-0.6l0.4-0.4c0.1,0.1,0.8-0.1,1.1-0.2c0.7-0.2,1.3-0.5,1.6-0.1l-0.4,0.4c-0.1-0.1-0.8,0.1-1.1,0.2
			c-0.3,0.1-0.5,0.2-0.7,0.2l0.1,0.1L280.6,339.9z"/>
	</g>
	<g>
		<rect x="280" y="343.1" transform="matrix(0.708 0.7062 -0.7062 0.708 324.4216 -97.9221)" width="1.2" height="0.6"/>
	</g>
	<g>
		<rect x="286.2" y="342.1" transform="matrix(0.7071 0.7071 -0.7071 0.7071 326.0292 -102.4107)" width="0.8" height="0.6"/>
	</g>
	<g>
		<rect x="283" y="347.4" transform="matrix(0.8868 0.4622 -0.4622 0.8868 192.7957 -91.7548)" width="1.3" height="0.6"/>
	</g>
	<g>
		<path d="M284.8,344.7c-0.2,0-0.4-0.1-0.6-0.2c-0.2-0.2-0.3-0.5-0.2-0.7l0.6,0.1c0,0,0,0.1,0.1,0.2c0.1,0.1,0.1,0.1,0.2,0.1
			l0.1,0.6C284.9,344.7,284.8,344.7,284.8,344.7z"/>
	</g>
	<g>
		<rect x="289.8" y="346.2" transform="matrix(0.885 0.4656 -0.4656 0.885 194.74 -95.2567)" width="0.7" height="0.6"/>
	</g>
	<g>
		<path d="M291.8,342.7c-1.2-0.3-2.3-1.2-2.8-2.3l0.5-0.2c0.4,1,1.3,1.7,2.4,2L291.8,342.7z"/>
	</g>
	<g>
		<rect x="295.7" y="345.6" width="0.3" height="0.6"/>
	</g>
	<g>
		<rect x="298.1" y="344.3" transform="matrix(0.8062 0.5916 -0.5916 0.8062 261.8978 -110.3085)" width="2.5" height="0.6"/>
	</g>
	<g>
		<path d="M303.9,348.8c-0.6-0.1-1.2-0.5-1.4-1.1l0.5-0.2c0.1,0.4,0.5,0.7,0.9,0.7L303.9,348.8z"/>
	</g>
	<g>
		<rect x="300" y="342.5" transform="matrix(0.7733 0.6341 -0.6341 0.7733 285.5284 -112.9528)" width="1.5" height="0.6"/>
	</g>
	<g>
		<path d="M303.9,347l-1.9-0.7l1-0.2c0.5-0.1,0.7-0.1,0.9,0.1c0.1,0.1,0.1,0.2,0.1,0.4L303.9,347z"/>
	</g>
	<g>
		<rect x="296.9" y="345.9" width="0.6" height="0.6"/>
	</g>
	<g>
		<path d="M298,348.8c-0.5,0-1.1-0.3-1.4-0.8l0.5-0.3c0.2,0.3,0.5,0.5,0.9,0.5L298,348.8C298.1,348.8,298,348.8,298,348.8z"/>
	</g>
	<g>
		<rect x="305.4" y="351.3" transform="matrix(0.9241 0.3821 -0.3821 0.9241 157.5646 -90.2938)" width="1.6" height="0.6"/>
	</g>
	<g>
		<rect x="307.4" y="349.1" transform="matrix(0.9558 0.2942 -0.2942 0.9558 116.4266 -75.273)" width="2.1" height="0.6"/>
	</g>
	<g>
		<rect x="305.3" y="344.1" transform="matrix(0.9019 0.432 -0.432 0.9019 178.8184 -98.3126)" width="1" height="0.6"/>
	</g>
	<g>
		<rect x="310.9" y="350.1" transform="matrix(0.7071 0.7071 -0.7071 0.7071 338.8846 -117.3413)" width="0.4" height="0.6"/>
	</g>
	<g>
		<path d="M317.3,352.5L317.3,352.5l-3-2.2l0.8,0c0,0,0,0,0,0c0.7,0,1.3,0.6,1.9,1.2c0.2,0.2,0.4,0.4,0.6,0.6L317.3,352.5
			L317.3,352.5L317.3,352.5z"/>
	</g>
	<g>
		<rect x="322.2" y="351.6" transform="matrix(0.7554 0.6553 -0.6553 0.7554 309.532 -125.4307)" width="1.2" height="0.6"/>
	</g>
	<g>
		<path d="M321.1,354.3c-0.2-0.1-0.6-0.4-1.1-1c-0.3-0.3-0.7-0.8-0.9-0.8l-0.1,0l0-0.1c-0.1-0.2-0.7-0.8-1.1-1.2
			c-0.6-0.6-1-1-1.2-1.3c-0.8-0.1-1.5-0.6-1.8-1.3l0.5-0.3c0.3,0.6,0.9,0.9,1.5,1l0.2,0l0.1,0.2c0.1,0.2,0.7,0.8,1.1,1.2
			c0.6,0.6,1,1,1.2,1.3c0.2,0.1,0.5,0.4,1,0.9c0.3,0.3,0.7,0.8,0.9,0.8L321.1,354.3z"/>
	</g>
	<g>
		<path d="M330.7,354.7c-1.1,0-2.1-0.4-2.9-1.1l0.4-0.4c0.9,0.7,2.1,1.1,3.2,0.9l0.1,0.6C331.2,354.7,331,354.7,330.7,354.7z"/>
	</g>
	<g>
		<path d="M336.3,358.1c-0.6-0.4-1-1.2-1.5-2c-0.3-0.6-0.7-1.3-1.1-1.6l-2.2-1.9l0.4-0.4l2.2,1.9c0.5,0.4,0.9,1.1,1.2,1.8
			c0.4,0.7,0.8,1.4,1.3,1.8L336.3,358.1z"/>
	</g>
	<g>
		<path d="M339.2,356.4c-1.4-0.5-2.6-1.4-3.6-2.5l0.4-0.4c0.9,1,2.1,1.8,3.3,2.3L339.2,356.4z"/>
	</g>
	<g>
		<rect x="337.1" y="358.9" transform="matrix(0.7833 0.6216 -0.6216 0.7833 296.5879 -132.4901)" width="2.5" height="0.6"/>
	</g>
	<g>
		<rect x="339.6" y="358.3" transform="matrix(0.7071 0.7071 -0.7071 0.7071 353.0872 -135.2313)" width="0.4" height="0.6"/>
	</g>
	<g>
		<rect x="344.6" y="359" width="0.6" height="0.6"/>
	</g>
	<g>
		<path d="M224.9,374.3c1-0.6,1.9-1.1,2.9-1.7c1-0.6,1.9-1.1,2.9-1.6c1-0.5,2-1.1,2.9-1.6c1-0.5,2-1,3-1.5l3-1.5c1-0.5,2-1,3-1.5
			c1-0.5,2-1,3-1.4c1-0.5,2-0.9,2.9-1.4l2.9-1.4l1.5-0.7l1.6-0.7c1.5-0.6,2.7-0.9,4-1.2c0.6-0.1,1.3-0.2,1.9-0.3
			c0.6-0.1,1.3-0.1,1.9-0.2c1.2-0.1,2.5-0.1,3.7,0c1.2,0,2.4,0.2,3.7,0.3c1.2,0.2,2.4,0.4,3.6,0.7c1.2,0.3,2.4,0.7,3.6,1.1l-2.9-0.1
			c1.1-0.4,2.2-0.7,3.3-0.9c1.1-0.3,2.2-0.5,3.3-0.8c1.1-0.2,2.3-0.4,3.5-0.6c1.2-0.1,2.5-0.2,4-0.2l0.6,0.1l0.3,0l0.1,0l0,0l0.2,0
			l0.1,0l0.4,0.1l0.6,0.2c0.7,0.2,1.2,0.4,1.8,0.6c1.1,0.4,2.1,0.8,3.1,1.2c2,0.9,3.9,1.7,5.9,2.6c1.9,0.9,3.9,1.8,5.8,2.7l5.7,2.7
			c1,0.5,1.9,0.9,2.9,1.3c1,0.4,1.9,0.9,2.9,1.3c1,0.4,1.9,0.8,2.9,1.1c0.2,0.1,0.5,0.2,0.7,0.2c0.2,0.1,0.5,0.2,0.7,0.2
			c0.5,0.1,0.9,0.2,1.3,0.2l-0.3,0.2c0.7-0.5,1.4-1,2.1-1.4l0.3-0.2l0.1,0.3c0.2,0.4,0.4,0.9,0.6,1.4c-0.4-0.3-0.8-0.7-1.1-1l0.5,0
			c-0.5,0.7-0.9,1.4-1.4,2.1l-0.1,0.1l-0.2,0.1c-1.3,0.5-2.5,0.4-3.6,0.4c-1.1,0-2.2-0.2-3.3-0.3c-1.1-0.1-2.2-0.3-3.3-0.5
			c-1.1-0.2-2.1-0.4-3.2-0.7c-1.1-0.2-2.1-0.5-3.2-0.8c-1-0.3-2.1-0.5-3.1-0.8c-2.1-0.6-4.1-1.2-6.2-1.8c-2-0.6-4.1-1.3-6.1-1.9
			c-1-0.3-2-0.6-2.9-0.9c-0.4-0.1-1-0.3-1.3-0.3c0,0-0.1,0-0.1,0l-0.4-0.1l-0.1,0c0.4,0.1,0.1,0,0.2,0l0,0l0,0l0,0l-0.1,0l-0.2,0
			c-0.6,0-1.5,0.1-2.4,0.2c-0.9,0.2-1.8,0.4-2.8,0.6c-1,0.2-1.9,0.5-2.9,0.7c-1,0.3-2,0.6-2.8,0.8l-1.5,0.4l-1.4-0.5
			c-0.9-0.3-1.7-0.6-2.7-0.9c-0.9-0.2-1.9-0.4-2.8-0.6c-1-0.2-1.9-0.3-2.9-0.4c-0.5,0-1-0.1-1.4-0.1c-0.5,0-1,0-1.4-0.1
			c-0.5,0-0.9,0-1.4,0c-0.5,0-0.9,0-1.4,0.1c-0.9,0.1-1.8,0.3-2.4,0.4l-6.3,2c-1.1,0.3-2.2,0.7-3.2,1c-1.1,0.3-2.1,0.6-3.2,0.9
			c-1.1,0.3-2.1,0.6-3.2,0.8c-1.1,0.3-2.1,0.5-3.2,0.8c-1.1,0.2-2.2,0.5-3.3,0.7c-1.1,0.2-2.2,0.5-3.3,0.7c-1.1,0.2-2.2,0.4-3.3,0.6
			C227.1,373.9,226,374.1,224.9,374.3z"/>
	</g>
</g>
</svg>
