<?xml version="1.0" encoding="utf-8"?>
<!-- Generator: Adobe Illustrator 18.1.0, SVG Export Plug-In . SVG Version: 6.00 Build 0)  -->
<svg version="1.1" id="Layer_1" xmlns="http://www.w3.org/2000/svg" xmlns:xlink="http://www.w3.org/1999/xlink" x="0px" y="0px"
	 viewBox="0 0 512.9 512.9" enable-background="new 0 0 512.9 512.9" xml:space="preserve">
<g>
	<g>
		<path fill="#232323" d="M143.5,289.8c0,0,0.3,1.8,0.9,5.2c0.6,3.4,1.4,8.3,2.3,14.6c0.9,6.3,1.7,14,3.2,22.8
			c0.7,4.4,1.5,9,2.5,13.9c1,4.9,2,10,3.5,15.2c1.6,5.1,3.4,10.6,5.2,16.2c0.9,2.8,1.8,5.7,2.7,8.6c0.5,1.4,0.9,2.9,1.4,4.3
			c0.5,1.4,1.1,2.9,1.6,4.4c2.2,5.8,4.5,11.8,7.2,17.7c0.7,1.5,1.4,2.9,2.1,4.2c0.2,0.3,0.3,0.5,0.6,0.9c0.3,0.3,0.5,0.7,0.7,1
			l1.5,1.9c2.1,2.6,4.3,5.1,6.5,7.7c2.2,2.6,4.5,5.2,6.8,7.7c2.3,2.6,4.7,5.1,7.1,7.7c2.4,2.6,4.8,5.2,7.2,7.8
			c1.2,1.3,2.4,2.6,3.6,3.9l1.8,1.9l0.9,0.9l0.2,0.2l0.3,0.3l0.5,0.5c1.4,1.7,2.3,3,3.4,4.4c1.1,1.4,2.2,2.7,3.3,4
			c2.3,2.5,5,4.7,7.9,6.6c2.9,1.9,6,3.4,9.3,4.6c1.6,0.7,3.3,1.1,5,1.6c1.7,0.5,3.5,0.8,5.1,1.2c7,1.2,14.2,1.8,21.3,1.8
			c7.1,0,14.2-0.6,20.5-2.9c0.8-0.2,1.5-0.6,2.3-1l1.1-0.5l0.3-0.1c0.1,0,0,0,0.1,0l0.1-0.1l0.6-0.3l2.3-1.4l2.1-1.4
			c2.9-1.9,5.7-3.9,8.4-6.1c5.5-4.3,10.6-8.9,15.6-13.5c1.3-1.2,2.5-2.3,3.8-3.5c0.6-0.6,1.3-1.2,1.9-1.7l1.9-1.7
			c2.4-2.1,4.7-4.5,7-6.8c4.6-4.6,9-9.3,13.1-14c4.2-4.6,8.1-9.3,11.6-13.9c1.7-2.3,3.4-4.7,4.6-7c0.6-1.2,1.2-2.5,1.8-3.8
			c0.6-1.3,1.2-2.5,1.8-3.7c4.8-9.7,8.2-19.1,10.9-27.5c2.7-8.4,4.8-15.9,6.4-22c1.6-6.2,2.9-11,3.7-14.3c0.8-3.3,1.3-5.1,1.3-5.1
			s-0.4,1.8-1,5.1c-0.7,3.4-1.6,8.3-3,14.5c-1.4,6.2-3.2,13.8-5.6,22.4c-1.2,4.3-2.6,8.8-4.2,13.6c-1.6,4.7-3.6,9.7-5.9,14.6
			c-0.6,1.2-1.1,2.5-1.7,3.8c-0.6,1.2-1.1,2.5-1.7,3.9c-1.3,2.8-3,5.2-4.7,7.7c-3.5,4.9-7.4,9.6-11.5,14.4c-4.1,4.8-8.4,9.6-13,14.4
			c-2.3,2.4-4.6,4.8-7.2,7.2L331,454c-0.6,0.5-1.2,1.1-1.8,1.7c-1.2,1.2-2.5,2.3-3.7,3.5c-5,4.7-10.1,9.5-15.7,14
			c-2.8,2.3-5.7,4.4-8.7,6.4l-2.3,1.5l-2.3,1.4l-0.6,0.3l-0.1,0.1c0,0-0.2,0.1-0.2,0.1l-0.3,0.2l-1.3,0.6c-0.9,0.4-1.8,0.9-2.7,1.1
			c-7.2,2.6-14.8,3.2-22.2,3.3c-7.4,0-14.8-0.6-22.2-1.8c-1.9-0.4-3.7-0.8-5.5-1.3c-1.8-0.6-3.6-1-5.4-1.8c-3.6-1.3-7-3-10.2-5.1
			c-3.2-2.1-6.2-4.6-8.7-7.4c-1.3-1.4-2.5-2.8-3.6-4.3c-1.1-1.4-2.2-3-3.1-4.1l-0.5-0.5l-0.1-0.1c0,0-0.2-0.2,0,0l-0.2-0.2l-1-1
			l-1.9-2c-1.2-1.3-2.4-2.6-3.6-3.9c-2.4-2.6-4.8-5.3-7.1-7.9c-2.4-2.6-4.7-5.2-7-7.8c-2.4-2.6-4.6-5.2-6.8-7.9
			c-2.2-2.6-4.4-5.2-6.5-7.9c-0.5-0.7-1.1-1.3-1.6-2c-0.3-0.4-0.5-0.7-0.8-1c-0.2-0.3-0.5-0.8-0.8-1.2c-1-1.6-1.6-3.2-2.3-4.7
			c-2.6-6.2-4.8-12.2-6.9-18.1c-0.5-1.5-1-3-1.5-4.4c-0.4-1.5-0.9-3-1.3-4.5c-0.9-2.9-1.7-5.8-2.5-8.6c-1.6-5.7-3.2-11.1-4.7-16.4
			c-1.4-5.4-2.3-10.6-3.1-15.5c-0.8-4.9-1.4-9.6-1.9-14.1c-1.1-8.8-1.6-16.6-2.3-22.9c-0.6-6.3-1.2-11.3-1.6-14.7
			C143.7,291.6,143.5,289.8,143.5,289.8z"/>
	</g>
	<path opacity="0.8" fill="#232323" d="M289.8,279.7c0,0,26.3,1.8,35.6-2.1c0,0,21.5-7.6,31-2.3c0,0,10.9,6.5,13.8,6.6
		c0,0-2.3-12.3-11.5-16.1s-22.3-3.5-31.2-0.7c-8.9,2.8-27.4,10-33.2,10.5C288.6,276,288.4,279.6,289.8,279.7z"/>
	<path opacity="0.8" fill="#232323" d="M165.7,270.1c0,0,25,5.3,32.3,3.6c0,0,29.7,10.2,43.3,7.2c0,0-1.9-7.6-15.5-10.8
		c-13.6-3.2-26.5-5.3-29.5-5.5C193.2,264.4,173.2,258.7,165.7,270.1z"/>
	<g>
		<path fill="#232323" d="M211.5,408.6c0.1,0.2,0.4,0.3,0.6,0.4c0.3,0,0.5,0.1,0.8,0.1c0.5,0,1-0.1,1.5-0.2c1-0.2,2-0.5,3-0.8
			c1-0.3,2-0.7,3-1c1-0.4,2-0.8,2.9-1.2c2-0.8,3.9-1.6,5.9-2.4c2-0.8,4.1-1.5,6.4-1.9c0.6-0.1,1.2-0.2,1.8-0.2l1.6-0.1
			c1-0.1,2.1-0.2,3.2-0.2c1.1-0.1,2.2-0.1,3.3-0.1c1.1,0,2.2,0.1,3.4,0.2c0.6,0,1.1,0.1,1.7,0.2c0.6,0.1,1.1,0.2,1.7,0.3
			c0.6,0.1,1.1,0.3,1.7,0.4c0.6,0.2,1.1,0.3,1.7,0.5c1.1,0.4,2.2,0.9,3.2,1.4c1,0.5,2,1.2,3,1.8l-2.6-0.2c1.1-0.5,2.1-1,3.1-1.5
			c1-0.5,2.1-0.9,3.1-1.3c1.1-0.4,2.1-0.8,3.2-1.2c1.1-0.4,2.2-0.7,3.3-1c1.1-0.3,2.3-0.6,3.4-0.8c1.2-0.2,2.4-0.4,3.6-0.4
			c0.6,0,1.2-0.1,1.9,0c0.6,0.1,1.4,0.1,1.9,0.2c1.1,0.2,2.2,0.4,3.3,0.7l3.3,0.7c1.1,0.3,2.2,0.5,3.3,0.8l6.5,1.6l6.4,1.7
			c1.1,0.3,2.1,0.5,3.2,0.8c1.1,0.3,2.2,0.5,3.3,0.6c-1.1,0.2-2.2,0.2-3.4,0.2c-1.1,0-2.2-0.1-3.4-0.2c-1.1-0.1-2.2-0.2-3.3-0.3
			l-3.3-0.3l-6.6-0.8l-6.6-0.9c-1.1-0.1-2.1-0.2-3.3-0.4c-0.6-0.1-1-0.1-1.4-0.1c-0.4,0-1,0.1-1.4,0.1c-1,0.1-2,0.3-3,0.5
			c-1,0.2-2,0.5-3,0.9c-2,0.6-4,1.4-6,2.2c-1,0.4-2,0.8-3,1.3c-1,0.4-2,0.9-2.9,1.4l-1.3,0.7l-1.3-0.9c-0.8-0.5-1.6-1.1-2.4-1.5
			c-0.4-0.3-0.8-0.4-1.3-0.6c-0.4-0.2-0.9-0.4-1.3-0.6c-0.4-0.2-0.9-0.3-1.4-0.5c-0.5-0.2-0.9-0.3-1.4-0.4c-0.5-0.1-0.9-0.2-1.4-0.3
			c-0.5-0.1-1-0.2-1.4-0.3c-1-0.2-2-0.2-3-0.3c-1-0.1-2-0.1-3.1-0.1l-3.2,0l-1.6,0c-0.4,0-0.9,0-1.4,0c-0.9,0.1-1.9,0.2-2.9,0.4
			c-1,0.2-2,0.4-3,0.7c-2,0.5-4.1,1.1-6.1,1.6c-1,0.3-2.1,0.5-3.1,0.7c-1.1,0.2-2.1,0.4-3.2,0.5c-1.1,0.1-2.2,0.2-3.3,0.2
			c-0.5,0-1.1-0.1-1.6-0.2c-0.3-0.1-0.5-0.1-0.8-0.2C211.8,409,211.5,408.9,211.5,408.6z"/>
	</g>
	<g>
		<path fill="#232323" d="M232,366.8c1.7,0.2,3.3,0.6,5,1c0.8,0.2,1.6,0.5,2.5,0.7c0.8,0.3,1.6,0.6,2.4,0.9c0.8,0.3,1.6,0.7,2.4,1.2
			l1.1,0.6l1,0.4l1.1,0.4l1.1,0.4c0.8,0.2,1.5,0.4,2.3,0.6c0.8,0.2,1.5,0.3,2.3,0.4c0.8,0.1,1.6,0.2,2.3,0.3c0.8,0,1.6,0.1,2.3,0.1
			c0.8,0,1.5,0,2.3,0c0.8,0,1.5-0.1,2.3-0.2c0.7-0.2,1.5-0.2,2.2-0.5l1.1-0.3l1-0.4l0.5-0.2l0.5-0.3l1-0.5l0.2-0.1
			c1.4-0.7,2.8-1.3,4.3-1.9c1.4-0.6,2.9-1.1,4.4-1.5c0.7-0.2,1.5-0.4,2.2-0.6c0.4-0.1,0.8-0.2,1.1-0.2c0.4-0.1,0.8-0.2,1.2-0.2
			c0.4-0.1,0.8-0.1,1.2-0.1l1.2-0.1c0.4,0,0.8,0,1.2,0c0.4,0,0.8,0.1,1.1,0.2c-0.4,0.1-0.8,0.1-1.1,0.2l-1.1,0.3l-1.1,0.4l-1,0.4
			c-0.3,0.1-0.7,0.3-1,0.4c-0.3,0.1-0.7,0.3-1,0.5l-2,1c-1.3,0.7-2.6,1.4-3.9,2.1l-2,1.1l-1.9,1.1l0.2-0.1l-1.2,0.8l-0.6,0.4
			c-0.2,0.1-0.4,0.2-0.6,0.3l-1.3,0.6c-0.4,0.2-0.9,0.3-1.3,0.5c-0.9,0.3-1.8,0.5-2.7,0.7c-0.9,0.1-1.8,0.3-2.7,0.3
			c-0.9,0.1-1.8,0.1-2.7,0c-0.9,0-1.8-0.1-2.7-0.2c-0.9-0.1-1.7-0.3-2.6-0.4c-0.9-0.2-1.7-0.4-2.6-0.7c-0.8-0.2-1.7-0.6-2.5-0.9
			l-1.2-0.5l-1.2-0.6c-0.4-0.2-0.8-0.5-1.3-0.7l-1.1-0.8c-0.6-0.5-1.2-0.9-1.9-1.4c-0.7-0.4-1.4-0.9-2.1-1.2
			c-0.7-0.4-1.4-0.8-2.2-1.2L232,366.8z"/>
	</g>
	<path opacity="0.8" fill="#232323" d="M182.4,182.6c0,0-10.1,35,0,57.1c0,0-8-8.5,3.7-28.5c11.8-20.1,10.4-18.4,10.4-18.4
		s-1.8,53.1,1.6,58.8c0,0-2.3-39,4-50.9c0,0,6,40.1,1.4,50.9c0,0,10.9-31.4,10.9-48.6c0,0,10.5,32.1,2.6,48.6
		c0,0,20.4,8.8,40.8-25.2s20.4-33.9,20.4-33.9s4.9,37.6-2.7,56.8c0,0,14.2,0.6,25.4-26c11.2-26.6,11.8-29.1,11.8-29.1
		s15.2,16.4,0,48.6c0,0,18.5-24,16.9-40.4c0,0,12.5,5.9,0.1,27.1c0,0,16.6-12.7,19.8-30.2c0,0,8,18.7,3.7,36.5
		c0,0,10.9-1.7,13.5-22.6c0,0,8.9,19,8.9,20.1c0.7,19.3,11.8,44,11.8,44l5.2,35.4l6.3-22.6l22.9-50.6l4.1-16.3l1.1-12.5l2-24.6
		l3.4-20.6l-7.4-54.2l-5.1-13.6l-28.7-31.9l-20.9-13.8l-27.8-12l-14.7-8.9l-34.9-6.5l-9.1,0.8l-3,1.2l-6.8,0.9l-4.7-0.9l-7.6,1
		l-3.9,0.1l-3.9-0.5l-1.9-0.7l-4.3,2.3l-2.5,0.9l-3.7,0.8l-1.7,0.2l-3.8-0.2l-64.5,22l6.6,0.5l-5.5,6.7l-14.3,8.7l-19.6,35.7
		l-12.3,29.2l-5.2,12.3l-2.8,18.7l1.7,20.6l3.9,26.8l3.4,21.7l4.3,18.8l10.6,31.7l2.2,9.5l3.7,15l0.7-29.7c0,0,3.1-27.3,6.6-33.9
		c9.1-17.3,0.3-33,4.1-39.8c0,0-3.4,5.6,3.7,19.9c0,0-4.3-27.3,1-33.8c0,0,2.4,39.8,6.7,44.2C171.5,235.4,168.2,184.3,182.4,182.6z"
		/>
	<g>
		<path fill="#6B6C6C" d="M297.3,95c0,0,0,0.2,0.1,0.5c0.1,0.4,0.2,0.9,0.3,1.6c0.2,1.3,0.5,3.3,0.7,5.8c0.2,2.5,0.4,5.5,0.6,8.9
			c0.1,3.4,0.1,7.3,0,11.5c-0.2,4.2-0.4,8.8-1,13.6c-0.2,2.4-0.7,4.8-1,7.4c-0.2,1.2-0.4,2.5-0.7,3.8c-0.2,1.3-0.5,2.6-0.7,3.8
			c-0.3,1.3-0.6,2.6-0.8,3.9c-0.3,1.3-0.7,2.6-1,3.9c-0.6,2.6-1.5,5.2-2.2,7.9c-0.4,1.3-0.9,2.6-1.3,3.9c-0.5,1.3-0.9,2.6-1.4,3.9
			c-0.5,1.3-1,2.6-1.5,3.9l-0.8,2l-0.8,1.9L284,187c-0.6,1.3-1.2,2.5-1.8,3.8c-0.6,1.2-1.2,2.5-1.9,3.7c-0.7,1.2-1.3,2.4-2,3.6
			c-1.3,2.4-2.7,4.7-4.2,7c-1.4,2.3-2.9,4.5-4.4,6.6c-1.4,2.2-3,4.2-4.6,6.2c-0.8,1-1.5,2-2.3,2.9c-0.8,0.9-1.6,1.9-2.3,2.8
			c-1.5,1.8-3,3.6-4.6,5.2c-1.5,1.6-3,3.2-4.5,4.7c-1.5,1.4-2.9,2.8-4.3,4.1c-0.7,0.7-1.3,1.3-2,1.9c-0.7,0.6-1.3,1.2-2,1.7
			c-1.3,1.1-2.5,2.1-3.6,3.1c-0.6,0.5-1.1,0.9-1.6,1.4c-0.5,0.4-1,0.8-1.5,1.2c-3.8,3-6,4.7-6,4.7s2.1-1.8,5.8-4.9
			c0.5-0.4,0.9-0.8,1.4-1.2c0.5-0.4,1-0.9,1.5-1.4c1.1-1,2.2-2.1,3.4-3.2c0.6-0.6,1.2-1.2,1.9-1.8c0.6-0.6,1.2-1.3,1.9-2
			c1.3-1.4,2.7-2.8,4.1-4.3c1.4-1.5,2.8-3.2,4.2-4.9c1.5-1.7,2.9-3.5,4.3-5.3c0.7-0.9,1.5-1.9,2.2-2.8c0.7-1,1.4-2,2.1-3
			c1.4-2,2.9-4.1,4.2-6.3c1.3-2.2,2.8-4.4,4-6.7c1.3-2.3,2.6-4.6,3.8-7c0.6-1.2,1.2-2.4,1.8-3.6c0.6-1.2,1.1-2.5,1.6-3.7
			c0.5-1.2,1.1-2.5,1.6-3.7l1.5-3.8l0.7-1.9l0.7-1.9c0.4-1.3,0.9-2.6,1.3-3.9c0.4-1.3,0.8-2.6,1.2-3.9c0.4-1.3,0.8-2.6,1.1-3.9
			c0.6-2.6,1.3-5.2,1.8-7.7c0.3-1.3,0.5-2.6,0.8-3.8c0.2-1.3,0.4-2.5,0.6-3.8c0.2-1.3,0.4-2.5,0.6-3.7c0.2-1.2,0.3-2.5,0.5-3.7
			c0.2-2.4,0.5-4.8,0.6-7.1c0.4-4.6,0.4-9,0.4-13.1c-0.1-4.1-0.2-7.8-0.5-11c-0.3-3.3-0.6-6.1-0.9-8.4c-0.3-2.3-0.7-4.1-0.9-5.3
			c-0.1-0.6-0.2-1-0.3-1.3c-0.1-0.3-0.1-0.5-0.1-0.5L297.3,95z"/>
	</g>
	<g>
		<path fill="#6B6C6C" d="M281.7,197.5c0,0,0,0.9,0.1,2.4c0.1,1.5,0.1,3.6,0.2,6.2c0,2.5,0,5.5-0.1,8.7c-0.1,1.6-0.1,3.2-0.3,4.9
			c-0.1,1.7-0.3,3.3-0.4,5c-0.1,1.7-0.4,3.4-0.6,5c-0.2,1.6-0.6,3.3-0.8,4.8c-0.3,1.5-0.7,3-1,4.5c-0.4,1.4-0.8,2.7-1.1,3.9
			c-0.4,1.2-0.8,2.3-1.2,3.2c-0.3,1-0.8,1.8-1.1,2.4c-0.6,1.3-1,2.1-1,2.1s0.3-0.8,0.8-2.2c0.2-0.7,0.6-1.5,0.8-2.5
			c0.3-1,0.6-2.1,0.9-3.3c0.2-1.2,0.5-2.6,0.8-4c0.2-1.4,0.4-2.9,0.6-4.5c0.1-1.6,0.3-3.2,0.4-4.8c0-1.6,0.2-3.3,0.2-4.9
			c0-1.7,0-3.3,0-4.9c0-1.6-0.1-3.2-0.2-4.8c-0.1-3.1-0.4-6-0.6-8.5c-0.3-2.5-0.5-4.5-0.7-5.9c-0.2-1.4-0.3-2.2-0.3-2.2L281.7,197.5
			z"/>
	</g>
	<path fill="#6B6C6C" d="M350.7,125.8c0,0,15.2,50.6,3.8,99.2"/>
	<path fill="#6B6C6C" d="M382.5,154.6c0,0-3.2,83.1-12.3,90.3"/>
	<path fill="#6B6C6C" d="M228.3,133.4c0,0-26,77.5-18.6,97.8"/>
	<g>
		<g>
			<polygon fill="#010101" points="251.8,391.9 251.7,391.7 251.4,391.8 251.5,391.9 			"/>
		</g>
		<g>
			<polygon fill="#010101" points="253.7,391.6 253.6,391.5 253.3,391.6 253.5,391.7 			"/>
		</g>
		<g>
			<path fill="#010101" d="M254.2,392.5c-0.1-0.2-0.5-0.5-0.8-0.6c-0.2-0.1-0.5-0.1-0.7-0.1l0.1,0.1c0.1,0,0.3,0,0.4,0.1
				c0.3,0.1,0.5,0.3,0.7,0.5L254.2,392.5z"/>
		</g>
		<g>
			<polygon fill="#010101" points="251,391.9 250.5,391.3 250.2,391.4 250.8,391.9 			"/>
		</g>
		<g>
			<path fill="#010101" d="M249.5,392.8c-0.2,0-0.4-0.1-0.5-0.2l-0.3,0.1c0.2,0.1,0.4,0.2,0.7,0.3L249.5,392.8z"/>
		</g>
		<g>
			<polygon fill="#010101" points="249.2,392.5 248.9,392.3 248.7,392.4 249,392.6 			"/>
		</g>
		<g>
			<path fill="#010101" d="M247.9,391.8c0.1-0.7-0.3-1.4-1-2l-0.3,0.1c0.9,0.7,1.2,1.5,0.9,2.2l0.3,0.1
				C247.9,392,247.9,391.9,247.9,391.8z"/>
		</g>
		<g>
			<path fill="#010101" d="M247.7,392.5c-0.2,0-0.3,0-0.4,0c-0.1,0.1-0.1,0.1-0.1,0.2l0.3,0c0,0,0-0.1,0-0.1c0,0,0.1,0,0.1,0
				L247.7,392.5z"/>
		</g>
		<g>
			<path fill="#010101" d="M247.2,393.3c-0.3-0.5-0.9-0.9-1.6-1.3l-0.2,0.1c0.7,0.4,1.2,0.8,1.5,1.2L247.2,393.3z"/>
		</g>
		<g>
			<polygon fill="#010101" points="246.2,391.5 245.6,391.1 245.4,391.2 246,391.6 			"/>
		</g>
		<g>
			<path fill="#010101" d="M244.7,393.5l-0.4-0.6c0-0.1-0.1-0.2-0.2-0.2l-0.5-0.4l0.4,0.6c0,0.1,0.1,0.2,0.2,0.2L244.7,393.5z"/>
		</g>
		<g>
			<path fill="#010101" d="M241.9,393.3c0,0,0-0.1,0-0.1c-0.2-0.2-0.6-0.5-1-0.6l-0.1,0.1c0.4,0.1,0.7,0.3,0.8,0.5
				c0.1,0.1-0.1,0.2-0.1,0.3c-0.1,0.1-0.2,0.2-0.2,0.3l0.3,0c0-0.1,0.1-0.2,0.1-0.3C241.8,393.5,241.9,393.4,241.9,393.3z"/>
		</g>
		<g>
			<polygon fill="#010101" points="243.3,392.9 243.2,392.6 242.9,392.6 243,392.9 			"/>
		</g>
		<g>
			<polygon fill="#010101" points="239.6,393.8 239.2,393.3 238.9,393.3 239.3,393.8 			"/>
		</g>
		<g>
			<polygon fill="#010101" points="238,393.5 237.6,393 237.3,393.1 237.7,393.5 			"/>
		</g>
		<g>
			<polygon fill="#010101" points="240,391.1 238.7,390.4 238.5,390.5 239.8,391.2 			"/>
		</g>
		<g>
			<path fill="#010101" d="M242.2,391.3c-0.2-0.6-0.7-1.3-1.5-1.8l-0.2,0.1c0.8,0.5,1.3,1.1,1.4,1.7L242.2,391.3z"/>
		</g>
		<g>
			<polygon fill="#010101" points="243.8,391.6 242.7,391.3 242.7,391.5 243.7,391.7 			"/>
		</g>
		<g>
			<path fill="#010101" d="M239.4,391.6L239.4,391.6c-0.1-0.1-0.1-0.2-0.1-0.2l0,0c0-0.1,0-0.1-0.3-0.3l-0.5-0.4l0.6,0.8
				c0,0,0,0,0,0.1L239.4,391.6z"/>
		</g>
		<g>
			<polygon fill="#010101" points="239.3,392.4 238.9,392.1 238.7,392.2 239,392.4 			"/>
		</g>
		<g>
			<path fill="#010101" d="M237.5,393.9c0.1-0.6-0.2-1.2-0.8-1.8l-0.3,0c0.6,0.6,0.9,1.2,0.8,1.7L237.5,393.9
				C237.5,394,237.5,394,237.5,393.9z"/>
		</g>
		<g>
			<path fill="#010101" d="M236.5,393.7l-0.1-0.3l0,0c-0.2-0.1-0.4-0.2-0.7-0.2l0,0.2c0.1,0,0.3,0,0.4,0.1l0.1,0.2L236.5,393.7z"/>
		</g>
		<g>
			<path fill="#010101" d="M234.9,393.8L234.9,393.8c0-0.1,0-0.2-0.1-0.3c-0.1-0.1-0.2-0.1-0.3-0.3l-0.3,0l0.5,1.1l0.1-0.3
				C234.9,393.9,234.9,393.9,234.9,393.8z"/>
		</g>
		<g>
			<path fill="#010101" d="M233,394.1c0-0.3,0-0.7-0.2-1l-0.3,0c0.2,0.4,0.3,0.8,0.1,1.2l0.3,0.1C232.9,394.2,232.9,394.2,233,394.1
				z"/>
		</g>
		<g>
			<path fill="#010101" d="M230,393.8l-0.1-0.1c0-0.1-0.1-0.2-0.2-0.2l-0.5-0.5l0,0.3l-0.1-0.1l0.1,0.1c0,0.1,0.1,0.2,0.2,0.2
				l0.5,0.5l0-0.3L230,393.8z"/>
		</g>
		<g>
			<polygon fill="#010101" points="230.8,393.9 230.4,393.5 230.1,393.6 230.5,393.9 			"/>
		</g>
		<g>
			<path fill="#010101" d="M231.4,393.7c0-0.3-0.1-0.5-0.4-0.8l-0.2,0.1c0.3,0.3,0.4,0.6,0.3,0.8l0.3,0.1
				C231.4,393.8,231.4,393.8,231.4,393.7z"/>
		</g>
		<g>
			<path fill="#010101" d="M228.9,393.7L228.9,393.7l-0.5-0.6l-0.1,0.6l0.3,0c0,0,0,0,0,0c0,0,0.1,0,0.1,0
				C228.8,393.8,228.9,393.8,228.9,393.7z"/>
		</g>
		<g>
			<polygon fill="#010101" points="234.2,392.3 233.9,392.2 233.4,393.3 233.7,393.3 			"/>
		</g>
		<g>
			
				<rect x="232.4" y="390.7" transform="matrix(-0.1436 0.9896 -0.9896 -0.1436 652.6669 216.9375)" fill="#010101" width="0.2" height="0.3"/>
		</g>
		<g>
			
				<rect x="235.6" y="390.5" transform="matrix(-0.1436 0.9896 -0.9896 -0.1436 656.2643 213.4492)" fill="#010101" width="0.4" height="0.3"/>
		</g>
		<g>
			<path fill="#010101" d="M237.4,390.6c0-0.1,0-0.3-0.2-0.4l-0.3,0c0.1,0.1,0.1,0.2,0.1,0.3L237.4,390.6
				C237.4,390.6,237.4,390.6,237.4,390.6z"/>
		</g>
		<g>
			
				<rect x="239.9" y="389.4" transform="matrix(-0.1436 0.9896 -0.9896 -0.1436 660.1461 207.8022)" fill="#010101" width="0.5" height="0.3"/>
		</g>
		<g>
			<path fill="#010101" d="M231.4,389.5c0-0.1,0-0.2-0.1-0.3l-0.3,0c0.1,0.1,0.1,0.3,0,0.4l0.3,0.1
				C231.4,389.6,231.4,389.5,231.4,389.5z"/>
		</g>
		<g>
			
				<rect x="234.5" y="389.3" transform="matrix(-0.1436 0.9896 -0.9896 -0.1436 653.7913 213.0551)" fill="#010101" width="0.5" height="0.3"/>
		</g>
		<g>
			<polygon fill="#010101" points="233.5,390.9 233.2,390.8 232.6,391.4 232.8,391.5 			"/>
		</g>
	</g>
	<g>
		<g>
			<polygon fill="#010101" points="229.4,395.4 229.3,395.2 229,395.3 229.2,395.4 			"/>
		</g>
		<g>
			<polygon fill="#010101" points="231.2,394.6 231,394.6 230.8,394.7 231,394.8 			"/>
		</g>
		<g>
			<path fill="#010101" d="M231.9,395.4c-0.2-0.2-0.6-0.3-0.9-0.4c-0.2,0-0.5,0-0.7,0.1l0.2,0.1c0.1,0,0.3-0.1,0.4-0.1
				c0.3,0,0.6,0.1,0.7,0.3L231.9,395.4z"/>
		</g>
		<g>
			<polygon fill="#010101" points="228.7,395.5 228,395.1 227.7,395.2 228.4,395.6 			"/>
		</g>
		<g>
			<path fill="#010101" d="M227.4,396.8c-0.2,0-0.4,0-0.5-0.1l-0.2,0.1c0.2,0.1,0.5,0.1,0.7,0.1L227.4,396.8z"/>
		</g>
		<g>
			<polygon fill="#010101" points="227,396.5 226.7,396.4 226.5,396.6 226.8,396.7 			"/>
		</g>
		<g>
			<path fill="#010101" d="M225.6,396.2c-0.1-0.7-0.6-1.3-1.5-1.7l-0.2,0.1c1,0.5,1.5,1.2,1.4,2l0.3,0
				C225.6,396.4,225.6,396.3,225.6,396.2z"/>
		</g>
		<g>
			<path fill="#010101" d="M225.6,397c-0.2,0-0.3,0.1-0.4,0.1c-0.1,0.1-0.1,0.2,0,0.2l0.3-0.1c0,0,0-0.1,0-0.1c0,0,0.1,0,0.1-0.1
				L225.6,397z"/>
		</g>
		<g>
			<path fill="#010101" d="M225.3,397.9c-0.4-0.4-1.1-0.7-1.8-0.9l-0.2,0.1c0.7,0.2,1.3,0.5,1.7,0.8L225.3,397.9z"/>
		</g>
		<g>
			<polygon fill="#010101" points="223.9,396.4 223.2,396.1 223,396.3 223.7,396.5 			"/>
		</g>
		<g>
			<path fill="#010101" d="M222.9,398.6l-0.5-0.5c-0.1-0.1-0.1-0.2-0.2-0.2l-0.6-0.2l0.5,0.5c0.1,0.1,0.1,0.2,0.2,0.2L222.9,398.6z"
				/>
		</g>
		<g>
			<path fill="#010101" d="M220.1,399.2c0,0,0-0.1-0.1-0.1c-0.2-0.2-0.7-0.3-1.1-0.3l-0.1,0.1c0.4,0,0.7,0.1,0.9,0.3
				c0.1,0.1,0,0.2-0.1,0.3c-0.1,0.1-0.1,0.3-0.1,0.3l0.3-0.1c0-0.1,0-0.2,0.1-0.3C220.1,399.4,220.1,399.3,220.1,399.2z"/>
		</g>
		<g>
			<polygon fill="#010101" points="221.4,398.4 221.2,398.1 220.9,398.2 221.1,398.5 			"/>
		</g>
		<g>
			<polygon fill="#010101" points="218,400.2 217.6,399.8 217.3,399.9 217.7,400.3 			"/>
		</g>
		<g>
			<polygon fill="#010101" points="216.4,400.2 215.9,399.9 215.7,400 216.2,400.3 			"/>
		</g>
		<g>
			<polygon fill="#010101" points="217.8,397.5 216.4,397.1 216.2,397.3 217.6,397.6 			"/>
		</g>
		<g>
			<path fill="#010101" d="M220,397.1c-0.3-0.6-1-1.1-1.9-1.4l-0.2,0.1c0.9,0.3,1.5,0.8,1.8,1.3L220,397.1z"/>
		</g>
		<g>
			<polygon fill="#010101" points="221.6,397 220.5,397 220.4,397.2 221.5,397.2 			"/>
		</g>
		<g>
			<path fill="#010101" d="M217.3,398.1L217.3,398.1c-0.1-0.1-0.1-0.2-0.1-0.2l0,0c0-0.1-0.1-0.1-0.3-0.2l-0.6-0.2l0.7,0.7
				c0,0,0,0,0.1,0.1L217.3,398.1z"/>
		</g>
		<g>
			<polygon fill="#010101" points="217.4,398.9 217,398.7 216.8,398.8 217.1,399 			"/>
		</g>
		<g>
			<path fill="#010101" d="M216.1,400.8c-0.1-0.6-0.5-1.1-1.3-1.5l-0.2,0.1c0.7,0.4,1.2,0.9,1.2,1.5L216.1,400.8
				C216.1,400.9,216.1,400.9,216.1,400.8z"/>
		</g>
		<g>
			<path fill="#010101" d="M215,400.9l-0.2-0.2l0,0c-0.2-0.1-0.5-0.1-0.7,0l0.1,0.1c0.1,0,0.3,0,0.4,0l0.1,0.2L215,400.9z"/>
		</g>
		<g>
			<path fill="#010101" d="M213.5,401.4L213.5,401.4c0-0.1-0.1-0.2-0.2-0.2c-0.1,0-0.2-0.1-0.3-0.2l-0.3,0.1l0.8,0.9l0-0.4
				C213.5,401.5,213.5,401.4,213.5,401.4z"/>
		</g>
		<g>
			<path fill="#010101" d="M211.7,402.1c0-0.3-0.2-0.6-0.4-0.9l-0.3,0.1c0.3,0.3,0.4,0.7,0.4,1.1l0.3,0
				C211.7,402.3,211.7,402.2,211.7,402.1z"/>
		</g>
		<g>
			<path fill="#010101" d="M208.8,402.6l-0.2-0.1c0-0.1-0.2-0.2-0.3-0.2l-0.6-0.4l0.1,0.3l-0.1,0l0.2,0.1c0,0.1,0.2,0.2,0.3,0.2
				l0.6,0.4l-0.1-0.3L208.8,402.6z"/>
		</g>
		<g>
			<polygon fill="#010101" points="209.5,402.4 209,402.2 208.8,402.3 209.3,402.5 			"/>
		</g>
		<g>
			<path fill="#010101" d="M210.1,402.1c0-0.3-0.2-0.5-0.6-0.6l-0.2,0.1c0.4,0.2,0.6,0.4,0.5,0.7l0.3,0
				C210.1,402.2,210.1,402.2,210.1,402.1z"/>
		</g>
		<g>
			<path fill="#010101" d="M207.6,402.8L207.6,402.8l-0.6-0.4l0.1,0.6l0.3,0c0,0,0,0,0,0c0,0,0.1,0,0.1,0
				C207.5,402.9,207.7,402.8,207.6,402.8z"/>
		</g>
		<g>
			<polygon fill="#010101" points="212.4,400.1 212.1,400.1 211.9,401.2 212.2,401.2 			"/>
		</g>
		<g>
			
				<rect x="210.3" y="398.9" transform="matrix(0.1036 0.9946 -0.9946 0.1036 585.5614 148.4859)" fill="#010101" width="0.2" height="0.3"/>
		</g>
		<g>
			
				<rect x="213.4" y="398" transform="matrix(0.1036 0.9946 -0.9946 0.1036 587.4069 144.4514)" fill="#010101" width="0.4" height="0.3"/>
		</g>
		<g>
			<path fill="#010101" d="M215.1,397.6c0-0.1-0.1-0.3-0.2-0.4l-0.3,0.1c0.1,0.1,0.2,0.2,0.2,0.3L215.1,397.6
				C215.1,397.6,215.1,397.6,215.1,397.6z"/>
		</g>
		<g>
			
				<rect x="217.3" y="395.8" transform="matrix(0.1036 0.9946 -0.9946 0.1036 588.7924 138.5449)" fill="#010101" width="0.5" height="0.3"/>
		</g>
		<g>
			<path fill="#010101" d="M209.1,398c0-0.1-0.1-0.2-0.2-0.3l-0.3,0.1c0.1,0.1,0.2,0.3,0.1,0.4l0.3,0
				C209.1,398.1,209.1,398.1,209.1,398z"/>
		</g>
		<g>
			
				<rect x="212" y="397" transform="matrix(0.1036 0.9946 -0.9946 0.1036 585.2401 144.9218)" fill="#010101" width="0.5" height="0.3"/>
		</g>
		<g>
			<polygon fill="#010101" points="211.4,398.9 211.2,398.9 210.6,399.6 210.9,399.6 			"/>
		</g>
	</g>
	<g>
		<polygon fill="#010101" points="266.3,390.4 266.4,390.6 266.7,390.6 266.6,390.4 		"/>
	</g>
	<g>
		<polygon fill="#010101" points="264.4,390.6 264.5,390.7 264.8,390.6 264.6,390.5 		"/>
	</g>
	<g>
		<path fill="#010101" d="M263.9,389.7c0.1,0.2,0.4,0.5,0.8,0.6c0.2,0.1,0.5,0.1,0.7,0.1l-0.1-0.2c-0.1,0-0.3,0-0.4-0.1
			c-0.3-0.1-0.5-0.3-0.6-0.5L263.9,389.7z"/>
	</g>
	<g>
		<polygon fill="#010101" points="267.1,390.5 267.6,391.1 267.8,391 267.3,390.5 		"/>
	</g>
	<g>
		<path fill="#010101" d="M268.6,389.7c0.2,0,0.4,0.1,0.5,0.2l0.3,0c-0.2-0.1-0.4-0.3-0.7-0.3L268.6,389.7z"/>
	</g>
	<g>
		<polygon fill="#010101" points="268.9,390 269.2,390.2 269.4,390.1 269.1,389.9 		"/>
	</g>
	<g>
		<path fill="#010101" d="M270.2,390.7c-0.1,0.7,0.2,1.4,0.9,2.1l0.3,0c-0.8-0.8-1.1-1.6-0.8-2.3l-0.3-0.1
			C270.2,390.5,270.2,390.6,270.2,390.7z"/>
	</g>
	<g>
		<path fill="#010101" d="M270.4,390c0.2,0,0.3,0,0.4,0c0.1-0.1,0.1-0.1,0.1-0.2l-0.3,0c0,0,0,0.1,0,0.1c0,0-0.1,0-0.1,0L270.4,390z
			"/>
	</g>
	<g>
		<path fill="#010101" d="M270.9,389.3c0.3,0.5,0.8,1,1.5,1.4l0.2-0.1c-0.6-0.4-1.1-0.8-1.4-1.3L270.9,389.3z"/>
	</g>
	<g>
		<polygon fill="#010101" points="271.9,391.1 272.4,391.5 272.7,391.4 272.1,391 		"/>
	</g>
	<g>
		<path fill="#010101" d="M273.4,389.2l0.3,0.6c0,0.1,0.1,0.2,0.1,0.2l0.5,0.4l-0.3-0.6c0-0.1-0.1-0.2-0.1-0.2L273.4,389.2z"/>
	</g>
	<g>
		<path fill="#010101" d="M276.3,389.5c0,0,0,0.1,0,0.1c0.2,0.2,0.5,0.5,1,0.6l0.1-0.1c-0.4-0.1-0.7-0.3-0.8-0.5
			c0-0.1,0.1-0.2,0.2-0.3c0.1-0.1,0.2-0.2,0.2-0.3l-0.3,0c0,0.1-0.1,0.2-0.2,0.2C276.4,389.4,276.3,389.4,276.3,389.5z"/>
	</g>
	<g>
		<polygon fill="#010101" points="274.9,389.9 275,390.2 275.3,390.2 275.2,389.9 		"/>
	</g>
	<g>
		<polygon fill="#010101" points="278.6,389.1 278.9,389.7 279.2,389.7 278.9,389.1 		"/>
	</g>
	<g>
		<polygon fill="#010101" points="280.1,389.6 280.5,390.1 280.8,390 280.4,389.6 		"/>
	</g>
	<g>
		<polygon fill="#010101" points="278,391.8 279.3,392.6 279.5,392.5 278.2,391.7 		"/>
	</g>
	<g>
		<path fill="#010101" d="M275.8,391.6c0.1,0.6,0.6,1.3,1.4,1.9l0.2-0.1c-0.7-0.6-1.2-1.2-1.3-1.8L275.8,391.6z"/>
	</g>
	<g>
		<polygon fill="#010101" points="274.3,391.2 275.3,391.5 275.4,391.3 274.4,391 		"/>
	</g>
	<g>
		<path fill="#010101" d="M278.6,391.4L278.6,391.4c0.1,0.2,0.1,0.2,0.1,0.2v0c0,0.1,0,0.1,0.2,0.3l0.5,0.4l-0.5-0.9c0,0,0,0,0-0.1
			L278.6,391.4z"/>
	</g>
	<g>
		<polygon fill="#010101" points="278.8,390.6 279.2,390.9 279.4,390.8 279.1,390.6 		"/>
	</g>
	<g>
		<path fill="#010101" d="M280.7,389.1c-0.1,0.6,0.2,1.2,0.8,1.8l0.3,0c-0.6-0.6-0.8-1.2-0.7-1.8L280.7,389.1
			C280.7,389.1,280.7,389.1,280.7,389.1z"/>
	</g>
	<g>
		<path fill="#010101" d="M281.7,389.4l0.1,0.3l0,0c0.2,0.1,0.4,0.2,0.7,0.2l0-0.2c-0.1,0-0.3-0.1-0.4-0.1l-0.1-0.2L281.7,389.4z"/>
	</g>
	<g>
		
			<rect x="285.4" y="392.3" transform="matrix(0.1947 -0.9809 0.9809 0.1947 -154.9942 596.1512)" fill="#010101" width="0.2" height="0.3"/>
	</g>
	<g>
		
			<rect x="282.1" y="392.3" transform="matrix(0.1947 -0.9809 0.9809 0.1947 -157.678 592.9139)" fill="#010101" width="0.4" height="0.3"/>
	</g>
	<g>
		<path fill="#010101" d="M280.7,392.5c0,0.1,0,0.3,0.1,0.4l0.3,0c-0.1-0.1-0.1-0.2-0.1-0.3L280.7,392.5
			C280.7,392.5,280.7,392.5,280.7,392.5z"/>
	</g>
	<g>
		
			<rect x="277.5" y="393.2" transform="matrix(0.1947 -0.9809 0.9809 0.1947 -162.1494 589.2982)" fill="#010101" width="0.5" height="0.3"/>
	</g>
	<g>
		<path fill="#010101" d="M286.5,393.9c0,0.1,0,0.2,0.1,0.3l0.3,0c-0.1-0.1-0.1-0.3,0-0.4l-0.3-0.1
			C286.5,393.8,286.5,393.8,286.5,393.9z"/>
	</g>
	<g>
		
			<rect x="283" y="393.6" transform="matrix(0.1947 -0.9809 0.9809 0.1947 -158.1691 594.9574)" fill="#010101" width="0.5" height="0.3"/>
	</g>
	<g>
		<polygon fill="#010101" points="284.5,392.3 284.8,392.5 285.5,391.9 285.2,391.8 		"/>
	</g>
	<g>
		<g>
			<polygon fill="#010101" points="289.7,393.7 289.8,393.9 290.1,393.9 290,393.8 			"/>
		</g>
		<g>
			<polygon fill="#010101" points="287.8,393.7 287.9,393.8 288.1,393.8 288,393.6 			"/>
		</g>
		<g>
			<path fill="#010101" d="M287.4,392.7c0.1,0.3,0.4,0.5,0.7,0.7c0.2,0.1,0.4,0.2,0.7,0.2l-0.1-0.2c-0.1,0-0.3-0.1-0.4-0.1
				c-0.3-0.1-0.5-0.4-0.6-0.6L287.4,392.7z"/>
		</g>
		<g>
			<polygon fill="#010101" points="290.4,393.9 290.9,394.5 291.2,394.5 290.7,393.9 			"/>
		</g>
		<g>
			<path fill="#010101" d="M292.1,393.3c0.2,0.1,0.3,0.2,0.4,0.3l0.3,0c-0.1-0.2-0.4-0.3-0.6-0.4L292.1,393.3z"/>
		</g>
		<g>
			<polygon fill="#010101" points="292.4,393.6 292.6,393.9 292.9,393.8 292.6,393.6 			"/>
		</g>
		<g>
			<path fill="#010101" d="M293.5,394.5c-0.2,0.6,0,1.4,0.7,2.2l0.3,0c-0.7-0.9-0.9-1.7-0.5-2.4l-0.3-0.1
				C293.6,394.3,293.5,394.4,293.5,394.5z"/>
		</g>
		<g>
			<path fill="#010101" d="M293.8,393.8c0.1,0.1,0.3,0.1,0.4,0c0.1,0,0.1-0.1,0.1-0.2l-0.3,0c0,0,0,0.1,0,0.1c0,0-0.1,0-0.1,0
				L293.8,393.8z"/>
		</g>
		<g>
			<path fill="#010101" d="M294.4,393.1c0.2,0.5,0.7,1,1.3,1.5l0.2-0.1c-0.6-0.5-1-1-1.2-1.5L294.4,393.1z"/>
		</g>
		<g>
			<polygon fill="#010101" points="295.1,395.1 295.7,395.5 295.9,395.5 295.4,395 			"/>
		</g>
		<g>
			<path fill="#010101" d="M296.9,393.4l0.3,0.7c0,0.1,0,0.2,0.1,0.3l0.4,0.4l-0.3-0.7c0-0.1,0-0.2-0.1-0.3L296.9,393.4z"/>
		</g>
		<g>
			<path fill="#010101" d="M299.7,394c0,0,0,0.1,0,0.1c0.1,0.3,0.5,0.5,0.9,0.7l0.1-0.1c-0.4-0.2-0.6-0.4-0.7-0.6
				c0-0.1,0.1-0.2,0.2-0.3c0.1-0.1,0.2-0.2,0.2-0.3l-0.3-0.1c0,0.1-0.1,0.1-0.2,0.2C299.9,393.9,299.8,394,299.7,394z"/>
		</g>
		<g>
			<polygon fill="#010101" points="298.3,394.2 298.3,394.5 298.6,394.6 298.5,394.3 			"/>
		</g>
		<g>
			<polygon fill="#010101" points="302.1,393.9 302.3,394.5 302.6,394.6 302.4,394 			"/>
		</g>
		<g>
			<polygon fill="#010101" points="303.5,394.6 303.9,395.1 304.2,395.1 303.8,394.6 			"/>
		</g>
		<g>
			<polygon fill="#010101" points="301.2,396.5 302.3,397.4 302.5,397.4 301.4,396.5 			"/>
		</g>
		<g>
			<path fill="#010101" d="M299,396c0,0.6,0.5,1.4,1.2,2l0.2,0c-0.7-0.6-1.1-1.3-1.1-1.9L299,396z"/>
		</g>
		<g>
			<polygon fill="#010101" points="297.5,395.4 298.5,395.8 298.6,395.7 297.6,395.3 			"/>
		</g>
		<g>
			<path fill="#010101" d="M301.8,396.2L301.8,396.2c0.1,0.2,0.1,0.2,0,0.2l0,0c0,0.1,0,0.1,0.2,0.3l0.5,0.5l-0.4-0.9
				c0,0,0-0.1,0-0.1L301.8,396.2z"/>
		</g>
		<g>
			<polygon fill="#010101" points="302.1,395.4 302.4,395.7 302.7,395.7 302.4,395.4 			"/>
		</g>
		<g>
			<path fill="#010101" d="M304.1,394.2c-0.2,0.5,0,1.2,0.5,1.9l0.3,0c-0.5-0.7-0.7-1.3-0.5-1.8L304.1,394.2
				C304.1,394.1,304.1,394.2,304.1,394.2z"/>
		</g>
		<g>
			<path fill="#010101" d="M305.1,394.6l0,0.3l0,0c0.2,0.1,0.4,0.3,0.7,0.3l0-0.2c-0.1,0-0.3-0.1-0.4-0.2l0-0.2L305.1,394.6z"/>
		</g>
		<g>
			<path fill="#010101" d="M306.7,394.7L306.7,394.7c0,0.1,0,0.2,0.1,0.3c0.1,0.1,0.1,0.2,0.2,0.3l0.3,0l-0.4-1.2l-0.2,0.3
				C306.7,394.6,306.7,394.7,306.7,394.7z"/>
		</g>
		<g>
			<path fill="#010101" d="M308.6,394.8c-0.1,0.3-0.1,0.7,0,1l0.3,0c-0.1-0.4-0.1-0.8,0.1-1.2l-0.3-0.1
				C308.7,394.7,308.7,394.7,308.6,394.8z"/>
		</g>
		<g>
			<path fill="#010101" d="M311.5,395.6l0.1,0.2c0,0.1,0.1,0.2,0.2,0.3l0.4,0.6l0-0.3l0.1,0.1l-0.1-0.2c0-0.1-0.1-0.2-0.2-0.3
				l-0.4-0.6l0,0.3L311.5,395.6z"/>
		</g>
		<g>
			<polygon fill="#010101" points="310.8,395.4 311.1,395.8 311.4,395.8 311,395.4 			"/>
		</g>
		<g>
			<path fill="#010101" d="M310.1,395.4c-0.1,0.2,0,0.5,0.3,0.8l0.3,0c-0.3-0.3-0.3-0.6-0.2-0.8l-0.3-0.1
				C310.1,395.3,310.1,395.4,310.1,395.4z"/>
		</g>
		<g>
			<path fill="#010101" d="M312.6,395.9L312.6,395.9l0.4,0.7l0.2-0.6l-0.3-0.1c0,0,0,0,0,0c0,0-0.1,0-0.1,0
				C312.7,395.8,312.6,395.8,312.6,395.9z"/>
		</g>
		<g>
			<polygon fill="#010101" points="307.1,396.4 307.4,396.5 308,395.5 307.7,395.4 			"/>
		</g>
		<g>
			
				<rect x="308.5" y="397.9" transform="matrix(0.3108 -0.9505 0.9505 0.3108 -165.675 567.6607)" fill="#010101" width="0.2" height="0.3"/>
		</g>
		<g>
			
				<rect x="305.1" y="397.5" transform="matrix(0.3108 -0.9505 0.9505 0.3108 -167.5814 564.2695)" fill="#010101" width="0.4" height="0.3"/>
		</g>
		<g>
			<path fill="#010101" d="M303.7,397.5c0,0.1,0,0.3,0.1,0.4l0.3,0c-0.1-0.1-0.1-0.3-0.1-0.4L303.7,397.5
				C303.7,397.5,303.7,397.5,303.7,397.5z"/>
		</g>
		<g>
			
				<rect x="300.5" y="397.9" transform="matrix(0.3108 -0.9505 0.9505 0.3108 -171.052 560.2377)" fill="#010101" width="0.5" height="0.3"/>
		</g>
		<g>
			<path fill="#010101" d="M309.3,399.6c0,0.1,0,0.2,0,0.3l0.3,0c-0.1-0.2-0.1-0.3,0-0.4l-0.3-0.1
				C309.4,399.5,309.4,399.5,309.3,399.6z"/>
		</g>
		<g>
			
				<rect x="305.9" y="399" transform="matrix(0.3108 -0.9505 0.9505 0.3108 -168.3669 566.048)" fill="#010101" width="0.5" height="0.3"/>
		</g>
		<g>
			<polygon fill="#010101" points="307.5,397.8 307.8,398 308.6,397.5 308.3,397.4 			"/>
		</g>
	</g>
	<g>
		<g>
			<polygon fill="#010101" points="274.5,480.4 274.3,480.2 273.9,480.2 274.1,480.4 			"/>
		</g>
		<g>
			<polygon fill="#010101" points="277.1,480.2 276.9,480 276.6,480.1 276.8,480.2 			"/>
		</g>
		<g>
			<path fill="#010101" d="M277.8,481.3c-0.2-0.3-0.6-0.6-1.1-0.7c-0.3-0.1-0.6-0.1-0.9-0.1l0.2,0.2c0.2,0,0.4,0,0.6,0.1
				c0.4,0.1,0.7,0.4,0.9,0.6L277.8,481.3z"/>
		</g>
		<g>
			<polygon fill="#010101" points="273.4,480.3 272.6,479.7 272.3,479.7 273,480.4 			"/>
		</g>
		<g>
			<path fill="#010101" d="M271.3,481.4c-0.3,0-0.5-0.1-0.7-0.3l-0.3,0.1c0.2,0.2,0.6,0.3,1,0.4L271.3,481.4z"/>
		</g>
		<g>
			<polygon fill="#010101" points="270.9,481 270.5,480.8 270.2,480.9 270.6,481.1 			"/>
		</g>
		<g>
			<path fill="#010101" d="M269.1,480.1c0.1-0.8-0.4-1.7-1.4-2.6l-0.4,0.1c1.2,0.9,1.6,1.9,1.3,2.8l0.4,0.1
				C269,480.4,269.1,480.2,269.1,480.1z"/>
		</g>
		<g>
			<path fill="#010101" d="M268.8,481c-0.2,0-0.4,0-0.6,0c-0.1,0.1-0.2,0.2-0.1,0.3l0.4,0c0,0,0-0.1,0-0.1c0,0,0.1,0,0.2,0
				L268.8,481z"/>
		</g>
		<g>
			<path fill="#010101" d="M268.2,482c-0.4-0.6-1.2-1.2-2.2-1.7l-0.3,0.1c0.9,0.5,1.6,1,2,1.6L268.2,482z"/>
		</g>
		<g>
			<polygon fill="#010101" points="266.8,479.7 266,479.2 265.7,479.3 266.5,479.8 			"/>
		</g>
		<g>
			<path fill="#010101" d="M264.7,482l-0.5-0.8c-0.1-0.1-0.1-0.2-0.2-0.3l-0.7-0.5l0.5,0.8c0.1,0.1,0.1,0.2,0.2,0.3L264.7,482z"/>
		</g>
		<g>
			<path fill="#010101" d="M260.8,481.7c0-0.1,0-0.1,0-0.2c-0.2-0.3-0.8-0.6-1.4-0.8l-0.1,0.2c0.5,0.1,0.9,0.4,1.1,0.6
				c0.1,0.1-0.1,0.2-0.2,0.4c-0.1,0.1-0.3,0.3-0.2,0.4l0.4,0c0-0.1,0.1-0.2,0.2-0.3C260.7,481.9,260.8,481.8,260.8,481.7z"/>
		</g>
		<g>
			<polygon fill="#010101" points="262.8,481.3 262.6,480.9 262.2,480.9 262.3,481.3 			"/>
		</g>
		<g>
			<polygon fill="#010101" points="257.6,482.3 257.2,481.6 256.8,481.6 257.2,482.3 			"/>
		</g>
		<g>
			<polygon fill="#010101" points="255.5,481.7 254.9,481.2 254.6,481.2 255.1,481.8 			"/>
		</g>
		<g>
			<polygon fill="#010101" points="258.3,478.9 256.5,478 256.2,478.1 258,479 			"/>
		</g>
		<g>
			<path fill="#010101" d="M261.3,479.2c-0.2-0.8-0.9-1.6-2-2.3l-0.3,0.1c1.1,0.7,1.7,1.5,1.9,2.2L261.3,479.2z"/>
		</g>
		<g>
			<polygon fill="#010101" points="263.4,479.7 262,479.3 261.9,479.5 263.3,479.8 			"/>
		</g>
		<g>
			<path fill="#010101" d="M257.5,479.5L257.5,479.5c-0.1-0.2-0.1-0.2-0.1-0.2l0,0c0-0.1,0-0.2-0.4-0.4l-0.8-0.5l0.8,1
				c0,0,0,0.1,0.1,0.1L257.5,479.5z"/>
		</g>
		<g>
			<polygon fill="#010101" points="257.2,480.4 256.8,480.1 256.4,480.2 256.9,480.5 			"/>
		</g>
		<g>
			<path fill="#010101" d="M254.8,482.3c0.1-0.7-0.3-1.5-1.2-2.2l-0.4,0c0.9,0.7,1.2,1.5,1.1,2.2L254.8,482.3
				C254.8,482.4,254.8,482.3,254.8,482.3z"/>
		</g>
		<g>
			<path fill="#010101" d="M253.4,482l-0.1-0.3l0,0c-0.3-0.1-0.6-0.2-1-0.3l0.1,0.2c0.2,0,0.4,0.1,0.6,0.1l0.1,0.3L253.4,482z"/>
		</g>
		<g>
			<path fill="#010101" d="M251.2,482L251.2,482c0-0.2-0.1-0.2-0.2-0.3c-0.1-0.1-0.2-0.2-0.4-0.4l-0.4,0l0.8,1.4l0.2-0.4
				C251.2,482.2,251.2,482.1,251.2,482z"/>
		</g>
		<g>
			<path fill="#010101" d="M248.5,482.3c0.1-0.4,0-0.8-0.3-1.2l-0.4,0c0.3,0.5,0.4,1,0.2,1.4l0.4,0.1
				C248.5,482.5,248.5,482.4,248.5,482.3z"/>
		</g>
		<g>
			<path fill="#010101" d="M244.5,481.9l-0.2-0.2c0-0.2-0.2-0.2-0.3-0.3l-0.7-0.7l0,0.3l-0.2-0.1l0.2,0.2c0,0.2,0.2,0.2,0.3,0.3
				l0.7,0.7l0-0.3L244.5,481.9z"/>
		</g>
		<g>
			<polygon fill="#010101" points="245.5,481.9 245,481.5 244.6,481.5 245.2,482 			"/>
		</g>
		<g>
			<path fill="#010101" d="M246.5,481.8c0-0.3-0.2-0.7-0.6-1l-0.3,0.1c0.4,0.3,0.6,0.7,0.5,1l0.4,0.1
				C246.4,481.9,246.5,481.8,246.5,481.8z"/>
		</g>
		<g>
			<path fill="#010101" d="M243,481.7L243,481.7l-0.7-0.7l-0.1,0.8l0.4,0.1c0,0,0,0,0,0c0,0,0.1,0,0.1,0
				C242.8,481.8,243,481.8,243,481.7z"/>
		</g>
		<g>
			<polygon fill="#010101" points="250.2,480.1 249.8,480 249.2,481.3 249.6,481.4 			"/>
		</g>
		<g>
			
				<rect x="247.7" y="478.1" transform="matrix(-0.1588 0.9873 -0.9873 -0.1588 759.4632 309.5411)" fill="#010101" width="0.3" height="0.4"/>
		</g>
		<g>
			
				<rect x="252.2" y="478" transform="matrix(-0.1588 0.9873 -0.9873 -0.1588 764.6464 304.9472)" fill="#010101" width="0.4" height="0.4"/>
		</g>
		<g>
			<path fill="#010101" d="M254.6,478.1c0-0.2,0-0.3-0.2-0.5l-0.4,0c0.1,0.1,0.2,0.3,0.2,0.4L254.6,478.1
				C254.6,478.2,254.6,478.2,254.6,478.1z"/>
		</g>
		<g>
			
				<rect x="258.1" y="476.8" transform="matrix(-0.1588 0.9873 -0.9873 -0.1588 770.4261 297.5859)" fill="#010101" width="0.6" height="0.4"/>
		</g>
		<g>
			<path fill="#010101" d="M246.5,476.6c0-0.1,0-0.3-0.1-0.4l-0.4,0c0.1,0.2,0.1,0.4,0,0.5l0.4,0.1
				C246.4,476.7,246.4,476.6,246.5,476.6z"/>
		</g>
		<g>
			
				<rect x="250.6" y="476.4" transform="matrix(-0.1588 0.9873 -0.9873 -0.1588 761.3604 304.5399)" fill="#010101" width="0.6" height="0.4"/>
		</g>
		<g>
			<polygon fill="#010101" points="249.3,478.4 248.9,478.3 248,479 248.4,479.1 			"/>
		</g>
	</g>
	<g>
		<g>
			<polygon fill="#010101" points="331.6,444.4 331.2,444.3 330.9,444.7 331.2,444.7 			"/>
		</g>
		<g>
			<polygon fill="#010101" points="333.8,442 333.5,442.1 333.3,442.4 333.6,442.4 			"/>
		</g>
		<g>
			<path fill="#010101" d="M335.4,442.5c-0.4-0.1-1.1,0-1.7,0.2c-0.4,0.2-0.7,0.4-1,0.6l0.3,0c0.2-0.2,0.4-0.3,0.6-0.4
				c0.5-0.2,1-0.3,1.3-0.2L335.4,442.5z"/>
		</g>
		<g>
			<polygon fill="#010101" points="330.5,445.2 329.2,445.2 328.9,445.5 330.2,445.5 			"/>
		</g>
		<g>
			<path fill="#010101" d="M329.4,447.9c-0.3,0.2-0.6,0.3-0.8,0.3l-0.3,0.3c0.3,0,0.8-0.2,1.2-0.4L329.4,447.9z"/>
		</g>
		<g>
			<polygon fill="#010101" points="328.6,447.9 328,448 327.9,448.4 328.4,448.2 			"/>
		</g>
		<g>
			<path fill="#010101" d="M326.2,448.5c-0.5-0.9-1.8-1.3-3.5-1.2l-0.3,0.3c1.9-0.1,3.1,0.5,3.5,1.6l0.5-0.3
				C326.4,448.8,326.3,448.7,326.2,448.5z"/>
		</g>
		<g>
			<path fill="#010101" d="M326.7,449.6c-0.2,0.1-0.4,0.3-0.5,0.5c-0.1,0.2,0,0.3,0.1,0.3l0.3-0.3c-0.1,0-0.1-0.1,0-0.1
				c0,0,0.1-0.1,0.2-0.2L326.7,449.6z"/>
		</g>
		<g>
			<path fill="#010101" d="M326.9,451c-0.9-0.2-2.1-0.1-3.4,0.2l-0.2,0.3c1.3-0.3,2.4-0.4,3.2-0.2L326.9,451z"/>
		</g>
		<g>
			<polygon fill="#010101" points="323.7,450 322.6,450.3 322.3,450.6 323.5,450.4 			"/>
		</g>
		<g>
			<path fill="#010101" d="M323.7,453.9l-1.1-0.3c-0.1-0.1-0.3-0.1-0.4-0.1l-1,0.1l1.1,0.3c0.1,0.1,0.3,0.1,0.4,0.1L323.7,453.9z"/>
		</g>
		<g>
			<path fill="#010101" d="M319.7,456.9c0-0.1-0.1-0.1-0.2-0.1c-0.5-0.1-1.2,0.1-1.9,0.4l0,0.3c0.6-0.3,1.2-0.4,1.6-0.3
				c0.1,0,0.1,0.3,0.1,0.5c0,0.2,0,0.5,0.1,0.5l0.4-0.3c-0.1-0.1-0.1-0.3-0.1-0.5C319.8,457.2,319.8,457,319.7,456.9z"/>
		</g>
		<g>
			<polygon fill="#010101" points="321.2,454.8 320.7,454.6 320.3,454.9 320.8,455.2 			"/>
		</g>
		<g>
			<polygon fill="#010101" points="317.2,460 316.2,459.7 315.8,460 316.8,460.3 			"/>
		</g>
		<g>
			<polygon fill="#010101" points="314.8,461.2 313.8,461.1 313.5,461.5 314.4,461.5 			"/>
		</g>
		<g>
			<polygon fill="#010101" points="315.1,456.3 312.6,456.9 312.5,457.3 314.9,456.6 			"/>
		</g>
		<g>
			<path fill="#010101" d="M318.2,454.1c-0.8-0.5-2.2-0.7-3.8-0.5l-0.2,0.3c1.6-0.2,2.8-0.1,3.6,0.5L318.2,454.1z"/>
		</g>
		<g>
			<polygon fill="#010101" points="320.6,452.8 318.9,453.6 319,453.9 320.6,453 			"/>
		</g>
		<g>
			<path fill="#010101" d="M314.8,457.5l-0.1,0c-0.1,0-0.2-0.1-0.2-0.1l0,0c-0.1-0.1-0.2-0.1-0.7-0.1l-1.1,0.2l1.6,0.4
				c0,0,0.1,0,0.1,0L314.8,457.5z"/>
		</g>
		<g>
			<polygon fill="#010101" points="315.3,458.6 314.6,458.6 314.4,459 315.1,458.9 			"/>
		</g>
		<g>
			<path fill="#010101" d="M314.6,462.3c-0.5-0.8-1.5-1.1-2.9-1.1l-0.3,0.3c1.4,0,2.4,0.4,2.8,1.2L314.6,462.3
				C314.6,462.4,314.6,462.3,314.6,462.3z"/>
		</g>
		<g>
			<path fill="#010101" d="M313,463.1l-0.4-0.2l-0.1,0c-0.4,0.1-0.8,0.3-1.1,0.5l0.2,0.1c0.2-0.2,0.5-0.3,0.7-0.3l0.3,0.2L313,463.1
				z"/>
		</g>
		<g>
			<path fill="#010101" d="M311,465L311,465c-0.1-0.2-0.2-0.2-0.5-0.2c-0.1,0-0.4,0-0.7,0l-0.4,0.3l1.8,0.7l-0.2-0.5
				C311.1,465.2,311,465.1,311,465z"/>
		</g>
		<g>
			<path fill="#010101" d="M308.7,467.4c-0.3-0.4-0.7-0.7-1.3-0.9l-0.4,0.3c0.7,0.2,1.2,0.7,1.4,1.2l0.5-0.3
				C308.8,467.6,308.7,467.5,308.7,467.4z"/>
		</g>
		<g>
			<path fill="#010101" d="M304.5,470.3l-0.3,0c-0.1-0.1-0.4-0.1-0.6,0l-1.2-0.1l0.3,0.3l-0.2,0.1l0.3,0c0.1,0.1,0.4,0.1,0.6,0
				l1.2,0.1l-0.3-0.3L304.5,470.3z"/>
		</g>
		<g>
			<polygon fill="#010101" points="305.6,469.6 304.7,469.6 304.4,469.9 305.3,469.9 			"/>
		</g>
		<g>
			<path fill="#010101" d="M306.3,468.7c-0.2-0.3-0.7-0.5-1.3-0.4l-0.3,0.3c0.7-0.1,1.1,0.2,1.2,0.6l0.5-0.3
				C306.4,468.8,306.3,468.7,306.3,468.7z"/>
		</g>
		<g>
			<path fill="#010101" d="M302.9,471.4L302.9,471.4l-1.3-0.1l0.5,0.8l0.5-0.3c0,0,0,0,0,0c0,0,0.1-0.1,0.1-0.1
				C302.8,471.7,303,471.5,302.9,471.4z"/>
		</g>
		<g>
			<polygon fill="#010101" points="308.5,464 308,464.3 308.5,466 308.9,465.7 			"/>
		</g>
		<g>
			
				<rect x="304.6" y="464" transform="matrix(0.5285 0.8489 -0.8489 0.5285 537.7969 -39.8497)" fill="#010101" width="0.3" height="0.5"/>
		</g>
		<g>
			
				<rect x="308.7" y="460.2" transform="matrix(0.5285 0.8489 -0.8489 0.5285 536.5456 -45.2206)" fill="#010101" width="0.6" height="0.5"/>
		</g>
		<g>
			<path fill="#010101" d="M311,458.6c-0.1-0.2-0.3-0.3-0.6-0.3l-0.3,0.3c0.2,0,0.4,0.1,0.5,0.3L311,458.6
				C311,458.6,311,458.6,311,458.6z"/>
		</g>
		<g>
			
				<rect x="313.3" y="454.1" transform="matrix(0.5285 0.8489 -0.8489 0.5285 533.5829 -52.0584)" fill="#010101" width="0.8" height="0.5"/>
		</g>
		<g>
			<path fill="#010101" d="M302,463.8c-0.1-0.1-0.2-0.2-0.5-0.3l-0.4,0.3c0.3,0.1,0.4,0.2,0.4,0.5l0.5-0.2
				C302.1,463.9,302.1,463.8,302,463.8z"/>
		</g>
		<g>
			
				<rect x="305.9" y="459.9" transform="matrix(0.5285 0.8489 -0.8489 0.5285 535.0146 -43.0742)" fill="#010101" width="0.8" height="0.5"/>
		</g>
		<g>
			<polygon fill="#010101" points="306.2,463.2 305.8,463.4 305.5,464.8 305.9,464.6 			"/>
		</g>
	</g>
	<g>
		<g>
			<polygon fill="#010101" points="227.8,470.1 227.8,469.8 227.4,469.5 227.4,469.8 			"/>
		</g>
		<g>
			<polygon fill="#010101" points="230.5,472.2 230.4,471.9 230,471.7 230.1,472 			"/>
		</g>
		<g>
			<path fill="#010101" d="M230.4,473.8c0-0.4-0.2-1.1-0.6-1.6c-0.2-0.4-0.5-0.7-0.8-0.9l0,0.3c0.2,0.2,0.4,0.4,0.5,0.6
				c0.3,0.4,0.5,1,0.4,1.3L230.4,473.8z"/>
		</g>
		<g>
			<polygon fill="#010101" points="226.8,469.1 226.5,467.8 226.1,467.6 226.4,468.8 			"/>
		</g>
		<g>
			<path fill="#010101" d="M224,468.2c-0.2-0.3-0.4-0.6-0.5-0.8l-0.4-0.3c0.1,0.3,0.3,0.8,0.7,1.2L224,468.2z"/>
		</g>
		<g>
			<polygon fill="#010101" points="223.8,467.5 223.6,466.9 223.2,466.7 223.5,467.3 			"/>
		</g>
		<g>
			<path fill="#010101" d="M222.7,465.1c0.7-0.6,0.9-1.9,0.4-3.5l-0.4-0.3c0.5,1.8,0.2,3.2-0.8,3.6l0.3,0.4
				C222.5,465.3,222.6,465.2,222.7,465.1z"/>
		</g>
		<g>
			<path fill="#010101" d="M221.8,465.7c-0.2-0.2-0.4-0.4-0.6-0.5c-0.2-0.1-0.3,0-0.3,0.2l0.4,0.3c0-0.1,0-0.1,0.1,0
				c0,0,0.1,0.1,0.2,0.1L221.8,465.7z"/>
		</g>
		<g>
			<path fill="#010101" d="M220.5,466c0-0.9-0.3-2.1-0.9-3.4l-0.3-0.2c0.6,1.2,0.8,2.3,0.9,3.2L220.5,466z"/>
		</g>
		<g>
			<polygon fill="#010101" points="220.8,462.7 220.3,461.6 219.9,461.4 220.4,462.6 			"/>
		</g>
		<g>
			<path fill="#010101" d="M217.1,463l0-1.1c0-0.1,0.1-0.3,0-0.5l-0.4-1l0,1.1c0,0.1-0.1,0.3,0,0.4L217.1,463z"/>
		</g>
		<g>
			<path fill="#010101" d="M213.5,459.3c0,0,0.1-0.1,0.1-0.2c0-0.5-0.3-1.2-0.8-1.9l-0.2,0c0.4,0.6,0.7,1.2,0.7,1.5
				c0,0.1-0.2,0.1-0.4,0.1c-0.2,0-0.4,0-0.5,0.1l0.4,0.4c0-0.1,0.2-0.1,0.4-0.1C213.2,459.4,213.4,459.4,213.5,459.3z"/>
		</g>
		<g>
			<polygon fill="#010101" points="215.7,460.6 215.8,460.1 215.4,459.7 215.3,460.2 			"/>
		</g>
		<g>
			<polygon fill="#010101" points="210,457 210,456 209.6,455.6 209.6,456.6 			"/>
		</g>
		<g>
			<polygon fill="#010101" points="208.3,454.7 208.1,453.7 207.7,453.4 207.9,454.4 			"/>
		</g>
		<g>
			<polygon fill="#010101" points="213,454.6 211.9,452.2 211.5,452.1 212.6,454.5 			"/>
		</g>
		<g>
			<path fill="#010101" d="M215.7,457.5c0.3-0.9,0.2-2.2-0.3-3.8l-0.4-0.2c0.5,1.5,0.7,2.8,0.3,3.6L215.7,457.5z"/>
		</g>
		<g>
			<polygon fill="#010101" points="217.5,459.8 216.3,458.2 216.1,458.3 217.3,459.9 			"/>
		</g>
		<g>
			<path fill="#010101" d="M211.8,454.4l0-0.1c0-0.1,0-0.2,0.1-0.2l0,0c0.1-0.1,0.1-0.2-0.1-0.7l-0.4-1.1l0,1.6c0,0,0,0.1,0,0.1
				L211.8,454.4z"/>
		</g>
		<g>
			<polygon fill="#010101" points="210.9,455 210.7,454.3 210.3,454.1 210.5,454.8 			"/>
		</g>
		<g>
			<path fill="#010101" d="M207.2,454.6c0.6-0.5,0.8-1.6,0.5-3l-0.4-0.3c0.3,1.4,0.1,2.4-0.5,2.9L207.2,454.6
				C207.1,454.6,207.2,454.6,207.2,454.6z"/>
		</g>
		<g>
			<path fill="#010101" d="M206.1,453.1l0.1-0.4l0-0.1c-0.1-0.3-0.4-0.8-0.8-1.1l-0.1,0.2c0.2,0.2,0.4,0.4,0.5,0.6l-0.1,0.3
				L206.1,453.1z"/>
		</g>
		<g>
			<path fill="#010101" d="M203.9,451.2L203.9,451.2c0.1-0.1,0.1-0.3,0.1-0.5c0-0.1-0.1-0.4-0.1-0.7l-0.4-0.4l-0.2,1.9l0.5-0.2
				C203.7,451.3,203.8,451.2,203.9,451.2z"/>
		</g>
		<g>
			<path fill="#010101" d="M201.1,449.1c0.3-0.3,0.6-0.7,0.6-1.3l-0.4-0.4c-0.1,0.7-0.4,1.2-0.9,1.4l0.3,0.4
				C200.9,449.2,201,449.1,201.1,449.1z"/>
		</g>
		<g>
			<path fill="#010101" d="M197.5,445.2l0-0.3c0.1-0.2,0-0.4-0.1-0.6l-0.2-1.2l-0.2,0.3l-0.1-0.2l0,0.3c-0.1,0.2,0,0.4,0.1,0.6
				l0.2,1.2l0.2-0.3L197.5,445.2z"/>
		</g>
		<g>
			<polygon fill="#010101" points="198.4,446.1 198.2,445.3 197.8,445 198,445.9 			"/>
		</g>
		<g>
			<path fill="#010101" d="M199.4,446.8c0.3-0.2,0.3-0.7,0.1-1.4l-0.4-0.2c0.2,0.7,0.1,1.2-0.3,1.3l0.3,0.4
				C199.3,446.9,199.3,446.9,199.4,446.8z"/>
		</g>
		<g>
			<path fill="#010101" d="M196,443.7L196,443.7l-0.2-1.3l-0.7,0.6l0.4,0.4c0,0,0,0,0,0c0,0,0.1,0.1,0.1,0.1
				C195.8,443.6,196,443.7,196,443.7z"/>
		</g>
		<g>
			<polygon fill="#010101" points="204.3,448.6 203.9,448.2 202.4,448.8 202.7,449.2 			"/>
		</g>
		<g>
			
				<rect x="203.1" y="444.7" transform="matrix(-0.7632 0.6462 -0.6462 -0.7632 645.9369 653.1812)" fill="#010101" width="0.3" height="0.6"/>
		</g>
		<g>
			
				<rect x="207.5" y="448.6" transform="matrix(-0.7632 0.6462 -0.6462 -0.7632 656.4124 657.144)" fill="#010101" width="0.5" height="0.6"/>
		</g>
		<g>
			<path fill="#010101" d="M210,450.7c0.1-0.1,0.2-0.3,0.2-0.6l-0.4-0.3c0,0.2,0,0.4-0.1,0.5L210,450.7
				C210,450.7,210,450.7,210,450.7z"/>
		</g>
		<g>
			
				<rect x="214.2" y="452.8" transform="matrix(-0.7632 0.6462 -0.6462 -0.7632 671.0624 660.1604)" fill="#010101" width="0.7" height="0.6"/>
		</g>
		<g>
			<path fill="#010101" d="M203.2,442.2c0.1-0.1,0.2-0.3,0.2-0.5l-0.4-0.3c0,0.3-0.1,0.4-0.3,0.5l0.3,0.4
				C203,442.3,203.1,442.2,203.2,442.2z"/>
		</g>
		<g>
			
				<rect x="207.1" y="445.9" transform="matrix(-0.7632 0.6462 -0.6462 -0.7632 654.1736 652.5522)" fill="#010101" width="0.7" height="0.6"/>
		</g>
		<g>
			<polygon fill="#010101" points="204.6,446.3 204.3,445.9 202.9,445.7 203.2,446.1 			"/>
		</g>
	</g>
	<path fill="#010101" d="M227.8,415.7c0,0,26.1,9.9,63.1,0"/>
	<g>
		<path fill="#6B6C6C" d="M202.6,190.1c0,0-0.2,0.1-0.4,0.3c-0.3,0.2-0.7,0.6-1.3,1.1c-1.1,1-2.7,2.4-4.4,4.3
			c-0.9,0.9-1.8,2-2.7,3.1c-0.9,1.1-1.9,2.4-2.8,3.7c-0.9,1.3-1.8,2.7-2.7,4.2c-0.9,1.5-1.7,3-2.4,4.5c-0.4,0.8-0.7,1.6-1.1,2.4
			c-0.3,0.8-0.7,1.6-0.9,2.4c-0.6,1.6-1.1,3.2-1.5,4.8c-0.4,1.6-0.7,3.1-1,4.6c-0.1,0.7-0.2,1.5-0.3,2.2c-0.1,0.7-0.1,1.4-0.2,2
			c-0.1,1.3-0.1,2.5-0.2,3.6c0,1.1,0,2,0.1,2.8c0.1,1.5,0.2,2.4,0.2,2.4s-0.1-0.9-0.4-2.4c-0.1-0.8-0.2-1.7-0.3-2.8
			c-0.1-1.1-0.1-2.3-0.2-3.6c0-0.7,0-1.4,0-2.1c0-0.7,0.1-1.5,0.1-2.2c0.1-1.5,0.3-3.1,0.6-4.8c0.3-1.7,0.6-3.4,1.1-5.1
			c0.2-0.9,0.5-1.7,0.7-2.6c0.3-0.8,0.6-1.7,0.9-2.6c0.6-1.7,1.3-3.4,2.1-5c0.8-1.6,1.6-3.2,2.4-4.6c0.9-1.5,1.7-2.9,2.6-4.2
			c0.9-1.3,1.8-2.5,2.6-3.6c1.7-2.2,3.2-3.9,4.3-5c0.6-0.6,1-1,1.3-1.3c0.3-0.3,0.5-0.5,0.5-0.5L202.6,190.1z"/>
	</g>
	<g>
		<path fill="#6B6C6C" d="M167.3,188.5c0,0-0.1,0.1-0.2,0.4c-0.1,0.2-0.3,0.6-0.6,1c-0.3,0.5-0.5,1.1-0.9,1.7
			c-0.3,0.7-0.7,1.5-1,2.4c-0.2,0.4-0.4,0.9-0.5,1.4c-0.2,0.5-0.3,1-0.5,1.5c-0.4,1-0.6,2.1-1,3.3c-0.2,1.2-0.6,2.4-0.7,3.6
			c-0.2,1.2-0.4,2.5-0.5,3.8l-0.1,1.9c0,0.6,0,1.3,0,1.9c0,1.3,0.1,2.5,0.2,3.7c0.1,1.2,0.3,2.4,0.5,3.4c0.1,0.5,0.2,1.1,0.3,1.6
			c0.2,0.5,0.3,1,0.4,1.5c0.3,0.9,0.5,1.8,0.8,2.5c0.3,0.7,0.6,1.4,0.8,1.9c0.4,1.1,0.7,1.7,0.7,1.7s-0.3-0.6-0.9-1.6
			c-0.3-0.5-0.6-1.1-1-1.8c-0.4-0.7-0.7-1.6-1.1-2.5c-0.2-0.5-0.4-0.9-0.6-1.4c-0.2-0.5-0.3-1-0.5-1.6c-0.3-1.1-0.8-2.2-1-3.5
			c-0.3-1.2-0.6-2.5-0.7-3.8c-0.1-0.7-0.2-1.3-0.3-2c0-0.7-0.1-1.3-0.1-2c-0.1-1.4,0-2.7,0-4c0-1.3,0.2-2.6,0.3-3.9
			c0.2-1.3,0.3-2.5,0.6-3.6c0.1-0.6,0.2-1.1,0.4-1.7c0.1-0.5,0.3-1.1,0.4-1.5c0.2-1,0.6-1.9,0.8-2.7c0.3-0.8,0.5-1.5,0.8-2.1
			c0.2-0.6,0.4-1,0.6-1.4c0.1-0.3,0.2-0.5,0.2-0.5L167.3,188.5z"/>
	</g>
	<g>
		<path fill="#6B6C6C" d="M185.4,181.5c0,0-0.1,0.2-0.4,0.4c-0.3,0.3-0.7,0.8-1.2,1.3c-1,1.2-2.4,3-3.9,5.2c-1.5,2.2-3.2,4.9-4.7,8
			c-0.8,1.5-1.5,3.1-2.1,4.8c-0.6,1.7-1.2,3.4-1.7,5.1c-0.5,1.7-0.9,3.5-1.2,5.3c-0.2,0.9-0.3,1.8-0.4,2.6c-0.1,0.9-0.1,1.7-0.2,2.6
			c0,0.9,0,1.7-0.1,2.5c0,0.8,0.1,1.6,0.1,2.4c0.1,0.8,0.1,1.5,0.2,2.3c0.1,0.7,0.2,1.4,0.3,2.1c0.1,0.7,0.2,1.3,0.4,1.9
			c0.1,0.6,0.3,1.2,0.4,1.7c0.3,1.1,0.6,2,0.8,2.8c0.6,1.5,0.9,2.4,0.9,2.4s-0.4-0.8-1.1-2.3c-0.3-0.7-0.7-1.7-1.1-2.7
			c-0.2-0.5-0.4-1.1-0.6-1.7c-0.2-0.6-0.4-1.3-0.5-1.9c-0.2-0.7-0.4-1.4-0.5-2.1c-0.1-0.7-0.3-1.5-0.4-2.3c-0.1-0.8-0.2-1.6-0.3-2.5
			c0-0.9-0.1-1.7-0.1-2.6c0-0.9,0-1.8,0-2.7c0.1-0.9,0.1-1.8,0.2-2.8c0.2-1.9,0.4-3.7,0.8-5.6c0.3-1.9,0.8-3.7,1.4-5.5
			c0.6-1.8,1.1-3.5,1.8-5.2c1.3-3.3,2.8-6.3,4.2-8.8c1.4-2.5,2.7-4.5,3.7-5.9c0.5-0.7,0.9-1.2,1.2-1.6c0.3-0.4,0.5-0.6,0.5-0.6
			L185.4,181.5z"/>
	</g>
	<g>
		<path fill="#6B6C6C" d="M316.4,190c0,0,0.1,0.2,0.2,0.6c0.2,0.4,0.4,1.1,0.6,1.8c0.2,0.8,0.5,1.7,0.8,2.8c0.2,1.1,0.6,2.3,0.8,3.6
			c0.1,0.7,0.3,1.4,0.4,2.1c0.1,0.7,0.2,1.5,0.3,2.2c0.2,1.5,0.3,3.2,0.5,4.8c0,0.8,0.1,1.7,0.1,2.6c0,0.4,0,0.9,0,1.3
			c0,0.4,0,0.9,0,1.3c0,0.9-0.1,1.8-0.1,2.7c0,0.9-0.2,1.8-0.2,2.7c-0.1,0.9-0.1,1.8-0.3,2.7c-0.2,0.9-0.3,1.7-0.5,2.6
			c-0.2,1.7-0.8,3.4-1.2,5c-0.4,1.6-1,3.1-1.5,4.5c-0.3,0.7-0.5,1.4-0.8,2.1c-0.3,0.6-0.6,1.3-0.9,1.9c-0.6,1.2-1,2.3-1.6,3.2
			c-0.6,0.9-1,1.7-1.4,2.4c-0.8,1.3-1.2,2.1-1.2,2.1s0.4-0.8,1.1-2.2c0.3-0.7,0.7-1.5,1.2-2.5c0.5-1,0.8-2.1,1.3-3.3
			c0.2-0.6,0.5-1.2,0.7-1.9c0.2-0.7,0.4-1.4,0.6-2.1c0.4-1.4,0.9-2.9,1.1-4.5c0.3-1.6,0.6-3.2,0.7-4.9c0.1-0.8,0.2-1.7,0.2-2.5
			c0.1-0.9,0-1.7,0.1-2.6c0-0.9,0-1.7,0-2.6c0-0.9-0.1-1.7-0.1-2.5c0-0.4,0-0.8-0.1-1.3c-0.1-0.4-0.1-0.8-0.2-1.2
			c-0.1-0.8-0.2-1.6-0.3-2.4c-0.3-1.6-0.5-3.1-0.9-4.5c-0.2-0.7-0.3-1.4-0.5-2.1c-0.2-0.7-0.4-1.3-0.5-1.9c-0.3-1.2-0.7-2.3-1.1-3.3
			c-0.4-1-0.7-1.8-0.9-2.5c-0.3-0.7-0.5-1.2-0.7-1.5c-0.2-0.4-0.3-0.5-0.3-0.5L316.4,190z"/>
	</g>
	<g>
		<path fill="#6B6C6C" d="M331.8,197.4c0,0,0.1,0.1,0.2,0.4c0.1,0.3,0.3,0.7,0.5,1.1c0.4,0.9,0.9,2.3,1.3,3.9
			c0.5,1.6,0.9,3.6,1.2,5.6c0.2,1,0.2,2.1,0.3,3.2c0,0.6,0,1.1,0,1.7l0,0.8l0,0.8l-0.1,1.7c0,0.6-0.1,1.1-0.2,1.6
			c-0.1,0.5-0.2,1.1-0.2,1.6c-0.1,0.5-0.3,1-0.4,1.5c-0.1,0.5-0.2,1-0.4,1.5c-0.2,0.5-0.3,0.9-0.5,1.4c-0.2,0.4-0.3,0.9-0.5,1.3
			c-0.2,0.4-0.4,0.8-0.6,1.1c-0.4,0.7-0.7,1.4-1,2c-0.4,0.5-0.7,1-0.9,1.4c-0.5,0.8-0.8,1.2-0.8,1.2s0.2-0.5,0.6-1.3
			c0.2-0.4,0.4-0.9,0.7-1.5c0.2-0.6,0.4-1.3,0.7-2.1c0.1-0.4,0.3-0.8,0.4-1.2c0.1-0.4,0.2-0.8,0.3-1.3c0.1-0.4,0.2-0.9,0.3-1.4
			c0.1-0.5,0.1-1,0.2-1.4c0-0.5,0.1-1,0.1-1.5c0-0.5,0-1,0-1.5c0-0.5,0-1,0-1.5l-0.1-1.5l-0.1-0.8l-0.1-0.8c-0.1-0.5-0.2-1-0.3-1.5
			c-0.2-1-0.5-2-0.7-2.9c-0.6-1.8-1.2-3.5-1.8-4.9c-0.6-1.4-1.2-2.5-1.7-3.3c-0.2-0.4-0.4-0.7-0.5-0.8c-0.1-0.2-0.2-0.3-0.2-0.3
			L331.8,197.4z"/>
	</g>
</g>
</svg>
